G04 Layer_Physical_Order=1*
G04 Layer_Color=255*
%FSLAX44Y44*%
%MOMM*%
G71*
G01*
G75*
%ADD10R,0.7000X0.9000*%
%ADD11R,1.1400X1.2000*%
%ADD12R,1.5000X2.6000*%
%ADD13R,1.2000X1.1400*%
%ADD14R,0.8500X0.4000*%
%ADD15O,1.4500X0.6000*%
%ADD16R,1.4500X0.6000*%
%ADD17O,1.5500X0.2500*%
%ADD18O,0.2500X1.5500*%
%ADD19R,1.8000X2.0000*%
%ADD20R,1.0500X0.9000*%
%ADD21R,1.0500X3.1000*%
%ADD22R,10.4500X9.6000*%
%ADD23R,1.0500X4.1000*%
%ADD24C,0.2000*%
%ADD25C,1.5000*%
%ADD26C,0.5000*%
%ADD27C,1.0000*%
%ADD28C,0.3000*%
%ADD29C,8.0000*%
%ADD30C,2.7000*%
%ADD31C,1.0000*%
%ADD32C,1.5000*%
%ADD33R,1.5000X1.5000*%
%ADD34R,1.5000X1.5000*%
%ADD35C,0.8000*%
G36*
X948596Y645458D02*
X955637Y643968D01*
X962424Y641572D01*
X968839Y638311D01*
X974774Y634239D01*
X980127Y629428D01*
X984806Y623960D01*
X988731Y617927D01*
X991836Y611434D01*
X994066Y604591D01*
X995384Y597516D01*
X995767Y590329D01*
X995209Y583154D01*
X993718Y576113D01*
X991322Y569326D01*
X988060Y562910D01*
X983989Y556976D01*
X979178Y551623D01*
X973710Y546944D01*
X967678Y543019D01*
X961037Y539844D01*
X869049Y503049D01*
X868870Y502932D01*
X868664Y502875D01*
X862594Y499826D01*
X862259Y499565D01*
X861874Y499384D01*
X856407Y495352D01*
X856122Y495038D01*
X855773Y494795D01*
X851068Y489895D01*
X850839Y489537D01*
X850537Y489239D01*
X846728Y483614D01*
X846563Y483222D01*
X846316Y482877D01*
X843515Y476688D01*
X843418Y476275D01*
X843233Y475893D01*
X841519Y469319D01*
X841494Y468895D01*
X841376Y468488D01*
X840799Y461718D01*
X840823Y461506D01*
X840781Y461297D01*
Y41217D01*
X840231Y34920D01*
X838651Y29025D01*
X836072Y23494D01*
X832571Y18494D01*
X828256Y14179D01*
X823256Y10678D01*
X817725Y8099D01*
X811830Y6519D01*
X805533Y5968D01*
X275933D01*
X269745Y6500D01*
X263946Y8026D01*
X258492Y10518D01*
X253543Y13905D01*
X249245Y18087D01*
X245723Y22941D01*
X243082Y28324D01*
X241397Y34079D01*
X240672Y40462D01*
X240672Y40462D01*
X239916Y47175D01*
X239788Y47578D01*
X239752Y47999D01*
X237875Y54494D01*
X237680Y54869D01*
X237574Y55279D01*
X234630Y61365D01*
X234375Y61702D01*
X234201Y62087D01*
X230274Y67591D01*
X229966Y67880D01*
X229730Y68231D01*
X224932Y72994D01*
X224580Y73228D01*
X224288Y73534D01*
X218756Y77421D01*
X218370Y77592D01*
X218031Y77844D01*
X211923Y80744D01*
X211513Y80847D01*
X211136Y81039D01*
X206183Y82431D01*
X206321Y83431D01*
X236522D01*
X305477Y14477D01*
X306634Y13703D01*
X308000Y13431D01*
X554175D01*
X554721Y12721D01*
X555974Y11759D01*
X557434Y11154D01*
X559000Y10948D01*
X560566Y11154D01*
X562026Y11759D01*
X563279Y12721D01*
X564241Y13974D01*
X564846Y15434D01*
X565052Y17000D01*
X564846Y18566D01*
X564241Y20026D01*
X563279Y21279D01*
X562026Y22241D01*
X560566Y22845D01*
X559000Y23052D01*
X557434Y22845D01*
X555974Y22241D01*
X554721Y21279D01*
X554175Y20569D01*
X309478D01*
X240523Y89523D01*
X239366Y90297D01*
X238000Y90569D01*
X135201D01*
X134818Y91493D01*
X145163Y101837D01*
X145826Y102830D01*
X146059Y104000D01*
X146059Y104000D01*
Y109500D01*
X150700D01*
Y125500D01*
X135300D01*
Y109500D01*
X139941D01*
Y105267D01*
X130411Y95737D01*
X77042D01*
X76316Y96989D01*
X75010Y98289D01*
X73411Y99207D01*
X71630Y99680D01*
X69787Y99676D01*
X68008Y99195D01*
X66414Y98270D01*
X65113Y96964D01*
X64195Y95365D01*
X63722Y93584D01*
X63726Y91741D01*
X64207Y89962D01*
X65132Y88367D01*
X66439Y87067D01*
X68037Y86149D01*
X69818Y85676D01*
X71661Y85680D01*
X73441Y86161D01*
X75035Y87086D01*
X76335Y88392D01*
X77040Y89619D01*
X114500D01*
X114915Y88619D01*
X95660Y69364D01*
X94830Y69584D01*
X92987Y69580D01*
X91208Y69099D01*
X89614Y68174D01*
X88314Y66868D01*
X87902Y66151D01*
X70627D01*
X66389Y70389D01*
X49574Y87204D01*
X49794Y88033D01*
X49790Y89876D01*
X49309Y91655D01*
X48384Y93250D01*
X47077Y94550D01*
X45479Y95468D01*
X43698Y95941D01*
X41855Y95937D01*
X40075Y95456D01*
X38481Y94530D01*
X37181Y93224D01*
X36263Y91626D01*
X35790Y89845D01*
X35794Y88001D01*
X36275Y86222D01*
X37200Y84628D01*
X38507Y83328D01*
X40105Y82410D01*
X41886Y81937D01*
X43729Y81941D01*
X44527Y82157D01*
X58319Y68365D01*
X43010Y53056D01*
X42236Y51898D01*
X41964Y50533D01*
Y37503D01*
X41223Y37073D01*
X39922Y35767D01*
X39004Y34169D01*
X38531Y32387D01*
X38535Y30544D01*
X39016Y28765D01*
X39941Y27171D01*
X41247Y25870D01*
X42845Y24952D01*
X44626Y24479D01*
X46469Y24483D01*
X48249Y24964D01*
X49843Y25889D01*
X51143Y27195D01*
X52062Y28793D01*
X52535Y30574D01*
X52531Y32417D01*
X52050Y34197D01*
X51125Y35791D01*
X49819Y37091D01*
X49101Y37503D01*
Y49055D01*
X63365Y63319D01*
X66625Y60059D01*
X67783Y59285D01*
X69149Y59014D01*
X87902D01*
X88333Y58272D01*
X89639Y56971D01*
X91237Y56053D01*
X93019Y55580D01*
X94862Y55584D01*
X96641Y56066D01*
X98235Y56991D01*
X99535Y58297D01*
X100453Y59895D01*
X100927Y61676D01*
X100922Y63520D01*
X100707Y64318D01*
X119820Y83431D01*
X185350D01*
X185467Y82431D01*
X182084Y81626D01*
X181700Y81450D01*
X181286Y81364D01*
X175067Y78713D01*
X174718Y78475D01*
X174324Y78320D01*
X168640Y74659D01*
X168487Y74511D01*
X168296Y74417D01*
X94476Y17514D01*
X88365Y13411D01*
X81917Y10214D01*
X75107Y7885D01*
X68052Y6466D01*
X60871Y5979D01*
X53689Y6434D01*
X46627Y7823D01*
X39806Y10121D01*
X33345Y13290D01*
X30861Y14941D01*
X31164Y15941D01*
X75000D01*
X75000Y15941D01*
X76171Y16174D01*
X77163Y16837D01*
X85360Y25034D01*
X85360Y25034D01*
X86023Y26026D01*
X86256Y27197D01*
Y30203D01*
X87507Y30929D01*
X88808Y32235D01*
X89726Y33833D01*
X90199Y35614D01*
X90195Y37457D01*
X89714Y39237D01*
X88789Y40831D01*
X87483Y42132D01*
X85885Y43050D01*
X84104Y43523D01*
X82261Y43519D01*
X80481Y43038D01*
X78887Y42113D01*
X77587Y40807D01*
X76668Y39209D01*
X76195Y37428D01*
X76199Y35584D01*
X76680Y33805D01*
X77605Y32211D01*
X78911Y30910D01*
X80138Y30205D01*
Y28464D01*
X73733Y22059D01*
X31267D01*
X18059Y35267D01*
Y80683D01*
X20017Y82641D01*
X20941Y82259D01*
Y58128D01*
X20941Y58128D01*
X21174Y56957D01*
X21712Y56153D01*
X21327Y54704D01*
X21331Y52861D01*
X21812Y51082D01*
X22738Y49488D01*
X24044Y48188D01*
X25642Y47270D01*
X27423Y46797D01*
X29267Y46801D01*
X31046Y47282D01*
X32640Y48207D01*
X33940Y49513D01*
X34858Y51111D01*
X35331Y52893D01*
X35327Y54736D01*
X34846Y56515D01*
X33921Y58109D01*
X32615Y59410D01*
X31016Y60328D01*
X29235Y60801D01*
X28059Y60798D01*
X27059Y61659D01*
Y68331D01*
X28059Y68464D01*
X28113Y68264D01*
X29170Y66442D01*
X30663Y64956D01*
X31178Y64661D01*
X34174Y71940D01*
X37169Y79219D01*
X36596Y79371D01*
X34489Y79366D01*
X32456Y78817D01*
X30634Y77759D01*
X29148Y76266D01*
X28099Y74440D01*
X28059Y74289D01*
X27059Y74419D01*
Y84733D01*
X43267Y100941D01*
X119000D01*
X119000Y100941D01*
X120170Y101174D01*
X121163Y101837D01*
X125163Y105837D01*
X125163Y105837D01*
X125826Y106830D01*
X126059Y108000D01*
X126059Y108000D01*
Y109500D01*
X130700D01*
Y125500D01*
X115300D01*
Y109500D01*
X118760D01*
X119174Y108500D01*
X117733Y107059D01*
X45741D01*
X45359Y107983D01*
X51817Y114441D01*
X95300D01*
Y109500D01*
X110700D01*
Y125500D01*
X95300D01*
Y120559D01*
X50550D01*
X50550Y120559D01*
X49380Y120326D01*
X48387Y119663D01*
X48387Y119663D01*
X12837Y84113D01*
X12174Y83120D01*
X11941Y81950D01*
X11941Y81950D01*
Y38036D01*
X10968Y37808D01*
X9964Y39832D01*
X7635Y46642D01*
X6216Y53698D01*
X5729Y60879D01*
X6184Y68061D01*
X7573Y75123D01*
X9871Y81944D01*
X13040Y88405D01*
X17025Y94398D01*
X21759Y99820D01*
X27282Y104685D01*
X127235Y181733D01*
X127376Y181894D01*
X127560Y182005D01*
X132585Y186613D01*
X132837Y186957D01*
X133159Y187236D01*
X137329Y192631D01*
X137519Y193012D01*
X137788Y193342D01*
X140981Y199366D01*
X141103Y199774D01*
X141313Y200145D01*
X143436Y206624D01*
X143488Y207047D01*
X143631Y207449D01*
X144623Y214194D01*
X144602Y214620D01*
X144675Y215039D01*
X144508Y221855D01*
X144414Y222271D01*
X144415Y222697D01*
X143092Y229386D01*
X142930Y229780D01*
X142858Y230200D01*
X140419Y236566D01*
X140339Y236693D01*
X140305Y236839D01*
X130780Y257864D01*
X122399Y279231D01*
X116880Y295760D01*
X117754Y296300D01*
X166830Y247225D01*
X168815Y245702D01*
X171126Y244744D01*
X173605Y244418D01*
X269000D01*
X271480Y244744D01*
X273791Y245702D01*
X275776Y247225D01*
X281800Y253249D01*
X282800Y252835D01*
Y246000D01*
X290000D01*
Y253500D01*
X283465D01*
X283051Y254500D01*
X303969Y275418D01*
X653031D01*
X717225Y211224D01*
X719209Y209702D01*
X721520Y208745D01*
X724000Y208418D01*
X786000D01*
X788480Y208745D01*
X790791Y209702D01*
X792775Y211224D01*
X794298Y213209D01*
X795256Y215520D01*
X795582Y218000D01*
X795256Y220480D01*
X794298Y222791D01*
X792775Y224775D01*
X790791Y226298D01*
X788480Y227255D01*
X786000Y227582D01*
X727969D01*
X723975Y231576D01*
X724358Y232500D01*
X731500D01*
Y241500D01*
X722500D01*
Y234357D01*
X721576Y233975D01*
X663775Y291775D01*
X661791Y293298D01*
X659480Y294255D01*
X657000Y294582D01*
X300000D01*
X297520Y294255D01*
X295209Y293298D01*
X293225Y291775D01*
X265031Y263582D01*
X177575D01*
X132582Y308575D01*
Y343031D01*
X171375Y381824D01*
X172898Y383809D01*
X173855Y386120D01*
X174182Y388600D01*
Y409500D01*
X174182Y409500D01*
Y426400D01*
X173855Y428880D01*
X172898Y431191D01*
X171376Y433175D01*
X169391Y434698D01*
X167080Y435655D01*
X164600Y435982D01*
X162120Y435655D01*
X159809Y434698D01*
X157825Y433175D01*
X156302Y431191D01*
X155344Y428880D01*
X155018Y426400D01*
Y417560D01*
X127700D01*
Y418500D01*
X112300D01*
Y402500D01*
X127700D01*
Y403440D01*
X155018D01*
Y392569D01*
X116225Y353775D01*
X114702Y351791D01*
X113745Y349480D01*
X113418Y347000D01*
Y310879D01*
X112427Y310744D01*
X108994Y323120D01*
X104006Y345525D01*
X100180Y368157D01*
X97525Y390956D01*
X96050Y413862D01*
X95758Y436813D01*
X96650Y459748D01*
X98734Y482735D01*
X98718Y482884D01*
X98752Y483030D01*
X98963Y489845D01*
X98892Y490265D01*
X98917Y490691D01*
X97967Y497442D01*
X97826Y497844D01*
X97778Y498268D01*
X95695Y504760D01*
X95488Y505132D01*
X95369Y505541D01*
X92214Y511586D01*
X91946Y511917D01*
X91759Y512300D01*
X87623Y517721D01*
X87304Y518003D01*
X87054Y518348D01*
X82058Y522987D01*
X81695Y523211D01*
X81391Y523508D01*
X75679Y527232D01*
X75284Y527391D01*
X74933Y527632D01*
X68672Y530332D01*
X68462Y530377D01*
X68276Y530483D01*
X48901Y536941D01*
X49064Y537941D01*
X80733D01*
X110941Y507733D01*
Y506500D01*
X106300D01*
Y490500D01*
X121700D01*
Y506500D01*
X117059D01*
Y509000D01*
X117059Y509000D01*
X116826Y510171D01*
X116163Y511163D01*
X116163Y511163D01*
X84163Y543163D01*
X83170Y543826D01*
X82000Y544059D01*
X82000Y544059D01*
X49267D01*
X14059Y579267D01*
Y600733D01*
X24144Y610818D01*
X30326D01*
X30360Y610719D01*
X31392Y609192D01*
X32785Y607985D01*
X34442Y607179D01*
X36252Y606829D01*
X38091Y606960D01*
X39833Y607562D01*
X41359Y608595D01*
X42567Y609987D01*
X43373Y611645D01*
X43723Y613454D01*
X43592Y615293D01*
X42990Y617035D01*
X41957Y618562D01*
X40565Y619769D01*
X38907Y620575D01*
X37097Y620925D01*
X35259Y620794D01*
X33517Y620192D01*
X31990Y619159D01*
X30783Y617767D01*
X30378Y616936D01*
X22877D01*
X21706Y616703D01*
X20714Y616040D01*
X20714Y616040D01*
X8837Y604163D01*
X8174Y603171D01*
X7259Y603465D01*
X8553Y608399D01*
X11270Y615063D01*
X14834Y621316D01*
X19184Y627050D01*
X24245Y632167D01*
X29931Y636579D01*
X36144Y640212D01*
X42778Y643003D01*
X49720Y644904D01*
X56850Y645882D01*
X64047Y645922D01*
X71187Y645022D01*
X78307Y643156D01*
X421908Y528622D01*
X422108Y528597D01*
X422291Y528511D01*
X428515Y526978D01*
X428915Y526960D01*
X429301Y526850D01*
X435690Y526331D01*
X436088Y526377D01*
X436486Y526330D01*
X442876Y526838D01*
X443262Y526947D01*
X443662Y526965D01*
X449889Y528487D01*
X450252Y528656D01*
X450645Y528737D01*
X456549Y531234D01*
X456880Y531459D01*
X457255Y531602D01*
X462684Y535010D01*
X462751Y535074D01*
X462836Y535110D01*
X472404Y541616D01*
X482314Y547156D01*
X492670Y551811D01*
X503392Y555545D01*
X514399Y558329D01*
X525607Y560142D01*
X536931Y560971D01*
X548283Y560808D01*
X559578Y559656D01*
X570730Y557523D01*
X581653Y554426D01*
X592264Y550387D01*
X602482Y545438D01*
X612416Y539505D01*
X612503Y539474D01*
X612574Y539415D01*
X618194Y536332D01*
X618576Y536211D01*
X618920Y536006D01*
X624960Y533860D01*
X625357Y533802D01*
X625730Y533654D01*
X632035Y532500D01*
X632436Y532506D01*
X632827Y532420D01*
X639236Y532288D01*
X639631Y532358D01*
X640031Y532336D01*
X646378Y533229D01*
X646757Y533362D01*
X647155Y533403D01*
X653279Y535299D01*
X653456Y535395D01*
X653654Y535432D01*
X865385Y620125D01*
X865947Y619272D01*
X837837Y591163D01*
X837174Y590171D01*
X836941Y589000D01*
X836941Y589000D01*
Y567500D01*
X832300D01*
Y551500D01*
X847700D01*
Y567500D01*
X843059D01*
Y587733D01*
X870267Y614941D01*
X921769D01*
X923047Y614182D01*
X924822Y613683D01*
X926665Y613661D01*
X928451Y614116D01*
X930058Y615018D01*
X931377Y616305D01*
X932318Y617890D01*
X932817Y619664D01*
X932840Y621507D01*
X932384Y623293D01*
X931482Y624901D01*
X930195Y626220D01*
X928610Y627161D01*
X926836Y627660D01*
X924993Y627682D01*
X923207Y627227D01*
X921599Y626325D01*
X920280Y625038D01*
X919339Y623453D01*
X918841Y621679D01*
X918833Y621059D01*
X870413D01*
X870220Y622059D01*
X920161Y642035D01*
X927159Y644316D01*
X934234Y645634D01*
X941421Y646017D01*
X948596Y645458D01*
D02*
G37*
%LPC*%
G36*
X218000Y124700D02*
X210500D01*
Y117500D01*
X218000D01*
Y124700D01*
D02*
G37*
G36*
X228500D02*
X221000D01*
Y117500D01*
X228500D01*
Y124700D01*
D02*
G37*
G36*
X267700Y119500D02*
X260500D01*
Y112000D01*
X267700D01*
Y119500D01*
D02*
G37*
G36*
X473500Y121500D02*
X466300D01*
Y114000D01*
X473500D01*
Y121500D01*
D02*
G37*
G36*
X483700D02*
X476500D01*
Y114000D01*
X483700D01*
Y121500D01*
D02*
G37*
G36*
X228500Y144700D02*
X221000D01*
Y137500D01*
X228500D01*
Y144700D01*
D02*
G37*
G36*
X549500Y153500D02*
X540750D01*
Y149000D01*
X549500D01*
Y153500D01*
D02*
G37*
G36*
X218000Y144700D02*
X210500D01*
Y137500D01*
X218000D01*
Y144700D01*
D02*
G37*
G36*
Y134500D02*
X210500D01*
Y127300D01*
X218000D01*
Y134500D01*
D02*
G37*
G36*
X228500D02*
X221000D01*
Y127300D01*
X228500D01*
Y134500D01*
D02*
G37*
G36*
X257500Y119500D02*
X250300D01*
Y112000D01*
X257500D01*
Y119500D01*
D02*
G37*
G36*
X483700Y111000D02*
X476500D01*
Y103500D01*
X483700D01*
Y111000D01*
D02*
G37*
G36*
X495000Y110200D02*
X486250D01*
Y105700D01*
X495000D01*
Y110200D01*
D02*
G37*
G36*
X473500Y111000D02*
X466300D01*
Y103500D01*
X473500D01*
Y111000D01*
D02*
G37*
G36*
X257500Y109000D02*
X250300D01*
Y101500D01*
X257500D01*
Y109000D01*
D02*
G37*
G36*
X267700D02*
X260500D01*
Y101500D01*
X267700D01*
Y109000D01*
D02*
G37*
G36*
X228500Y114500D02*
X221000D01*
Y107300D01*
X228500D01*
Y114500D01*
D02*
G37*
G36*
X505750Y121900D02*
X487250D01*
Y111900D01*
X505750D01*
Y121900D01*
D02*
G37*
G36*
X218000Y114500D02*
X210500D01*
Y107300D01*
X218000D01*
Y114500D01*
D02*
G37*
G36*
X506750Y110200D02*
X498000D01*
Y105700D01*
X506750D01*
Y110200D01*
D02*
G37*
G36*
X656000Y119500D02*
X645000D01*
Y116059D01*
X638000D01*
X636829Y115826D01*
X635837Y115163D01*
X630337Y109663D01*
X629674Y108671D01*
X629441Y107500D01*
X629441Y107500D01*
Y101198D01*
X628250D01*
X626299Y100810D01*
X624645Y99705D01*
X623540Y98051D01*
X623152Y96100D01*
X623540Y94149D01*
X624645Y92495D01*
X626299Y91390D01*
X628250Y91002D01*
X636750D01*
X638701Y91390D01*
X640355Y92495D01*
X641460Y94149D01*
X641848Y96100D01*
X641460Y98051D01*
X640355Y99705D01*
X638701Y100810D01*
X636750Y101198D01*
X635559D01*
Y106233D01*
X639267Y109941D01*
X645000D01*
Y106500D01*
X656000D01*
Y119500D01*
D02*
G37*
G36*
X561250Y153500D02*
X552500D01*
Y149000D01*
X561250D01*
Y153500D01*
D02*
G37*
G36*
X403000Y200700D02*
X395500D01*
Y193500D01*
X403000D01*
Y200700D01*
D02*
G37*
G36*
X413500D02*
X406000D01*
Y193500D01*
X413500D01*
Y200700D01*
D02*
G37*
G36*
X202200Y214000D02*
X180200D01*
Y190000D01*
X202200D01*
Y214000D01*
D02*
G37*
G36*
X240500Y200500D02*
X230000D01*
Y189000D01*
X240500D01*
Y200500D01*
D02*
G37*
G36*
X254000D02*
X243500D01*
Y189000D01*
X254000D01*
Y200500D01*
D02*
G37*
G36*
X435700Y236000D02*
X416700D01*
Y223489D01*
X410799Y217588D01*
X390000D01*
X388244Y217239D01*
X386756Y216244D01*
X382256Y211744D01*
X381261Y210256D01*
X380912Y208500D01*
Y199700D01*
X377500D01*
Y194559D01*
X367022D01*
X367018Y194561D01*
X365750Y194814D01*
X352750D01*
X351482Y194561D01*
X350407Y193843D01*
X349689Y192768D01*
X349436Y191500D01*
X349689Y190232D01*
X349996Y189771D01*
X349686Y189564D01*
X348747Y188158D01*
X348715Y188000D01*
X359250D01*
Y185000D01*
X348715D01*
X348747Y184842D01*
X349686Y183436D01*
X349996Y183229D01*
X349689Y182768D01*
X349436Y181500D01*
X349689Y180232D01*
X350407Y179157D01*
Y178843D01*
X349689Y177768D01*
X349436Y176500D01*
X349689Y175232D01*
X350407Y174157D01*
Y173843D01*
X349689Y172768D01*
X349436Y171500D01*
X349689Y170232D01*
X350407Y169157D01*
Y168843D01*
X349689Y167768D01*
X349436Y166500D01*
X349689Y165232D01*
X350407Y164157D01*
Y163843D01*
X349689Y162768D01*
X349436Y161500D01*
X349689Y160232D01*
X350407Y159157D01*
Y158843D01*
X349689Y157768D01*
X349436Y156500D01*
X349689Y155232D01*
X350407Y154157D01*
Y153843D01*
X349689Y152768D01*
X349436Y151500D01*
X349689Y150232D01*
X350407Y149157D01*
Y148843D01*
X349689Y147768D01*
X349436Y146500D01*
X349689Y145232D01*
X350407Y144157D01*
Y143843D01*
X349689Y142768D01*
X349436Y141500D01*
X349689Y140232D01*
X350407Y139157D01*
Y138843D01*
X349689Y137768D01*
X349436Y136500D01*
X349689Y135232D01*
X350407Y134157D01*
X351482Y133439D01*
X352750Y133186D01*
X356191D01*
Y131750D01*
X356191Y131750D01*
X356424Y130580D01*
X357087Y129587D01*
X370837Y115837D01*
X370837Y115837D01*
X371829Y115174D01*
X373000Y114941D01*
X394983D01*
X400837Y109087D01*
X400837Y109087D01*
X401829Y108424D01*
X403000Y108191D01*
X429233D01*
X457649Y79775D01*
X457448Y78250D01*
X457654Y76684D01*
X458259Y75224D01*
X459221Y73971D01*
X460474Y73009D01*
X461934Y72404D01*
X463500Y72198D01*
X465066Y72404D01*
X466526Y73009D01*
X467779Y73971D01*
X468741Y75224D01*
X469346Y76684D01*
X469552Y78250D01*
X469346Y79816D01*
X468741Y81276D01*
X467779Y82529D01*
X466526Y83491D01*
X465066Y84095D01*
X463500Y84302D01*
X461975Y84101D01*
X435308Y110767D01*
X435691Y111691D01*
X442450D01*
X442450Y111691D01*
X443620Y111924D01*
X444613Y112587D01*
X458567Y126541D01*
X487250D01*
Y124600D01*
X505750D01*
Y134600D01*
X487250D01*
Y132659D01*
X461041D01*
X460658Y133583D01*
X466317Y139241D01*
X487250D01*
Y137300D01*
X505750D01*
Y147300D01*
X487250D01*
Y145359D01*
X465050D01*
X465050Y145359D01*
X463880Y145126D01*
X462887Y144463D01*
X462887Y144463D01*
X439733Y121309D01*
X429500D01*
Y140100D01*
X414826D01*
X399763Y155163D01*
X399536Y155315D01*
X399241Y156026D01*
X398279Y157279D01*
X397992Y157500D01*
Y158500D01*
X398279Y158721D01*
X399216Y159941D01*
X410450D01*
X411006Y159110D01*
X410745Y158480D01*
X410418Y156000D01*
X410745Y153520D01*
X411702Y151209D01*
X413224Y149225D01*
X415209Y147702D01*
X417520Y146744D01*
X420000Y146418D01*
X422480Y146744D01*
X424791Y147702D01*
X426775Y149225D01*
X428298Y151209D01*
X429255Y153520D01*
X429582Y156000D01*
X429255Y158480D01*
X428298Y160791D01*
X426775Y162775D01*
X424791Y164298D01*
X422480Y165255D01*
X420000Y165582D01*
X417520Y165255D01*
X415788Y164538D01*
X415163Y165163D01*
X414170Y165826D01*
X413000Y166059D01*
X413000Y166059D01*
X399216D01*
X398279Y167279D01*
X398068Y167441D01*
X398408Y168441D01*
X450284D01*
X451221Y167221D01*
X452474Y166259D01*
X453934Y165655D01*
X455500Y165448D01*
X457066Y165655D01*
X458526Y166259D01*
X459779Y167221D01*
X460741Y168474D01*
X461346Y169934D01*
X461552Y171500D01*
X461346Y173066D01*
X460776Y174441D01*
X461036Y175172D01*
X461169Y175441D01*
X470233D01*
X474337Y171337D01*
X474337Y171337D01*
X475329Y170674D01*
X476500Y170441D01*
X510300D01*
Y165500D01*
X525700D01*
Y181500D01*
X510300D01*
Y176559D01*
X477767D01*
X473663Y180663D01*
X472671Y181326D01*
X471500Y181559D01*
X471500Y181559D01*
X442500D01*
X442500Y181559D01*
X441329Y181326D01*
X440337Y180663D01*
X440337Y180663D01*
X439233Y179559D01*
X438191D01*
X437808Y180483D01*
X465767Y208441D01*
X510300D01*
Y203500D01*
X525700D01*
Y219500D01*
X510300D01*
Y214559D01*
X464500D01*
X463330Y214326D01*
X462337Y213663D01*
X462337Y213663D01*
X433233Y184559D01*
X413500D01*
Y190500D01*
X404500D01*
X395500D01*
Y184559D01*
X393500D01*
Y199700D01*
X390088D01*
Y206600D01*
X391900Y208412D01*
X412700D01*
X414456Y208761D01*
X415944Y209756D01*
X423189Y217000D01*
X435700D01*
Y236000D01*
D02*
G37*
G36*
X475500Y225000D02*
X466607D01*
X466770Y223759D01*
X467828Y221205D01*
X469511Y219011D01*
X471705Y217328D01*
X474259Y216270D01*
X475500Y216107D01*
Y225000D01*
D02*
G37*
G36*
X254000Y215000D02*
X243500D01*
Y203500D01*
X254000D01*
Y215000D01*
D02*
G37*
G36*
X552500Y203000D02*
X533500D01*
Y195559D01*
X525700D01*
Y200500D01*
X510300D01*
Y184500D01*
X525700D01*
Y189441D01*
X533500D01*
Y173000D01*
X552500D01*
Y203000D01*
D02*
G37*
G36*
X240500Y215000D02*
X230000D01*
Y203500D01*
X240500D01*
Y215000D01*
D02*
G37*
G36*
X786000Y202582D02*
X783520Y202255D01*
X781209Y201298D01*
X779225Y199775D01*
X777702Y197791D01*
X776745Y195480D01*
X776418Y193000D01*
X776745Y190520D01*
X777462Y188788D01*
X773733Y185059D01*
X759000D01*
X759000Y185059D01*
X757830Y184826D01*
X756837Y184163D01*
X746837Y174163D01*
X746174Y173171D01*
X745941Y172000D01*
X745941Y172000D01*
Y79924D01*
X735426Y69409D01*
X700867D01*
X697413Y72863D01*
X696421Y73526D01*
X696250Y73560D01*
Y75700D01*
X677750D01*
Y65700D01*
X695924D01*
X696774Y64850D01*
Y63850D01*
X695924Y63000D01*
X677750D01*
Y53000D01*
X696250D01*
Y55140D01*
X696421Y55174D01*
X697413Y55837D01*
X700867Y59291D01*
X738350D01*
X738350Y59291D01*
X739520Y59524D01*
X740513Y60187D01*
X755163Y74837D01*
X755163Y74837D01*
X755826Y75830D01*
X756059Y77000D01*
X756059Y77000D01*
Y169076D01*
X761924Y174941D01*
X774733D01*
X777462Y172212D01*
X776745Y170480D01*
X776418Y168000D01*
X776745Y165520D01*
X777702Y163209D01*
X779225Y161224D01*
X781209Y159702D01*
X783520Y158744D01*
X786000Y158418D01*
X788480Y158744D01*
X790791Y159702D01*
X792775Y161224D01*
X794298Y163209D01*
X795256Y165520D01*
X795582Y168000D01*
X795256Y170480D01*
X794298Y172791D01*
X792775Y174775D01*
X790791Y176298D01*
X788480Y177255D01*
X786000Y177582D01*
X783520Y177255D01*
X781788Y176538D01*
X778163Y180163D01*
X778102Y180777D01*
X781788Y184462D01*
X783520Y183745D01*
X786000Y183418D01*
X788480Y183745D01*
X790791Y184702D01*
X792775Y186224D01*
X794298Y188209D01*
X795256Y190520D01*
X795582Y193000D01*
X795256Y195480D01*
X794298Y197791D01*
X792775Y199775D01*
X790791Y201298D01*
X788480Y202255D01*
X786000Y202582D01*
D02*
G37*
G36*
X202200Y172000D02*
X180200D01*
Y163559D01*
X172700D01*
Y168500D01*
X157300D01*
Y152500D01*
X160412D01*
Y144877D01*
X159759Y144026D01*
X159154Y142566D01*
X158948Y141000D01*
X159039Y140311D01*
X158380Y139559D01*
X150700D01*
Y144500D01*
X135300D01*
Y139559D01*
X130700D01*
Y144500D01*
X115300D01*
Y139559D01*
X110700D01*
Y144500D01*
X95300D01*
Y128500D01*
X110700D01*
Y133441D01*
X115300D01*
Y128500D01*
X130700D01*
Y133441D01*
X135300D01*
Y128500D01*
X150700D01*
Y133441D01*
X160500D01*
X160500Y133441D01*
X161670Y133674D01*
X162663Y134337D01*
X163475Y135149D01*
X165000Y134948D01*
X166566Y135154D01*
X168026Y135759D01*
X169279Y136721D01*
X170241Y137974D01*
X170846Y139434D01*
X171052Y141000D01*
X170846Y142566D01*
X170241Y144026D01*
X169588Y144877D01*
Y152500D01*
X172700D01*
Y157441D01*
X180200D01*
Y148000D01*
X202200D01*
Y172000D01*
D02*
G37*
G36*
X163500Y178000D02*
X156300D01*
Y170500D01*
X163500D01*
Y178000D01*
D02*
G37*
G36*
X516500Y161052D02*
X514934Y160846D01*
X513474Y160241D01*
X512221Y159279D01*
X511284Y158059D01*
X505750D01*
Y160000D01*
X487250D01*
Y150000D01*
X505750D01*
Y151941D01*
X511284D01*
X512221Y150721D01*
X513474Y149759D01*
X514934Y149154D01*
X516500Y148948D01*
X518066Y149154D01*
X519526Y149759D01*
X520779Y150721D01*
X521741Y151974D01*
X522346Y153434D01*
X522552Y155000D01*
X522346Y156566D01*
X521741Y158026D01*
X520779Y159279D01*
X519526Y160241D01*
X518066Y160846D01*
X516500Y161052D01*
D02*
G37*
G36*
X549500Y161000D02*
X540750D01*
Y156500D01*
X549500D01*
Y161000D01*
D02*
G37*
G36*
X561250D02*
X552500D01*
Y156500D01*
X561250D01*
Y161000D01*
D02*
G37*
G36*
X173700Y188500D02*
X166500D01*
Y181000D01*
X173700D01*
Y188500D01*
D02*
G37*
G36*
X733000Y202582D02*
X730520Y202255D01*
X728209Y201298D01*
X726225Y199775D01*
X724702Y197791D01*
X723745Y195480D01*
X723418Y193000D01*
X723745Y190520D01*
X724702Y188209D01*
X726225Y186224D01*
X728209Y184702D01*
X730520Y183745D01*
X733000Y183418D01*
X735480Y183745D01*
X737791Y184702D01*
X739775Y186224D01*
X741298Y188209D01*
X742255Y190520D01*
X742582Y193000D01*
X742255Y195480D01*
X741298Y197791D01*
X739775Y199775D01*
X737791Y201298D01*
X735480Y202255D01*
X733000Y202582D01*
D02*
G37*
G36*
X163500Y188500D02*
X156300D01*
Y181000D01*
X163500D01*
Y188500D01*
D02*
G37*
G36*
X173700Y178000D02*
X166500D01*
Y170500D01*
X173700D01*
Y178000D01*
D02*
G37*
G36*
X642500Y203000D02*
X623500D01*
Y173000D01*
X642500D01*
Y184441D01*
X650300D01*
Y179500D01*
X665700D01*
Y195500D01*
X650300D01*
Y190559D01*
X642500D01*
Y203000D01*
D02*
G37*
G36*
X398250Y108200D02*
X390750D01*
Y101000D01*
X398250D01*
Y108200D01*
D02*
G37*
G36*
X61834Y41604D02*
X61261Y41449D01*
X59439Y40392D01*
X57953Y38899D01*
X56904Y37073D01*
X56363Y35037D01*
X56364Y34444D01*
X62679Y35289D01*
X61834Y41604D01*
D02*
G37*
G36*
X65401Y42003D02*
X64808Y42002D01*
X65653Y35687D01*
X71968Y36532D01*
X71813Y37105D01*
X70756Y38927D01*
X69263Y40413D01*
X67437Y41462D01*
X65401Y42003D01*
D02*
G37*
G36*
X524500Y36863D02*
Y31500D01*
X529863D01*
X529820Y31827D01*
X529114Y33530D01*
X527992Y34992D01*
X526530Y36114D01*
X524827Y36820D01*
X524500Y36863D01*
D02*
G37*
G36*
X72366Y33558D02*
X66051Y32713D01*
X66896Y26398D01*
X67469Y26553D01*
X69291Y27610D01*
X70777Y29102D01*
X71826Y30929D01*
X72367Y32965D01*
X72366Y33558D01*
D02*
G37*
G36*
X521500Y36863D02*
X521173Y36820D01*
X519470Y36114D01*
X518008Y34992D01*
X516885Y33530D01*
X516180Y31827D01*
X516137Y31500D01*
X521500D01*
Y36863D01*
D02*
G37*
G36*
X89474Y81248D02*
X84428Y77358D01*
X88318Y72312D01*
X88737Y72732D01*
X89786Y74559D01*
X90327Y76595D01*
X90322Y78701D01*
X89772Y80735D01*
X89474Y81248D01*
D02*
G37*
G36*
X76330Y82949D02*
X75912Y82528D01*
X74863Y80701D01*
X74322Y78665D01*
X74327Y76559D01*
X74876Y74526D01*
X75174Y74012D01*
X80221Y77902D01*
X76330Y82949D01*
D02*
G37*
G36*
X39944Y78077D02*
X37519Y72185D01*
X43411Y69760D01*
X43563Y70334D01*
X43558Y72440D01*
X43008Y74473D01*
X41951Y76295D01*
X40458Y77781D01*
X39944Y78077D01*
D02*
G37*
G36*
X36377Y69411D02*
X33952Y63519D01*
X34525Y63366D01*
X36632Y63371D01*
X38665Y63921D01*
X40487Y64978D01*
X41973Y66471D01*
X42269Y66986D01*
X36377Y69411D01*
D02*
G37*
G36*
X82052Y75526D02*
X77006Y71636D01*
X77427Y71218D01*
X79253Y70168D01*
X81289Y69628D01*
X83395Y69633D01*
X85429Y70182D01*
X85942Y70480D01*
X82052Y75526D01*
D02*
G37*
G36*
X63077Y32315D02*
X56762Y31470D01*
X56917Y30897D01*
X57974Y29075D01*
X59467Y27589D01*
X61293Y26539D01*
X63329Y25999D01*
X63922Y26000D01*
X63077Y32315D01*
D02*
G37*
G36*
X697250Y18400D02*
X688500D01*
Y13900D01*
X697250D01*
Y18400D01*
D02*
G37*
G36*
X631000Y25900D02*
X622250D01*
Y21400D01*
X631000D01*
Y25900D01*
D02*
G37*
G36*
X685500Y18400D02*
X676750D01*
Y13900D01*
X685500D01*
Y18400D01*
D02*
G37*
G36*
X631000Y18400D02*
X622250D01*
Y13900D01*
X631000D01*
Y18400D01*
D02*
G37*
G36*
X642750D02*
X634000D01*
Y13900D01*
X642750D01*
Y18400D01*
D02*
G37*
G36*
X521500Y28500D02*
X516137D01*
X516180Y28173D01*
X516885Y26470D01*
X518008Y25008D01*
X519470Y23886D01*
X521173Y23180D01*
X521500Y23137D01*
Y28500D01*
D02*
G37*
G36*
X529863D02*
X524500D01*
Y23137D01*
X524827Y23180D01*
X526530Y23886D01*
X527992Y25008D01*
X529114Y26470D01*
X529820Y28173D01*
X529863Y28500D01*
D02*
G37*
G36*
X697250Y25900D02*
X688500D01*
Y21400D01*
X697250D01*
Y25900D01*
D02*
G37*
G36*
X642750D02*
X634000D01*
Y21400D01*
X642750D01*
Y25900D01*
D02*
G37*
G36*
X685500D02*
X676750D01*
Y21400D01*
X685500D01*
Y25900D01*
D02*
G37*
G36*
X560250Y147300D02*
X541750D01*
Y145359D01*
X534050D01*
X532879Y145126D01*
X531887Y144463D01*
X523887Y136463D01*
X523224Y135471D01*
X522991Y134300D01*
X522991Y134300D01*
Y76817D01*
X517233Y71059D01*
X381616D01*
X378016Y74660D01*
X378582Y75507D01*
X379434Y75154D01*
X381000Y74948D01*
X382566Y75154D01*
X384026Y75759D01*
X385279Y76721D01*
X386241Y77974D01*
X386846Y79434D01*
X387052Y81000D01*
X386846Y82566D01*
X386241Y84026D01*
X385279Y85279D01*
X384026Y86241D01*
X382566Y86846D01*
X381000Y87052D01*
X380112Y86935D01*
X376171Y90876D01*
X376553Y91800D01*
X378250D01*
Y107200D01*
X362250D01*
Y102559D01*
X360267D01*
X349559Y113267D01*
Y115978D01*
X349561Y115982D01*
X349814Y117250D01*
Y130250D01*
X349561Y131518D01*
X348843Y132593D01*
X347768Y133311D01*
X346500Y133564D01*
X345232Y133311D01*
X344771Y133004D01*
X344564Y133314D01*
X343158Y134253D01*
X343000Y134285D01*
Y123750D01*
X340000D01*
Y134285D01*
X339842Y134253D01*
X338436Y133314D01*
X338229Y133004D01*
X337768Y133311D01*
X336500Y133564D01*
X335232Y133311D01*
X334157Y132593D01*
X333843D01*
X332768Y133311D01*
X331500Y133564D01*
X330232Y133311D01*
X329157Y132593D01*
X328843D01*
X327768Y133311D01*
X326500Y133564D01*
X325232Y133311D01*
X324157Y132593D01*
X323843D01*
X322768Y133311D01*
X321500Y133564D01*
X320232Y133311D01*
X319157Y132593D01*
X318843D01*
X317768Y133311D01*
X316500Y133564D01*
X315232Y133311D01*
X314157Y132593D01*
X313843D01*
X312768Y133311D01*
X311500Y133564D01*
X310232Y133311D01*
X309157Y132593D01*
X308843D01*
X307768Y133311D01*
X306500Y133564D01*
X305232Y133311D01*
X304157Y132593D01*
X303843D01*
X302768Y133311D01*
X301500Y133564D01*
X300232Y133311D01*
X299157Y132593D01*
X298843D01*
X297768Y133311D01*
X296500Y133564D01*
X295232Y133311D01*
X294157Y132593D01*
X293843D01*
X292768Y133311D01*
X291500Y133564D01*
X290232Y133311D01*
X289157Y132593D01*
X288439Y131518D01*
X288186Y130250D01*
Y117250D01*
X288439Y115982D01*
X289157Y114907D01*
X290232Y114189D01*
X291500Y113936D01*
X292768Y114189D01*
X293843Y114907D01*
X294157D01*
X295232Y114189D01*
X296500Y113936D01*
X297768Y114189D01*
X298843Y114907D01*
X299157D01*
X300232Y114189D01*
X301500Y113936D01*
X302441Y114124D01*
X303441Y113527D01*
Y106767D01*
X300525Y103851D01*
X299000Y104052D01*
X297434Y103846D01*
X295974Y103241D01*
X294721Y102279D01*
X293759Y101026D01*
X293154Y99566D01*
X292948Y98000D01*
X293154Y96434D01*
X293759Y94974D01*
X294721Y93721D01*
X295974Y92759D01*
X297434Y92155D01*
X299000Y91948D01*
X300566Y92155D01*
X302026Y92759D01*
X303279Y93721D01*
X303500Y94009D01*
X304500D01*
X304721Y93721D01*
X305974Y92759D01*
X307434Y92155D01*
X309000Y91948D01*
X310566Y92155D01*
X312026Y92759D01*
X313279Y93721D01*
X313500Y94009D01*
X314500D01*
X314721Y93721D01*
X315974Y92759D01*
X317434Y92155D01*
X319000Y91948D01*
X320566Y92155D01*
X322026Y92759D01*
X323279Y93721D01*
X323500Y94009D01*
X324500D01*
X324721Y93721D01*
X325974Y92759D01*
X327434Y92155D01*
X329000Y91948D01*
X330566Y92155D01*
X332026Y92759D01*
X333279Y93721D01*
X334241Y94974D01*
X334846Y96434D01*
X335052Y98000D01*
X334846Y99566D01*
X334241Y101026D01*
X333279Y102279D01*
X332026Y103241D01*
X330566Y103846D01*
X329000Y104052D01*
X327475Y103851D01*
X324559Y106767D01*
Y113527D01*
X325559Y114124D01*
X326500Y113936D01*
X327441Y114124D01*
X328441Y113527D01*
Y111900D01*
X328441Y111899D01*
X328674Y110729D01*
X329337Y109737D01*
X376737Y62337D01*
X377729Y61674D01*
X378899Y61441D01*
X522250D01*
X522250Y61441D01*
X523420Y61674D01*
X524413Y62337D01*
X532163Y70087D01*
X532826Y71080D01*
X533059Y72250D01*
X533059Y72250D01*
Y84733D01*
X536767Y88441D01*
X541750D01*
Y86500D01*
X560174D01*
X560941Y85733D01*
Y80943D01*
X559960Y80751D01*
X558855Y82405D01*
X557201Y83510D01*
X555250Y83898D01*
X546750D01*
X544799Y83510D01*
X543145Y82405D01*
X542040Y80751D01*
X541652Y78800D01*
X542040Y76849D01*
X543145Y75195D01*
X544799Y74090D01*
X546750Y73702D01*
X547941D01*
Y68809D01*
X544466D01*
X543529Y70029D01*
X542276Y70991D01*
X540816Y71596D01*
X539250Y71802D01*
X537684Y71596D01*
X536224Y70991D01*
X534971Y70029D01*
X534009Y68776D01*
X533404Y67316D01*
X533198Y65750D01*
X533404Y64184D01*
X534009Y62724D01*
X534971Y61471D01*
X536224Y60509D01*
X537684Y59904D01*
X539250Y59698D01*
X540816Y59904D01*
X542276Y60509D01*
X543529Y61471D01*
X544466Y62691D01*
X549750D01*
X549750Y62691D01*
X550779Y62896D01*
X576537Y37137D01*
X576537Y37137D01*
X577529Y36474D01*
X578700Y36241D01*
X609106D01*
X609500Y35241D01*
X608759Y34276D01*
X608154Y32816D01*
X607948Y31250D01*
X608154Y29684D01*
X608759Y28224D01*
X609721Y26971D01*
X610974Y26009D01*
X612434Y25404D01*
X614000Y25198D01*
X615566Y25404D01*
X617026Y26009D01*
X618279Y26971D01*
X619241Y28224D01*
X619787Y29541D01*
X623250D01*
Y27600D01*
X641750D01*
Y36241D01*
X643300D01*
X643300Y36241D01*
X644471Y36474D01*
X645463Y37137D01*
X651163Y42837D01*
X651163Y42837D01*
X651826Y43829D01*
X652059Y45000D01*
Y54000D01*
X651826Y55171D01*
X651163Y56163D01*
X651163Y56163D01*
X647163Y60163D01*
X646171Y60826D01*
X645000Y61059D01*
X645000Y61059D01*
X641750D01*
Y63000D01*
X623250D01*
Y53000D01*
X641750D01*
Y54941D01*
X643733D01*
X645941Y52733D01*
Y46267D01*
X642750Y43076D01*
X641750Y43490D01*
Y50300D01*
X623250D01*
Y48059D01*
X607919D01*
X607786Y48328D01*
X607526Y49059D01*
X608096Y50434D01*
X608302Y52000D01*
X608096Y53566D01*
X607491Y55026D01*
X606529Y56279D01*
X605309Y57216D01*
Y62983D01*
X606826Y64500D01*
X607750Y64118D01*
Y60500D01*
X620250D01*
Y67941D01*
X623250D01*
Y65700D01*
X641750D01*
Y75700D01*
X623250D01*
Y74059D01*
X621250D01*
Y76000D01*
X614000D01*
Y79000D01*
X621250D01*
Y80341D01*
X623250D01*
Y78400D01*
X641750D01*
Y88400D01*
X623250D01*
Y86459D01*
X611867D01*
X602809Y95517D01*
Y131250D01*
X602576Y132421D01*
X601913Y133413D01*
X590863Y144463D01*
X589870Y145126D01*
X588700Y145359D01*
X588700Y145359D01*
X560250D01*
Y147300D01*
D02*
G37*
G36*
X738500Y94500D02*
X731000D01*
Y87300D01*
X738500D01*
Y94500D01*
D02*
G37*
G36*
X387750Y98000D02*
X380250D01*
Y90800D01*
X387750D01*
Y98000D01*
D02*
G37*
G36*
X728000Y94500D02*
X720500D01*
Y87300D01*
X728000D01*
Y94500D01*
D02*
G37*
G36*
X495000Y90000D02*
X486250D01*
Y85500D01*
X495000D01*
Y90000D01*
D02*
G37*
G36*
X506750D02*
X498000D01*
Y85500D01*
X506750D01*
Y90000D01*
D02*
G37*
G36*
X738500Y104700D02*
X731000D01*
Y97500D01*
X738500D01*
Y104700D01*
D02*
G37*
G36*
X387750Y108200D02*
X380250D01*
Y101000D01*
X387750D01*
Y108200D01*
D02*
G37*
G36*
X728000Y104700D02*
X720500D01*
Y97500D01*
X728000D01*
Y104700D01*
D02*
G37*
G36*
X398250Y98000D02*
X390750D01*
Y90800D01*
X398250D01*
Y98000D01*
D02*
G37*
G36*
X506750Y102700D02*
X496500D01*
X486250D01*
Y98500D01*
X486250Y97500D01*
X486250Y97200D01*
Y93000D01*
X496500D01*
X506750D01*
Y97200D01*
X506750Y98200D01*
X506750Y98500D01*
Y102700D01*
D02*
G37*
G36*
X697250Y89400D02*
X688500D01*
Y84900D01*
X697250D01*
Y89400D01*
D02*
G37*
G36*
X685500Y81900D02*
X676750D01*
Y77400D01*
X685500D01*
Y81900D01*
D02*
G37*
G36*
X697250D02*
X688500D01*
Y77400D01*
X697250D01*
Y81900D01*
D02*
G37*
G36*
X786000Y102582D02*
X783520Y102255D01*
X781209Y101298D01*
X779225Y99775D01*
X777702Y97791D01*
X776745Y95480D01*
X776418Y93000D01*
X776745Y90520D01*
X777702Y88209D01*
X779225Y86224D01*
X781209Y84702D01*
X783520Y83744D01*
X786000Y83418D01*
X788480Y83744D01*
X788798Y83876D01*
X791607Y81067D01*
X791467Y79793D01*
X788798Y77124D01*
X788480Y77255D01*
X786000Y77582D01*
X783520Y77255D01*
X781209Y76298D01*
X779225Y74775D01*
X777702Y72791D01*
X776745Y70480D01*
X776418Y68000D01*
X776745Y65520D01*
X777702Y63209D01*
X779225Y61224D01*
X781209Y59702D01*
X783520Y58745D01*
X786000Y58418D01*
X788480Y58745D01*
X790791Y59702D01*
X792775Y61224D01*
X794298Y63209D01*
X795256Y65520D01*
X795582Y68000D01*
X795256Y70480D01*
X794298Y72791D01*
X793785Y73460D01*
X795267Y74941D01*
X810733D01*
X814941Y70733D01*
Y51267D01*
X807683Y44009D01*
X700867D01*
X697413Y47463D01*
X696421Y48126D01*
X696250Y48160D01*
Y50300D01*
X677750D01*
Y40300D01*
X695924D01*
X696774Y39450D01*
Y38450D01*
X695924Y37600D01*
X677750D01*
Y27600D01*
X696250D01*
Y29740D01*
X696421Y29774D01*
X697413Y30437D01*
X700867Y33891D01*
X810607D01*
X810607Y33891D01*
X811777Y34124D01*
X812770Y34787D01*
X824163Y46180D01*
X824163Y46180D01*
X824826Y47173D01*
X825059Y48343D01*
Y73657D01*
X825059Y73657D01*
X824826Y74827D01*
X824163Y75820D01*
X824163Y75820D01*
X815820Y84163D01*
X814827Y84826D01*
X813657Y85059D01*
X813657Y85059D01*
X796267D01*
X793785Y87541D01*
X794298Y88209D01*
X795256Y90520D01*
X795582Y93000D01*
X795256Y95480D01*
X794298Y97791D01*
X792775Y99775D01*
X790791Y101298D01*
X788480Y102255D01*
X786000Y102582D01*
D02*
G37*
G36*
X403500Y81500D02*
X398137D01*
X398180Y81173D01*
X398885Y79470D01*
X400008Y78007D01*
X401470Y76885D01*
X403173Y76180D01*
X403500Y76137D01*
Y81500D01*
D02*
G37*
G36*
X411863D02*
X406500D01*
Y76137D01*
X406827Y76180D01*
X408530Y76885D01*
X409992Y78007D01*
X411115Y79470D01*
X411820Y81173D01*
X411863Y81500D01*
D02*
G37*
G36*
X406500Y89863D02*
Y84500D01*
X411863D01*
X411820Y84827D01*
X411115Y86530D01*
X409992Y87992D01*
X408530Y89115D01*
X406827Y89820D01*
X406500Y89863D01*
D02*
G37*
G36*
X685500Y89400D02*
X676750D01*
Y84900D01*
X685500D01*
Y89400D01*
D02*
G37*
G36*
X403500Y89863D02*
X403173Y89820D01*
X401470Y89115D01*
X400008Y87992D01*
X398885Y86530D01*
X398180Y84827D01*
X398137Y84500D01*
X403500D01*
Y89863D01*
D02*
G37*
G36*
X83360Y85632D02*
X81253Y85628D01*
X79220Y85078D01*
X78706Y84780D01*
X82597Y79734D01*
X87643Y83624D01*
X87222Y84043D01*
X85396Y85092D01*
X83360Y85632D01*
D02*
G37*
G36*
X515000Y103052D02*
X513434Y102845D01*
X511974Y102241D01*
X510721Y101279D01*
X509759Y100026D01*
X509155Y98566D01*
X508948Y97000D01*
X509155Y95434D01*
X509759Y93974D01*
X510721Y92721D01*
X511431Y92175D01*
Y83478D01*
X510322Y82369D01*
X505750D01*
Y83800D01*
X487250D01*
Y82369D01*
X481678D01*
X479547Y84500D01*
X479961Y85500D01*
X482700D01*
Y101500D01*
X467300D01*
Y85500D01*
X471431D01*
Y84000D01*
X471703Y82634D01*
X472477Y81477D01*
X477677Y76277D01*
X478834Y75503D01*
X480200Y75231D01*
X487250D01*
Y73800D01*
X505750D01*
Y75231D01*
X511800D01*
X513166Y75503D01*
X514323Y76277D01*
X517523Y79477D01*
X518297Y80634D01*
X518569Y82000D01*
Y92175D01*
X519279Y92721D01*
X520241Y93974D01*
X520846Y95434D01*
X521052Y97000D01*
X520846Y98566D01*
X520241Y100026D01*
X519279Y101279D01*
X518026Y102241D01*
X516566Y102845D01*
X515000Y103052D01*
D02*
G37*
G36*
X188500Y507500D02*
X134750D01*
Y458000D01*
X188500D01*
Y507500D01*
D02*
G37*
G36*
X245250D02*
X191500D01*
Y458000D01*
X245250D01*
Y507500D01*
D02*
G37*
G36*
X575750Y526575D02*
X572711Y526276D01*
X569790Y525389D01*
X567097Y523950D01*
X564737Y522013D01*
X562800Y519653D01*
X561361Y516960D01*
X560474Y514039D01*
X560175Y511000D01*
X560474Y507961D01*
X561361Y505040D01*
X562800Y502347D01*
X564737Y499987D01*
X567097Y498050D01*
X569790Y496610D01*
X572711Y495724D01*
X575750Y495425D01*
X578788Y495724D01*
X581710Y496610D01*
X584403Y498050D01*
X586763Y499987D01*
X588700Y502347D01*
X590139Y505040D01*
X591026Y507961D01*
X591325Y511000D01*
X591026Y514039D01*
X590139Y516960D01*
X588700Y519653D01*
X586763Y522013D01*
X584403Y523950D01*
X581710Y525389D01*
X578788Y526276D01*
X575750Y526575D01*
D02*
G37*
G36*
X118500Y438500D02*
X111300D01*
Y431000D01*
X118500D01*
Y438500D01*
D02*
G37*
G36*
X128700D02*
X121500D01*
Y431000D01*
X128700D01*
Y438500D01*
D02*
G37*
G36*
X460750Y481575D02*
X457711Y481276D01*
X454790Y480389D01*
X452097Y478950D01*
X449737Y477013D01*
X447800Y474653D01*
X446361Y471960D01*
X445474Y469038D01*
X445175Y466000D01*
X445474Y462961D01*
X446361Y460040D01*
X447800Y457347D01*
X449737Y454987D01*
X452097Y453050D01*
X454790Y451610D01*
X457711Y450724D01*
X460750Y450425D01*
X463788Y450724D01*
X466710Y451610D01*
X469403Y453050D01*
X471763Y454987D01*
X473700Y457347D01*
X475139Y460040D01*
X476026Y462961D01*
X476325Y466000D01*
X476026Y469038D01*
X475139Y471960D01*
X473700Y474653D01*
X471763Y477013D01*
X469403Y478950D01*
X466710Y480389D01*
X463788Y481276D01*
X460750Y481575D01*
D02*
G37*
G36*
X47252Y577029D02*
X42487Y572800D01*
X46715Y568034D01*
X47104Y568483D01*
X48025Y570377D01*
X48424Y572446D01*
X48274Y574547D01*
X47585Y576538D01*
X47252Y577029D01*
D02*
G37*
G36*
X182500Y603700D02*
X166500D01*
Y588300D01*
X171441D01*
Y583700D01*
X166500D01*
Y568300D01*
X165600Y568059D01*
X164400D01*
X163500Y568300D01*
X163500Y569059D01*
Y583700D01*
X147500D01*
Y579059D01*
X132000D01*
X132000Y579059D01*
X130829Y578826D01*
X129837Y578163D01*
X129837Y578163D01*
X105733Y554059D01*
X61961D01*
X59631Y556388D01*
X59678Y556484D01*
X60027Y558294D01*
X59896Y560132D01*
X59293Y561874D01*
X58260Y563400D01*
X56867Y564608D01*
X55210Y565413D01*
X53400Y565762D01*
X51561Y565631D01*
X49820Y565029D01*
X48293Y563996D01*
X47086Y562603D01*
X46280Y560946D01*
X45931Y559136D01*
X46062Y557297D01*
X46665Y555555D01*
X47698Y554029D01*
X49090Y552822D01*
X50748Y552016D01*
X52558Y551667D01*
X54396Y551798D01*
X55268Y552100D01*
X58531Y548837D01*
X58531Y548837D01*
X59523Y548174D01*
X60693Y547941D01*
X107000D01*
X107000Y547941D01*
X108170Y548174D01*
X109163Y548837D01*
X133267Y572941D01*
X147500D01*
X147500Y568300D01*
X146600Y568059D01*
X135000D01*
X135000Y568059D01*
X133829Y567826D01*
X132837Y567163D01*
X132837Y567163D01*
X124837Y559163D01*
X124174Y558171D01*
X123941Y557000D01*
X123941Y557000D01*
Y484267D01*
X122700Y483026D01*
X121700Y483440D01*
Y487500D01*
X106300D01*
Y471500D01*
X121700D01*
Y476441D01*
X123500D01*
X123500Y476441D01*
X124670Y476674D01*
X125663Y477337D01*
X129163Y480837D01*
X129826Y481829D01*
X130059Y483000D01*
X130059Y483000D01*
Y555733D01*
X133750Y559424D01*
X134750Y559010D01*
Y510500D01*
X188500D01*
Y560000D01*
X135740D01*
X135326Y561000D01*
X136267Y561941D01*
X169000D01*
X169000Y561941D01*
X170170Y562174D01*
X171163Y562837D01*
X176626Y568300D01*
X182500D01*
Y572941D01*
X254483D01*
X283941Y543483D01*
Y332560D01*
X240700D01*
Y333500D01*
X225300D01*
Y333060D01*
X215000D01*
X213173Y332820D01*
X212400Y332500D01*
X207750D01*
Y319500D01*
X212400D01*
X213173Y319180D01*
X215000Y318940D01*
X225300D01*
Y317500D01*
X240700D01*
Y318440D01*
X782576D01*
X819940Y281075D01*
Y161924D01*
X785536Y127521D01*
X783520Y127255D01*
X781209Y126298D01*
X779225Y124775D01*
X777702Y122791D01*
X776745Y120480D01*
X776418Y118000D01*
X776745Y115520D01*
X777702Y113209D01*
X779225Y111224D01*
X781209Y109702D01*
X783520Y108744D01*
X786000Y108418D01*
X788480Y108744D01*
X790791Y109702D01*
X792775Y111224D01*
X794298Y113209D01*
X795256Y115520D01*
X795521Y117536D01*
X831992Y154008D01*
X833114Y155470D01*
X833820Y157173D01*
X834060Y159000D01*
Y284000D01*
X833820Y285827D01*
X833114Y287530D01*
X831992Y288992D01*
X790492Y330493D01*
X789069Y331585D01*
Y484522D01*
X837047Y532500D01*
X847700D01*
Y536931D01*
X852300D01*
Y532500D01*
X867700D01*
Y536931D01*
X872300D01*
Y532500D01*
X887700D01*
Y548500D01*
X872300D01*
Y544069D01*
X867700D01*
Y548500D01*
X852300D01*
Y544069D01*
X847700D01*
Y548500D01*
X832300D01*
Y537847D01*
X782977Y488523D01*
X782203Y487366D01*
X781931Y486000D01*
Y332560D01*
X290059D01*
Y544750D01*
X289826Y545920D01*
X289163Y546913D01*
X289163Y546913D01*
X257913Y578163D01*
X256920Y578826D01*
X255750Y579059D01*
X255750Y579059D01*
X182500D01*
Y583700D01*
X177559D01*
Y588300D01*
X182500D01*
Y603700D01*
D02*
G37*
G36*
X34023Y577820D02*
X33634Y577371D01*
X32713Y575476D01*
X32314Y573408D01*
X32464Y571307D01*
X33153Y569316D01*
X33485Y568825D01*
X38251Y573054D01*
X34023Y577820D01*
D02*
G37*
G36*
X245250Y560000D02*
X191500D01*
Y510500D01*
X245250D01*
Y560000D01*
D02*
G37*
G36*
X40242Y570809D02*
X35476Y566581D01*
X35925Y566192D01*
X37819Y565271D01*
X39888Y564872D01*
X41989Y565022D01*
X43980Y565711D01*
X44471Y566043D01*
X40242Y570809D01*
D02*
G37*
G36*
X962408Y572049D02*
X958467Y567042D01*
X958978Y566739D01*
X961005Y566169D01*
X963112Y566143D01*
X965153Y566663D01*
X966990Y567693D01*
X967415Y568108D01*
X962408Y572049D01*
D02*
G37*
G36*
X620750Y411575D02*
X617711Y411276D01*
X614790Y410389D01*
X612097Y408950D01*
X609737Y407013D01*
X607800Y404653D01*
X606361Y401960D01*
X605474Y399038D01*
X605175Y396000D01*
X605474Y392961D01*
X606361Y390040D01*
X607800Y387347D01*
X609737Y384987D01*
X612097Y383050D01*
X614790Y381610D01*
X617711Y380724D01*
X620750Y380425D01*
X623788Y380724D01*
X626710Y381610D01*
X629403Y383050D01*
X631763Y384987D01*
X633700Y387347D01*
X635139Y390040D01*
X636026Y392961D01*
X636325Y396000D01*
X636026Y399038D01*
X635139Y401960D01*
X633700Y404653D01*
X631763Y407013D01*
X629403Y408950D01*
X626710Y410389D01*
X623788Y411276D01*
X620750Y411575D01*
D02*
G37*
G36*
X540750Y473090D02*
X535256Y472730D01*
X529856Y471656D01*
X524643Y469886D01*
X519705Y467451D01*
X515127Y464392D01*
X510988Y460762D01*
X507358Y456623D01*
X504299Y452045D01*
X501864Y447107D01*
X500094Y441894D01*
X499020Y436494D01*
X498660Y431000D01*
X499020Y425506D01*
X500094Y420106D01*
X501864Y414893D01*
X504299Y409955D01*
X507358Y405377D01*
X510988Y401238D01*
X515127Y397608D01*
X519705Y394549D01*
X524643Y392114D01*
X529856Y390344D01*
X535256Y389270D01*
X540750Y388910D01*
X546244Y389270D01*
X551644Y390344D01*
X556857Y392114D01*
X561795Y394549D01*
X566373Y397608D01*
X570512Y401238D01*
X574142Y405377D01*
X577201Y409955D01*
X579636Y414893D01*
X581406Y420106D01*
X582480Y425506D01*
X582840Y431000D01*
X582480Y436494D01*
X581406Y441894D01*
X579636Y447107D01*
X577201Y452045D01*
X574142Y456623D01*
X570512Y460762D01*
X566373Y464392D01*
X561795Y467451D01*
X556857Y469886D01*
X551644Y471656D01*
X546244Y472730D01*
X540750Y473090D01*
D02*
G37*
G36*
X310500Y400500D02*
X305137D01*
X305180Y400173D01*
X305886Y398470D01*
X307008Y397007D01*
X308470Y395886D01*
X310173Y395180D01*
X310500Y395137D01*
Y400500D01*
D02*
G37*
G36*
X243500Y371500D02*
X236000D01*
Y364300D01*
X243500D01*
Y371500D01*
D02*
G37*
G36*
X233000Y381700D02*
X225500D01*
Y374500D01*
X233000D01*
Y381700D01*
D02*
G37*
G36*
X243500D02*
X236000D01*
Y374500D01*
X243500D01*
Y381700D01*
D02*
G37*
G36*
X313500Y408863D02*
Y403500D01*
X318863D01*
X318820Y403827D01*
X318114Y405530D01*
X316992Y406992D01*
X315530Y408114D01*
X313827Y408820D01*
X313500Y408863D01*
D02*
G37*
G36*
X118500Y428000D02*
X111300D01*
Y420500D01*
X118500D01*
Y428000D01*
D02*
G37*
G36*
X128700D02*
X121500D01*
Y420500D01*
X128700D01*
Y428000D01*
D02*
G37*
G36*
X318863Y400500D02*
X313500D01*
Y395137D01*
X313827Y395180D01*
X315530Y395886D01*
X316992Y397007D01*
X318114Y398470D01*
X318820Y400173D01*
X318863Y400500D01*
D02*
G37*
G36*
X222650Y432000D02*
X208150D01*
Y387000D01*
X208340D01*
Y380700D01*
X207500D01*
Y365300D01*
X208340D01*
Y356060D01*
X191000D01*
X189173Y355820D01*
X187470Y355115D01*
X186008Y353992D01*
X173008Y340992D01*
X171886Y339530D01*
X171180Y337827D01*
X170940Y336000D01*
Y293000D01*
X171180Y291173D01*
X171886Y289470D01*
X173008Y288008D01*
X187008Y274008D01*
X188470Y272885D01*
X190173Y272180D01*
X192000Y271940D01*
X259000D01*
X260827Y272180D01*
X262530Y272885D01*
X263993Y274008D01*
X289925Y299940D01*
X764075D01*
X800940Y263076D01*
Y167924D01*
X785536Y152521D01*
X783520Y152255D01*
X781209Y151298D01*
X779225Y149775D01*
X777702Y147791D01*
X776745Y145480D01*
X776418Y143000D01*
X776745Y140520D01*
X777702Y138209D01*
X779225Y136224D01*
X781209Y134702D01*
X783520Y133744D01*
X786000Y133418D01*
X788480Y133744D01*
X790791Y134702D01*
X792775Y136224D01*
X794298Y138209D01*
X795256Y140520D01*
X795521Y142536D01*
X812992Y160008D01*
X814115Y161470D01*
X814820Y163173D01*
X815060Y165000D01*
Y266000D01*
X814820Y267827D01*
X814115Y269530D01*
X812992Y270992D01*
X771992Y311992D01*
X770530Y313114D01*
X768827Y313820D01*
X767000Y314060D01*
X287000D01*
X285173Y313820D01*
X283470Y313114D01*
X282008Y311992D01*
X256075Y286060D01*
X194925D01*
X185060Y295924D01*
Y333075D01*
X193925Y341940D01*
X215000D01*
X216827Y342180D01*
X217600Y342500D01*
X222250D01*
Y347802D01*
X222460Y349400D01*
Y365300D01*
X223500D01*
Y380700D01*
X222460D01*
Y387000D01*
X222650D01*
Y404412D01*
X227697D01*
X228008Y404007D01*
X229470Y402886D01*
X231173Y402180D01*
X233000Y401940D01*
X234827Y402180D01*
X236530Y402886D01*
X237992Y404007D01*
X239114Y405470D01*
X239820Y407173D01*
X240060Y409000D01*
X239820Y410827D01*
X239114Y412530D01*
X237992Y413992D01*
X236530Y415115D01*
X234827Y415820D01*
X233000Y416060D01*
X231173Y415820D01*
X229470Y415115D01*
X228008Y413992D01*
X227697Y413588D01*
X222650D01*
Y432000D01*
D02*
G37*
G36*
X310500Y408863D02*
X310173Y408820D01*
X308470Y408114D01*
X307008Y406992D01*
X305886Y405530D01*
X305180Y403827D01*
X305137Y403500D01*
X310500D01*
Y408863D01*
D02*
G37*
G36*
X962604Y622262D02*
X960818Y621807D01*
X959211Y620905D01*
X957892Y619618D01*
X956951Y618033D01*
X956452Y616259D01*
X956433Y614733D01*
X939094Y597394D01*
X934721Y601767D01*
X933233Y602762D01*
X931477Y603111D01*
X913702D01*
X912763Y604072D01*
X911178Y605013D01*
X909404Y605511D01*
X907561Y605533D01*
X905775Y605078D01*
X904168Y604175D01*
X902849Y602888D01*
X901908Y601303D01*
X901410Y599528D01*
X901388Y597685D01*
X901843Y595899D01*
X902746Y594292D01*
X904033Y592973D01*
X905618Y592033D01*
X907393Y591535D01*
X909236Y591512D01*
X911022Y591968D01*
X912629Y592870D01*
X913719Y593935D01*
X929577D01*
X934412Y589100D01*
Y570631D01*
X934761Y568875D01*
X935756Y567386D01*
X943411Y559731D01*
X943395Y558390D01*
X943850Y556604D01*
X944752Y554996D01*
X946039Y553677D01*
X947624Y552736D01*
X949398Y552237D01*
X951241Y552214D01*
X953027Y552669D01*
X954634Y553571D01*
X955954Y554858D01*
X956895Y556443D01*
X957394Y558217D01*
X957417Y560060D01*
X956962Y561846D01*
X956060Y563454D01*
X954773Y564773D01*
X953188Y565714D01*
X951413Y566213D01*
X949887Y566232D01*
X943588Y572531D01*
Y588911D01*
X962935Y608257D01*
X964276Y608241D01*
X966062Y608696D01*
X967670Y609598D01*
X968989Y610885D01*
X969930Y612470D01*
X970428Y614245D01*
X970451Y616088D01*
X969996Y617874D01*
X969094Y619481D01*
X967806Y620800D01*
X966222Y621741D01*
X964447Y622240D01*
X962604Y622262D01*
D02*
G37*
G36*
X54120Y615917D02*
X47878Y614639D01*
X48072Y614078D01*
X49252Y612333D01*
X50843Y610953D01*
X52738Y610032D01*
X54806Y609632D01*
X55398Y609674D01*
X54120Y615917D01*
D02*
G37*
G36*
X945905Y616263D02*
X944996Y609957D01*
X945590Y609949D01*
X947631Y610470D01*
X949468Y611501D01*
X950976Y612972D01*
X952051Y614783D01*
X952212Y615354D01*
X945905Y616263D01*
D02*
G37*
G36*
X87082Y590440D02*
X84981Y590293D01*
X82990Y589606D01*
X81244Y588428D01*
X79862Y586838D01*
X79602Y586304D01*
X85645Y584284D01*
X87665Y590327D01*
X87082Y590440D01*
D02*
G37*
G36*
X93045Y607453D02*
X91206Y607324D01*
X89463Y606724D01*
X87936Y605692D01*
X86727Y604301D01*
X85919Y602644D01*
X85568Y600835D01*
X85697Y598996D01*
X86298Y597254D01*
X87329Y595726D01*
X88720Y594517D01*
X90377Y593710D01*
X92187Y593359D01*
X94025Y593488D01*
X95768Y594088D01*
X97296Y595119D01*
X98504Y596511D01*
X98912Y597347D01*
X147500D01*
Y588300D01*
X163500D01*
Y603700D01*
X147500D01*
Y603465D01*
X98965D01*
X98933Y603558D01*
X97902Y605086D01*
X96511Y606295D01*
X94854Y607102D01*
X93045Y607453D01*
D02*
G37*
G36*
X74326Y628545D02*
X72487Y628414D01*
X70745Y627812D01*
X69218Y626779D01*
X68011Y625387D01*
X67205Y623729D01*
X66855Y621920D01*
X66986Y620081D01*
X67588Y618339D01*
X68621Y616812D01*
X69315Y616210D01*
Y603803D01*
X57239Y591727D01*
X33106D01*
X33040Y591825D01*
X31648Y593032D01*
X29990Y593838D01*
X28180Y594187D01*
X26342Y594056D01*
X24600Y593453D01*
X23073Y592421D01*
X21866Y591028D01*
X21060Y589370D01*
X20711Y587560D01*
X20842Y585722D01*
X21445Y583980D01*
X22478Y582453D01*
X23870Y581246D01*
X25528Y580441D01*
X27338Y580092D01*
X29176Y580223D01*
X30918Y580825D01*
X32445Y581858D01*
X33046Y582551D01*
X57239D01*
X73761Y566029D01*
X73521Y564795D01*
X73650Y562956D01*
X74251Y561214D01*
X75282Y559686D01*
X76674Y558477D01*
X78330Y557670D01*
X80140Y557319D01*
X81978Y557448D01*
X83721Y558048D01*
X85249Y559080D01*
X86457Y560471D01*
X87265Y562128D01*
X87616Y563937D01*
X87487Y565776D01*
X86886Y567518D01*
X85855Y569046D01*
X84464Y570255D01*
X82807Y571062D01*
X81440Y571328D01*
X65628Y587139D01*
X77147Y598659D01*
X78142Y600147D01*
X78491Y601903D01*
Y616149D01*
X78587Y616215D01*
X79795Y617607D01*
X80601Y619265D01*
X80951Y621074D01*
X80820Y622913D01*
X80218Y624655D01*
X79185Y626182D01*
X77793Y627389D01*
X76135Y628195D01*
X74326Y628545D01*
D02*
G37*
G36*
X947242Y625539D02*
X946333Y619232D01*
X952639Y618324D01*
X952647Y618917D01*
X952126Y620958D01*
X951096Y622795D01*
X949624Y624303D01*
X947813Y625378D01*
X947242Y625539D01*
D02*
G37*
G36*
X55772Y625742D02*
X55180Y625699D01*
X56458Y619457D01*
X62700Y620735D01*
X62506Y621296D01*
X61326Y623041D01*
X59734Y624421D01*
X57840Y625342D01*
X55772Y625742D01*
D02*
G37*
G36*
X943679Y625974D02*
X941638Y625453D01*
X939801Y624423D01*
X938293Y622952D01*
X937218Y621140D01*
X937057Y620569D01*
X943364Y619660D01*
X944273Y625967D01*
X943679Y625974D01*
D02*
G37*
G36*
X63301Y617796D02*
X57059Y616518D01*
X58337Y610276D01*
X58898Y610470D01*
X60643Y611650D01*
X62023Y613241D01*
X62944Y615136D01*
X63343Y617204D01*
X63301Y617796D01*
D02*
G37*
G36*
X936629Y617600D02*
X936622Y617006D01*
X937143Y614965D01*
X938173Y613128D01*
X939645Y611620D01*
X941456Y610545D01*
X942027Y610384D01*
X942936Y616691D01*
X936629Y617600D01*
D02*
G37*
G36*
X52241Y625098D02*
X51680Y624904D01*
X49935Y623724D01*
X48555Y622133D01*
X47634Y620238D01*
X47234Y618170D01*
X47276Y617578D01*
X53519Y618856D01*
X52241Y625098D01*
D02*
G37*
G36*
X87539Y580488D02*
X85519Y574445D01*
X86102Y574332D01*
X88203Y574479D01*
X90195Y575166D01*
X91941Y576344D01*
X93322Y577934D01*
X93582Y578468D01*
X87539Y580488D01*
D02*
G37*
G36*
X40850Y580982D02*
X38749Y580832D01*
X36758Y580143D01*
X36267Y579810D01*
X40495Y575045D01*
X45262Y579273D01*
X44813Y579662D01*
X42919Y580583D01*
X40850Y580982D01*
D02*
G37*
G36*
X78651Y583459D02*
X78538Y582876D01*
X78685Y580775D01*
X79372Y578783D01*
X80550Y577038D01*
X82141Y575656D01*
X82674Y575396D01*
X84694Y581439D01*
X78651Y583459D01*
D02*
G37*
G36*
X955044Y577845D02*
X954741Y577335D01*
X954171Y575307D01*
X954145Y573200D01*
X954665Y571159D01*
X955695Y569322D01*
X956110Y568897D01*
X960051Y573904D01*
X955044Y577845D01*
D02*
G37*
G36*
X914623Y578933D02*
X908708Y576566D01*
X908998Y576048D01*
X910470Y574541D01*
X912281Y573466D01*
X914309Y572896D01*
X916415Y572871D01*
X916991Y573018D01*
X914623Y578933D01*
D02*
G37*
G36*
X923324Y582416D02*
X917408Y580048D01*
X919776Y574133D01*
X920293Y574423D01*
X921801Y575895D01*
X922876Y577706D01*
X923445Y579734D01*
X923470Y581841D01*
X923324Y582416D01*
D02*
G37*
G36*
X911141Y587634D02*
X910623Y587343D01*
X909116Y585872D01*
X908041Y584060D01*
X907471Y582032D01*
X907446Y579926D01*
X907593Y579351D01*
X913508Y581718D01*
X911141Y587634D01*
D02*
G37*
G36*
X90510Y589376D02*
X88490Y583333D01*
X94533Y581313D01*
X94646Y581896D01*
X94499Y583997D01*
X93812Y585988D01*
X92634Y587734D01*
X91044Y589116D01*
X90510Y589376D01*
D02*
G37*
G36*
X914501Y588895D02*
X913926Y588749D01*
X916293Y582833D01*
X922209Y585201D01*
X921918Y585718D01*
X920447Y587225D01*
X918635Y588301D01*
X916607Y588870D01*
X914501Y588895D01*
D02*
G37*
G36*
X961202Y582167D02*
X959161Y581647D01*
X957324Y580617D01*
X956899Y580202D01*
X961906Y576261D01*
X965847Y581268D01*
X965337Y581571D01*
X963309Y582141D01*
X961202Y582167D01*
D02*
G37*
G36*
X973073Y596096D02*
X971287Y595641D01*
X969680Y594739D01*
X968360Y593452D01*
X967419Y591867D01*
X966920Y590093D01*
X966898Y588250D01*
X967353Y586464D01*
X968254Y584856D01*
X969542Y583537D01*
X970850Y582760D01*
Y576490D01*
X969850Y576365D01*
X969649Y577151D01*
X968619Y578988D01*
X968204Y579413D01*
X964264Y574406D01*
X969270Y570465D01*
X969573Y570975D01*
X969850Y571958D01*
X970850Y571820D01*
Y563175D01*
X952024Y544350D01*
X911976D01*
X894663Y561663D01*
X893671Y562326D01*
X892500Y562559D01*
X892500Y562559D01*
X887700D01*
Y567500D01*
X872300D01*
Y551500D01*
X887700D01*
Y556441D01*
X891233D01*
X908546Y539128D01*
X908546Y539128D01*
X909538Y538465D01*
X910709Y538232D01*
X910709Y538232D01*
X953291D01*
X953291Y538232D01*
X954462Y538465D01*
X955454Y539128D01*
X976071Y559745D01*
X976071Y559745D01*
X976734Y560738D01*
X976967Y561908D01*
Y582775D01*
X978137Y583431D01*
X979456Y584718D01*
X980398Y586303D01*
X980897Y588077D01*
X980919Y589920D01*
X980464Y591706D01*
X979562Y593314D01*
X978275Y594633D01*
X976691Y595574D01*
X974916Y596073D01*
X973073Y596096D01*
D02*
G37*
G36*
X896000Y579059D02*
X896000Y579059D01*
X866000D01*
X866000Y579059D01*
X864829Y578826D01*
X863837Y578163D01*
X863837Y578163D01*
X857837Y572163D01*
X857174Y571171D01*
X856941Y570000D01*
X856941Y570000D01*
Y567500D01*
X852300D01*
Y551500D01*
X867700D01*
Y567500D01*
X863059D01*
Y568733D01*
X867267Y572941D01*
X894733D01*
X906593Y561081D01*
X907586Y560418D01*
X908756Y560185D01*
X908756Y560185D01*
X916208D01*
X916866Y559013D01*
X918153Y557694D01*
X919738Y556754D01*
X921513Y556255D01*
X923356Y556233D01*
X925142Y556689D01*
X926749Y557591D01*
X928068Y558879D01*
X929008Y560464D01*
X929507Y562238D01*
X929529Y564081D01*
X929073Y565867D01*
X928171Y567474D01*
X926883Y568793D01*
X925298Y569734D01*
X923524Y570232D01*
X921681Y570254D01*
X919895Y569799D01*
X918288Y568896D01*
X916969Y567609D01*
X916194Y566302D01*
X910023D01*
X898163Y578163D01*
X897170Y578826D01*
X896000Y579059D01*
D02*
G37*
G36*
X784500Y241500D02*
X775500D01*
Y232500D01*
X784500D01*
Y241500D01*
D02*
G37*
G36*
X796500D02*
X787500D01*
Y232500D01*
X796500D01*
Y241500D01*
D02*
G37*
G36*
X743500Y241500D02*
X734500D01*
Y232500D01*
X743500D01*
Y241500D01*
D02*
G37*
G36*
X478500Y236893D02*
Y228000D01*
X487393D01*
X487230Y229241D01*
X486172Y231795D01*
X484489Y233989D01*
X482295Y235672D01*
X479741Y236730D01*
X478500Y236893D01*
D02*
G37*
G36*
X267000Y241052D02*
X265434Y240846D01*
X263974Y240241D01*
X262721Y239279D01*
X261759Y238026D01*
X261154Y236566D01*
X260948Y235000D01*
X261154Y233434D01*
X261759Y231974D01*
X262721Y230721D01*
X263584Y230059D01*
X263244Y229059D01*
X255500D01*
Y233700D01*
X239500D01*
Y218300D01*
X255500D01*
Y222941D01*
X265733D01*
X275691Y212983D01*
Y194814D01*
X272250D01*
X270982Y194561D01*
X269907Y193843D01*
X269189Y192768D01*
X268936Y191500D01*
X269189Y190232D01*
X269496Y189771D01*
X269837Y189000D01*
X269496Y188229D01*
X269189Y187768D01*
X268936Y186500D01*
X269189Y185232D01*
X269496Y184771D01*
X269837Y184000D01*
X269496Y183229D01*
X269189Y182768D01*
X268936Y181500D01*
X269189Y180232D01*
X269907Y179157D01*
Y178843D01*
X269189Y177768D01*
X268936Y176500D01*
X269123Y175559D01*
X268527Y174559D01*
X253500D01*
X252330Y174326D01*
X251337Y173663D01*
X249674Y172000D01*
X231000D01*
Y148000D01*
X235441D01*
Y143700D01*
X230500D01*
Y128300D01*
X245060D01*
X245474Y127300D01*
X241874Y123700D01*
X230500D01*
Y108300D01*
X235441D01*
Y104000D01*
X235441Y104000D01*
X235674Y102830D01*
X236337Y101837D01*
X254837Y83337D01*
X254837Y83337D01*
X255829Y82674D01*
X257000Y82441D01*
X257000Y82441D01*
X271300D01*
Y77500D01*
X286700D01*
Y93500D01*
X271300D01*
Y88559D01*
X258267D01*
X241559Y105267D01*
Y108300D01*
X246500D01*
Y119674D01*
X250300Y123474D01*
X251300Y123060D01*
Y121500D01*
X266700D01*
Y125931D01*
X272957D01*
X273154Y124434D01*
X273759Y122974D01*
X274721Y121721D01*
X275431Y121175D01*
Y112500D01*
X271300D01*
Y96500D01*
X286700D01*
Y112500D01*
X282569D01*
Y121175D01*
X283279Y121721D01*
X284241Y122974D01*
X284846Y124434D01*
X285052Y126000D01*
X284846Y127566D01*
X284241Y129026D01*
X283279Y130279D01*
X282026Y131241D01*
X280566Y131846D01*
X279000Y132052D01*
X278775Y132022D01*
X278635Y132186D01*
X279098Y133186D01*
X285250D01*
X286518Y133439D01*
X287593Y134157D01*
X288311Y135232D01*
X288564Y136500D01*
X288311Y137768D01*
X287593Y138843D01*
Y139157D01*
X288311Y140232D01*
X288564Y141500D01*
X288311Y142768D01*
X288004Y143229D01*
X287663Y144000D01*
X288004Y144771D01*
X288311Y145232D01*
X288564Y146500D01*
X288311Y147768D01*
X287593Y148843D01*
Y149157D01*
X288311Y150232D01*
X288564Y151500D01*
X288311Y152768D01*
X288004Y153229D01*
X288314Y153436D01*
X289253Y154842D01*
X289285Y155000D01*
X278750D01*
Y158000D01*
X289285D01*
X289253Y158158D01*
X288314Y159564D01*
X288004Y159771D01*
X288311Y160232D01*
X288564Y161500D01*
X288311Y162768D01*
X287593Y163843D01*
Y164157D01*
X288311Y165232D01*
X288564Y166500D01*
X288311Y167768D01*
X287593Y168843D01*
Y169157D01*
X288311Y170232D01*
X288564Y171500D01*
X288311Y172768D01*
X288004Y173229D01*
X287663Y174000D01*
X288004Y174771D01*
X288311Y175232D01*
X288564Y176500D01*
X288311Y177768D01*
X287593Y178843D01*
Y179157D01*
X288311Y180232D01*
X288564Y181500D01*
X288311Y182768D01*
X288004Y183229D01*
X287663Y184000D01*
X288004Y184771D01*
X288311Y185232D01*
X288564Y186500D01*
X288311Y187768D01*
X288004Y188229D01*
X287663Y189000D01*
X288004Y189771D01*
X288311Y190232D01*
X288564Y191500D01*
X288311Y192768D01*
X287593Y193843D01*
X286518Y194561D01*
X285250Y194814D01*
X281809D01*
Y214250D01*
X281809Y214250D01*
X281576Y215420D01*
X280913Y216413D01*
X275308Y222017D01*
X275691Y222941D01*
X283800D01*
Y217500D01*
X288441D01*
Y212022D01*
X288439Y212018D01*
X288186Y210750D01*
Y197750D01*
X288439Y196482D01*
X289157Y195407D01*
X290232Y194689D01*
X291500Y194436D01*
X292768Y194689D01*
X293229Y194996D01*
X293436Y194686D01*
X294842Y193747D01*
X295000Y193715D01*
Y204250D01*
Y215332D01*
X294559Y215676D01*
Y217500D01*
X299200D01*
Y233500D01*
X283800D01*
Y229059D01*
X270756D01*
X270417Y230059D01*
X271279Y230721D01*
X272241Y231974D01*
X272846Y233434D01*
X273052Y235000D01*
X272846Y236566D01*
X272241Y238026D01*
X271279Y239279D01*
X270026Y240241D01*
X268566Y240846D01*
X267000Y241052D01*
D02*
G37*
G36*
X290000Y243000D02*
X282800D01*
Y235500D01*
X290000D01*
Y243000D01*
D02*
G37*
G36*
X731500Y253500D02*
X722500D01*
Y244500D01*
X731500D01*
Y253500D01*
D02*
G37*
G36*
X743500D02*
X734500D01*
Y244500D01*
X743500D01*
Y253500D01*
D02*
G37*
G36*
X796500D02*
X787500D01*
Y244500D01*
X796500D01*
Y253500D01*
D02*
G37*
G36*
X300200Y243000D02*
X293000D01*
Y235500D01*
X300200D01*
Y243000D01*
D02*
G37*
G36*
X784500Y253500D02*
X775500D01*
Y244500D01*
X784500D01*
Y253500D01*
D02*
G37*
G36*
X394250Y263450D02*
X378250D01*
Y248050D01*
X394250D01*
Y252691D01*
X431983D01*
X448235Y236440D01*
X448079Y235324D01*
X446809Y234798D01*
X444825Y233275D01*
X443302Y231291D01*
X442345Y228980D01*
X442018Y226500D01*
X442345Y224020D01*
X443302Y221709D01*
X444825Y219725D01*
X446809Y218202D01*
X449120Y217244D01*
X451600Y216918D01*
X454080Y217244D01*
X456391Y218202D01*
X458376Y219725D01*
X459898Y221709D01*
X460855Y224020D01*
X461182Y226500D01*
X460855Y228980D01*
X459898Y231291D01*
X458376Y233275D01*
X456391Y234798D01*
X454659Y235516D01*
Y237400D01*
X454659Y237400D01*
X454426Y238570D01*
X453763Y239563D01*
X435413Y257913D01*
X434421Y258576D01*
X433250Y258809D01*
X433250Y258809D01*
X394250D01*
Y263450D01*
D02*
G37*
G36*
X227000Y224500D02*
X219500D01*
Y217300D01*
X227000D01*
Y224500D01*
D02*
G37*
G36*
X174863Y221500D02*
X169500D01*
Y216137D01*
X169827Y216180D01*
X171530Y216886D01*
X172992Y218008D01*
X174114Y219470D01*
X174820Y221173D01*
X174863Y221500D01*
D02*
G37*
G36*
X487393Y225000D02*
X478500D01*
Y216107D01*
X479741Y216270D01*
X482295Y217328D01*
X484489Y219011D01*
X486172Y221205D01*
X487230Y223759D01*
X487393Y225000D01*
D02*
G37*
G36*
X166500Y221500D02*
X161137D01*
X161180Y221173D01*
X161886Y219470D01*
X163008Y218008D01*
X164470Y216886D01*
X166173Y216180D01*
X166500Y216137D01*
Y221500D01*
D02*
G37*
G36*
X237500Y224500D02*
X230000D01*
Y217300D01*
X237500D01*
Y224500D01*
D02*
G37*
G36*
Y234700D02*
X230000D01*
Y227500D01*
X237500D01*
Y234700D01*
D02*
G37*
G36*
X475500Y236893D02*
X474259Y236730D01*
X471705Y235672D01*
X469511Y233989D01*
X467828Y231795D01*
X466770Y229241D01*
X466607Y228000D01*
X475500D01*
Y236893D01*
D02*
G37*
G36*
X227000Y234700D02*
X219500D01*
Y227500D01*
X227000D01*
Y234700D01*
D02*
G37*
G36*
X166500Y229863D02*
X166173Y229820D01*
X164470Y229114D01*
X163008Y227992D01*
X161886Y226530D01*
X161180Y224827D01*
X161137Y224500D01*
X166500D01*
Y229863D01*
D02*
G37*
G36*
X169500D02*
Y224500D01*
X174863D01*
X174820Y224827D01*
X174114Y226530D01*
X172992Y227992D01*
X171530Y229114D01*
X169827Y229820D01*
X169500Y229863D01*
D02*
G37*
G36*
X146000Y324500D02*
X139250D01*
Y307500D01*
X146000D01*
Y324500D01*
D02*
G37*
G36*
X155750D02*
X149000D01*
Y307500D01*
X155750D01*
Y324500D01*
D02*
G37*
G36*
X223250Y310500D02*
X216500D01*
Y304500D01*
X223250D01*
Y310500D01*
D02*
G37*
G36*
X241700Y305000D02*
X234500D01*
Y297500D01*
X241700D01*
Y305000D01*
D02*
G37*
G36*
X213500Y310500D02*
X206750D01*
Y304500D01*
X213500D01*
Y310500D01*
D02*
G37*
G36*
X231500Y315500D02*
X224300D01*
Y308000D01*
X231500D01*
Y315500D01*
D02*
G37*
G36*
X505750Y366575D02*
X502711Y366276D01*
X499790Y365389D01*
X497097Y363950D01*
X494737Y362013D01*
X492800Y359653D01*
X491361Y356960D01*
X490474Y354039D01*
X490175Y351000D01*
X490474Y347961D01*
X491361Y345040D01*
X492800Y342347D01*
X494737Y339987D01*
X497097Y338050D01*
X499790Y336610D01*
X502711Y335724D01*
X505750Y335425D01*
X508788Y335724D01*
X511710Y336610D01*
X514403Y338050D01*
X516763Y339987D01*
X518700Y342347D01*
X520139Y345040D01*
X521026Y347961D01*
X521325Y351000D01*
X521026Y354039D01*
X520139Y356960D01*
X518700Y359653D01*
X516763Y362013D01*
X514403Y363950D01*
X511710Y365389D01*
X508788Y366276D01*
X505750Y366575D01*
D02*
G37*
G36*
X233000Y371500D02*
X225500D01*
Y364300D01*
X233000D01*
Y371500D01*
D02*
G37*
G36*
X155750Y344500D02*
X149000D01*
Y327500D01*
X155750D01*
Y344500D01*
D02*
G37*
G36*
X241700Y315500D02*
X234500D01*
Y308000D01*
X241700D01*
Y315500D01*
D02*
G37*
G36*
X146000Y344500D02*
X139250D01*
Y327500D01*
X146000D01*
Y344500D01*
D02*
G37*
G36*
X213500Y301500D02*
X206750D01*
Y295500D01*
X213500D01*
Y301500D01*
D02*
G37*
G36*
X223250D02*
X216500D01*
Y295500D01*
X223250D01*
Y301500D01*
D02*
G37*
G36*
X375250Y263450D02*
X359250D01*
Y258809D01*
X320250D01*
X320250Y258809D01*
X319079Y258576D01*
X318087Y257913D01*
X309337Y249163D01*
X308674Y248171D01*
X308441Y247000D01*
X308441Y247000D01*
Y214473D01*
X307441Y213876D01*
X306500Y214064D01*
X305232Y213811D01*
X304771Y213504D01*
X304000Y213162D01*
X303229Y213504D01*
X302768Y213811D01*
X301500Y214064D01*
X300232Y213811D01*
X299771Y213504D01*
X299564Y213814D01*
X298158Y214753D01*
X298000Y214785D01*
Y204250D01*
Y193715D01*
X298158Y193747D01*
X299564Y194686D01*
X299771Y194996D01*
X300232Y194689D01*
X301500Y194436D01*
X302768Y194689D01*
X303229Y194996D01*
X304000Y195338D01*
X304771Y194996D01*
X305232Y194689D01*
X306500Y194436D01*
X307768Y194689D01*
X308843Y195407D01*
X309157D01*
X310232Y194689D01*
X311500Y194436D01*
X312768Y194689D01*
X313843Y195407D01*
X314157D01*
X315232Y194689D01*
X316500Y194436D01*
X317768Y194689D01*
X318843Y195407D01*
X319157D01*
X320232Y194689D01*
X321500Y194436D01*
X322768Y194689D01*
X323843Y195407D01*
X324157D01*
X325232Y194689D01*
X326500Y194436D01*
X327768Y194689D01*
X328843Y195407D01*
X329157D01*
X330232Y194689D01*
X331500Y194436D01*
X332768Y194689D01*
X333843Y195407D01*
X334157D01*
X335232Y194689D01*
X336500Y194436D01*
X337768Y194689D01*
X338843Y195407D01*
X339157D01*
X340232Y194689D01*
X341500Y194436D01*
X342768Y194689D01*
X343843Y195407D01*
X344157D01*
X345232Y194689D01*
X346500Y194436D01*
X347768Y194689D01*
X348843Y195407D01*
X349561Y196482D01*
X349814Y197750D01*
Y210750D01*
X349561Y212018D01*
X349559Y212022D01*
Y227733D01*
X354545Y232719D01*
X354545Y232719D01*
X355208Y233711D01*
X355441Y234882D01*
Y237416D01*
X356661Y238353D01*
X357623Y239606D01*
X358227Y241066D01*
X358433Y242632D01*
X358227Y244198D01*
X357623Y245658D01*
X356661Y246911D01*
X355408Y247873D01*
X353948Y248477D01*
X352382Y248684D01*
X350816Y248477D01*
X349356Y247873D01*
X348696Y247367D01*
X347630Y247808D01*
X347596Y248066D01*
X346991Y249526D01*
X346029Y250779D01*
X344841Y251691D01*
X344836Y251798D01*
X345378Y252691D01*
X359250D01*
Y248050D01*
X375250D01*
Y263450D01*
D02*
G37*
G36*
X665500Y252559D02*
X665500Y252559D01*
X506500D01*
X506500Y252559D01*
X505330Y252326D01*
X504337Y251663D01*
X496881Y244207D01*
X495868Y244627D01*
X494302Y244833D01*
X492735Y244627D01*
X491276Y244022D01*
X490022Y243060D01*
X489061Y241807D01*
X488456Y240348D01*
X488250Y238781D01*
X488456Y237215D01*
X489061Y235755D01*
X490022Y234502D01*
X491276Y233540D01*
X492735Y232936D01*
X494302Y232729D01*
X495868Y232936D01*
X496833Y233336D01*
X497910Y232817D01*
X497957Y232465D01*
X498561Y231005D01*
X499523Y229752D01*
X500776Y228790D01*
X502236Y228186D01*
X503802Y227979D01*
X505368Y228186D01*
X506828Y228790D01*
X508081Y229752D01*
X509043Y231005D01*
X509300Y231626D01*
X510300Y231427D01*
Y222500D01*
X525700D01*
Y227441D01*
X533500D01*
Y213000D01*
X552500D01*
Y242941D01*
X563500D01*
Y213000D01*
X563500D01*
X563961Y212000D01*
Y204000D01*
X563500Y203000D01*
X563500D01*
Y173000D01*
X563500D01*
X563961Y172000D01*
Y164000D01*
X563961Y164000D01*
X564116Y163220D01*
X564558Y162558D01*
X575558Y151558D01*
X576220Y151116D01*
X577000Y150961D01*
X588550D01*
X595756Y143756D01*
X597244Y142761D01*
X599000Y142412D01*
X697100D01*
X712412Y127100D01*
Y121877D01*
X711759Y121026D01*
X711154Y119566D01*
X711014Y118503D01*
X707256Y114744D01*
X706261Y113256D01*
X705912Y111500D01*
Y103700D01*
X702500D01*
Y100688D01*
X696250D01*
Y101100D01*
X690059D01*
Y109000D01*
X689826Y110170D01*
X689163Y111163D01*
X689163Y111163D01*
X685163Y115163D01*
X684171Y115826D01*
X683000Y116059D01*
X683000Y116059D01*
X671000D01*
Y119500D01*
X660000D01*
Y106500D01*
X671000D01*
Y109941D01*
X681733D01*
X683941Y107733D01*
Y101100D01*
X677750D01*
Y91100D01*
X696250D01*
Y91512D01*
X702500D01*
Y88300D01*
X718500D01*
Y103700D01*
X715088D01*
Y109600D01*
X717503Y112015D01*
X718566Y112154D01*
X720026Y112759D01*
X721279Y113721D01*
X722241Y114974D01*
X722846Y116434D01*
X723052Y118000D01*
X722846Y119566D01*
X722241Y121026D01*
X721588Y121877D01*
Y129000D01*
X721239Y130756D01*
X720244Y132244D01*
X702244Y150244D01*
X700756Y151239D01*
X699000Y151588D01*
X600900D01*
X600186Y152302D01*
X612442Y164558D01*
X612884Y165220D01*
X613039Y166000D01*
Y172000D01*
X612884Y172780D01*
X612500Y173355D01*
Y202645D01*
X612884Y203220D01*
X613039Y204000D01*
Y212000D01*
X612884Y212780D01*
X612500Y213355D01*
Y242941D01*
X623500D01*
Y213000D01*
X642500D01*
Y224441D01*
X650300D01*
Y219500D01*
X665700D01*
Y235500D01*
X650300D01*
Y230559D01*
X642500D01*
Y242941D01*
X661733D01*
X668941Y235733D01*
Y215267D01*
X666624Y212950D01*
X665700Y213332D01*
Y216500D01*
X650300D01*
Y200500D01*
X665700D01*
Y204865D01*
X666500Y205441D01*
X667671Y205674D01*
X668663Y206337D01*
X671517Y209192D01*
X672441Y208809D01*
Y177767D01*
X666700Y172026D01*
X665700Y172440D01*
Y176500D01*
X650300D01*
Y160500D01*
X665700D01*
Y165441D01*
X667500D01*
X667500Y165441D01*
X668671Y165674D01*
X669663Y166337D01*
X677663Y174337D01*
X677663Y174337D01*
X678326Y175329D01*
X678559Y176500D01*
Y239500D01*
X678559Y239500D01*
X678326Y240671D01*
X677663Y241663D01*
X667663Y251663D01*
X666671Y252326D01*
X665500Y252559D01*
D02*
G37*
G36*
X231500Y305000D02*
X224300D01*
Y297500D01*
X231500D01*
Y305000D01*
D02*
G37*
G36*
X300200Y253500D02*
X293000D01*
Y246000D01*
X300200D01*
Y253500D01*
D02*
G37*
%LPD*%
G36*
X596691Y129983D02*
Y94250D01*
X596691Y94250D01*
X596924Y93079D01*
X597587Y92087D01*
X606337Y83337D01*
X606750Y82500D01*
X606750D01*
X606750Y82500D01*
Y81323D01*
X605750Y80855D01*
X604566Y81346D01*
X603000Y81552D01*
X601434Y81346D01*
X599974Y80741D01*
X599250Y80185D01*
X598250Y80679D01*
Y81500D01*
X595059D01*
Y105750D01*
X594826Y106920D01*
X594163Y107913D01*
X594163Y107913D01*
X583013Y119063D01*
X582020Y119726D01*
X580850Y119959D01*
X580850Y119959D01*
X560250D01*
Y121900D01*
X541750D01*
Y111900D01*
X560250D01*
Y113841D01*
X579583D01*
X588941Y104483D01*
Y81500D01*
X585750D01*
Y73500D01*
X594647D01*
X595029Y72576D01*
X590953Y68500D01*
X585750D01*
Y68068D01*
X580978D01*
X579547Y69500D01*
X579961Y70500D01*
X582700D01*
Y86500D01*
X567300D01*
X566985Y87370D01*
X566959Y87500D01*
X567717Y88500D01*
X573500D01*
Y96000D01*
X566300D01*
Y90440D01*
X565300Y90026D01*
X561663Y93663D01*
X560671Y94326D01*
X560250Y94410D01*
Y96500D01*
X541750D01*
Y94559D01*
X535500D01*
X535500Y94559D01*
X534329Y94326D01*
X533337Y93663D01*
X533337Y93663D01*
X530033Y90358D01*
X529109Y90741D01*
Y133033D01*
X535317Y139241D01*
X541750D01*
Y137300D01*
X560250D01*
Y139241D01*
X587433D01*
X596691Y129983D01*
D02*
G37*
G36*
X592500Y229500D02*
X603000D01*
Y228000D01*
X604500D01*
Y212000D01*
X611000D01*
Y204000D01*
X604500D01*
Y188000D01*
Y172000D01*
X611000D01*
Y166000D01*
X598000Y153000D01*
X577000D01*
X566000Y164000D01*
Y172000D01*
X571500D01*
Y188000D01*
Y204000D01*
X566000D01*
Y212000D01*
X571500D01*
Y228000D01*
X573000D01*
Y229500D01*
X583500D01*
Y241000D01*
X592500D01*
Y229500D01*
D02*
G37*
%LPC*%
G36*
X583500Y226500D02*
X574500D01*
Y212000D01*
X583500D01*
Y226500D01*
D02*
G37*
G36*
X601500D02*
X592500D01*
Y212000D01*
X601500D01*
Y226500D01*
D02*
G37*
G36*
X577600Y135652D02*
X576034Y135446D01*
X574574Y134841D01*
X573321Y133879D01*
X572384Y132659D01*
X560250D01*
Y134600D01*
X541750D01*
Y132659D01*
X538350D01*
X537179Y132426D01*
X536187Y131763D01*
X536187Y131763D01*
X531337Y126913D01*
X530674Y125920D01*
X530441Y124750D01*
X530441Y124750D01*
Y107750D01*
X530441Y107750D01*
X530674Y106580D01*
X531337Y105587D01*
X534887Y102037D01*
X535880Y101374D01*
X537050Y101141D01*
X541750D01*
Y99200D01*
X560250D01*
Y109200D01*
X541750D01*
Y107259D01*
X538317D01*
X536559Y109017D01*
Y123483D01*
X539617Y126541D01*
X541750D01*
Y124600D01*
X560250D01*
Y126541D01*
X572384D01*
X573321Y125321D01*
X574574Y124359D01*
X576034Y123754D01*
X577600Y123548D01*
X579166Y123754D01*
X580626Y124359D01*
X581879Y125321D01*
X582841Y126574D01*
X583446Y128034D01*
X583652Y129600D01*
X583446Y131166D01*
X582841Y132626D01*
X581879Y133879D01*
X580626Y134841D01*
X579166Y135446D01*
X577600Y135652D01*
D02*
G37*
G36*
X583500Y186500D02*
X574500D01*
Y172000D01*
X583500D01*
Y186500D01*
D02*
G37*
G36*
X601500D02*
X592500D01*
Y172000D01*
X601500D01*
Y186500D01*
D02*
G37*
G36*
X583700Y96000D02*
X576500D01*
Y88500D01*
X583700D01*
Y96000D01*
D02*
G37*
G36*
X601500Y204000D02*
X592500D01*
Y189500D01*
X601500D01*
Y204000D01*
D02*
G37*
G36*
X583700Y106500D02*
X576500D01*
Y99000D01*
X583700D01*
Y106500D01*
D02*
G37*
G36*
X573500D02*
X566300D01*
Y99000D01*
X573500D01*
Y106500D01*
D02*
G37*
G36*
X583500Y204000D02*
X574500D01*
Y189500D01*
X583500D01*
Y204000D01*
D02*
G37*
%LPD*%
D10*
X650500Y113000D02*
D03*
X665500D02*
D03*
D11*
X880000Y559500D02*
D03*
Y540500D02*
D03*
X860000Y559500D02*
D03*
Y540500D02*
D03*
X840000Y559500D02*
D03*
Y540500D02*
D03*
X143000Y117500D02*
D03*
Y136500D02*
D03*
X123000Y117500D02*
D03*
Y136500D02*
D03*
X103000Y117500D02*
D03*
Y136500D02*
D03*
X114000Y498500D02*
D03*
Y479500D02*
D03*
X658000Y168500D02*
D03*
Y187500D02*
D03*
Y208500D02*
D03*
Y227500D02*
D03*
X518000Y173500D02*
D03*
Y192500D02*
D03*
Y211500D02*
D03*
Y230500D02*
D03*
X165000Y160500D02*
D03*
Y179500D02*
D03*
X259000Y110500D02*
D03*
Y129500D02*
D03*
X291500Y244500D02*
D03*
Y225500D02*
D03*
X575000Y97500D02*
D03*
Y78500D02*
D03*
X279000Y104500D02*
D03*
Y85500D02*
D03*
X475000Y93500D02*
D03*
Y112500D02*
D03*
X233000Y306500D02*
D03*
Y325500D02*
D03*
X120000Y410500D02*
D03*
Y429500D02*
D03*
D12*
X603000Y188000D02*
D03*
X633000D02*
D03*
X603000Y228000D02*
D03*
X633000D02*
D03*
X573000Y188000D02*
D03*
X543000D02*
D03*
X573000Y228000D02*
D03*
X543000D02*
D03*
D13*
X219500Y116000D02*
D03*
X238500D02*
D03*
X228500Y226000D02*
D03*
X247500D02*
D03*
X404500Y192000D02*
D03*
X385500D02*
D03*
X389250Y99500D02*
D03*
X370250D02*
D03*
X386250Y255750D02*
D03*
X367250D02*
D03*
X710500Y96000D02*
D03*
X729500D02*
D03*
X219500Y136000D02*
D03*
X238500D02*
D03*
X234500Y373000D02*
D03*
X215500D02*
D03*
X155500Y576000D02*
D03*
X174500D02*
D03*
X155500Y596000D02*
D03*
X174500D02*
D03*
D14*
X614000Y64500D02*
D03*
Y71000D02*
D03*
Y77500D02*
D03*
X592000D02*
D03*
Y64500D02*
D03*
D15*
X632500Y96100D02*
D03*
X551000Y78800D02*
D03*
D16*
X632500Y83400D02*
D03*
Y70700D02*
D03*
Y58000D02*
D03*
Y45300D02*
D03*
Y32600D02*
D03*
Y19900D02*
D03*
X687000Y96100D02*
D03*
Y83400D02*
D03*
Y45300D02*
D03*
Y32600D02*
D03*
Y19900D02*
D03*
Y70700D02*
D03*
Y58000D02*
D03*
X551000Y91500D02*
D03*
Y104200D02*
D03*
Y116900D02*
D03*
Y129600D02*
D03*
Y142300D02*
D03*
Y155000D02*
D03*
X496500Y78800D02*
D03*
Y91500D02*
D03*
Y104200D02*
D03*
Y116900D02*
D03*
Y129600D02*
D03*
Y142300D02*
D03*
Y155000D02*
D03*
D17*
X278750Y191500D02*
D03*
Y186500D02*
D03*
Y181500D02*
D03*
Y176500D02*
D03*
Y171500D02*
D03*
Y166500D02*
D03*
Y161500D02*
D03*
Y156500D02*
D03*
Y151500D02*
D03*
Y146500D02*
D03*
Y141500D02*
D03*
Y136500D02*
D03*
X359250D02*
D03*
Y141500D02*
D03*
Y146500D02*
D03*
Y151500D02*
D03*
Y156500D02*
D03*
Y161500D02*
D03*
Y166500D02*
D03*
Y171500D02*
D03*
Y176500D02*
D03*
Y181500D02*
D03*
Y186500D02*
D03*
Y191500D02*
D03*
D18*
X291500Y123750D02*
D03*
X296500D02*
D03*
X301500D02*
D03*
X306500D02*
D03*
X311500D02*
D03*
X316500D02*
D03*
X321500D02*
D03*
X326500D02*
D03*
X331500D02*
D03*
X336500D02*
D03*
X341500D02*
D03*
X346500D02*
D03*
Y204250D02*
D03*
X341500D02*
D03*
X336500D02*
D03*
X331500D02*
D03*
X326500D02*
D03*
X321500D02*
D03*
X316500D02*
D03*
X311500D02*
D03*
X306500D02*
D03*
X301500D02*
D03*
X296500D02*
D03*
X291500D02*
D03*
D19*
X191200Y202000D02*
D03*
Y160000D02*
D03*
X242000Y202000D02*
D03*
Y160000D02*
D03*
D20*
X215000Y303000D02*
D03*
Y326000D02*
D03*
Y349000D02*
D03*
D21*
X147500Y326000D02*
D03*
D22*
X190000Y509000D02*
D03*
D23*
X215400Y409500D02*
D03*
X164600D02*
D03*
D24*
X352382Y234882D02*
Y242632D01*
X346500Y229000D02*
X352382Y234882D01*
X346500Y204250D02*
Y229000D01*
X341500Y204250D02*
Y235675D01*
X342325Y236500D01*
X321500Y226250D02*
X341750Y246500D01*
X321500Y204250D02*
Y226250D01*
X503802Y234031D02*
Y236552D01*
X513250Y246000D01*
X506500Y249500D02*
X665500D01*
X495781Y238781D02*
X506500Y249500D01*
X494302Y238781D02*
X495781D01*
X320250Y255750D02*
X367250D01*
X311500Y247000D02*
X320250Y255750D01*
X433250D02*
X451600Y237400D01*
X386250Y255750D02*
X433250D01*
X513250Y246000D02*
X663000D01*
X672000Y237000D01*
Y214000D02*
Y237000D01*
X666500Y208500D02*
X672000Y214000D01*
X665500Y249500D02*
X675500Y239500D01*
Y176500D02*
Y239500D01*
X667500Y168500D02*
X675500Y176500D01*
X658000Y208500D02*
X666500D01*
X658000Y168500D02*
X667500D01*
X464500Y211500D02*
X518000D01*
X434500Y181500D02*
X464500Y211500D01*
X359250Y181500D02*
X434500D01*
X359250Y176500D02*
X440500D01*
X442500Y178500D01*
X471500D01*
X476500Y173500D01*
X518000D01*
X633500Y227500D02*
X658000D01*
X633000Y228000D02*
X633500Y227500D01*
X633000Y188000D02*
X633500Y187500D01*
X658000D01*
X518000Y192500D02*
X538500D01*
X543000Y188000D01*
X589000D02*
X603000D01*
X588000Y189000D02*
X589000Y188000D01*
X540500Y230500D02*
X543000Y228000D01*
X518000Y230500D02*
X540500D01*
X687000Y96100D02*
Y109000D01*
X683000Y113000D02*
X687000Y109000D01*
X665500Y113000D02*
X683000D01*
X638000D02*
X650500D01*
X632500Y107500D02*
X638000Y113000D01*
X632500Y96100D02*
Y107500D01*
X403000Y111250D02*
X430500D01*
X359250Y131750D02*
X373000Y118000D01*
X396250D02*
X403000Y111250D01*
X373000Y118000D02*
X396250D01*
X359250Y131750D02*
Y136500D01*
X687000Y58000D02*
X695250D01*
X699600Y62350D01*
X687000Y70700D02*
X695250D01*
X699600Y66350D01*
X753000Y77000D02*
Y170343D01*
X760657Y178000D01*
X749000Y172000D02*
X759000Y182000D01*
X775000D01*
X786000Y193000D01*
X760657Y178000D02*
X776000D01*
X786000Y168000D01*
X687000Y32600D02*
X695250D01*
X699600Y36950D01*
X687000Y45300D02*
X695250D01*
X699600Y40950D01*
X808950D02*
X818000Y50000D01*
Y72000D01*
X810607Y36950D02*
X822000Y48343D01*
Y73657D01*
X812000Y78000D02*
X818000Y72000D01*
X813657Y82000D02*
X822000Y73657D01*
X786000Y91000D02*
X795000Y82000D01*
X813657D01*
X786000Y70000D02*
X794000Y78000D01*
X812000D01*
X699600Y40950D02*
X808950D01*
X699600Y36950D02*
X810607D01*
X749000Y78657D02*
Y172000D01*
X699600Y66350D02*
X736693D01*
X749000Y78657D01*
X738350Y62350D02*
X753000Y77000D01*
X699600Y62350D02*
X738350D01*
X359250Y191500D02*
X385000D01*
X291500Y204250D02*
Y225500D01*
X247500Y226000D02*
X267000D01*
X278750Y214250D01*
Y191500D02*
Y214250D01*
X238500Y136000D02*
Y156500D01*
X242000Y160000D01*
X259000Y129500D02*
Y144000D01*
X266500Y151500D01*
X278750D01*
X242000Y160000D02*
X253500Y171500D01*
X278750D01*
X165000Y160500D02*
X190700D01*
X238500Y116000D02*
X249000Y126500D01*
Y142000D01*
X238500Y116000D02*
X238500Y116000D01*
X551000Y142300D02*
X588700D01*
X632500Y58000D02*
X645000D01*
X649000Y54000D01*
Y45000D02*
Y54000D01*
X359250Y171500D02*
X455500D01*
X614000Y71000D02*
X632200D01*
X551000Y67000D02*
Y78800D01*
Y91500D02*
X559500D01*
X564000Y87000D01*
X592000Y77500D02*
Y105750D01*
X580850Y116900D02*
X592000Y105750D01*
X551000Y116900D02*
X580850D01*
X588700Y142300D02*
X599750Y131250D01*
Y94250D02*
Y131250D01*
Y94250D02*
X610600Y83400D01*
X632500D01*
X564000Y63250D02*
Y87000D01*
Y63250D02*
X582250Y45000D01*
X632200D01*
X331500Y111899D02*
Y123750D01*
Y111899D02*
X378899Y64500D01*
X336500Y111849D02*
Y123750D01*
X321500Y105500D02*
Y123750D01*
Y105500D02*
X329000Y98000D01*
X309000D02*
X311500Y100500D01*
Y123750D01*
X316500Y100500D02*
X319000Y98000D01*
X316500Y100500D02*
Y123750D01*
X336500Y111849D02*
X380349Y68000D01*
X378899Y64500D02*
X522250D01*
X530000Y72250D01*
Y86000D01*
X535500Y91500D01*
X551000D01*
X380349Y68000D02*
X518500D01*
X534050Y142300D02*
X551000D01*
X346500Y112000D02*
Y123750D01*
X537050Y104200D02*
X551000D01*
X533500Y107750D02*
X537050Y104200D01*
X533500Y107750D02*
Y124750D01*
X538350Y129600D01*
X551000D01*
X577600D01*
X408851Y118250D02*
X441000D01*
X465050Y142300D01*
X496500D01*
X359250Y141500D02*
X368932D01*
X384000Y126432D01*
Y125000D02*
Y126432D01*
X359250Y151500D02*
X375601D01*
X408851Y118250D01*
X359250Y146500D02*
X373500D01*
X405250Y114750D01*
X442450D02*
X457300Y129600D01*
X496500D01*
X405250Y114750D02*
X442450D01*
X430500Y111250D02*
X463500Y78250D01*
X539250Y65750D02*
X549750D01*
X551000Y67000D01*
X359000Y99500D02*
X370250D01*
X346500Y112000D02*
X359000Y99500D01*
X311500Y204250D02*
Y247000D01*
X496500Y155000D02*
X516500D01*
X551000Y67000D02*
X578700Y39300D01*
X615350Y32600D02*
X632500D01*
X614000Y31250D02*
X615350Y32600D01*
X578700Y39300D02*
X643300D01*
X649000Y45000D01*
X257000Y85500D02*
X279000D01*
X238500Y104000D02*
X257000Y85500D01*
X238500Y104000D02*
Y116000D01*
X602250Y52000D02*
Y64250D01*
X609000Y71000D01*
X614000D01*
X380500Y156500D02*
X394000Y143000D01*
X359250Y156500D02*
X380500D01*
X397600Y153000D02*
X420000Y130600D01*
X359250Y161500D02*
X385500D01*
X394000Y153000D02*
X397600D01*
X385500Y161500D02*
X394000Y153000D01*
X390500Y166500D02*
X394000Y163000D01*
X413000D02*
X420000Y156000D01*
X394000Y163000D02*
X413000D01*
X359250Y166500D02*
X390500D01*
X451600Y226500D02*
Y237400D01*
X526050Y134300D02*
X534050Y142300D01*
X518500Y68000D02*
X526050Y75550D01*
Y134300D01*
X267000Y226000D02*
X291000D01*
X291500Y225500D01*
X267000Y226000D02*
Y235000D01*
X24000Y86000D02*
X42000Y104000D01*
X24000Y58128D02*
Y86000D01*
Y58128D02*
X28329Y53799D01*
X50550Y117500D02*
X103000D01*
X15000Y81950D02*
X50550Y117500D01*
X15000Y34000D02*
Y81950D01*
Y34000D02*
X30000Y19000D01*
X75000D01*
X83197Y27197D01*
Y36521D01*
X103000Y136500D02*
X123000D01*
X143000D01*
X160500D01*
X165000Y141000D01*
X921262Y564500D02*
X922518Y563244D01*
X880000Y559500D02*
X892500D01*
X973908Y561908D02*
Y589085D01*
X953291Y541291D02*
X973908Y561908D01*
X910709Y541291D02*
X953291D01*
X892500Y559500D02*
X910709Y541291D01*
X860000Y559500D02*
Y570000D01*
X866000Y576000D01*
X896000D01*
X908756Y563244D01*
X922518D01*
X840000Y559500D02*
Y589000D01*
X869000Y618000D01*
X923157D01*
X114000Y498500D02*
Y509000D01*
X82000Y541000D02*
X114000Y509000D01*
X48000Y541000D02*
X82000D01*
X11000Y578000D02*
X48000Y541000D01*
X11000Y578000D02*
Y602000D01*
X22877Y613877D01*
X36675D01*
X132000Y576000D02*
X155500D01*
X107000Y551000D02*
X132000Y576000D01*
X60693Y551000D02*
X107000D01*
X52979Y558715D02*
X60693Y551000D01*
X151094Y600406D02*
X155500Y596000D01*
X92616Y600406D02*
X151094D01*
X299000Y98000D02*
X306500Y105500D01*
Y123750D01*
X249000Y142000D02*
X268500Y161500D01*
X278750D01*
X923157Y618000D02*
X925829Y620672D01*
X174500Y576000D02*
Y596000D01*
X70724Y92678D02*
X131678D01*
X143000Y104000D01*
Y117500D01*
X42000Y104000D02*
X119000D01*
X123000Y108000D01*
Y117500D01*
X174500Y576000D02*
X255750D01*
X287000Y544750D01*
Y325500D02*
Y544750D01*
X114000Y479500D02*
X123500D01*
X127000Y483000D01*
Y557000D01*
X135000Y565000D01*
X169000D01*
X174500Y570500D01*
Y576000D01*
D25*
X724000Y218000D02*
X733000D01*
X657000Y285000D02*
X724000Y218000D01*
X300000Y285000D02*
X657000D01*
X733000Y218000D02*
X786000D01*
X164600Y409500D02*
Y426400D01*
X164600Y388600D02*
Y409500D01*
X123000Y304606D02*
Y347000D01*
X164600Y388600D01*
X123000Y304606D02*
X173605Y254000D01*
X269000D01*
X300000Y285000D01*
D26*
X699000Y147000D02*
X717000Y129000D01*
X599000Y147000D02*
X699000D01*
X588000Y158000D02*
X599000Y147000D01*
X588000Y158000D02*
Y189000D01*
X717000Y118000D02*
Y129000D01*
X687000Y96100D02*
X710400D01*
X710500Y96000D01*
X27759Y587139D02*
X59139D01*
X73903Y601903D01*
Y621497D01*
X80569Y564366D02*
Y565710D01*
X59139Y587139D02*
X80569Y565710D01*
X908398Y598523D02*
X931477D01*
X939189Y591000D02*
X963440Y615252D01*
X939000Y591000D02*
X939189D01*
X931477Y598523D02*
X939000Y591000D01*
Y570631D02*
Y591000D01*
Y570631D02*
X950406Y559225D01*
X165000Y141000D02*
Y160500D01*
X710500Y96000D02*
Y111500D01*
X717000Y118000D01*
X385500Y192000D02*
Y208500D01*
X390000Y213000D01*
X412700D01*
X426200Y226500D01*
X215000Y303000D02*
X229500D01*
X233000Y306500D01*
X120000Y429500D02*
Y443000D01*
X186000Y509000D01*
X190000D01*
X215900Y409000D02*
X233000D01*
X215400Y409500D02*
X215900Y409000D01*
D27*
X215000Y349000D02*
X215400Y349400D01*
X215000Y326000D02*
X232500D01*
X233000Y325500D01*
X786000Y143000D02*
X808000Y165000D01*
X786000Y118000D02*
X827000Y159000D01*
Y284000D01*
X191000Y349000D02*
X215000D01*
X178000Y336000D02*
X191000Y349000D01*
X178000Y293000D02*
Y336000D01*
X785500Y325500D02*
X827000Y284000D01*
X767000Y307000D02*
X808000Y266000D01*
X287000Y307000D02*
X767000D01*
X808000Y165000D02*
Y266000D01*
X178000Y293000D02*
X192000Y279000D01*
X259000D01*
X287000Y307000D01*
X120000Y410500D02*
X163600D01*
X233000Y325500D02*
X253000D01*
X332000D02*
X785500D01*
X215400Y349400D02*
Y409500D01*
X253000Y325500D02*
X287000D01*
X332000D01*
D28*
X579500Y64500D02*
X592000D01*
X575000Y69000D02*
X579500Y64500D01*
X575000Y69000D02*
Y78500D01*
X69149Y62582D02*
X93925D01*
X45533Y31481D02*
Y50533D01*
X62866Y67865D01*
X63865D01*
X42792Y88939D02*
X63865Y67865D01*
X69149Y62582D01*
X308000Y17000D02*
X559000D01*
X475000Y84000D02*
Y93500D01*
Y84000D02*
X480200Y78800D01*
X496500D01*
X279000Y104500D02*
Y126000D01*
X275500Y129500D02*
X279000Y126000D01*
X259000Y129500D02*
X275500D01*
X592000Y64500D02*
X603000Y75500D01*
X370250Y91750D02*
Y99500D01*
Y91750D02*
X381000Y81000D01*
X496500Y78800D02*
X511800D01*
X515000Y82000D01*
Y97000D01*
X93925Y62582D02*
X118342Y87000D01*
X238000D01*
X308000Y17000D01*
X840000Y540500D02*
X860000D01*
X880000D01*
X785500Y486000D02*
X840000Y540500D01*
X785500Y325500D02*
Y486000D01*
D29*
X540750Y431000D02*
D03*
D30*
X620750Y396000D02*
D03*
X505750Y351000D02*
D03*
X460750Y466000D02*
D03*
X575750Y511000D02*
D03*
D31*
X36675Y613877D02*
D03*
X55289Y617687D02*
D03*
X73903Y621497D02*
D03*
X27759Y587139D02*
D03*
X40369Y572927D02*
D03*
X52979Y558715D02*
D03*
X92616Y600406D02*
D03*
X86592Y582386D02*
D03*
X80569Y564366D02*
D03*
X45533Y31481D02*
D03*
X64365Y34001D02*
D03*
X83197Y36521D02*
D03*
X28329Y53799D02*
D03*
X35561Y71369D02*
D03*
X42792Y88939D02*
D03*
X93925Y62582D02*
D03*
X82324Y77630D02*
D03*
X70724Y92678D02*
D03*
X925829Y620672D02*
D03*
X944634Y617962D02*
D03*
X963440Y615252D02*
D03*
X908398Y598523D02*
D03*
X915458Y580883D02*
D03*
X922518Y563244D02*
D03*
X973908Y589085D02*
D03*
X962157Y574155D02*
D03*
X950406Y559225D02*
D03*
X154000Y541000D02*
D03*
X226000D02*
D03*
Y477000D02*
D03*
X190000Y509000D02*
D03*
X233000Y409000D02*
D03*
D32*
X420000Y156000D02*
D03*
X477000Y226500D02*
D03*
X451600D02*
D03*
X786000Y193000D02*
D03*
Y218000D02*
D03*
Y168000D02*
D03*
Y143000D02*
D03*
Y118000D02*
D03*
Y93000D02*
D03*
Y68000D02*
D03*
X733000Y193000D02*
D03*
Y218000D02*
D03*
D33*
X420000Y130600D02*
D03*
X786000Y243000D02*
D03*
X733000D02*
D03*
D34*
X426200Y226500D02*
D03*
D35*
X352382Y242632D02*
D03*
X342325Y236500D02*
D03*
X341750Y246500D02*
D03*
X503802Y234031D02*
D03*
X494302Y238781D02*
D03*
X523000Y30000D02*
D03*
X312000Y402000D02*
D03*
X455500Y171500D02*
D03*
X602250Y52000D02*
D03*
X299000Y98000D02*
D03*
X329000D02*
D03*
X319000D02*
D03*
X309000D02*
D03*
X577600Y129600D02*
D03*
X384000Y125000D02*
D03*
X463500Y78250D02*
D03*
X539250Y65750D02*
D03*
X516500Y155000D02*
D03*
X614000Y31250D02*
D03*
X559000Y17000D02*
D03*
X279000Y126000D02*
D03*
X165000Y141000D02*
D03*
X603000Y75500D02*
D03*
X717000Y118000D02*
D03*
X394000Y143000D02*
D03*
Y153000D02*
D03*
Y163000D02*
D03*
X253000Y325500D02*
D03*
X381000Y81000D02*
D03*
X332000Y325500D02*
D03*
X168000Y223000D02*
D03*
X405000Y83000D02*
D03*
X515000Y97000D02*
D03*
X267000Y235000D02*
D03*
X575000Y97500D02*
D03*
M02*
