G04 Layer_Color=32896*
%FSLAX44Y44*%
%MOMM*%
G71*
G01*
G75*
%ADD39C,0.2540*%
%ADD61C,0.0035*%
G36*
X626373Y150800D02*
X626664Y150722D01*
X627075Y150402D01*
X627372Y149947D01*
X627393Y149909D01*
X627909Y147666D01*
X628036Y144380D01*
X628005Y140238D01*
X627938Y135288D01*
X627940Y135283D01*
X627941Y135278D01*
X627943Y135277D01*
X627943Y135275D01*
X627948Y135273D01*
X627952Y135270D01*
X628026Y135252D01*
X628027D01*
X628028Y135251D01*
X628632Y135194D01*
X628633Y135194D01*
X628633Y135194D01*
X629454Y135161D01*
X629455D01*
X631538Y135166D01*
X631539D01*
X633941Y135239D01*
X633941D01*
X636106Y135337D01*
X636106D01*
X637947Y135440D01*
X639300Y135525D01*
X640003Y135572D01*
X640008Y135575D01*
X640014Y135577D01*
X640015Y135578D01*
X640016Y135579D01*
X640017Y135583D01*
X640021Y135590D01*
X640257Y139134D01*
X640257Y139135D01*
X640257Y139136D01*
Y142956D01*
X640259Y146806D01*
X640603Y149915D01*
X640781Y150205D01*
X641090Y150344D01*
X641566Y150297D01*
X641984Y150088D01*
X642580Y149383D01*
X643005Y148409D01*
X643335Y147177D01*
X643806Y144030D01*
Y144029D01*
X644056Y140203D01*
X644120Y136117D01*
X644022Y131978D01*
X643784Y128078D01*
X643420Y124712D01*
X643422Y124707D01*
Y124703D01*
X643423Y124701D01*
X643424Y124698D01*
X643429Y124696D01*
X643432Y124693D01*
X643853Y124531D01*
X644039Y124125D01*
X644165Y98397D01*
Y98390D01*
Y98379D01*
X644150Y95104D01*
X643889Y92522D01*
X643449Y90549D01*
X642901Y89100D01*
X642311Y88097D01*
X641747Y87462D01*
X641281Y87119D01*
X641280Y87118D01*
X641279Y87117D01*
X641276Y87111D01*
X641274Y87107D01*
X641274Y87105D01*
X641274Y87103D01*
X641464Y83872D01*
X641360Y81264D01*
X641155Y79517D01*
Y79517D01*
X641044Y78882D01*
Y78882D01*
X640968Y78513D01*
X640592Y78448D01*
X636953Y77921D01*
X636953D01*
X633504Y77656D01*
X630331Y77602D01*
X627511Y77709D01*
X625118Y77927D01*
X625118D01*
X623231Y78200D01*
X621918Y78478D01*
X621499Y78595D01*
X621126Y78808D01*
X620895Y79093D01*
X620835Y79337D01*
X620775Y79856D01*
X620782Y81284D01*
X620899Y83166D01*
X621085Y85265D01*
X621301Y87339D01*
X621507Y89132D01*
X621661Y90395D01*
X621721Y90871D01*
X621785Y91370D01*
X622283Y91364D01*
X622284D01*
X623248Y91352D01*
X623251Y91353D01*
X623253Y91353D01*
X623257Y91356D01*
X623261Y91358D01*
X623262Y91361D01*
X623264Y91362D01*
X623265Y91365D01*
X623267Y91371D01*
X623266Y91374D01*
X623266Y91376D01*
X623103Y91988D01*
X622998Y92475D01*
Y92475D01*
X622943Y92793D01*
X622927Y92906D01*
Y92906D01*
X622921Y92979D01*
X622985Y101902D01*
X623321Y110313D01*
X623824Y117914D01*
X624394Y124409D01*
X624587Y124774D01*
X624970Y124921D01*
X625015Y124916D01*
X625017Y124917D01*
X625019Y124916D01*
X625024Y124919D01*
X625028Y124920D01*
X625030Y124922D01*
X625032Y124923D01*
X625033Y124928D01*
X625036Y124933D01*
X625035Y124935D01*
X625036Y124937D01*
X624760Y127315D01*
X624551Y130652D01*
X624399Y135345D01*
X624381Y140270D01*
X624531Y144803D01*
X624891Y148355D01*
X625146Y149590D01*
X625608Y150477D01*
X626066Y150776D01*
X626220Y150805D01*
X626373Y150800D01*
D02*
G37*
G36*
X669412Y150927D02*
X669871Y150629D01*
X670335Y149742D01*
X670589Y148507D01*
X670949Y144955D01*
X671097Y140422D01*
X671081Y135497D01*
X670928Y130803D01*
X670717Y127466D01*
X670437Y125089D01*
X670438Y125086D01*
X670437Y125084D01*
X670440Y125079D01*
X670442Y125075D01*
X670443Y125074D01*
X670444Y125072D01*
X670450Y125070D01*
X670454Y125068D01*
X670456Y125068D01*
X670458Y125068D01*
X670512Y125073D01*
X670566D01*
X670917Y124908D01*
X671087Y124560D01*
X671656Y118066D01*
X672160Y110465D01*
X672494Y102054D01*
X672559Y93131D01*
X672552Y93057D01*
X672553Y93057D01*
X672536Y92944D01*
X672481Y92626D01*
Y92626D01*
X672377Y92140D01*
X672214Y91527D01*
X672214Y91525D01*
X672213Y91522D01*
X672215Y91519D01*
X672215Y91513D01*
X672218Y91511D01*
X672219Y91510D01*
X672222Y91508D01*
X672227Y91504D01*
X672230Y91505D01*
X672232Y91504D01*
X673197Y91516D01*
X673695Y91521D01*
X673759Y91023D01*
X673819Y90546D01*
X673973Y89284D01*
X674178Y87491D01*
X674395Y85416D01*
X674582Y83317D01*
X674698Y81435D01*
X674704Y80008D01*
X674643Y79486D01*
Y79486D01*
X674584Y79245D01*
X674354Y78959D01*
X673981Y78747D01*
X673561Y78629D01*
X672246Y78345D01*
X672246Y78344D01*
X670361Y78074D01*
X667970Y77860D01*
X665147Y77754D01*
X661972Y77808D01*
X658522Y78073D01*
X658522D01*
X654881Y78600D01*
X654505Y78664D01*
X654429Y79033D01*
Y79034D01*
X654319Y79669D01*
Y79669D01*
X654113Y81417D01*
X654009Y84028D01*
X654199Y87261D01*
X654199Y87263D01*
X654199Y87264D01*
X654196Y87269D01*
X654195Y87274D01*
X654193Y87275D01*
X654192Y87277D01*
X653731Y87615D01*
X653170Y88249D01*
X652579Y89252D01*
X652031Y90701D01*
X651592Y92673D01*
X651330Y95255D01*
X651313Y98531D01*
Y98542D01*
Y98548D01*
X651441Y124276D01*
X651627Y124683D01*
X652047Y124845D01*
X652051Y124847D01*
X652056Y124850D01*
X652056Y124853D01*
X652058Y124854D01*
Y124859D01*
X652060Y124864D01*
X651697Y128229D01*
X651457Y132129D01*
X651361Y136269D01*
X651423Y140354D01*
X651674Y144181D01*
Y144181D01*
X652143Y147328D01*
X652475Y148560D01*
X652899Y149535D01*
X653495Y150239D01*
X653914Y150448D01*
X654390Y150496D01*
X654700Y150356D01*
X654877Y150066D01*
X655220Y146958D01*
X655222Y143108D01*
X655223Y139288D01*
X655224Y139287D01*
X655223Y139286D01*
X655458Y135741D01*
X655460Y135736D01*
X655462Y135730D01*
X655464Y135730D01*
X655464Y135729D01*
X655469Y135727D01*
X655475Y135724D01*
X656180Y135676D01*
X657534Y135591D01*
X659375Y135489D01*
X659375D01*
X661538Y135390D01*
X661538D01*
X663941Y135317D01*
X663942D01*
X666024Y135312D01*
X666025D01*
X666846Y135345D01*
X666847Y135346D01*
X666848Y135345D01*
X667450Y135403D01*
X667452Y135404D01*
X667453Y135403D01*
X667526Y135421D01*
X667530Y135424D01*
X667535Y135427D01*
X667536Y135428D01*
X667538Y135430D01*
X667538Y135434D01*
X667540Y135440D01*
X667475Y140389D01*
X667444Y144531D01*
X667572Y147817D01*
X668085Y150059D01*
X668109Y150099D01*
Y150100D01*
X668406Y150555D01*
X668816Y150874D01*
X669107Y150951D01*
X669261D01*
X669412Y150927D01*
D02*
G37*
G36*
X591556Y135873D02*
X591557D01*
X592570Y135839D01*
X593862Y135725D01*
X593863D01*
X595661Y135436D01*
X595729Y134738D01*
X595671Y134049D01*
X595487Y133283D01*
Y133283D01*
X595180Y132367D01*
X593899Y132366D01*
X592727Y132372D01*
X591904Y132461D01*
X591553Y132499D01*
X590640Y132752D01*
X590673Y132920D01*
Y132921D01*
X590673Y132922D01*
X590941Y135905D01*
X591556Y135873D01*
D02*
G37*
G36*
X595728Y145129D02*
Y145129D01*
X595704Y145057D01*
X594436Y144547D01*
X594434Y144545D01*
X594431Y144544D01*
X593166Y143540D01*
X593164Y143537D01*
X593162Y143536D01*
X592273Y142251D01*
X592272Y142249D01*
X592271Y142247D01*
X591661Y140708D01*
Y140706D01*
X591660Y140704D01*
X591004Y137027D01*
X591004Y137026D01*
X591003Y137025D01*
X590941Y136334D01*
X590563Y135956D01*
X590562Y135955D01*
X590560Y135950D01*
X590557Y135943D01*
X590557Y135943D01*
X590557Y135942D01*
X590559Y135936D01*
X590562Y135930D01*
X590562Y135929D01*
X590562Y135929D01*
X590568Y135927D01*
X590575Y135923D01*
X590903Y135907D01*
X590635Y132926D01*
X590604Y132762D01*
X590262Y132857D01*
X590090Y132988D01*
Y132989D01*
X590273Y135038D01*
X590454Y137062D01*
X590453Y137063D01*
X590712Y139009D01*
X591127Y140827D01*
X591777Y142459D01*
X592745Y143858D01*
X594108Y144970D01*
X595910Y145729D01*
X595728Y145129D01*
D02*
G37*
G36*
X651683Y237303D02*
X651683D01*
X655715Y236723D01*
X659621Y235784D01*
X659621D01*
X663382Y234500D01*
X663383D01*
X663386Y234499D01*
X663391Y234501D01*
X663396Y234501D01*
X663397Y234503D01*
X663399Y234503D01*
X663402Y234508D01*
X663405Y234512D01*
Y234514D01*
X663406Y234516D01*
X663486Y235571D01*
X663563Y236557D01*
X664544Y236446D01*
X668355Y235467D01*
X671675Y233649D01*
X674508Y231283D01*
X676848Y228669D01*
Y228669D01*
X678654Y226166D01*
X678655D01*
X680005Y223943D01*
X680903Y222230D01*
X681350Y221264D01*
X681351Y221264D01*
X681351Y221262D01*
X685261Y215443D01*
X685263Y215442D01*
X685264Y215440D01*
X685269Y215438D01*
X685273Y215435D01*
X685275Y215435D01*
X685277Y215435D01*
X690139Y215532D01*
X690561Y215538D01*
X690852Y215229D01*
X690852Y215228D01*
X695046Y210737D01*
X695052Y210734D01*
X695056Y210731D01*
X696486Y210456D01*
X697799Y209858D01*
X698987Y208984D01*
X700039Y207884D01*
X701909Y204924D01*
X703316Y201391D01*
X704320Y197550D01*
X704930Y193673D01*
X705154Y190014D01*
X704994Y186839D01*
X704893Y186000D01*
X704091D01*
X704091Y186000D01*
X704090Y186000D01*
X703969Y185989D01*
X703969Y185989D01*
X703968Y185989D01*
X703514Y185928D01*
X703513Y185928D01*
X702816Y185841D01*
X702815D01*
X701919Y185728D01*
X701593Y185686D01*
X701580Y185679D01*
X701576Y185665D01*
X701733Y184428D01*
Y184427D01*
Y184427D01*
X701739Y184418D01*
X701741Y184415D01*
X701741D01*
X701741Y184415D01*
X701748Y184413D01*
X701755Y184411D01*
X701755Y184412D01*
X704319Y184866D01*
X704900Y184966D01*
X704976Y184379D01*
X705031Y183967D01*
X705035Y183962D01*
X705036Y183957D01*
X706386Y182375D01*
X707151Y180666D01*
X707457Y178931D01*
X707426Y177267D01*
X707179Y175780D01*
X706839Y174566D01*
X706527Y173725D01*
Y173725D01*
X706366Y173363D01*
Y173358D01*
X706365Y173353D01*
X706467Y172559D01*
X706526Y172101D01*
X706438Y172070D01*
X706432Y172064D01*
X706429Y172062D01*
X706428Y172061D01*
X706427Y172060D01*
X706427Y172054D01*
X706426Y172048D01*
X706662Y170957D01*
X706665Y170952D01*
X706667Y170948D01*
X706669Y170947D01*
X706670Y170945D01*
X706675Y170944D01*
X706680Y170942D01*
X706805D01*
X706969Y170896D01*
X707156Y170752D01*
X707233Y170631D01*
X707311Y170446D01*
X707510Y169522D01*
X707704Y168016D01*
X707910Y165971D01*
X708352Y160630D01*
X708801Y154278D01*
X709020Y150970D01*
X709227Y147706D01*
X709420Y144587D01*
X709594Y141713D01*
X709744Y139186D01*
Y139186D01*
X709867Y137107D01*
X709958Y135576D01*
X710013Y134693D01*
Y134693D01*
X710049Y134194D01*
X709556Y134100D01*
X709554Y134099D01*
X709553D01*
X709456Y134063D01*
X709453Y134060D01*
X709450Y134059D01*
X709273Y133889D01*
X709272Y133885D01*
X709269Y133882D01*
X709198Y133690D01*
Y133687D01*
X709197Y133684D01*
X709192Y133341D01*
X709193Y133338D01*
X709193Y133336D01*
X709334Y132801D01*
X709335Y132800D01*
Y132798D01*
X709701Y132031D01*
X709701Y132030D01*
Y132029D01*
X709782Y131889D01*
X709771Y131731D01*
Y131730D01*
Y131730D01*
X709614Y128027D01*
X709596Y127576D01*
X709151Y127500D01*
X709151D01*
X708963Y127479D01*
X708467Y127480D01*
X707760Y127595D01*
X706939Y127922D01*
X706187Y128469D01*
X705487Y129309D01*
X704904Y130479D01*
X704492Y132026D01*
X704489Y132031D01*
X704485Y132036D01*
X704484Y132037D01*
X704484Y132037D01*
X704478Y132038D01*
X704471Y132040D01*
X702126Y131675D01*
X699833Y131676D01*
X699503Y131781D01*
X699289Y132054D01*
X698970Y133021D01*
Y133022D01*
X698771Y133865D01*
X698705Y134649D01*
X698776Y135446D01*
X698936Y135742D01*
X699231Y135901D01*
X700541Y136126D01*
X700541D01*
X701573Y136257D01*
X702399Y136321D01*
X703099Y136348D01*
X703104Y136350D01*
X703109Y136351D01*
X703110Y136353D01*
X703112Y136354D01*
X703114Y136359D01*
X703117Y136364D01*
X703116Y136365D01*
X703117Y136367D01*
X703114Y136373D01*
X703113Y136377D01*
X701368Y138853D01*
X700127Y141472D01*
X699594Y142938D01*
X699219Y144143D01*
X699219Y144144D01*
X699000Y144960D01*
Y144960D01*
X698970Y145094D01*
X698968Y145097D01*
X698968Y145099D01*
X698965Y145102D01*
X698962Y145106D01*
X698959Y145106D01*
X698957Y145108D01*
X698836Y145144D01*
X698835D01*
X698431Y145256D01*
X698419Y145672D01*
X698419Y145672D01*
X698419Y145673D01*
X698236Y147322D01*
X698236Y147323D01*
Y147323D01*
X697870Y149130D01*
Y149131D01*
X697442Y151025D01*
X697442Y151026D01*
X697073Y152936D01*
X696891Y154806D01*
X697043Y156585D01*
X697620Y158052D01*
X698711Y159292D01*
X698716Y159305D01*
Y159306D01*
X698455Y162718D01*
X698453Y162723D01*
X698451Y162729D01*
X697753Y163635D01*
X697751Y163636D01*
X697750Y163638D01*
X696952Y164291D01*
X696950Y164292D01*
X696948Y164293D01*
X696109Y164736D01*
X696108D01*
X696107Y164737D01*
X695287Y165008D01*
X695286D01*
X695285Y165009D01*
X694543Y165150D01*
X694542Y165150D01*
X694541Y165150D01*
X693938Y165200D01*
X693937Y165199D01*
X693937Y165200D01*
X693530Y165200D01*
X693530Y165200D01*
X693529Y165200D01*
X693399Y165192D01*
X693169Y168005D01*
Y168005D01*
X693163Y168018D01*
X693149Y168022D01*
X693149D01*
X692257Y167946D01*
X691950Y167920D01*
X691790Y170011D01*
X691790Y170013D01*
Y170013D01*
X691369Y172558D01*
X691368Y172560D01*
Y172563D01*
X690573Y174290D01*
X690062Y176497D01*
X690156Y179094D01*
X691175Y181993D01*
X691174Y181996D01*
X691176Y181999D01*
Y182023D01*
X691175Y182024D01*
X691176Y182025D01*
X691129Y182541D01*
X691638Y182629D01*
X693244Y182914D01*
X693257Y182922D01*
X693260Y182936D01*
X693117Y183748D01*
X693116Y183749D01*
Y183750D01*
X692854Y184521D01*
X692850Y184526D01*
X692847Y184530D01*
X692846Y184531D01*
X692844Y184532D01*
X692838Y184533D01*
X692833Y184534D01*
X692130Y184441D01*
X691306Y184333D01*
X690622Y184244D01*
X690622Y184244D01*
X690336Y184207D01*
X689712Y184128D01*
X689708Y184126D01*
X689706Y184125D01*
X689703Y184123D01*
X689700Y184120D01*
X689699Y184118D01*
X689696Y184114D01*
X688245Y179282D01*
X686265Y174706D01*
X683789Y170420D01*
X680859Y166464D01*
X677504Y162870D01*
X673764Y159676D01*
X669676Y156915D01*
X665270Y154623D01*
X665268Y154621D01*
X665266Y154620D01*
X665264Y154616D01*
X665261Y154612D01*
X665261Y154609D01*
X665260Y154607D01*
Y150394D01*
X665262Y150390D01*
Y150387D01*
X665264Y150385D01*
X665266Y150381D01*
X665269Y150379D01*
X665271Y150377D01*
X665677Y150189D01*
X665682D01*
X665686Y150187D01*
X666648D01*
X666636Y149224D01*
X666551Y143441D01*
Y143441D01*
Y143374D01*
Y143374D01*
X666569Y142328D01*
X666545Y141214D01*
X666524Y139924D01*
Y139923D01*
Y139923D01*
X666551Y138343D01*
Y138343D01*
X666587Y137408D01*
X665865Y137543D01*
X665863Y137543D01*
X665860Y137544D01*
X665769Y137537D01*
X665765Y137535D01*
X665761Y137535D01*
X665759Y137532D01*
X665756Y137530D01*
X665755Y137526D01*
X665752Y137523D01*
X665577Y136885D01*
X665306Y136508D01*
X664932Y136233D01*
X664474Y136043D01*
X663960Y135925D01*
X663870Y135913D01*
X663782D01*
X663177Y136015D01*
X662638Y136253D01*
X662216Y136591D01*
X661957Y136993D01*
X661873Y137371D01*
X661869Y137376D01*
X661867Y137380D01*
X661865Y137381D01*
X661864Y137382D01*
X661859Y137383D01*
X661854Y137386D01*
X660866D01*
X660863Y137384D01*
X660860D01*
X660857Y137381D01*
X660853Y137380D01*
X660852Y137377D01*
X660849Y137375D01*
X660567Y136763D01*
X660146Y136304D01*
X659315Y135974D01*
X658564Y135991D01*
X658421Y136003D01*
X658292Y136057D01*
X657606Y136472D01*
X657179Y137043D01*
X657066Y137403D01*
X657063Y137406D01*
X657061Y137410D01*
X657058Y137411D01*
X657056Y137414D01*
X657053Y137414D01*
X657048Y137416D01*
X656885Y137423D01*
X656884D01*
X655946Y137465D01*
X655975Y138403D01*
X656127Y143216D01*
Y143216D01*
Y143217D01*
Y143235D01*
X656205Y149054D01*
X656217Y149880D01*
X657038Y149987D01*
X657383Y150029D01*
X657389Y150033D01*
X657394Y150035D01*
X657394Y150036D01*
X657395Y150037D01*
X657397Y150042D01*
X657400Y150048D01*
Y151934D01*
X657399Y151936D01*
X657399Y151937D01*
X657396Y151941D01*
X657394Y151947D01*
X657393Y151948D01*
X657392Y151949D01*
X657386Y151951D01*
X657381Y151953D01*
X657379Y151952D01*
X657378Y151952D01*
X652542Y151101D01*
X647536Y150801D01*
X642492Y151023D01*
X637597Y151752D01*
X637596Y151751D01*
X637595Y151752D01*
X637589Y151749D01*
X637583Y151748D01*
X637583Y151747D01*
X637581Y151746D01*
X637579Y151740D01*
X637576Y151736D01*
X637577Y151734D01*
X637576Y151733D01*
Y149793D01*
X637579Y149786D01*
X637580Y149782D01*
X637581Y149781D01*
X637581Y149780D01*
X637587Y149777D01*
X637593Y149774D01*
X637933Y149733D01*
X637933Y149733D01*
X638753Y149625D01*
X638765Y148799D01*
X638843Y142980D01*
Y142980D01*
X638923Y140833D01*
Y140833D01*
X638985Y139551D01*
X639014Y138779D01*
X638995Y138155D01*
X638996Y138155D01*
X638995Y138154D01*
X639025Y137221D01*
X638091Y137173D01*
X637928Y137168D01*
X637924Y137166D01*
X637920Y137166D01*
X637918Y137163D01*
X637915Y137162D01*
X637913Y137158D01*
X637910Y137155D01*
X637796Y136785D01*
X637654Y136502D01*
X637491Y136284D01*
X637266Y136104D01*
X636928Y135936D01*
X636797Y135882D01*
X636654Y135870D01*
X636653D01*
X636337Y135833D01*
X636033Y135827D01*
X635709Y135906D01*
X635334Y136128D01*
X634911Y136597D01*
X634624Y137223D01*
X634622Y137225D01*
X634620Y137229D01*
X634616Y137230D01*
X634614Y137233D01*
X634611D01*
X634607Y137234D01*
X633624D01*
X633620Y137232D01*
X633615Y137231D01*
X633613Y137230D01*
X633611Y137229D01*
X633609Y137224D01*
X633606Y137219D01*
X633516Y136834D01*
X633263Y136412D01*
X632859Y136031D01*
X632337Y135749D01*
X631738Y135628D01*
X631649D01*
X631564Y135639D01*
X630688Y135963D01*
X630132Y136630D01*
X629958Y137270D01*
X629954Y137274D01*
X629953Y137277D01*
X629951Y137278D01*
X629949Y137281D01*
X629944Y137282D01*
X629941Y137283D01*
X629850Y137289D01*
X629849D01*
X628935Y137301D01*
X628946Y138275D01*
X628974Y139857D01*
Y139857D01*
Y139857D01*
X628956Y141150D01*
Y141150D01*
X628935Y142263D01*
X628953Y143307D01*
Y143307D01*
Y143374D01*
Y143375D01*
X628862Y149157D01*
X628844Y150120D01*
X630431D01*
X630444Y150126D01*
X630450Y150139D01*
Y154328D01*
X630449Y154331D01*
X630449Y154334D01*
X630446Y154338D01*
X630444Y154341D01*
X630442Y154343D01*
X630439Y154345D01*
X625943Y156630D01*
X621751Y159408D01*
X617904Y162640D01*
X614445Y166285D01*
X611420Y170304D01*
X608868Y174658D01*
X606835Y179304D01*
Y179305D01*
X605359Y184211D01*
X605357Y184214D01*
X605356Y184217D01*
X605353Y184219D01*
X605350Y184222D01*
X605347Y184223D01*
X605344Y184224D01*
X604677Y184310D01*
X604392Y184347D01*
X604391Y184348D01*
X603706Y184436D01*
X603705Y184437D01*
X602880Y184545D01*
X602174Y184636D01*
X602168Y184635D01*
X602163Y184634D01*
X602162Y184633D01*
X602160Y184632D01*
X602157Y184627D01*
X602154Y184624D01*
X601895Y183852D01*
Y183850D01*
X601894Y183849D01*
X601752Y183039D01*
Y183039D01*
X601755Y183025D01*
X601768Y183017D01*
X603373Y182732D01*
X603891Y182645D01*
X603837Y182129D01*
X603838Y182127D01*
X603837Y182127D01*
Y182102D01*
X603839Y182099D01*
X603838Y182096D01*
X604857Y179194D01*
X604948Y176594D01*
X604436Y174386D01*
X603639Y172660D01*
Y172658D01*
X603638Y172656D01*
X603217Y170116D01*
Y170116D01*
X603217Y170114D01*
X603056Y168029D01*
X602751Y168055D01*
X601857Y168131D01*
X601857D01*
X601843Y168126D01*
X601839Y168118D01*
X601837Y168113D01*
Y168113D01*
X601614Y165295D01*
X601485Y165303D01*
X601484Y165303D01*
X601484Y165303D01*
X601077D01*
X601077Y165303D01*
X601076Y165303D01*
X600472Y165255D01*
X600471Y165255D01*
X600471D01*
X599728Y165115D01*
X599727Y165114D01*
X599726D01*
X598907Y164844D01*
X598906Y164843D01*
X598904D01*
X598065Y164403D01*
X598064Y164401D01*
X598062Y164401D01*
X597263Y163747D01*
X597262Y163745D01*
X597260Y163744D01*
X596562Y162838D01*
X596560Y162832D01*
X596558Y162827D01*
X596296Y159409D01*
X596301Y159396D01*
X596301D01*
Y159395D01*
X597396Y158156D01*
X597976Y156688D01*
X598129Y154909D01*
X597945Y153038D01*
X597576Y151129D01*
X597146Y149234D01*
Y149234D01*
X596779Y147427D01*
Y147426D01*
X596778Y147425D01*
X596594Y145779D01*
X596470Y145446D01*
X596174Y145245D01*
X595750Y145075D01*
X595764Y145118D01*
X595764Y145118D01*
X595958Y145757D01*
X595958Y145762D01*
Y145769D01*
X595957Y145770D01*
Y145771D01*
X595953Y145774D01*
X595947Y145780D01*
X595947D01*
X595946Y145780D01*
X595940Y145780D01*
X595933D01*
X594091Y145004D01*
X594089Y145002D01*
X594086Y145001D01*
X592719Y143886D01*
X592718Y143884D01*
X592716Y143883D01*
X591746Y142479D01*
X591745Y142477D01*
X591744Y142475D01*
X591091Y140838D01*
Y140837D01*
X591090Y140836D01*
X590675Y139016D01*
Y139016D01*
X590674Y139015D01*
X590416Y137066D01*
Y137066D01*
Y137065D01*
X590235Y135041D01*
X590053Y132993D01*
X590053Y132992D01*
X590053Y132991D01*
Y132979D01*
X590054Y132977D01*
X590053Y132976D01*
X590056Y132971D01*
X590058Y132965D01*
X590059Y132965D01*
X590060Y132964D01*
X590242Y132824D01*
X590246Y132823D01*
X590249Y132821D01*
X590596Y132725D01*
X590270Y131041D01*
X589666Y129634D01*
X588909Y128649D01*
X588074Y128024D01*
X587253Y127699D01*
X586545Y127583D01*
X586049Y127582D01*
X585865Y127602D01*
X585543Y127789D01*
X585399Y128134D01*
X585241Y131831D01*
X585313Y132136D01*
X585679Y132901D01*
Y132904D01*
X585680Y132905D01*
X585821Y133439D01*
X585821Y133441D01*
X585822Y133444D01*
X585817Y133787D01*
X585815Y133790D01*
X585816Y133793D01*
X585744Y133986D01*
X585741Y133989D01*
X585739Y133993D01*
X585564Y134161D01*
X585561Y134163D01*
X585558Y134165D01*
X585463Y134201D01*
X585122Y134418D01*
X584999Y134799D01*
X585055Y135679D01*
X585145Y137210D01*
X585269Y139290D01*
X585419Y141816D01*
X585594Y144690D01*
X585786Y147809D01*
X585993Y151073D01*
X586211Y154381D01*
Y154381D01*
X586665Y160733D01*
X587109Y166073D01*
X587315Y168118D01*
X587509Y169625D01*
X587702Y170548D01*
X587780Y170735D01*
X587856Y170854D01*
X588044Y170998D01*
X588303Y171050D01*
X588329Y171046D01*
X588329D01*
X588332Y171046D01*
X588343Y171049D01*
X588343Y171049D01*
X588346Y171052D01*
X588351Y171060D01*
X588587Y172151D01*
X588586Y172159D01*
X588585Y172163D01*
X588585Y172164D01*
X588584Y172165D01*
X588579Y172169D01*
X588575Y172173D01*
X588486Y172204D01*
X588545Y172662D01*
X588648Y173462D01*
X588646Y173468D01*
Y173472D01*
X588487Y173834D01*
Y173834D01*
X588174Y174674D01*
X587834Y175889D01*
X587587Y177376D01*
X587557Y179041D01*
X587864Y180776D01*
X588632Y182484D01*
X589984Y184066D01*
X589985Y184071D01*
X589988Y184076D01*
X590042Y184482D01*
X590113Y185069D01*
X590694Y184969D01*
X593257Y184515D01*
X593258Y184514D01*
X593268Y184517D01*
X593271Y184518D01*
Y184518D01*
X593272D01*
X593279Y184529D01*
X593279Y184530D01*
X593280Y184531D01*
X593443Y185773D01*
X593439Y185787D01*
X593427Y185795D01*
X593094Y185838D01*
X592199Y185951D01*
X591499Y186037D01*
X591044Y186097D01*
X591044Y186098D01*
X590922Y186110D01*
X590921Y186110D01*
X590920Y186110D01*
X590119D01*
X590019Y186948D01*
X589860Y190123D01*
X590084Y193782D01*
X590694Y197659D01*
X591696Y201500D01*
X593105Y205034D01*
X594973Y207992D01*
X596026Y209093D01*
X597216Y209967D01*
X598526Y210565D01*
X599955Y210841D01*
X599960Y210844D01*
X599966Y210846D01*
X604160Y215337D01*
X604161Y215337D01*
X604452Y215647D01*
X604874Y215641D01*
X609821Y215538D01*
X609823Y215539D01*
X609825Y215538D01*
X609830Y215541D01*
X609834Y215543D01*
X609835Y215544D01*
X609837Y215546D01*
X613788Y221360D01*
X613789Y221362D01*
X613790Y221363D01*
X614160Y222176D01*
X614997Y223807D01*
X616310Y226012D01*
X618104Y228553D01*
X620465Y231251D01*
X623337Y233706D01*
X626724Y235600D01*
X630621Y236615D01*
X631601Y236728D01*
X631678Y235740D01*
X631770Y234558D01*
X631771Y234556D01*
X631770Y234554D01*
X631774Y234550D01*
X631776Y234545D01*
X631778Y234545D01*
X631780Y234543D01*
X631785Y234542D01*
X631790Y234541D01*
X631792Y234542D01*
X631794D01*
X635533Y235807D01*
X635534D01*
X639416Y236735D01*
X639417Y236736D01*
X643421Y237304D01*
X643421D01*
X647536Y237500D01*
X651683Y237303D01*
D02*
G37*
G36*
X595391Y144125D02*
X595391Y144125D01*
X594914Y142851D01*
X594302Y141410D01*
Y141410D01*
X593558Y139901D01*
X592684Y138423D01*
X591685Y137076D01*
X590983Y136376D01*
X591041Y137022D01*
Y137022D01*
X591696Y140696D01*
X592304Y142230D01*
X593192Y143512D01*
X594453Y144514D01*
X595688Y145010D01*
X595391Y144125D01*
D02*
G37*
G36*
X590906Y135944D02*
X590619Y135959D01*
X590936Y136276D01*
X590906Y135944D01*
D02*
G37*
%LPC*%
G36*
X626354Y149443D02*
X626347Y149441D01*
X626342Y149441D01*
X626341Y149440D01*
X626340Y149440D01*
X626336Y149434D01*
X626333Y149430D01*
X626332Y149428D01*
X626167Y148932D01*
Y148931D01*
X626166Y148930D01*
X625999Y148173D01*
Y148172D01*
X625998Y148171D01*
X625802Y146634D01*
Y146634D01*
Y146633D01*
X625658Y144745D01*
Y144744D01*
Y144744D01*
X625560Y142589D01*
Y142589D01*
Y142589D01*
X625508Y140253D01*
Y140253D01*
X625526Y135364D01*
Y135364D01*
Y135364D01*
X625677Y130705D01*
Y130704D01*
Y130704D01*
X625915Y127206D01*
X625916Y127206D01*
X625915Y127205D01*
X626192Y125005D01*
X626194Y125002D01*
X626195Y124997D01*
X626199Y124995D01*
X626200Y124993D01*
X626203Y124992D01*
X626207Y124989D01*
X628347Y124516D01*
X628348Y124517D01*
X628350Y124516D01*
X634709Y124314D01*
X634710Y124315D01*
X634711Y124314D01*
X641560Y124570D01*
X641562Y124571D01*
X641564Y124571D01*
X642237Y124753D01*
X642238Y124753D01*
X642239D01*
X642270Y124766D01*
X642271Y124768D01*
X642274Y124769D01*
X642277Y124773D01*
X642280Y124776D01*
Y124779D01*
X642281Y124781D01*
X642645Y128079D01*
Y128079D01*
Y128080D01*
X642887Y131951D01*
Y131951D01*
X642991Y136081D01*
Y136081D01*
Y136082D01*
X642930Y140155D01*
X642930Y140156D01*
X642930Y140156D01*
X642682Y143917D01*
X642682Y143918D01*
X642682Y143918D01*
X642233Y146936D01*
X642233Y146936D01*
Y146938D01*
X641930Y148051D01*
X641930Y148052D01*
Y148053D01*
X641602Y148819D01*
X641599Y148822D01*
X641597Y148826D01*
X641590Y148832D01*
X641585Y148834D01*
X641579Y148837D01*
X641577Y148836D01*
X641577Y148836D01*
X641572Y148834D01*
X641566Y148832D01*
X641565Y148831D01*
X641564Y148830D01*
X641562Y148825D01*
X641559Y148819D01*
X641385Y146192D01*
X641385Y146191D01*
X641385Y146191D01*
X641384Y142968D01*
X641385Y138839D01*
X641081Y134948D01*
X640901Y134622D01*
X640561Y134470D01*
X640000Y134434D01*
X638509Y134341D01*
X636402Y134223D01*
X633982Y134112D01*
X631561Y134038D01*
X629432Y134034D01*
X627869Y134137D01*
X627322Y134263D01*
X627049Y134424D01*
X626898Y134614D01*
X626812Y134906D01*
X626806Y134927D01*
X626875Y140103D01*
Y140103D01*
X626910Y144375D01*
X626909Y144375D01*
X626910Y144376D01*
X626761Y147556D01*
X626760Y147558D01*
X626761Y147559D01*
X626381Y149410D01*
X626379Y149413D01*
X626379Y149416D01*
X626366Y149434D01*
X626361Y149438D01*
X626357Y149442D01*
X626355D01*
X626354Y149443D01*
D02*
G37*
G36*
X588712Y169810D02*
X588711D01*
X588706Y169809D01*
X588698Y169807D01*
X588697Y169806D01*
X588697D01*
X588692Y169799D01*
X588689Y169795D01*
Y169794D01*
X588689Y169794D01*
Y169794D01*
X588617Y169449D01*
Y169449D01*
X588617Y169448D01*
X588468Y168288D01*
Y168287D01*
X588307Y166738D01*
X588307Y166736D01*
X588307Y166736D01*
X588309Y166731D01*
X588311Y166724D01*
X588312Y166723D01*
X588312Y166723D01*
X588317Y166721D01*
X588324Y166717D01*
X588325Y166717D01*
X588326Y166717D01*
X590295D01*
Y164966D01*
X588157D01*
X588151Y164964D01*
X588144Y164962D01*
X588144Y164961D01*
X588143Y164961D01*
X588141Y164955D01*
X588138Y164949D01*
X587780Y160526D01*
Y160526D01*
X587416Y155439D01*
X587416Y155438D01*
X587416Y155437D01*
X587418Y155432D01*
X587421Y155425D01*
X587421Y155425D01*
X587422Y155424D01*
X587427Y155421D01*
X587434Y155418D01*
X587434Y155419D01*
X587435Y155418D01*
X588986D01*
Y153201D01*
X587283D01*
X587275Y153198D01*
X587271Y153196D01*
Y153196D01*
X587270Y153196D01*
X587267Y153189D01*
X587264Y153184D01*
X587064Y150111D01*
X586876Y147120D01*
X586701Y144285D01*
X586544Y141683D01*
X586407Y139389D01*
X586294Y137479D01*
X586206Y136030D01*
X586149Y135114D01*
X586150Y135113D01*
Y135112D01*
X586151Y135110D01*
X586154Y135100D01*
X586155Y135100D01*
X586155Y135099D01*
X586710Y134562D01*
X586903Y134056D01*
X586928Y133421D01*
X586761Y132657D01*
X586376Y131762D01*
Y131758D01*
X586374Y131754D01*
X586501Y128717D01*
X586502Y128715D01*
X586502Y128714D01*
X586505Y128709D01*
X586507Y128704D01*
X586509Y128703D01*
X586509Y128702D01*
X586514Y128701D01*
X586521Y128699D01*
X586522Y128699D01*
X586523Y128699D01*
X586983Y128784D01*
X586985Y128785D01*
X586987D01*
X587533Y129009D01*
X587535Y129011D01*
X587537Y129012D01*
X588136Y129453D01*
X588138Y129455D01*
X588140Y129456D01*
X588718Y130205D01*
X588719Y130208D01*
X588721Y130210D01*
X589202Y131368D01*
Y131370D01*
X589203Y131372D01*
X589514Y133041D01*
X589514Y133042D01*
X589515Y133043D01*
X589876Y137141D01*
Y137141D01*
X590581Y141035D01*
X591258Y142700D01*
X592267Y144162D01*
X593662Y145353D01*
X595499Y146206D01*
X595500Y146208D01*
X595502Y146208D01*
X595505Y146212D01*
X595509Y146217D01*
Y146219D01*
X595510Y146220D01*
X596097Y149714D01*
Y149714D01*
X596831Y153214D01*
X596830Y153215D01*
X596831Y153216D01*
X596999Y154931D01*
X596999Y154933D01*
X596999Y154935D01*
X596874Y156445D01*
X596872Y156448D01*
Y156450D01*
X596381Y157698D01*
X596378Y157701D01*
X596377Y157705D01*
X595396Y158699D01*
X595396D01*
X595204Y158922D01*
X595146Y159209D01*
X595843Y168129D01*
X595842Y168134D01*
X595841Y168139D01*
X595840Y168140D01*
X595839Y168142D01*
X595834Y168144D01*
X595830Y168148D01*
X593913Y168766D01*
X593912D01*
X593911Y168767D01*
X591543Y169312D01*
X591542D01*
X590502Y169512D01*
X590502D01*
X589674Y169658D01*
X589073Y169756D01*
X589072D01*
X588712Y169809D01*
X588712Y169810D01*
D02*
G37*
G36*
X700311Y144508D02*
X700310Y144507D01*
X700310D01*
X700306Y144504D01*
X700300Y144499D01*
Y144499D01*
X700299Y144498D01*
X700298Y144492D01*
X700297Y144485D01*
X700303Y144455D01*
X700304Y144454D01*
Y144454D01*
X700664Y143297D01*
X700664Y143297D01*
Y143296D01*
X701176Y141889D01*
X701177Y141888D01*
Y141887D01*
X702361Y139407D01*
X702362Y139406D01*
X702363Y139404D01*
X703955Y137138D01*
X703958Y137136D01*
X703959Y137134D01*
X703964Y137133D01*
X703967Y137130D01*
X703970Y137131D01*
X703973Y137130D01*
X703977Y137133D01*
X703981Y137134D01*
X703983Y137136D01*
X703985Y137138D01*
X703987Y137142D01*
X703989Y137146D01*
X703988Y137148D01*
X703989Y137151D01*
X703743Y138950D01*
X703743Y138951D01*
Y138952D01*
X703359Y140603D01*
X703358Y140604D01*
Y140605D01*
X702984Y141642D01*
X702983Y141643D01*
Y141644D01*
X702501Y142576D01*
X702500Y142577D01*
X702499Y142579D01*
X701882Y143397D01*
X701881Y143398D01*
X701880Y143400D01*
X701104Y144098D01*
X701102Y144099D01*
X701100Y144101D01*
X700324Y144506D01*
X700318Y144506D01*
X700311Y144508D01*
D02*
G37*
G36*
X669125Y149594D02*
X669124Y149593D01*
X669122D01*
X669118Y149590D01*
X669112Y149586D01*
X669100Y149568D01*
X669099Y149564D01*
X669097Y149561D01*
X668720Y147711D01*
X668720Y147709D01*
X668719Y147708D01*
X668570Y144527D01*
X668571Y144526D01*
X668570Y144526D01*
X668605Y140255D01*
Y140254D01*
X668672Y135078D01*
X668667Y135056D01*
X668583Y134765D01*
X668431Y134575D01*
X668158Y134414D01*
X667609Y134289D01*
X666047Y134185D01*
X663921Y134190D01*
X661498Y134264D01*
X659079Y134375D01*
X656971Y134492D01*
X655480Y134585D01*
X654918Y134622D01*
X654578Y134774D01*
X654399Y135099D01*
X654094Y138991D01*
X654096Y143120D01*
X654095Y146342D01*
X654095Y146343D01*
X654095Y146343D01*
X653920Y148971D01*
X653916Y148977D01*
X653914Y148983D01*
X653913D01*
X653913Y148984D01*
X653905Y148987D01*
X653900Y148988D01*
X653899D01*
X653892Y148984D01*
X653887Y148982D01*
X653887Y148982D01*
X653882Y148976D01*
X653881Y148974D01*
X653878Y148971D01*
X653550Y148205D01*
Y148204D01*
X653549Y148202D01*
X653246Y147089D01*
Y147088D01*
X653246Y147087D01*
X652798Y144070D01*
Y144069D01*
X652798Y144068D01*
X652549Y140308D01*
Y140307D01*
Y140307D01*
X652489Y136233D01*
Y136233D01*
Y136233D01*
X652592Y132103D01*
Y132103D01*
Y132102D01*
X652836Y128231D01*
X652836Y128231D01*
X652836Y128230D01*
X653197Y124933D01*
X653199Y124930D01*
Y124927D01*
X653202Y124925D01*
X653204Y124920D01*
X653207Y124920D01*
X653209Y124917D01*
X653239Y124905D01*
X653241D01*
X653242Y124904D01*
X653921Y124723D01*
X653923Y124723D01*
X653925Y124722D01*
X660769Y124466D01*
X660770Y124466D01*
X660770Y124466D01*
X667123Y124668D01*
X667124Y124668D01*
X667126Y124668D01*
X669272Y125140D01*
X669275Y125143D01*
X669279Y125144D01*
X669280Y125147D01*
X669283Y125149D01*
X669284Y125153D01*
X669286Y125156D01*
X669566Y127357D01*
X669565Y127358D01*
X669566Y127358D01*
X669801Y130856D01*
Y130856D01*
Y130857D01*
X669954Y135515D01*
Y135516D01*
Y135516D01*
X669972Y140404D01*
Y140404D01*
X669921Y142741D01*
X669823Y144896D01*
Y144896D01*
Y144896D01*
X669678Y146785D01*
X669677Y146785D01*
X669678Y146786D01*
X669480Y148323D01*
X669480Y148324D01*
Y148325D01*
X669313Y149082D01*
X669313Y149083D01*
Y149083D01*
X669146Y149581D01*
X669142Y149586D01*
X669139Y149591D01*
X669137Y149592D01*
X669137Y149592D01*
X669131Y149593D01*
X669125Y149594D01*
D02*
G37*
G36*
X704146Y135264D02*
X703296Y135227D01*
X703296D01*
X702401Y135186D01*
X702400D01*
X701308Y135083D01*
X701307Y135083D01*
X701307D01*
X699866Y134865D01*
X699866D01*
X699866Y134864D01*
X699865D01*
X699862Y134862D01*
X699853Y134858D01*
X699853Y134857D01*
X699852D01*
X699852Y134854D01*
X699848Y134845D01*
X699913Y133932D01*
X699914Y133930D01*
X699914Y133928D01*
X700231Y132815D01*
X700235Y132811D01*
X700236Y132807D01*
X700238Y132807D01*
X700240Y132804D01*
X700245Y132803D01*
X700249Y132802D01*
X702319Y132819D01*
X702321Y132819D01*
X702323Y132819D01*
X704330Y133196D01*
X704332Y133196D01*
X704337Y133200D01*
X704343Y133203D01*
X704343Y133204D01*
X704344Y133204D01*
X704345Y133209D01*
X704347Y133216D01*
X704166Y135247D01*
X704162Y135253D01*
X704159Y135259D01*
X704158Y135260D01*
X704157Y135260D01*
X704146Y135264D01*
D02*
G37*
G36*
X669999Y123868D02*
X669999D01*
X667519Y123577D01*
X662679Y123035D01*
X658256Y123056D01*
X655930Y123253D01*
X655930D01*
X654100Y123528D01*
X654099Y123529D01*
X653674Y123614D01*
X653673Y123614D01*
X653672Y123614D01*
X652581Y123681D01*
X652580Y123680D01*
X652580Y123681D01*
X652574Y123678D01*
X652567Y123676D01*
X652567Y123675D01*
X652566Y123675D01*
X652564Y123670D01*
X652561Y123663D01*
X652561Y123662D01*
X652561Y123662D01*
X652525Y116346D01*
X652527Y116340D01*
X652528Y116334D01*
X652530Y116333D01*
X652531Y116332D01*
X652536Y116329D01*
X652541Y116327D01*
X655985Y115760D01*
X655842Y112688D01*
X652535Y113315D01*
X652533Y113315D01*
X652532Y113315D01*
X652526Y113313D01*
X652521Y113312D01*
X652520Y113310D01*
X652518Y113310D01*
X652516Y113305D01*
X652513Y113300D01*
X652513Y113298D01*
X652513Y113297D01*
X652439Y98524D01*
Y98506D01*
X652455Y95325D01*
X652455Y95324D01*
X652455Y95323D01*
X652704Y92859D01*
X652705Y92858D01*
X652704Y92857D01*
X653110Y91027D01*
X653110Y91026D01*
Y91024D01*
X653592Y89740D01*
X653594Y89739D01*
X653594Y89737D01*
X654073Y88919D01*
X654076Y88917D01*
X654076Y88915D01*
X654081Y88913D01*
X654085Y88911D01*
X654087Y88911D01*
X654090Y88910D01*
X654094Y88912D01*
X654099Y88912D01*
X654101Y88914D01*
X654103Y88915D01*
X654105Y88919D01*
X654108Y88924D01*
X654108Y88926D01*
X654109Y88928D01*
X654142Y95121D01*
Y95121D01*
X654060Y101187D01*
X654233Y101583D01*
X654627Y101755D01*
X668457Y101748D01*
X668846Y101584D01*
X669025Y101204D01*
X669461Y91498D01*
X669485Y90934D01*
X669558Y89327D01*
X669571Y89006D01*
X669572Y89005D01*
X669571Y89003D01*
X669575Y88997D01*
X669577Y88993D01*
X669578Y88993D01*
X669579Y88991D01*
X669585Y88990D01*
X669590Y88988D01*
X669592Y88989D01*
X669594Y88989D01*
X669600Y88993D01*
X669603Y88995D01*
X669604Y88996D01*
X669605Y88997D01*
X670461Y90299D01*
X670461Y90301D01*
X670462Y90302D01*
X671022Y91646D01*
Y91647D01*
X671023Y91648D01*
X671332Y92713D01*
Y92714D01*
X671333Y92715D01*
X671432Y93180D01*
X671432Y93182D01*
X671432Y93184D01*
X671318Y103762D01*
Y103762D01*
Y103762D01*
X670844Y113515D01*
X670843Y113517D01*
X670844Y113518D01*
X670840Y113523D01*
X670838Y113528D01*
X670837Y113528D01*
X670836Y113530D01*
X670830Y113531D01*
X670824Y113533D01*
X670823Y113532D01*
X670821Y113532D01*
X667449Y112852D01*
X667317Y115935D01*
X670621Y116508D01*
X670622D01*
X670623Y116508D01*
X670627Y116511D01*
X670634Y116515D01*
X670635Y116516D01*
X670635Y116516D01*
X670637Y116522D01*
X670639Y116529D01*
X670020Y123851D01*
Y123851D01*
X670018Y123855D01*
X670013Y123864D01*
X670013Y123864D01*
X670006Y123866D01*
X669999Y123868D01*
D02*
G37*
G36*
X665576Y93954D02*
X658035D01*
X658022Y93948D01*
X658016Y93935D01*
X657993Y91378D01*
X657986Y90783D01*
Y90783D01*
X657968Y88608D01*
X657970Y88604D01*
X657971Y88597D01*
X657973Y88596D01*
X657974Y88594D01*
X657977Y88593D01*
X657983Y88589D01*
X658584Y88461D01*
X659029Y88367D01*
Y85638D01*
X657902D01*
Y87438D01*
X657900Y87443D01*
X657899Y87448D01*
X657897Y87449D01*
X657897Y87451D01*
X657892Y87453D01*
X657887Y87456D01*
X657288Y87583D01*
X657286Y87583D01*
X657284Y87583D01*
X657280D01*
X656830Y87676D01*
X656836Y88140D01*
Y88140D01*
X656854Y90202D01*
X656848Y90215D01*
X656835Y90220D01*
X655908Y90214D01*
X655903Y90212D01*
X655898Y90211D01*
X655897Y90210D01*
X655895Y90209D01*
X655893Y90204D01*
X655890Y90199D01*
X655467Y88106D01*
Y88105D01*
X655467Y88104D01*
X655232Y86135D01*
X655232Y86134D01*
X655232Y86134D01*
X655144Y84333D01*
X655144Y84332D01*
X655144Y84332D01*
X655162Y82745D01*
X655164Y82740D01*
X655165Y82735D01*
X655167Y82734D01*
X655167Y82732D01*
X655172Y82731D01*
X655177Y82727D01*
X657806Y82195D01*
X657807Y82195D01*
X657808Y82194D01*
X660602Y81893D01*
X660602Y81894D01*
X660603Y81893D01*
X663430Y81776D01*
X663430Y81776D01*
X663431Y81776D01*
X666160Y81798D01*
X666161D01*
X668662Y81915D01*
X668663D01*
X670806Y82081D01*
X670807D01*
X672460Y82249D01*
X672460D01*
X673495Y82375D01*
X673501Y82379D01*
X673507Y82382D01*
X673507Y82383D01*
X673508Y82386D01*
X673511Y82396D01*
Y82396D01*
Y82397D01*
X673276Y85305D01*
Y85305D01*
Y85306D01*
X673089Y87113D01*
X672917Y88629D01*
X672783Y89750D01*
Y89750D01*
X672705Y90367D01*
X672702Y90374D01*
X672700Y90378D01*
X672699Y90379D01*
X672698Y90380D01*
X672691Y90382D01*
X672687Y90384D01*
X672684D01*
X671820Y90377D01*
X671817Y90376D01*
X671814D01*
X671810Y90373D01*
X671807Y90372D01*
X671806Y90370D01*
X671803Y90367D01*
X671423Y89580D01*
X670938Y88804D01*
X670337Y88083D01*
X669609Y87453D01*
X669580Y87435D01*
Y87434D01*
X669579D01*
X669362Y87284D01*
X669259Y87230D01*
X669258Y87229D01*
X669257D01*
X668540Y86774D01*
X668498Y87735D01*
Y87741D01*
Y87741D01*
Y87741D01*
X668384Y90323D01*
X668382Y90326D01*
X668378Y90336D01*
X668377Y90336D01*
X668373Y90338D01*
X668364Y90342D01*
X668364D01*
X666892Y90323D01*
X666891D01*
X666880Y90319D01*
X666879Y90318D01*
X666878Y90318D01*
X666874Y90307D01*
X666873Y90304D01*
Y90304D01*
X666975Y87770D01*
X667005Y87131D01*
X666366Y87184D01*
X665723Y87238D01*
X665722Y87237D01*
X665721Y87238D01*
X665714Y87235D01*
X665709Y87233D01*
X665708Y87233D01*
X665707Y87232D01*
X665705Y87226D01*
X665702Y87221D01*
X665702Y87219D01*
X665702Y87218D01*
X665745Y85480D01*
X664619Y85457D01*
X664565Y87843D01*
X664553Y88471D01*
X665174Y88419D01*
X665805Y88364D01*
X665806Y88364D01*
X665807Y88364D01*
X665812Y88366D01*
X665819Y88368D01*
X665819Y88370D01*
X665821Y88370D01*
X665822Y88376D01*
X665825Y88381D01*
X665825Y88383D01*
X665825Y88384D01*
X665722Y90857D01*
X665699Y91457D01*
X665595Y93936D01*
X665593Y93940D01*
X665590Y93948D01*
X665589Y93949D01*
X665587Y93949D01*
X665576Y93954D01*
D02*
G37*
G36*
X640269Y100477D02*
X639087D01*
X639080Y100474D01*
X639074Y100472D01*
Y100471D01*
X639074D01*
X639072Y100466D01*
X639068Y100459D01*
X638965Y96895D01*
Y96894D01*
Y96894D01*
Y96748D01*
X638890Y96620D01*
X638454Y96061D01*
X637907Y95606D01*
X637274Y95244D01*
X636576Y94965D01*
X636574Y94962D01*
X636570Y94961D01*
X636569Y94957D01*
X636566Y94955D01*
Y94951D01*
X636565Y94948D01*
X636566Y94944D01*
Y94941D01*
X636569Y94938D01*
X636570Y94934D01*
X636574Y94933D01*
X636576Y94930D01*
X636580D01*
X636584Y94929D01*
X638577D01*
X638583Y94371D01*
X638613Y91214D01*
X638619Y91201D01*
X638632Y91195D01*
X640044Y91183D01*
X640165D01*
X640179Y91188D01*
X640184Y91201D01*
X640219Y95864D01*
X640288Y100458D01*
Y100458D01*
X640286Y100463D01*
X640283Y100471D01*
X640282D01*
Y100471D01*
X640275Y100474D01*
X640269Y100477D01*
D02*
G37*
G36*
X637443Y93802D02*
X629903D01*
X629899Y93800D01*
X629891Y93798D01*
X629891Y93797D01*
X629890Y93797D01*
X629888Y93790D01*
X629885Y93784D01*
X629781Y91305D01*
X629776Y91124D01*
X629757Y90705D01*
Y90705D01*
X629655Y88232D01*
X629655Y88231D01*
X629655Y88230D01*
X629658Y88224D01*
X629659Y88219D01*
X629661Y88218D01*
X629661Y88217D01*
X629668Y88215D01*
X629673Y88212D01*
X629674Y88213D01*
X629675Y88212D01*
X630305Y88267D01*
X630927Y88320D01*
X630915Y87692D01*
X630861Y85305D01*
X629734Y85328D01*
X629776Y87067D01*
X629776Y87068D01*
X629776Y87069D01*
X629773Y87075D01*
X629771Y87080D01*
X629770Y87080D01*
X629770Y87081D01*
X629764Y87084D01*
X629758Y87086D01*
X629757Y87086D01*
X629756Y87086D01*
X629114Y87032D01*
X629109D01*
X629108Y87031D01*
X629107Y87032D01*
X628469Y86979D01*
X628498Y87618D01*
X628607Y90152D01*
Y90153D01*
X628605Y90156D01*
X628602Y90166D01*
X628601Y90166D01*
X628601Y90166D01*
X628592Y90170D01*
X628589Y90172D01*
X628588D01*
X627116Y90190D01*
X627116D01*
X627113Y90189D01*
X627103Y90185D01*
X627102Y90184D01*
X627102Y90183D01*
X627096Y90172D01*
X626981Y87590D01*
X626981Y87590D01*
X626981Y87589D01*
Y87582D01*
Y87577D01*
X626939Y86622D01*
X626179Y87101D01*
X626176Y87102D01*
X626175Y87103D01*
X626159Y87109D01*
X626118Y87132D01*
X625901Y87283D01*
X625900D01*
X625900Y87283D01*
X625870Y87302D01*
X625692Y87438D01*
X624481Y88744D01*
X623677Y90216D01*
X623674Y90218D01*
X623673Y90220D01*
X623669Y90223D01*
X623665Y90225D01*
X623663Y90225D01*
X623660Y90226D01*
X622796Y90232D01*
X622794D01*
X622787Y90230D01*
X622782Y90228D01*
X622781Y90227D01*
X622780Y90227D01*
X622778Y90222D01*
X622775Y90216D01*
X622698Y89598D01*
X622562Y88478D01*
Y88478D01*
X622392Y86961D01*
X622205Y85154D01*
Y85154D01*
X621967Y82245D01*
Y82245D01*
Y82244D01*
X621971Y82235D01*
X621972Y82231D01*
X621972Y82230D01*
X621977Y82227D01*
X621984Y82224D01*
X623018Y82098D01*
X623018D01*
X624673Y81929D01*
X624673D01*
X626815Y81764D01*
X626816D01*
X629316Y81648D01*
X629317Y81648D01*
X629317Y81648D01*
X632046Y81625D01*
X632047D01*
X634872Y81742D01*
X634872Y81742D01*
X634873Y81742D01*
X637667Y82044D01*
X637668Y82044D01*
X637668D01*
X640296Y82575D01*
X640302Y82579D01*
X640306Y82581D01*
X640307Y82582D01*
X640308Y82583D01*
X640309Y82589D01*
X640311Y82594D01*
X640330Y84180D01*
X640330Y84181D01*
X640330Y84182D01*
X640243Y85982D01*
X640243Y85982D01*
X640243Y85983D01*
X640008Y87953D01*
X640008Y87954D01*
Y87955D01*
X639584Y90048D01*
X639580Y90053D01*
X639578Y90057D01*
X639576Y90058D01*
X639575Y90060D01*
X639570Y90061D01*
X639565Y90063D01*
X638645Y90069D01*
X638631Y90063D01*
X638626Y90050D01*
Y90050D01*
X638644Y87989D01*
Y87525D01*
X638192Y87432D01*
X637591Y87305D01*
X637586Y87301D01*
X637581Y87299D01*
X637581Y87297D01*
X637579Y87296D01*
X637578Y87291D01*
X637576Y87286D01*
Y85486D01*
X636451D01*
Y88216D01*
X636896Y88310D01*
X637490Y88437D01*
X637495Y88440D01*
X637499Y88442D01*
X637500Y88445D01*
X637502Y88446D01*
X637503Y88451D01*
X637505Y88456D01*
X637487Y90631D01*
Y90632D01*
X637482Y91213D01*
X637487Y91226D01*
Y91226D01*
X637462Y93784D01*
X637456Y93797D01*
X637443Y93802D01*
D02*
G37*
G36*
X655252Y81540D02*
X655247Y81537D01*
X655243Y81536D01*
X655242Y81534D01*
X655239Y81533D01*
X655238Y81528D01*
X655235Y81524D01*
X655236Y81522D01*
X655235Y81519D01*
X655363Y80356D01*
X655363Y80356D01*
X655471Y79657D01*
X655473Y79653D01*
X655474Y79648D01*
X655477Y79647D01*
X655478Y79644D01*
X655483Y79644D01*
X655487Y79641D01*
X658934Y79167D01*
X658934D01*
X658935Y79167D01*
X662201Y78931D01*
X662202Y78931D01*
X662202Y78931D01*
X665213Y78885D01*
X665214Y78885D01*
X665215Y78885D01*
X667893Y78986D01*
X667893Y78987D01*
X667894Y78986D01*
X670228Y79197D01*
X670229Y79197D01*
X670229D01*
X672047Y79460D01*
X672048D01*
X673260Y79714D01*
X673261Y79714D01*
X673262D01*
X673470Y79780D01*
X673470Y79780D01*
X673471D01*
X673541Y79806D01*
X673544Y79808D01*
X673547Y79809D01*
X673549Y79813D01*
X673552Y79816D01*
Y79819D01*
X673554Y79822D01*
X673584Y80070D01*
X673584Y80071D01*
X673584Y80072D01*
X673578Y81224D01*
X673578Y81225D01*
X673578Y81227D01*
X673575Y81233D01*
X673573Y81238D01*
X673572Y81238D01*
X673571Y81239D01*
X673566Y81241D01*
X673560Y81243D01*
X673559Y81243D01*
X673557Y81243D01*
X672427Y81103D01*
X670743Y80929D01*
X668616Y80764D01*
X666158Y80650D01*
X663481Y80628D01*
X660698Y80741D01*
X657919Y81032D01*
X655257Y81539D01*
X655255Y81539D01*
X655252Y81540D01*
D02*
G37*
G36*
X640223Y81388D02*
X640220Y81387D01*
X640217Y81388D01*
X637556Y80880D01*
X634777Y80590D01*
X631995Y80477D01*
X629320Y80499D01*
X626863Y80612D01*
X624736Y80777D01*
X623052Y80951D01*
X621922Y81092D01*
X621921Y81091D01*
X621920Y81092D01*
X621914Y81089D01*
X621908Y81088D01*
X621908Y81087D01*
X621907Y81086D01*
X621904Y81081D01*
X621901Y81075D01*
X621901Y81074D01*
X621901Y81073D01*
X621895Y79921D01*
X621896Y79920D01*
X621895Y79919D01*
X621926Y79670D01*
X621927Y79667D01*
Y79664D01*
X621931Y79661D01*
X621933Y79657D01*
X621936Y79657D01*
X621938Y79654D01*
X622010Y79629D01*
X622010D01*
X622218Y79563D01*
X622219D01*
X622219Y79562D01*
X623432Y79308D01*
X623433D01*
X625249Y79045D01*
X625250D01*
X625250Y79045D01*
X627580Y78835D01*
X627581Y78835D01*
X627581Y78835D01*
X630260Y78734D01*
X630260Y78734D01*
X630261Y78734D01*
X633272Y78779D01*
X633272D01*
X636539Y79016D01*
X636540Y79016D01*
X636540Y79016D01*
X639986Y79490D01*
X639990Y79492D01*
X639995Y79493D01*
X639996Y79496D01*
X639999Y79497D01*
X640000Y79501D01*
X640003Y79505D01*
X640112Y80204D01*
X640113Y80205D01*
X640239Y81367D01*
X640238Y81370D01*
X640239Y81373D01*
X640237Y81376D01*
X640235Y81381D01*
X640233Y81383D01*
X640231Y81385D01*
X640228Y81385D01*
X640223Y81388D01*
D02*
G37*
G36*
X656393Y100628D02*
X655211D01*
X655205Y100626D01*
X655198Y100623D01*
Y100622D01*
X655197D01*
X655194Y100615D01*
X655192Y100610D01*
Y100609D01*
X655261Y96015D01*
X655295Y91353D01*
X655301Y91340D01*
X655314Y91334D01*
X655429D01*
X656848Y91347D01*
X656861Y91352D01*
X656867Y91365D01*
X656897Y94523D01*
Y94523D01*
X656902Y95080D01*
X658896D01*
X658900Y95082D01*
X658903D01*
X658906Y95084D01*
X658909Y95086D01*
X658911Y95089D01*
X658914Y95092D01*
Y95096D01*
X658915Y95099D01*
X658913Y95103D01*
Y95106D01*
X658911Y95109D01*
X658909Y95112D01*
X658906Y95114D01*
X658903Y95116D01*
X658207Y95395D01*
X657574Y95756D01*
X657027Y96212D01*
X656591Y96769D01*
X656515Y96899D01*
Y97045D01*
Y97046D01*
Y97046D01*
X656412Y100610D01*
X656409Y100615D01*
X656406Y100623D01*
X656406D01*
Y100623D01*
X656401Y100625D01*
X656393Y100628D01*
D02*
G37*
G36*
X628528Y100470D02*
X628527Y100470D01*
X628527Y100470D01*
X627575D01*
X627571Y100468D01*
X627563Y100465D01*
X627562Y100465D01*
X627562Y100464D01*
X627559Y100458D01*
X627557Y100452D01*
X627150Y91336D01*
Y91335D01*
X627152Y91332D01*
X627155Y91322D01*
X627155Y91322D01*
X627156Y91322D01*
X627163Y91319D01*
X627168Y91316D01*
X627169D01*
X628635Y91298D01*
X628636D01*
X628639Y91300D01*
X628649Y91303D01*
X628649Y91303D01*
X628649Y91304D01*
X628652Y91311D01*
X628655Y91316D01*
X628783Y94389D01*
X628806Y94929D01*
X630758D01*
X630761Y94930D01*
X630765Y94930D01*
X630768Y94933D01*
X630771Y94934D01*
X630772Y94938D01*
X630775Y94941D01*
X630775Y94945D01*
X630776Y94948D01*
X630775Y94951D01*
X630775Y94955D01*
X630772Y94958D01*
X630771Y94961D01*
X630767Y94962D01*
X630764Y94965D01*
X630311Y95134D01*
X629716Y95434D01*
X629212Y95814D01*
X628845Y96285D01*
X628662Y96859D01*
X628542Y98184D01*
X628507Y99258D01*
X628521Y100030D01*
X628546Y100450D01*
X628546Y100451D01*
X628546Y100451D01*
X628544Y100457D01*
X628541Y100464D01*
X628541Y100464D01*
X628540Y100464D01*
X628535Y100467D01*
X628528Y100470D01*
D02*
G37*
G36*
X625481Y123717D02*
X625480D01*
X625472Y123714D01*
X625467Y123712D01*
X625466Y123712D01*
X625460Y123700D01*
X624841Y116383D01*
X624844Y116376D01*
X624845Y116371D01*
X624845Y116371D01*
X624846Y116370D01*
X624853Y116366D01*
X624857Y116363D01*
X624858Y116363D01*
X624859D01*
X628162Y115784D01*
X628024Y112701D01*
X624657Y113381D01*
X624656Y113381D01*
X624655Y113382D01*
X624649Y113379D01*
X624643Y113378D01*
X624642Y113377D01*
X624641Y113377D01*
X624638Y113372D01*
X624635Y113366D01*
X624635Y113365D01*
X624635Y113364D01*
X624163Y103610D01*
Y103610D01*
X624048Y93032D01*
X624048Y93030D01*
X624048Y93028D01*
X624148Y92563D01*
X624148Y92563D01*
Y92562D01*
X624457Y91497D01*
X624458Y91496D01*
Y91495D01*
X625019Y90151D01*
X625020Y90149D01*
X625020Y90147D01*
X625875Y88845D01*
X625876Y88844D01*
X625876Y88843D01*
X625881Y88841D01*
X625886Y88837D01*
X625888Y88837D01*
X625890Y88837D01*
X625895Y88839D01*
X625901Y88840D01*
X625902Y88842D01*
X625903Y88842D01*
X625905Y88845D01*
X625909Y88852D01*
X625909Y88854D01*
X625909Y88855D01*
X625994Y90782D01*
X626018Y91347D01*
X626454Y101053D01*
X626635Y101433D01*
X627022Y101596D01*
X640853Y101603D01*
X641248Y101431D01*
X641420Y101036D01*
X641338Y94969D01*
Y94969D01*
X641372Y88777D01*
X641373Y88775D01*
X641372Y88772D01*
X641375Y88768D01*
X641377Y88764D01*
X641379Y88763D01*
X641381Y88761D01*
X641386Y88760D01*
X641390Y88758D01*
X641393Y88759D01*
X641395Y88759D01*
X641400Y88762D01*
X641404Y88764D01*
X641404Y88766D01*
X641407Y88768D01*
X641885Y89586D01*
X641886Y89587D01*
X641887Y89589D01*
X642370Y90873D01*
Y90874D01*
X642371Y90875D01*
X642776Y92705D01*
X642776Y92706D01*
X642777Y92708D01*
X643026Y95171D01*
X643026Y95172D01*
X643026Y95173D01*
X643039Y98354D01*
Y98372D01*
X642967Y113145D01*
X642967Y113147D01*
X642967Y113149D01*
X642964Y113153D01*
X642962Y113158D01*
X642960Y113159D01*
X642959Y113160D01*
X642955Y113161D01*
X642948Y113164D01*
X642947Y113163D01*
X642945Y113164D01*
X639638Y112537D01*
X639494Y115615D01*
X642939Y116175D01*
X642944Y116178D01*
X642949Y116180D01*
X642950Y116181D01*
X642952Y116183D01*
X642953Y116188D01*
X642955Y116193D01*
X642917Y123510D01*
X642917Y123511D01*
X642917Y123511D01*
X642914Y123518D01*
X642912Y123524D01*
X642911Y123524D01*
X642911Y123524D01*
X642905Y123527D01*
X642899Y123529D01*
X642898Y123529D01*
X642897Y123529D01*
X641770Y123463D01*
X641769Y123462D01*
X641768Y123462D01*
X641380Y123377D01*
X641379Y123377D01*
X639550Y123102D01*
X639549D01*
X637224Y122905D01*
X632810Y122885D01*
X627978Y123426D01*
X625481Y123717D01*
D02*
G37*
G36*
X637918Y100477D02*
X635311D01*
X635298Y100471D01*
X635292Y100458D01*
Y97027D01*
X632147D01*
Y100451D01*
X632142Y100464D01*
X632128Y100470D01*
X629697D01*
X629692Y100468D01*
X629685Y100465D01*
X629684Y100465D01*
X629683Y100464D01*
X629681Y100459D01*
X629678Y100453D01*
X629658Y100191D01*
Y100191D01*
Y100190D01*
X629635Y99478D01*
X629635Y99478D01*
X629635Y99477D01*
X629656Y98388D01*
X629657Y98388D01*
X629656Y98387D01*
X629776Y96994D01*
X629778Y96990D01*
X629779Y96986D01*
X630022Y96612D01*
X630025Y96609D01*
X630028Y96606D01*
X630742Y96174D01*
X630745Y96174D01*
X630747Y96172D01*
X631907Y95833D01*
X631909Y95833D01*
X631910Y95832D01*
X633308Y95669D01*
X633309Y95669D01*
X633311Y95669D01*
X634774Y95721D01*
X634776Y95722D01*
X634777Y95722D01*
X636138Y96002D01*
X636141Y96003D01*
X636143D01*
X637156Y96468D01*
X637158Y96470D01*
X637161Y96471D01*
X637839Y97098D01*
X637845Y97111D01*
X637936Y100458D01*
Y100458D01*
X637934Y100463D01*
X637931Y100471D01*
X637931D01*
Y100471D01*
X637923Y100474D01*
X637918Y100477D01*
D02*
G37*
G36*
X667903Y100622D02*
X666946D01*
X666945Y100621D01*
X666943Y100621D01*
X666933Y100616D01*
X666932Y100615D01*
X666932D01*
X666930Y100611D01*
X666927Y100603D01*
X666927Y100602D01*
X666927Y100601D01*
X666954Y100181D01*
X666970Y99410D01*
X666937Y98337D01*
X666818Y97011D01*
X666635Y96437D01*
X666268Y95966D01*
X665762Y95585D01*
X665169Y95286D01*
X665169D01*
X664715Y95117D01*
X664712Y95114D01*
X664708Y95112D01*
X664706Y95109D01*
X664704Y95107D01*
Y95103D01*
X664702Y95099D01*
X664704Y95096D01*
Y95092D01*
X664706Y95090D01*
X664708Y95086D01*
X664711Y95084D01*
X664713Y95082D01*
X664717D01*
X664721Y95080D01*
X666673D01*
X666697Y94540D01*
Y94540D01*
X666824Y91468D01*
X666829Y91457D01*
X666830Y91455D01*
X666830Y91455D01*
X666840Y91451D01*
X666843Y91450D01*
X666843D01*
X668310Y91468D01*
X668310D01*
X668314Y91469D01*
X668323Y91473D01*
X668323Y91474D01*
X668324Y91474D01*
X668327Y91484D01*
X668329Y91487D01*
Y91487D01*
X667922Y100603D01*
X667919Y100609D01*
X667916Y100616D01*
X667916Y100616D01*
X667916Y100617D01*
X667908Y100620D01*
X667903Y100622D01*
D02*
G37*
G36*
X660169Y100628D02*
X657562D01*
X657557Y100626D01*
X657549Y100623D01*
Y100622D01*
X657549D01*
X657546Y100615D01*
X657544Y100610D01*
Y100609D01*
X657635Y97263D01*
Y97262D01*
X657637Y97256D01*
X657641Y97250D01*
X657641D01*
Y97249D01*
X658319Y96622D01*
X658323Y96621D01*
X658324Y96619D01*
X659337Y96155D01*
X659339D01*
X659341Y96153D01*
X660702Y95873D01*
X660704Y95873D01*
X660705Y95873D01*
X662169Y95820D01*
X662170Y95821D01*
X662172Y95820D01*
X663570Y95983D01*
X663572Y95984D01*
X663574Y95984D01*
X664733Y96324D01*
X664735Y96325D01*
X664737Y96326D01*
X665453Y96757D01*
X665455Y96761D01*
X665458Y96763D01*
X665701Y97137D01*
X665702Y97141D01*
X665704Y97146D01*
X665823Y98538D01*
X665823Y98539D01*
X665823Y98540D01*
X665845Y99629D01*
X665845Y99629D01*
X665845Y99630D01*
X665822Y100342D01*
Y100342D01*
Y100343D01*
X665800Y100604D01*
X665798Y100611D01*
X665795Y100616D01*
X665794Y100616D01*
X665794Y100617D01*
X665789Y100619D01*
X665782Y100622D01*
X663352D01*
X663338Y100616D01*
X663333Y100603D01*
Y97179D01*
X660188D01*
Y100610D01*
X660182Y100623D01*
X660169Y100628D01*
D02*
G37*
G36*
X663697Y152801D02*
X663697D01*
X660417Y152752D01*
X660406D01*
X660404Y152751D01*
X660402Y152751D01*
X659615Y152557D01*
X659615D01*
X658826Y152370D01*
X658821Y152366D01*
X658817Y152365D01*
X658816Y152362D01*
X658814Y152361D01*
X658813Y152356D01*
X658811Y152351D01*
Y148289D01*
X657979Y148182D01*
X657621Y148140D01*
X657615Y148136D01*
X657610Y148134D01*
X657610Y148133D01*
X657608Y148132D01*
X657607Y148127D01*
X657604Y148121D01*
X657538Y143125D01*
Y143125D01*
Y143108D01*
X657417Y139235D01*
Y139235D01*
X657419Y139232D01*
X657422Y139222D01*
X657435Y139215D01*
X658332Y139174D01*
Y138271D01*
X658333Y138269D01*
X658332Y138267D01*
X658398Y137871D01*
X658400Y137868D01*
X658400Y137865D01*
X658544Y137607D01*
X658547Y137604D01*
X658549Y137600D01*
X658744Y137463D01*
X658748Y137462D01*
X658753Y137460D01*
X658971Y137429D01*
X658974Y137430D01*
X658978Y137429D01*
X659196Y137490D01*
X659198Y137492D01*
X659202Y137492D01*
X659389Y137628D01*
X659391Y137631D01*
X659394Y137633D01*
X659526Y137827D01*
X659526Y137831D01*
X659528Y137834D01*
X659576Y138073D01*
X659576Y138075D01*
X659576Y138076D01*
X659557Y139052D01*
X661376Y139046D01*
X661377D01*
X663157Y139100D01*
X663193Y138318D01*
X663194Y138317D01*
X663193Y138317D01*
X663242Y137858D01*
X663242Y137857D01*
Y137857D01*
X663285Y137601D01*
X663286Y137599D01*
Y137596D01*
X663436Y137278D01*
X663437Y137277D01*
X663438Y137276D01*
X663447Y137269D01*
X663448D01*
X663448Y137268D01*
X663820Y137162D01*
X663825Y137163D01*
X663830Y137162D01*
X664220Y137278D01*
X664231Y137288D01*
X664429Y137637D01*
X664429Y137640D01*
X664431Y137644D01*
X664455Y137837D01*
X664454Y137838D01*
X664455Y137838D01*
X664486Y138391D01*
Y138391D01*
X664504Y139279D01*
X665182Y139373D01*
X665200D01*
X665214Y139378D01*
X665219Y139392D01*
X665233Y141751D01*
X665219Y143496D01*
Y143562D01*
X665292Y148429D01*
Y148429D01*
X665290Y148435D01*
X665287Y148442D01*
X665287D01*
Y148442D01*
X665279Y148446D01*
X665274Y148448D01*
X663716D01*
Y152783D01*
Y152783D01*
X663714Y152788D01*
X663711Y152796D01*
X663710D01*
Y152796D01*
X663703Y152799D01*
X663697Y152801D01*
D02*
G37*
G36*
X591099Y183752D02*
X591091Y183750D01*
X591086Y183748D01*
X591085Y183748D01*
X591085D01*
X591079Y183739D01*
X591078Y183736D01*
X591077Y183736D01*
X589726Y173012D01*
X589728Y173005D01*
X589728Y173001D01*
X589729Y172999D01*
X589730Y172998D01*
X589736Y172995D01*
X589739Y172991D01*
X591606Y172416D01*
X591607D01*
X593181Y172003D01*
X593181D01*
X593182Y172002D01*
X594555Y171717D01*
X594556D01*
X595820Y171522D01*
X595820Y171522D01*
X597068Y171377D01*
X597068D01*
X598388Y171246D01*
X599874Y171092D01*
X601617Y170876D01*
X601631Y170880D01*
X601631Y170880D01*
X601633Y170883D01*
X601638Y170892D01*
Y170892D01*
Y170893D01*
X602668Y181695D01*
X602666Y181701D01*
X602665Y181707D01*
X602664Y181708D01*
Y181708D01*
X602659Y181711D01*
X602653Y181715D01*
X602651Y181715D01*
X602651D01*
X591100Y183752D01*
X591100D01*
X591099Y183752D01*
D02*
G37*
G36*
X629835Y234537D02*
X629832Y234536D01*
X629830D01*
X626765Y233498D01*
X626764Y233497D01*
X626762Y233497D01*
X624026Y231822D01*
X624025Y231821D01*
X624023Y231821D01*
X621634Y229717D01*
X621634Y229716D01*
X621633Y229715D01*
X619608Y227390D01*
X619608Y227389D01*
X619607Y227389D01*
X618334Y225737D01*
X618334Y225735D01*
X618333Y225734D01*
X617266Y223886D01*
Y223885D01*
X617266Y223885D01*
X616300Y222000D01*
Y222000D01*
X615327Y220240D01*
X613039Y217132D01*
X613038Y217131D01*
X613038Y217130D01*
X611041Y213809D01*
X611040Y213804D01*
X611039Y213799D01*
X610899Y206083D01*
X610894Y205702D01*
X610626Y205429D01*
X610626Y205428D01*
X606740Y201513D01*
X606736Y201503D01*
X606735Y201499D01*
Y201495D01*
X606729Y201467D01*
X606730Y201465D01*
X606729Y201464D01*
X606710Y200210D01*
X606651Y199197D01*
X606585Y198500D01*
X606547Y198192D01*
X606547Y198192D01*
X606547Y198191D01*
X606159Y191808D01*
X606160Y191807D01*
X606159Y191805D01*
X607026Y185333D01*
X607027Y185331D01*
Y185330D01*
X608839Y179211D01*
X608840Y179210D01*
Y179208D01*
X611520Y173522D01*
X611521Y173521D01*
X611521Y173520D01*
X614993Y168351D01*
X614994Y168350D01*
X614995Y168348D01*
X619184Y163773D01*
X619185Y163773D01*
X619186Y163771D01*
X624017Y159874D01*
X624018Y159874D01*
X624019Y159873D01*
X629416Y156734D01*
X629417Y156733D01*
X629418Y156733D01*
X635304Y154432D01*
X635304D01*
X635944Y154186D01*
X635945D01*
X635945Y154185D01*
X636375Y154043D01*
X636376D01*
X636376Y154043D01*
X636842Y153912D01*
X637589Y153697D01*
X637591Y153698D01*
X637592Y153697D01*
X642482Y152935D01*
X642483Y152935D01*
X642484Y152935D01*
X647535Y152703D01*
X647536Y152703D01*
X647538Y152703D01*
X652549Y153018D01*
X652550Y153018D01*
X652551Y153018D01*
X657384Y153909D01*
X657385Y153909D01*
X657386D01*
X660078Y154643D01*
X660079Y154644D01*
X660080D01*
X665827Y156956D01*
X665828Y156957D01*
X665830Y156957D01*
X671112Y160067D01*
X671113Y160068D01*
X671115Y160068D01*
X675859Y163899D01*
X675860Y163900D01*
X675861Y163901D01*
X679991Y168380D01*
X679991Y168382D01*
X679992Y168383D01*
X683434Y173435D01*
X683435Y173436D01*
X683436Y173437D01*
X686113Y178986D01*
Y178988D01*
X686114Y178989D01*
X687953Y184961D01*
X687952Y184962D01*
X687953Y184963D01*
X688877Y191283D01*
X688877Y191284D01*
X688878Y191286D01*
X688461Y198069D01*
X688462Y198069D01*
X688464Y198076D01*
X688466Y198081D01*
X688466Y198081D01*
X688466Y198083D01*
X688432Y198389D01*
X688370Y199092D01*
X688314Y200115D01*
X688296Y201372D01*
X688291Y201385D01*
X688266Y201410D01*
X684387Y205319D01*
X684387Y205320D01*
X684119Y205593D01*
X684114Y205974D01*
X683968Y213902D01*
X683966Y213907D01*
X683965Y213912D01*
X682017Y217146D01*
X682016Y217147D01*
X682016Y217148D01*
X679788Y220180D01*
X679788D01*
X679650Y220408D01*
X679269Y221234D01*
X679269Y221235D01*
Y221235D01*
X678417Y222871D01*
X678416Y222871D01*
Y222872D01*
X677109Y225045D01*
X677108Y225046D01*
X677108Y225047D01*
X675357Y227485D01*
X675355Y227485D01*
X675355Y227486D01*
X673354Y229736D01*
X673353Y229737D01*
X673352Y229738D01*
X671004Y231760D01*
X671003Y231760D01*
X671002Y231761D01*
X668324Y233366D01*
X668322Y233366D01*
X668320Y233368D01*
X665328Y234366D01*
X665325D01*
X665323Y234367D01*
X665318Y234366D01*
X665313Y234365D01*
X665312Y234363D01*
X665309Y234363D01*
X665307Y234358D01*
X665303Y234354D01*
X665304Y234352D01*
X665303Y234350D01*
X665207Y233053D01*
X665157Y232379D01*
X665139Y232176D01*
X665045Y231999D01*
X663871Y230451D01*
X662226Y229178D01*
X660196Y228146D01*
X657861Y227316D01*
X652545Y226210D01*
X646785Y225838D01*
X643909Y225927D01*
X641120Y226201D01*
X641120D01*
X638490Y226667D01*
X636080Y227328D01*
X633937Y228202D01*
X632138Y229318D01*
X630799Y230707D01*
X630030Y232403D01*
X630013Y232470D01*
X630007Y232549D01*
X629965Y233102D01*
X629855Y234519D01*
X629854Y234522D01*
Y234524D01*
X629851Y234527D01*
X629849Y234532D01*
X629846Y234533D01*
X629845Y234535D01*
X629840Y234535D01*
X629835Y234537D01*
D02*
G37*
G36*
X703914Y183649D02*
X703913Y183648D01*
X692361Y181612D01*
X692360D01*
X692359Y181612D01*
X692353Y181608D01*
X692348Y181605D01*
Y181605D01*
X692347Y181604D01*
X692346Y181598D01*
X692343Y181591D01*
X693381Y170790D01*
X693381Y170789D01*
X693382Y170787D01*
X693388Y170777D01*
X693388D01*
Y170777D01*
X693395Y170775D01*
X693401Y170773D01*
X693402D01*
X695144Y170988D01*
X696629Y171143D01*
X697950Y171273D01*
X697950D01*
X699196Y171417D01*
X699197Y171418D01*
X700461Y171614D01*
X700462D01*
X701837Y171899D01*
X701837Y171899D01*
X701838D01*
X703412Y172312D01*
X703412Y172312D01*
X703412D01*
X705279Y172889D01*
X705284Y172893D01*
X705288Y172896D01*
X705289Y172897D01*
X705290Y172898D01*
X705291Y172905D01*
X705293Y172909D01*
X703935Y183632D01*
X703935Y183633D01*
X703934Y183635D01*
X703928Y183645D01*
X703928D01*
X703927Y183645D01*
X703921Y183647D01*
X703914Y183649D01*
D02*
G37*
G36*
X706308Y169706D02*
X706307D01*
X705948Y169652D01*
X705947D01*
X705345Y169556D01*
X704514Y169410D01*
X704514D01*
X703471Y169209D01*
X703470D01*
X701102Y168663D01*
X701101Y168663D01*
X701100D01*
X699182Y168045D01*
X699179Y168042D01*
X699174Y168040D01*
X699173Y168037D01*
X699172Y168036D01*
X699171Y168031D01*
X699169Y168026D01*
X699867Y159103D01*
X699889Y158781D01*
X699620Y158598D01*
X699618Y158597D01*
X699617Y158596D01*
X698637Y157601D01*
X698635Y157598D01*
X698633Y157595D01*
X698141Y156347D01*
Y156344D01*
X698139Y156341D01*
X698015Y154832D01*
X698015Y154830D01*
X698015Y154829D01*
X698182Y153114D01*
X698182Y153113D01*
X698182Y153112D01*
X698916Y149612D01*
Y149611D01*
X699503Y146117D01*
X699504Y146116D01*
Y146113D01*
X699508Y146109D01*
X699511Y146105D01*
X699513Y146105D01*
X699515Y146103D01*
X700545Y145695D01*
X701445Y145182D01*
X702620Y144312D01*
X703525Y143258D01*
X704189Y142058D01*
X704644Y140738D01*
X705159Y137496D01*
Y137496D01*
X705401Y134044D01*
X705406Y133959D01*
Y133948D01*
X705407Y133947D01*
X705406Y133947D01*
X705504Y132940D01*
X705505Y132939D01*
X705504Y132938D01*
X705815Y131268D01*
X705816Y131267D01*
Y131265D01*
X706296Y130106D01*
X706298Y130105D01*
X706299Y130102D01*
X706874Y129353D01*
X706876Y129352D01*
X706877Y129350D01*
X707475Y128908D01*
X707477Y128908D01*
X707479Y128906D01*
X708026Y128685D01*
X708028D01*
X708030Y128684D01*
X708490Y128602D01*
X708491Y128602D01*
X708492Y128602D01*
X708496Y128603D01*
X708504Y128605D01*
X708505Y128606D01*
X708505Y128607D01*
X708507Y128610D01*
X708511Y128617D01*
X708511Y128618D01*
X708512Y128619D01*
X708645Y131638D01*
X708644Y131642D01*
Y131646D01*
X708255Y132545D01*
X708085Y133314D01*
X708111Y133951D01*
X708303Y134459D01*
X708863Y135002D01*
X708864Y135003D01*
X708864D01*
X708865Y135007D01*
X708869Y135015D01*
X708869Y135015D01*
X708869Y135016D01*
X708812Y135933D01*
X708725Y137384D01*
X708610Y139293D01*
X708473Y141586D01*
X708314Y144186D01*
X708139Y147019D01*
X707948Y150009D01*
Y150009D01*
X707747Y153080D01*
X707744Y153087D01*
X707742Y153092D01*
X707741Y153093D01*
X707741Y153093D01*
X707734Y153096D01*
X707729Y153098D01*
X706027D01*
Y155309D01*
X707577D01*
X707578Y155310D01*
X707578Y155309D01*
X707585Y155312D01*
X707590Y155315D01*
X707590Y155316D01*
X707591Y155316D01*
X707594Y155323D01*
X707596Y155328D01*
X707596Y155329D01*
X707596Y155330D01*
X707236Y160416D01*
Y160416D01*
X706881Y164840D01*
X706877Y164847D01*
X706875Y164852D01*
X706874Y164852D01*
X706874Y164853D01*
X706867Y164855D01*
X706862Y164857D01*
X704716D01*
Y166614D01*
X706698D01*
X706699Y166615D01*
X706700Y166614D01*
X706707Y166618D01*
X706712Y166620D01*
X706712Y166621D01*
X706713Y166622D01*
X706715Y166628D01*
X706717Y166633D01*
X706717Y166634D01*
X706717Y166635D01*
X706550Y168189D01*
Y168189D01*
X706396Y169345D01*
X706396Y169345D01*
Y169346D01*
X706329Y169691D01*
X706325Y169697D01*
X706322Y169703D01*
X706321D01*
Y169703D01*
X706314Y169705D01*
X706308Y169706D01*
D02*
G37*
G36*
X595706Y205743D02*
X595701Y205742D01*
X595698Y205742D01*
X595696Y205741D01*
X595692Y205740D01*
X595690Y205736D01*
X595687Y205733D01*
X594498Y203513D01*
Y203512D01*
X594497Y203511D01*
X593509Y200919D01*
Y200918D01*
X593509Y200917D01*
X592622Y197523D01*
Y197522D01*
X592622Y197522D01*
X592061Y194063D01*
Y194063D01*
X592061Y194062D01*
X591814Y190785D01*
X591815Y190784D01*
X591814Y190783D01*
X591871Y187927D01*
X591873Y187923D01*
X591875Y187916D01*
X591876Y187915D01*
X591877Y187914D01*
X591882Y187913D01*
X591887Y187909D01*
X593337Y187720D01*
X595557Y187433D01*
X598083Y187103D01*
X598083Y187103D01*
X600106Y186837D01*
X601776Y186618D01*
X603051Y186450D01*
X603890Y186339D01*
X603891Y186339D01*
X603891Y186339D01*
X603896Y186340D01*
X603904Y186342D01*
X603904Y186343D01*
X603905Y186343D01*
X603907Y186348D01*
X603911Y186355D01*
X603911Y186356D01*
X603911Y186356D01*
X604251Y191819D01*
X604251Y191819D01*
X604251Y191820D01*
X604184Y194153D01*
X604511Y199214D01*
X604511Y199215D01*
X604511Y199215D01*
X604508Y199222D01*
X604507Y199227D01*
X604506D01*
X604506Y199228D01*
X604498Y199231D01*
X604494Y199234D01*
X604493Y199233D01*
X604493Y199234D01*
X604485Y199231D01*
X604480Y199229D01*
Y199228D01*
X604479Y199228D01*
X604240Y198989D01*
X603998Y198923D01*
X600850Y198421D01*
X598474Y198850D01*
X597563Y199375D01*
X596849Y200053D01*
X596318Y200833D01*
X595958Y201657D01*
X595674Y202864D01*
X595586Y204001D01*
X595626Y204981D01*
X595722Y205722D01*
X595721Y205727D01*
X595721Y205730D01*
X595719Y205732D01*
X595718Y205736D01*
X595715Y205738D01*
X595712Y205741D01*
X595709Y205742D01*
X595706Y205743D01*
D02*
G37*
G36*
X632134Y152674D02*
X632134D01*
X632130Y152672D01*
X632121Y152668D01*
X632115Y152655D01*
Y152655D01*
Y148321D01*
X630563D01*
X630550Y148316D01*
X630545Y148303D01*
X630618Y143435D01*
Y143368D01*
X630606Y141622D01*
X630618Y139265D01*
X630623Y139251D01*
X630636Y139246D01*
X630647D01*
X631055Y139199D01*
X631072Y138313D01*
Y138312D01*
Y138312D01*
X631104Y137760D01*
X631105Y137760D01*
X631104Y137759D01*
X631127Y137565D01*
X631129Y137563D01*
Y137561D01*
X631315Y137080D01*
X631316Y137080D01*
Y137079D01*
X631321Y137075D01*
X631325Y137070D01*
X631326D01*
X631326Y137070D01*
X631720Y136926D01*
X631727Y136927D01*
X631734D01*
X632124Y137093D01*
X632124Y137093D01*
X632134Y137104D01*
X632303Y137549D01*
Y137550D01*
X632304Y137552D01*
X632349Y137808D01*
Y137808D01*
X632349Y137809D01*
X632395Y138269D01*
X632395Y138269D01*
X632395Y138270D01*
X632407Y138748D01*
X633140Y138731D01*
X633140D01*
X635352Y138767D01*
X635645Y138772D01*
X635697Y138172D01*
X635719Y137715D01*
X635720Y137712D01*
Y137709D01*
X635759Y137609D01*
X635762Y137605D01*
X635766Y137600D01*
X636045Y137406D01*
X636049Y137405D01*
X636052Y137402D01*
X636381Y137338D01*
X636386Y137339D01*
X636391Y137339D01*
X636667Y137431D01*
X636668Y137432D01*
X636668D01*
X636672Y137436D01*
X636678Y137441D01*
Y137441D01*
X636678Y137442D01*
X636801Y137718D01*
Y137720D01*
X636802Y137722D01*
X636893Y138231D01*
X636893Y138233D01*
X636893Y138234D01*
Y139131D01*
X637547D01*
X637555Y139134D01*
X637560Y139136D01*
Y139137D01*
X637560D01*
X637563Y139142D01*
X637566Y139150D01*
Y139150D01*
Y139150D01*
X637444Y143023D01*
Y143041D01*
Y143041D01*
X637378Y148035D01*
X637376Y148040D01*
X637374Y148047D01*
X637373Y148048D01*
X637372Y148049D01*
X637368Y148050D01*
X637361Y148054D01*
X637010Y148097D01*
X636178Y148204D01*
Y152309D01*
X636176Y152313D01*
X636176Y152318D01*
X636174Y152320D01*
X636172Y152322D01*
X636169Y152324D01*
X636164Y152327D01*
X635189Y152594D01*
X635188Y152594D01*
X635170Y152600D01*
X635168Y152599D01*
X635165Y152601D01*
X632134Y152674D01*
D02*
G37*
G36*
X647537Y235598D02*
X647536Y235598D01*
X647535Y235598D01*
X643463Y235399D01*
X643462Y235399D01*
X643461D01*
X639504Y234816D01*
X639503Y234815D01*
X639502D01*
X635674Y233871D01*
X635674Y233870D01*
X635672D01*
X631994Y232579D01*
X631992Y232577D01*
X631991Y232577D01*
X631988Y232573D01*
X631983Y232569D01*
Y232567D01*
X631982Y232565D01*
X631983Y232561D01*
X631982Y232554D01*
X631984Y232553D01*
X631984Y232551D01*
X632564Y231575D01*
X632567Y231573D01*
X632568Y231571D01*
X633557Y230661D01*
X633559Y230661D01*
X633560Y230659D01*
X634938Y229839D01*
X634940Y229838D01*
X634941Y229837D01*
X636685Y229130D01*
X636686D01*
X636687Y229129D01*
X638902Y228525D01*
X638903D01*
X638904Y228524D01*
X641376Y228089D01*
X641376D01*
X641377Y228088D01*
X644029Y227826D01*
X644030Y227826D01*
X644030Y227826D01*
X646784Y227740D01*
X646786Y227740D01*
X646786Y227740D01*
X652300Y228097D01*
X652301Y228098D01*
X652302Y228097D01*
X657312Y229135D01*
X657313Y229135D01*
X657314D01*
X659262Y229832D01*
X659263Y229833D01*
X659265D01*
X660909Y230648D01*
X660910Y230649D01*
X660911Y230649D01*
X662209Y231557D01*
X662211Y231559D01*
X662212Y231560D01*
X663123Y232529D01*
X663124Y232532D01*
X663127Y232535D01*
X663127Y232539D01*
X663128Y232542D01*
X663126Y232546D01*
X663126Y232550D01*
X663124Y232552D01*
X663122Y232555D01*
X663118Y232556D01*
X663115Y232559D01*
X659429Y233858D01*
X659428D01*
X659428Y233858D01*
X655592Y234812D01*
X655592D01*
X655591Y234812D01*
X651623Y235399D01*
X651622D01*
X651621Y235399D01*
X647537Y235598D01*
D02*
G37*
G36*
X605269Y213732D02*
X605269Y213732D01*
X605268Y213732D01*
X605262Y213730D01*
X605255Y213727D01*
X605255Y213727D01*
X602612Y210897D01*
X602612Y210896D01*
X601090Y209266D01*
X601090Y209265D01*
X600915Y209078D01*
X600913Y209073D01*
X600910Y209068D01*
X600888Y208922D01*
X600785Y208932D01*
X600783Y208932D01*
X600782Y208932D01*
X600777Y208930D01*
X600771Y208928D01*
X600770Y208927D01*
X600769Y208927D01*
X597647Y205568D01*
X597645Y205562D01*
X597643Y205558D01*
X597607Y205352D01*
X597607Y205349D01*
X597607Y205346D01*
X597609Y205342D01*
X597610Y205338D01*
X597612Y205336D01*
X597614Y205333D01*
X599463Y203885D01*
X599476Y203882D01*
X599477D01*
X599486Y203887D01*
X599489Y203889D01*
X599489Y203889D01*
X599981Y204554D01*
X600546Y204821D01*
X601110Y204768D01*
X601601Y204470D01*
X601942Y203997D01*
X602059Y203425D01*
X601875Y202825D01*
X601310Y202265D01*
X601309Y202264D01*
X601308Y202263D01*
X601306Y202258D01*
X601304Y202251D01*
X601305Y202250D01*
X601304Y202250D01*
X601307Y202244D01*
X601310Y202238D01*
X601310Y202238D01*
X601311Y202237D01*
X603208Y200697D01*
X603209Y200696D01*
X603210Y200695D01*
X603216Y200695D01*
X603222Y200693D01*
X603223Y200694D01*
X603224Y200693D01*
X603249Y200700D01*
X603252Y200702D01*
X603258Y200704D01*
X604973Y202432D01*
X605107Y202566D01*
X605107Y202566D01*
X605107Y202566D01*
X605179Y202645D01*
X605239Y202705D01*
X608997Y206499D01*
X609000Y206507D01*
X609003Y206512D01*
X609137Y213629D01*
X609131Y213642D01*
X609118Y213648D01*
X605269Y213732D01*
D02*
G37*
G36*
X699300Y205640D02*
X699297Y205639D01*
X699294Y205638D01*
X699291Y205635D01*
X699288Y205633D01*
X699287Y205630D01*
X699285Y205627D01*
X699285Y205623D01*
X699284Y205619D01*
X699381Y204877D01*
X699420Y203897D01*
X699333Y202762D01*
X699049Y201555D01*
X698691Y200731D01*
X698161Y199951D01*
X697449Y199273D01*
X696538Y198748D01*
X694162Y198317D01*
X691016Y198820D01*
X690773Y198886D01*
X690612Y199052D01*
X690611Y199052D01*
Y199053D01*
X690607Y199054D01*
X690599Y199057D01*
X690598Y199057D01*
X690598Y199057D01*
X690592Y199055D01*
X690586Y199052D01*
X690585Y199051D01*
X690585D01*
X690583Y199047D01*
X690580Y199039D01*
X690580Y199038D01*
X690580Y199037D01*
X690883Y194153D01*
X690787Y191286D01*
X690787Y191285D01*
X690787Y191284D01*
X691095Y186247D01*
X691096Y186247D01*
X691095Y186246D01*
X691099Y186239D01*
X691102Y186234D01*
X691102Y186234D01*
X691103Y186234D01*
X691111Y186231D01*
X691115Y186230D01*
X691115Y186230D01*
X691116Y186230D01*
X691955Y186341D01*
X691955Y186341D01*
X693232Y186508D01*
X694905Y186728D01*
X696930Y186993D01*
X699456Y187323D01*
X701676Y187612D01*
X703124Y187800D01*
X703130Y187803D01*
X703135Y187805D01*
X703136Y187806D01*
X703137Y187807D01*
X703139Y187814D01*
X703141Y187818D01*
X703198Y190674D01*
X703198Y190675D01*
X703198Y190676D01*
X702953Y193953D01*
X702953Y193954D01*
Y193955D01*
X702392Y197412D01*
X702392Y197412D01*
X702392Y197414D01*
X701503Y200807D01*
X701502Y200808D01*
Y200809D01*
X700513Y203406D01*
X700512Y203407D01*
Y203408D01*
X699319Y205631D01*
X699316Y205633D01*
X699314Y205636D01*
X699311Y205637D01*
X699308Y205640D01*
X699304Y205639D01*
X699300Y205640D01*
D02*
G37*
G36*
X689745Y213624D02*
X689744Y213623D01*
X689744Y213624D01*
X685895Y213545D01*
X685882Y213539D01*
X685876Y213526D01*
X686009Y206403D01*
X686011Y206398D01*
X686015Y206390D01*
X689911Y202458D01*
X689915Y202449D01*
X689917Y202447D01*
X689919Y202445D01*
X690204Y202160D01*
X691750Y200601D01*
X691754Y200599D01*
X691758Y200597D01*
X691782Y200590D01*
X691784Y200591D01*
X691785Y200590D01*
X691789Y200592D01*
X691796Y200593D01*
X691797Y200594D01*
X691798Y200594D01*
X693697Y202128D01*
X693697Y202129D01*
X693698Y202129D01*
X693700Y202136D01*
X693703Y202141D01*
X693703Y202141D01*
X693703Y202143D01*
X693701Y202149D01*
X693699Y202155D01*
X693698Y202155D01*
X693698Y202156D01*
X693133Y202716D01*
X692950Y203316D01*
X693067Y203888D01*
X693410Y204361D01*
X693902Y204659D01*
X694467Y204712D01*
X695032Y204445D01*
X695524Y203780D01*
X695524Y203779D01*
X695536Y203772D01*
X695550Y203776D01*
X697394Y205225D01*
X697395Y205227D01*
X697398Y205229D01*
X697399Y205234D01*
X697401Y205238D01*
X697400Y205240D01*
X697401Y205243D01*
X697364Y205455D01*
X697361Y205459D01*
X697359Y205465D01*
X694244Y208817D01*
X694243Y208817D01*
X694242Y208818D01*
X694238Y208819D01*
X694231Y208822D01*
X694230Y208822D01*
X694229Y208822D01*
X694125Y208813D01*
X694102Y208958D01*
X694100Y208963D01*
X694098Y208968D01*
X693922Y209156D01*
X693922Y209156D01*
X692431Y210756D01*
X692430Y210756D01*
X689758Y213618D01*
X689758Y213618D01*
X689757Y213619D01*
X689752Y213621D01*
X689745Y213624D01*
D02*
G37*
%LPD*%
G36*
X650747Y222177D02*
X655036Y221463D01*
X655363Y219216D01*
X655035Y217076D01*
X651535Y213647D01*
X647300Y210754D01*
X644760Y212224D01*
X642456Y213828D01*
X640432Y215579D01*
X638728Y217493D01*
X638315Y219615D01*
X638666Y221667D01*
X642694Y222146D01*
X646991Y222382D01*
X650747Y222177D01*
D02*
G37*
G36*
X634586Y92882D02*
X635322Y92415D01*
X635820Y91715D01*
X636012Y90849D01*
X635845Y89980D01*
X635364Y89266D01*
X634642Y88778D01*
X633752Y88589D01*
X632859Y88752D01*
X632124Y89219D01*
X631624Y89919D01*
X631431Y90784D01*
X631600Y91654D01*
X632081Y92368D01*
X632803Y92857D01*
X633692Y93043D01*
X634586Y92882D01*
D02*
G37*
G36*
X662677Y93008D02*
X663399Y92519D01*
X663880Y91805D01*
X664047Y90935D01*
X663854Y90070D01*
X663354Y89371D01*
X662617Y88904D01*
X661721Y88741D01*
X660832Y88929D01*
X660111Y89418D01*
X659629Y90133D01*
X659461Y91001D01*
X659655Y91867D01*
X660156Y92566D01*
X660894Y93033D01*
X661788Y93195D01*
X662677Y93008D01*
D02*
G37*
G36*
X648883Y195579D02*
X650219Y194632D01*
X651117Y193235D01*
X651446Y191540D01*
X651117Y189848D01*
X650219Y188459D01*
X648883Y187519D01*
X647240Y187171D01*
X645597Y187519D01*
X644261Y188459D01*
X643363Y189848D01*
X643034Y191540D01*
X643363Y193235D01*
X644261Y194631D01*
X645597Y195579D01*
X647240Y195928D01*
X648883Y195579D01*
D02*
G37*
G36*
X634964Y147769D02*
X635757Y147267D01*
X636297Y146512D01*
X636504Y145580D01*
X636322Y144644D01*
X635803Y143874D01*
X635026Y143348D01*
X634068Y143145D01*
X633106Y143321D01*
X632315Y143823D01*
X631778Y144578D01*
X631572Y145509D01*
X631752Y146445D01*
X632269Y147216D01*
X633044Y147742D01*
X634001Y147944D01*
X634964Y147769D01*
D02*
G37*
G36*
X662436Y147893D02*
X663212Y147367D01*
X663729Y146597D01*
X663908Y145660D01*
X663701Y144730D01*
X663162Y143975D01*
X662370Y143472D01*
X661406Y143296D01*
X660449Y143499D01*
X659673Y144026D01*
X659157Y144796D01*
X658976Y145731D01*
X659184Y146663D01*
X659724Y147418D01*
X660516Y147921D01*
X661478Y148096D01*
X662436Y147893D01*
D02*
G37*
G36*
X704308Y133230D02*
X702318Y132857D01*
X700263Y132839D01*
X699951Y133937D01*
X699888Y134830D01*
X701311Y135046D01*
X701312D01*
X702404Y135148D01*
X703298Y135189D01*
X704130Y135226D01*
X704308Y133230D01*
D02*
G37*
G36*
X701081Y144068D02*
X701854Y143373D01*
X702468Y142558D01*
X702949Y141629D01*
X703322Y140594D01*
X703706Y138944D01*
X703706Y138943D01*
X703941Y137223D01*
X702395Y139424D01*
X701212Y141903D01*
X700700Y143309D01*
X700343Y144453D01*
X701081Y144068D01*
D02*
G37*
G36*
X635237Y139749D02*
X632947Y139726D01*
X632941Y142179D01*
X635242Y142186D01*
X635237Y139749D01*
D02*
G37*
G36*
X662539Y142331D02*
X662532Y139878D01*
X660236Y139901D01*
Y142337D01*
X662539Y142331D01*
D02*
G37*
G36*
X628183Y210362D02*
X631169Y209356D01*
X633872Y207762D01*
X636226Y205651D01*
X638170Y203092D01*
X639636Y200157D01*
X640564Y196911D01*
X640887Y193426D01*
X640564Y189941D01*
X639636Y186694D01*
X638170Y183758D01*
X636226Y181197D01*
X633872Y179087D01*
X631168Y177491D01*
X628183Y176485D01*
X624976Y176132D01*
X621769Y176485D01*
X618784Y177491D01*
X616079Y179087D01*
X613726Y181197D01*
X611781Y183758D01*
X610314Y186694D01*
X609387Y189941D01*
X609063Y193426D01*
X609387Y196911D01*
X610314Y200157D01*
X611781Y203092D01*
X613726Y205652D01*
X616080Y207762D01*
X618784Y209356D01*
X621769Y210362D01*
X624976Y210713D01*
X628183Y210362D01*
D02*
G37*
G36*
X673421Y209676D02*
X676406Y208669D01*
X679110Y207075D01*
X681464Y204964D01*
X683408Y202404D01*
X684875Y199468D01*
X685801Y196220D01*
X686124Y192735D01*
X685801Y189249D01*
X684875Y186003D01*
X683408Y183068D01*
X681464Y180509D01*
X679110Y178399D01*
X676406Y176805D01*
X673421Y175800D01*
X670214Y175448D01*
X667007Y175800D01*
X664022Y176805D01*
X661319Y178399D01*
X658964Y180509D01*
X657021Y183067D01*
X655554Y186004D01*
X654626Y189249D01*
X654303Y192735D01*
X654626Y196221D01*
X655554Y199468D01*
X657020Y202404D01*
X658964Y204964D01*
X661318Y207075D01*
X664022Y208670D01*
X667007Y209676D01*
X670214Y210027D01*
X673421Y209676D01*
D02*
G37*
%LPC*%
G36*
X647244Y194408D02*
X647240Y194407D01*
X647236Y194408D01*
X646198Y194188D01*
X646195Y194186D01*
X646191Y194185D01*
X645336Y193581D01*
X645334Y193578D01*
X645331Y193576D01*
X644753Y192672D01*
X644752Y192668D01*
X644750Y192665D01*
X644536Y191544D01*
X644537Y191540D01*
X644536Y191537D01*
X644750Y190416D01*
X644752Y190414D01*
X644753Y190410D01*
X645331Y189505D01*
X645334Y189503D01*
X645336Y189500D01*
X646191Y188896D01*
X646195Y188896D01*
X646198Y188893D01*
X647236Y188673D01*
X647240Y188673D01*
X647244Y188673D01*
X648280Y188893D01*
X648283Y188896D01*
X648287Y188896D01*
X649137Y189500D01*
X649139Y189503D01*
X649143Y189505D01*
X649717Y190410D01*
X649718Y190413D01*
X649720Y190416D01*
X649931Y191537D01*
X649930Y191540D01*
X649931Y191544D01*
X649720Y192665D01*
X649718Y192668D01*
X649717Y192672D01*
X649143Y193576D01*
X649139Y193579D01*
X649137Y193581D01*
X648287Y194185D01*
X648283Y194186D01*
X648280Y194188D01*
X647244Y194408D01*
D02*
G37*
G36*
X625117Y200761D02*
X625115Y200760D01*
X625113Y200761D01*
X623454Y200599D01*
X623452Y200598D01*
X623450Y200599D01*
X621904Y200135D01*
X621903Y200133D01*
X621901D01*
X620503Y199400D01*
X620501Y199399D01*
X620499Y199398D01*
X619282Y198427D01*
X619281Y198425D01*
X619279Y198425D01*
X618274Y197247D01*
X618274Y197245D01*
X618272Y197244D01*
X617514Y195894D01*
X617514Y195892D01*
X617513Y195891D01*
X617033Y194398D01*
Y194396D01*
X617032Y194394D01*
X616865Y192791D01*
X616865Y192789D01*
X616865Y192787D01*
X617032Y191186D01*
X617033Y191184D01*
Y191182D01*
X617513Y189690D01*
X617514Y189689D01*
X617514Y189687D01*
X618272Y188337D01*
X618274Y188335D01*
X618274Y188333D01*
X619279Y187157D01*
X619281Y187156D01*
X619282Y187154D01*
X620499Y186185D01*
X620501Y186185D01*
X620503Y186183D01*
X621901Y185450D01*
X621903D01*
X621904Y185449D01*
X623450Y184986D01*
X623452Y184986D01*
X623453Y184985D01*
X625113Y184823D01*
X625115Y184824D01*
X625116Y184823D01*
X626777Y184985D01*
X626778Y184986D01*
X626780Y184986D01*
X628326Y185449D01*
X628327Y185450D01*
X628329D01*
X629729Y186183D01*
X629731Y186185D01*
X629732Y186185D01*
X630951Y187155D01*
X630952Y187156D01*
X630954Y187157D01*
X631960Y188333D01*
X631960Y188335D01*
X631962Y188336D01*
X632721Y189687D01*
X632721Y189689D01*
X632723Y189690D01*
X633203Y191182D01*
Y191184D01*
X633204Y191186D01*
X633371Y192787D01*
X633370Y192789D01*
X633371Y192791D01*
X633204Y194394D01*
X633203Y194396D01*
Y194398D01*
X632723Y195891D01*
X632721Y195892D01*
X632721Y195894D01*
X631962Y197245D01*
X631960Y197246D01*
X631960Y197247D01*
X630954Y198425D01*
X630952Y198425D01*
X630951Y198427D01*
X629732Y199398D01*
X629731Y199399D01*
X629729Y199400D01*
X628329Y200133D01*
X628328D01*
X628326Y200135D01*
X626780Y200599D01*
X626778Y200598D01*
X626777Y200599D01*
X625117Y200761D01*
D02*
G37*
G36*
X670361Y200076D02*
X670358Y200075D01*
X670357Y200076D01*
X668698Y199915D01*
X668696Y199914D01*
X668694Y199914D01*
X667148Y199450D01*
X667147Y199449D01*
X667145D01*
X665745Y198715D01*
X665743Y198713D01*
X665742Y198713D01*
X664523Y197742D01*
X664522Y197740D01*
X664520Y197739D01*
X663514Y196563D01*
X663514Y196561D01*
X663512Y196560D01*
X662753Y195208D01*
X662752Y195206D01*
X662751Y195205D01*
X662271Y193712D01*
Y193710D01*
X662270Y193708D01*
X662102Y192106D01*
X662103Y192104D01*
X662102Y192102D01*
X662270Y190500D01*
X662271Y190498D01*
Y190496D01*
X662751Y189004D01*
X662752Y189003D01*
X662753Y189001D01*
X663512Y187652D01*
X663514Y187651D01*
X663514Y187649D01*
X664520Y186472D01*
X664522Y186471D01*
X664523Y186469D01*
X665742Y185500D01*
X665743Y185499D01*
X665745Y185498D01*
X667145Y184765D01*
X667147D01*
X667148Y184764D01*
X668694Y184301D01*
X668696Y184301D01*
X668697Y184300D01*
X670357Y184139D01*
X670358Y184139D01*
X670360Y184139D01*
X672020Y184300D01*
X672022Y184301D01*
X672024Y184301D01*
X673570Y184764D01*
X673571Y184765D01*
X673573D01*
X674971Y185498D01*
X674973Y185499D01*
X674974Y185500D01*
X676193Y186469D01*
X676194Y186471D01*
X676196Y186472D01*
X677200Y187649D01*
X677201Y187651D01*
X677203Y187652D01*
X677961Y189001D01*
X677962Y189003D01*
X677962Y189004D01*
X678442Y190496D01*
Y190498D01*
X678443Y190500D01*
X678610Y192102D01*
X678609Y192104D01*
X678610Y192106D01*
X678443Y193708D01*
X678442Y193710D01*
Y193712D01*
X677962Y195205D01*
X677962Y195206D01*
X677961Y195208D01*
X677203Y196560D01*
X677201Y196561D01*
X677200Y196563D01*
X676196Y197739D01*
X676195Y197740D01*
X676193Y197742D01*
X674974Y198713D01*
X674973Y198714D01*
X674971Y198715D01*
X673573Y199449D01*
X673571D01*
X673570Y199450D01*
X672024Y199914D01*
X672022Y199914D01*
X672020Y199915D01*
X670361Y200076D01*
D02*
G37*
%LPD*%
G36*
X648269Y194152D02*
X649113Y193553D01*
X649684Y192654D01*
X649893Y191540D01*
X649684Y190427D01*
X649113Y189528D01*
X648268Y188929D01*
X647240Y188710D01*
X646209Y188930D01*
X645360Y189529D01*
X644786Y190426D01*
X644574Y191540D01*
X644786Y192655D01*
X645361Y193553D01*
X646209Y194152D01*
X647240Y194370D01*
X648269Y194152D01*
D02*
G37*
D39*
X558460Y32118D02*
Y47353D01*
X550843D01*
X548303Y44814D01*
Y39736D01*
X550843Y37197D01*
X558460D01*
X553382D02*
X548303Y32118D01*
X533068Y47353D02*
X543225D01*
Y32118D01*
X533068D01*
X543225Y39736D02*
X538147D01*
X527990Y47353D02*
Y37197D01*
X522911Y32118D01*
X517833Y37197D01*
Y47353D01*
X497520Y32118D02*
Y42275D01*
X492441Y47353D01*
X487363Y42275D01*
Y32118D01*
Y39736D01*
X497520D01*
X558460Y57004D02*
X553382D01*
X555921D01*
Y72239D01*
X558460D01*
X538147Y57004D02*
X543225D01*
X545764Y59543D01*
Y64622D01*
X543225Y67161D01*
X538147D01*
X535607Y64622D01*
Y62083D01*
X545764D01*
X527990Y57004D02*
Y69700D01*
Y64622D01*
X530529D01*
X525451D01*
X527990D01*
Y69700D01*
X525451Y72239D01*
X515294Y69700D02*
Y67161D01*
X517833D01*
X512755D01*
X515294D01*
Y59543D01*
X512755Y57004D01*
X487363D02*
Y69700D01*
Y64622D01*
X489902D01*
X484824D01*
X487363D01*
Y69700D01*
X484824Y72239D01*
X474667Y57004D02*
X469589D01*
X467050Y59543D01*
Y64622D01*
X469589Y67161D01*
X474667D01*
X477206Y64622D01*
Y59543D01*
X474667Y57004D01*
X459432D02*
X454354D01*
X451814Y59543D01*
Y64622D01*
X454354Y67161D01*
X459432D01*
X461971Y64622D01*
Y59543D01*
X459432Y57004D01*
X444197Y69700D02*
Y67161D01*
X446736D01*
X441658D01*
X444197D01*
Y59543D01*
X441658Y57004D01*
X434040D02*
X426423D01*
X423884Y59543D01*
X426423Y62083D01*
X431501D01*
X434040Y64622D01*
X431501Y67161D01*
X423884D01*
X411188Y57004D02*
X416266D01*
X418805Y59543D01*
Y64622D01*
X416266Y67161D01*
X411188D01*
X408648Y64622D01*
Y62083D01*
X418805D01*
X403570Y57004D02*
Y67161D01*
X395953D01*
X393413Y64622D01*
Y57004D01*
X388335D02*
X380718D01*
X378178Y59543D01*
X380718Y62083D01*
X385796D01*
X388335Y64622D01*
X385796Y67161D01*
X378178D01*
X370561Y57004D02*
X365482D01*
X362943Y59543D01*
Y64622D01*
X365482Y67161D01*
X370561D01*
X373100Y64622D01*
Y59543D01*
X370561Y57004D01*
X357865Y67161D02*
Y57004D01*
Y62083D01*
X355326Y64622D01*
X352787Y67161D01*
X350247D01*
X558460Y97125D02*
Y81890D01*
X550843D01*
X548303Y84429D01*
Y86969D01*
X550843Y89508D01*
X558460D01*
X550843D01*
X548303Y92047D01*
Y94586D01*
X550843Y97125D01*
X558460D01*
X543225Y81890D02*
X538147D01*
X540686D01*
Y92047D01*
X543225D01*
X527990Y94586D02*
Y92047D01*
X530529D01*
X525451D01*
X527990D01*
Y84429D01*
X525451Y81890D01*
X517833Y89508D02*
X507676D01*
X502598Y97125D02*
Y81890D01*
X494981D01*
X492441Y84429D01*
Y86969D01*
X494981Y89508D01*
X502598D01*
X494981D01*
X492441Y92047D01*
Y94586D01*
X494981Y97125D01*
X502598D01*
X484824Y81890D02*
X479745D01*
X477206Y84429D01*
Y89508D01*
X479745Y92047D01*
X484824D01*
X487363Y89508D01*
Y84429D01*
X484824Y81890D01*
X469589Y94586D02*
Y92047D01*
X472128D01*
X467050D01*
X469589D01*
Y84429D01*
X467050Y81890D01*
X459432D02*
X451814D01*
X449275Y84429D01*
X451814Y86969D01*
X456893D01*
X459432Y89508D01*
X456893Y92047D01*
X449275D01*
X558460Y127090D02*
Y111854D01*
Y119472D01*
X548303D01*
Y127090D01*
Y111854D01*
X540686Y122011D02*
X535607D01*
X533068Y119472D01*
Y111854D01*
X540686D01*
X543225Y114394D01*
X540686Y116933D01*
X533068D01*
X527990Y111854D02*
Y122011D01*
X525451D01*
X522911Y119472D01*
Y111854D01*
Y119472D01*
X520372Y122011D01*
X517833Y119472D01*
Y111854D01*
X512755Y127090D02*
Y111854D01*
X505137D01*
X502598Y114394D01*
Y116933D01*
Y119472D01*
X505137Y122011D01*
X512755D01*
X497520D02*
Y114394D01*
X494981Y111854D01*
X487363D01*
Y122011D01*
X482285D02*
Y111854D01*
Y116933D01*
X479745Y119472D01*
X477206Y122011D01*
X474667D01*
X461971Y106776D02*
X459432D01*
X456893Y109315D01*
Y122011D01*
X464510D01*
X467050Y119472D01*
Y114394D01*
X464510Y111854D01*
X456893D01*
D61*
X647536Y237519D02*
X651684Y237321D01*
X655719Y236742D01*
X659625Y235802D01*
X663387Y234518D01*
X663467Y235572D01*
X663546Y236578D01*
X664546Y236464D01*
X668362Y235485D01*
X671686Y233664D01*
X674521Y231297D01*
X676864Y228680D01*
X678670Y226177D01*
X680021Y223951D01*
X680920Y222239D01*
X681367Y221273D01*
X685277Y215454D01*
X690139Y215551D01*
X690568Y215557D01*
X690866Y215241D01*
X695060Y210750D01*
X696492Y210474D01*
X697809Y209874D01*
X698999Y208998D01*
X700055Y207895D01*
X701926Y204934D01*
X703334Y201397D01*
X704338Y197555D01*
X704949Y193674D01*
X705173Y190014D01*
X705013Y186837D02*
X705173Y190014D01*
X704910Y185981D02*
X705013Y186837D01*
X704091Y185981D02*
X704910D01*
X703970Y185970D02*
X704091Y185981D01*
X703516Y185909D02*
X703970Y185970D01*
X702818Y185822D02*
X703516Y185909D01*
X701922Y185709D02*
X702818Y185822D01*
X701595Y185667D02*
X701922Y185709D01*
X701595Y185667D02*
X701752Y184430D01*
X704316Y184885D01*
X704917Y184988D01*
X704995Y184382D01*
X705050Y183969D01*
X706402Y182385D01*
X707169Y180672D01*
X707476Y178932D01*
X707444Y177266D02*
X707476Y178932D01*
X707197Y175775D02*
X707444Y177266D01*
X706856Y174559D02*
X707197Y175775D01*
X706545Y173719D02*
X706856Y174559D01*
X706384Y173355D02*
X706545Y173719D01*
X706384Y173355D02*
X706486Y172561D01*
X706547Y172089D01*
X706444Y172052D02*
X706547Y172089D01*
X706444Y172052D02*
X706680Y170961D01*
X706808D01*
X706977Y170913D01*
X707171Y170765D01*
X707250Y170640D01*
X707329Y170452D01*
X707529Y169524D01*
X707723Y168018D01*
X707929Y165972D01*
X708371Y160631D01*
X708820Y154279D01*
X709039Y150971D01*
X709246Y147707D01*
X709439Y144588D01*
X709613Y141714D01*
X709763Y139187D01*
X709886Y137108D01*
X709977Y135577D01*
X710032Y134694D01*
X710069Y134179D01*
X709559Y134082D02*
X710069Y134179D01*
X709463Y134045D02*
X709559Y134082D01*
X709286Y133876D02*
X709463Y134045D01*
X709215Y133683D02*
X709286Y133876D01*
X709211Y133341D02*
X709215Y133683D01*
X709211Y133341D02*
X709352Y132806D01*
X709718Y132039D01*
X709802Y131893D01*
X709790Y131729D02*
X709802Y131893D01*
X709632Y128026D02*
X709790Y131729D01*
X709614Y127559D02*
X709632Y128026D01*
X709153Y127481D02*
X709614Y127559D01*
X708966Y127460D02*
X709153Y127481D01*
X708466Y127461D02*
X708966Y127460D01*
X707755Y127577D02*
X708466Y127461D01*
X706929Y127905D02*
X707755Y127577D01*
X706172Y128456D02*
X706929Y127905D01*
X705471Y129298D02*
X706172Y128456D01*
X704886Y130472D02*
X705471Y129298D01*
X704474Y132021D02*
X704886Y130472D01*
X702127Y131657D02*
X704474Y132021D01*
X699830Y131657D02*
X702127Y131657D01*
X699491Y131765D02*
X699830Y131657D01*
X699272Y132045D02*
X699491Y131765D01*
X698952Y133018D02*
X699272Y132045D01*
X698753Y133862D02*
X698952Y133018D01*
X698686Y134649D02*
X698753Y133862D01*
X698686Y134649D02*
X698757Y135452D01*
X698921Y135756D01*
X699224Y135919D01*
X700539Y136145D01*
X701570Y136276D01*
X702397Y136340D01*
X703098Y136367D01*
X701352Y138844D02*
X703098Y136367D01*
X700110Y141465D02*
X701352Y138844D01*
X699576Y142932D02*
X700110Y141465D01*
X699200Y144138D02*
X699576Y142932D01*
X698982Y144956D02*
X699200Y144138D01*
X698952Y145090D02*
X698982Y144956D01*
X698830Y145126D02*
X698952Y145090D01*
X698412Y145241D02*
X698830Y145126D01*
X698400Y145671D02*
X698412Y145241D01*
X698217Y147319D02*
X698400Y145671D01*
X697851Y149126D02*
X698217Y147319D01*
X697423Y151021D02*
X697851Y149126D01*
X697054Y152934D02*
X697423Y151021D01*
X696872Y154806D02*
X697054Y152934D01*
X696872Y154806D02*
X697024Y156589D01*
X697605Y158063D01*
X698697Y159304D01*
X698436Y162717D02*
X698697Y159304D01*
X697738Y163623D02*
X698436Y162717D01*
X696940Y164277D02*
X697738Y163623D01*
X696101Y164719D02*
X696940Y164277D01*
X695281Y164990D02*
X696101Y164719D01*
X694540Y165131D02*
X695281Y164990D01*
X693937Y165180D02*
X694540Y165131D01*
X693530Y165181D02*
X693937Y165180D01*
X693382Y165172D02*
X693530Y165181D01*
X693150Y168003D02*
X693382Y165172D01*
X692258Y167927D02*
X693150Y168003D01*
X691932Y167900D02*
X692258Y167927D01*
X691771Y170010D02*
X691932Y167900D01*
X691351Y172555D02*
X691771Y170010D01*
X690555Y174284D02*
X691351Y172555D01*
X690044Y176495D02*
X690555Y174284D01*
X690044Y176495D02*
X690137Y179097D01*
X691157Y181999D01*
Y182023D01*
X691109Y182556D02*
X691157Y182023D01*
X691109Y182556D02*
X691635Y182647D01*
X693241Y182933D01*
X693098Y183744D02*
X693241Y182933D01*
X692836Y184515D02*
X693098Y183744D01*
X692132Y184422D02*
X692836Y184515D01*
X691308Y184314D02*
X692132Y184422D01*
X690624Y184226D02*
X691308Y184314D01*
X690338Y184188D02*
X690624Y184226D01*
X689715Y184109D02*
X690338Y184188D01*
X688263Y179275D02*
X689715Y184109D01*
X686282Y174696D02*
X688263Y179275D01*
X683806Y170410D02*
X686282Y174696D01*
X680872Y166452D02*
X683806Y170410D01*
X677518Y162857D02*
X680872Y166452D01*
X673775Y159660D02*
X677518Y162857D01*
X669685Y156899D02*
X673775Y159660D01*
X665279Y154607D02*
X669685Y156899D01*
X665279Y150394D02*
Y154607D01*
Y150394D02*
X665686Y150206D01*
X666667D01*
X666655Y149224D02*
X666667Y150206D01*
X666570Y143441D02*
X666655Y149224D01*
X666570Y143374D02*
Y143441D01*
Y143374D02*
X666588Y142328D01*
X666564Y141214D02*
X666588Y142328D01*
X666543Y139923D02*
X666564Y141214D01*
X666543Y139923D02*
X666570Y138343D01*
X666607Y137386D01*
X665862Y137525D02*
X666607Y137386D01*
X665771Y137518D02*
X665862Y137525D01*
X665594Y136876D02*
X665771Y137518D01*
X665321Y136495D02*
X665594Y136876D01*
X664941Y136216D02*
X665321Y136495D01*
X664479Y136025D02*
X664941Y136216D01*
X663963Y135906D02*
X664479Y136025D01*
X663872Y135894D02*
X663963Y135906D01*
X663781Y135894D02*
X663872D01*
X663172Y135996D02*
X663781Y135894D01*
X662629Y136236D02*
X663172Y135996D01*
X662203Y136578D02*
X662629Y136236D01*
X661939Y136985D02*
X662203Y136578D01*
X661854Y137367D02*
X661939Y136985D01*
X660866Y137367D02*
X661854D01*
X660582Y136751D02*
X660866Y137367D01*
X660157Y136288D02*
X660582Y136751D01*
X659319Y135955D02*
X660157Y136288D01*
X658563Y135972D02*
X659319Y135955D01*
X658417Y135985D02*
X658563Y135972D01*
X658284Y136040D02*
X658417Y135985D01*
X657593Y136458D02*
X658284Y136040D01*
X657163Y137033D02*
X657593Y136458D01*
X657047Y137397D02*
X657163Y137033D01*
X656883Y137404D02*
X657047Y137397D01*
X655926Y137446D02*
X656883Y137404D01*
X655926Y137446D02*
X655956Y138404D01*
X656108Y143217D01*
Y143235D01*
X656186Y149054D01*
X656199Y149896D01*
X657035Y150005D01*
X657381Y150048D01*
Y151934D01*
X652543Y151082D02*
X657381Y151934D01*
X647536Y150782D02*
X652543Y151082D01*
X642491Y151005D02*
X647536Y150782D01*
X637595Y151733D02*
X642491Y151005D01*
X637595Y149793D02*
Y151733D01*
Y149793D02*
X637935Y149752D01*
X638771Y149642D01*
X638784Y148800D01*
X638862Y142980D01*
X638942Y140834D01*
X639003Y139552D01*
X639033Y138779D01*
X639014Y138155D02*
X639033Y138779D01*
X639014Y138155D02*
X639044Y137204D01*
X638092Y137155D02*
X639044Y137204D01*
X637928Y137149D02*
X638092Y137155D01*
X637814Y136779D02*
X637928Y137149D01*
X637670Y136492D02*
X637814Y136779D01*
X637505Y136271D02*
X637670Y136492D01*
X637276Y136088D02*
X637505Y136271D01*
X636935Y135919D02*
X637276Y136088D01*
X636801Y135864D02*
X636935Y135919D01*
X636655Y135851D02*
X636801Y135864D01*
X636339Y135814D02*
X636655Y135851D01*
X636031Y135808D02*
X636339Y135814D01*
X635703Y135888D02*
X636031Y135808D01*
X635322Y136113D02*
X635703Y135888D01*
X634895Y136587D02*
X635322Y136113D01*
X634607Y137215D02*
X634895Y136587D01*
X633624Y137215D02*
X634607D01*
X633534Y136828D02*
X633624Y137215D01*
X633278Y136400D02*
X633534Y136828D01*
X632869Y136015D02*
X633278Y136400D01*
X632343Y135731D02*
X632869Y136015D01*
X631740Y135609D02*
X632343Y135731D01*
X631649Y135609D02*
X631740D01*
X631558Y135621D02*
X631649Y135609D01*
X630676Y135947D02*
X631558Y135621D01*
X630116Y136621D02*
X630676Y135947D01*
X629939Y137265D02*
X630116Y136621D01*
X629849Y137270D02*
X629939Y137265D01*
X628916Y137282D02*
X629849Y137270D01*
X628916Y137282D02*
X628927Y138276D01*
X628955Y139857D01*
X628937Y141150D02*
X628955Y139857D01*
X628916Y142263D02*
X628937Y141150D01*
X628916Y142263D02*
X628933Y143307D01*
Y143374D01*
X628843Y149157D02*
X628933Y143374D01*
X628825Y150139D02*
X628843Y149157D01*
X628825Y150139D02*
X630431D01*
Y154328D01*
X625933Y156615D02*
X630431Y154328D01*
X621739Y159393D02*
X625933Y156615D01*
X617891Y162626D02*
X621739Y159393D01*
X614431Y166272D02*
X617891Y162626D01*
X611404Y170294D02*
X614431Y166272D01*
X608851Y174649D02*
X611404Y170294D01*
X606817Y179299D02*
X608851Y174649D01*
X605341Y184205D02*
X606817Y179299D01*
X604674Y184291D02*
X605341Y184205D01*
X604389Y184329D02*
X604674Y184291D01*
X603703Y184418D02*
X604389Y184329D01*
X602878Y184526D02*
X603703Y184418D01*
X602171Y184618D02*
X602878Y184526D01*
X601913Y183846D02*
X602171Y184618D01*
X601771Y183036D02*
X601913Y183846D01*
X601771Y183036D02*
X603377Y182751D01*
X603911Y182660D01*
X603856Y182127D02*
X603911Y182660D01*
X603856Y182102D02*
Y182127D01*
Y182102D02*
X604876Y179197D01*
X604967Y176592D01*
X604454Y174380D02*
X604967Y176592D01*
X603656Y172652D02*
X604454Y174380D01*
X603236Y170113D02*
X603656Y172652D01*
X603074Y168009D02*
X603236Y170113D01*
X602749Y168036D02*
X603074Y168009D01*
X601856Y168112D02*
X602749Y168036D01*
X601631Y165275D02*
X601856Y168112D01*
X601484Y165285D02*
X601631Y165275D01*
X601077Y165285D02*
X601484D01*
X600474Y165236D02*
X601077Y165285D01*
X599732Y165096D02*
X600474Y165236D01*
X598913Y164826D02*
X599732Y165096D01*
X598074Y164386D02*
X598913Y164826D01*
X597275Y163732D02*
X598074Y164386D01*
X596577Y162826D02*
X597275Y163732D01*
X596315Y159408D02*
X596577Y162826D01*
X596315Y159408D02*
X597412Y158166D01*
X597994Y156692D01*
X598148Y154909D01*
X597964Y153036D02*
X598148Y154909D01*
X597595Y151125D02*
X597964Y153036D01*
X597164Y149230D02*
X597595Y151125D01*
X596797Y147423D02*
X597164Y149230D01*
X596613Y145775D02*
X596797Y147423D01*
X596486Y145434D02*
X596613Y145775D01*
X596183Y145229D02*
X596486Y145434D01*
X594443Y144530D02*
X596183Y145229D01*
X593177Y143525D02*
X594443Y144530D01*
X592288Y142240D02*
X593177Y143525D01*
X591678Y140701D02*
X592288Y142240D01*
X591022Y137023D02*
X591678Y140701D01*
X590654Y132924D02*
X591022Y137023D01*
X590288Y131035D02*
X590654Y132924D01*
X589683Y129625D02*
X590288Y131035D01*
X588923Y128636D02*
X589683Y129625D01*
X588083Y128008D02*
X588923Y128636D01*
X587259Y127681D02*
X588083Y128008D01*
X586546Y127564D02*
X587259Y127681D01*
X586047Y127563D02*
X586546Y127564D01*
X585859Y127584D02*
X586047Y127563D01*
X585528Y127776D02*
X585859Y127584D01*
X585380Y128129D02*
X585528Y127776D01*
X585222Y131833D02*
X585380Y128129D01*
X585222Y131833D02*
X585295Y132142D01*
X585662Y132909D01*
X585803Y133444D01*
X585798Y133787D02*
X585803Y133444D01*
X585726Y133979D02*
X585798Y133787D01*
X585551Y134148D02*
X585726Y133979D01*
X585453Y134185D02*
X585551Y134148D01*
X585106Y134406D02*
X585453Y134185D01*
X584979Y134797D02*
X585106Y134406D01*
X584979Y134797D02*
X585036Y135680D01*
X585126Y137211D01*
X585250Y139291D01*
X585400Y141817D01*
X585575Y144691D01*
X585767Y147810D01*
X585974Y151075D01*
X586192Y154382D01*
X586646Y160735D01*
X587090Y166075D01*
X587296Y168120D01*
X587490Y169627D01*
X587684Y170555D01*
X587763Y170743D01*
X587843Y170868D01*
X588035Y171016D01*
X588302Y171070D01*
X588333Y171064D01*
X588568Y172155D01*
X588465Y172191D02*
X588568Y172155D01*
X588465Y172191D02*
X588526Y172665D01*
X588629Y173464D01*
X588469Y173828D02*
X588629Y173464D01*
X588157Y174668D02*
X588469Y173828D01*
X587816Y175884D02*
X588157Y174668D01*
X587568Y177376D02*
X587816Y175884D01*
X587538Y179042D02*
X587568Y177376D01*
X587538Y179042D02*
X587846Y180782D01*
X588616Y182494D01*
X589969Y184078D01*
X590023Y184485D01*
X590096Y185091D01*
X590697Y184988D01*
X593261Y184533D01*
X593424Y185776D01*
X593091Y185819D02*
X593424Y185776D01*
X592196Y185932D02*
X593091Y185819D01*
X591496Y186018D02*
X592196Y185932D01*
X591041Y186079D02*
X591496Y186018D01*
X590920Y186091D02*
X591041Y186079D01*
X590102Y186091D02*
X590920D01*
X590000Y186946D02*
X590102Y186091D01*
X589841Y190123D02*
X590000Y186946D01*
X589841Y190123D02*
X590065Y193783D01*
X590676Y197664D01*
X591678Y201506D01*
X593088Y205043D01*
X594958Y208004D01*
X596015Y209108D01*
X597205Y209983D01*
X598521Y210583D01*
X599952Y210859D01*
X604147Y215350D01*
X604445Y215665D01*
X604874Y215660D01*
X609821Y215557D01*
X613773Y221370D01*
X614143Y222184D01*
X614981Y223816D01*
X616294Y226023D01*
X618089Y228565D01*
X620451Y231264D01*
X623326Y233722D01*
X626716Y235618D01*
X630619Y236633D01*
X631618Y236749D01*
X631697Y235741D01*
X631788Y234560D01*
X635530Y235825D01*
X639412Y236754D01*
X643420Y237323D01*
X647536Y237519D01*
X643464Y235380D02*
X647536Y235579D01*
X639506Y234797D02*
X643464Y235380D01*
X635679Y233853D02*
X639506Y234797D01*
X632000Y232561D02*
X635679Y233853D01*
X632000Y232561D02*
X632580Y231585D01*
X633570Y230675D01*
X634948Y229855D01*
X636693Y229147D01*
X638907Y228543D01*
X641379Y228107D01*
X644031Y227845D01*
X646785Y227759D01*
X652299Y228116D01*
X657308Y229153D01*
X659256Y229849D01*
X660900Y230665D01*
X662199Y231573D01*
X663109Y232542D01*
X659423Y233840D02*
X663109Y232542D01*
X655588Y234794D02*
X659423Y233840D01*
X651620Y235380D02*
X655588Y234794D01*
X647536Y235579D02*
X651620Y235380D01*
X660073Y154661D02*
X665820Y156973D01*
X671103Y160083D01*
X675847Y163914D01*
X679977Y168393D01*
X683419Y173445D01*
X686096Y178995D01*
X687934Y184966D01*
X688859Y191285D01*
X688441Y198081D02*
X688859Y191285D01*
X688441Y198081D02*
X688447D01*
X688413Y198387D02*
X688447Y198081D01*
X688351Y199091D02*
X688413Y198387D01*
X688296Y200114D02*
X688351Y199091D01*
X688277Y201372D02*
X688296Y200114D01*
X688252Y201397D02*
X688277Y201372D01*
X684373Y205307D02*
X688252Y201397D01*
X684100Y205585D02*
X684373Y205307D01*
X684095Y205974D02*
X684100Y205585D01*
X683949Y213902D02*
X684095Y205974D01*
X682001Y217136D02*
X683949Y213902D01*
X679773Y220169D02*
X682001Y217136D01*
X679633Y220401D02*
X679773Y220169D01*
X679252Y221226D02*
X679633Y220401D01*
X678400Y222862D02*
X679252Y221226D01*
X677093Y225035D02*
X678400Y222862D01*
X675341Y227474D02*
X677093Y225035D01*
X673340Y229724D02*
X675341Y227474D01*
X670992Y231745D02*
X673340Y229724D01*
X668315Y233350D02*
X670992Y231745D01*
X665322Y234348D02*
X668315Y233350D01*
X665225Y233051D02*
X665322Y234348D01*
X665176Y232377D02*
X665225Y233051D01*
X665158Y232171D02*
X665176Y232377D01*
X665061Y231990D02*
X665158Y232171D01*
X663885Y230438D02*
X665061Y231990D01*
X662237Y229162D02*
X663885Y230438D01*
X660202Y228128D02*
X662237Y229162D01*
X657866Y227298D02*
X660202Y228128D01*
X652547Y226191D02*
X657866Y227298D01*
X646785Y225819D02*
X652547Y226191D01*
X643907Y225908D02*
X646785Y225819D01*
X641119Y226183D02*
X643907Y225908D01*
X638486Y226649D02*
X641119Y226183D01*
X636074Y227311D02*
X638486Y226649D01*
X633929Y228185D02*
X636074Y227311D01*
X632126Y229304D02*
X633929Y228185D01*
X630783Y230696D02*
X632126Y229304D01*
X630012Y232397D02*
X630783Y230696D01*
X629995Y232468D02*
X630012Y232397D01*
X629988Y232547D02*
X629995Y232468D01*
X629946Y233100D02*
X629988Y232547D01*
X629836Y234518D02*
X629946Y233100D01*
X626771Y233481D02*
X629836Y234518D01*
X624036Y231807D02*
X626771Y233481D01*
X621647Y229703D02*
X624036Y231807D01*
X619622Y227377D02*
X621647Y229703D01*
X618349Y225725D02*
X619622Y227377D01*
X617283Y223876D02*
X618349Y225725D01*
X616317Y221992D02*
X617283Y223876D01*
X615343Y220230D02*
X616317Y221992D01*
X613054Y217120D02*
X615343Y220230D01*
X611057Y213799D02*
X613054Y217120D01*
X610918Y206082D02*
X611057Y213799D01*
X610913Y205694D02*
X610918Y206082D01*
X610640Y205416D02*
X610913Y205694D01*
X606753Y201499D02*
X610640Y205416D01*
X606753Y201494D02*
Y201499D01*
X606748Y201463D02*
X606753Y201494D01*
X606729Y200208D02*
X606748Y201463D01*
X606670Y199195D02*
X606729Y200208D01*
X606604Y198498D02*
X606670Y199195D01*
X606566Y198190D02*
X606604Y198498D01*
X606177Y191807D02*
X606566Y198190D01*
X606177Y191807D02*
X607045Y185336D01*
X608857Y179216D01*
X611537Y173531D01*
X615009Y168361D01*
X619198Y163786D01*
X624028Y159889D01*
X629425Y156750D01*
X635311Y154450D01*
X635951Y154203D01*
X636381Y154061D01*
X636847Y153931D01*
X637595Y153715D01*
X642485Y152954D01*
X647536Y152722D01*
X652547Y153036D01*
X657381Y153927D01*
X660073Y154661D01*
X646991Y222401D02*
X650748Y222196D01*
X655053Y221479D01*
X655382Y219216D01*
X655053Y217066D02*
X655382Y219216D01*
X651547Y213633D02*
X655053Y217066D01*
X647300Y210732D02*
X651547Y213633D01*
X644751Y212208D02*
X647300Y210732D01*
X642444Y213813D02*
X644751Y212208D01*
X640419Y215565D02*
X642444Y213813D01*
X638711Y217484D02*
X640419Y215565D01*
X638296Y219614D02*
X638711Y217484D01*
X638296Y219614D02*
X638650Y221685D01*
X642692Y222165D01*
X646991Y222401D01*
X602626Y210884D02*
X605269Y213714D01*
X601104Y209253D02*
X602626Y210884D01*
X600929Y209065D02*
X601104Y209253D01*
X600904Y208901D02*
X600929Y209065D01*
X600783Y208914D02*
X600904Y208901D01*
X597661Y205555D02*
X600783Y208914D01*
X597625Y205349D02*
X597661Y205555D01*
X597625Y205349D02*
X599474Y203900D01*
X599969Y204569D01*
X600542Y204840D01*
X601116Y204787D01*
X601615Y204484D01*
X601960Y204005D01*
X602079Y203424D01*
X601892Y202815D02*
X602079Y203424D01*
X601323Y202251D02*
X601892Y202815D01*
X601323Y202251D02*
X603220Y200711D01*
X603245Y200718D01*
X604960Y202445D01*
X605093Y202579D01*
X605165Y202658D01*
X605226Y202718D01*
X608984Y206513D01*
X609117Y213629D01*
X605269Y213714D02*
X609117Y213629D01*
X685895Y213526D02*
X689744Y213605D01*
X685895Y213526D02*
X686028Y206404D01*
X689926Y202469D01*
X689932Y202458D01*
X690217Y202173D01*
X691763Y200615D01*
X691786Y200609D01*
X693685Y202143D01*
X693116Y202706D02*
X693685Y202143D01*
X692930Y203315D02*
X693116Y202706D01*
X692930Y203315D02*
X693049Y203896D01*
X693396Y204375D01*
X693896Y204678D01*
X694471Y204731D01*
X695043Y204460D01*
X695539Y203791D01*
X697382Y205240D01*
X697345Y205452D02*
X697382Y205240D01*
X694230Y208804D02*
X697345Y205452D01*
X694109Y208792D02*
X694230Y208804D01*
X694084Y208955D02*
X694109Y208792D01*
X693908Y209143D02*
X694084Y208955D01*
X692417Y210743D02*
X693908Y209143D01*
X689744Y213605D02*
X692417Y210743D01*
X624976Y210732D02*
X628186Y210381D01*
X631176Y209373D01*
X633882Y207777D01*
X636240Y205664D01*
X638185Y203103D01*
X639654Y200163D01*
X640582Y196914D01*
X640905Y193426D01*
X640582Y189938D02*
X640905Y193426D01*
X639654Y186688D02*
X640582Y189938D01*
X638185Y183747D02*
X639654Y186688D01*
X636240Y181185D02*
X638185Y183747D01*
X633882Y179071D02*
X636240Y181185D01*
X631176Y177474D02*
X633882Y179071D01*
X628186Y176465D02*
X631176Y177474D01*
X624976Y176113D02*
X628186Y176465D01*
X621766D02*
X624976Y176113D01*
X618775Y177474D02*
X621766Y176465D01*
X616068Y179071D02*
X618775Y177474D01*
X613711Y181185D02*
X616068Y179071D01*
X611766Y183747D02*
X613711Y181185D01*
X610296Y186688D02*
X611766Y183747D01*
X609369Y189938D02*
X610296Y186688D01*
X609044Y193426D02*
X609369Y189938D01*
X609044Y193426D02*
X609369Y196914D01*
X610296Y200163D01*
X611766Y203103D01*
X613711Y205664D01*
X616068Y207777D01*
X618775Y209373D01*
X621766Y210381D01*
X624976Y210732D01*
X670214Y210046D02*
X673424Y209695D01*
X676414Y208686D01*
X679120Y207090D01*
X681478Y204976D01*
X683423Y202414D01*
X684892Y199474D01*
X685820Y196224D01*
X686143Y192735D01*
X685820Y189246D02*
X686143Y192735D01*
X684892Y185998D02*
X685820Y189246D01*
X683423Y183058D02*
X684892Y185998D01*
X681478Y180497D02*
X683423Y183058D01*
X679120Y178383D02*
X681478Y180497D01*
X676414Y176789D02*
X679120Y178383D01*
X673424Y175781D02*
X676414Y176789D01*
X670214Y175429D02*
X673424Y175781D01*
X667003D02*
X670214Y175429D01*
X664013Y176789D02*
X667003Y175781D01*
X661308Y178383D02*
X664013Y176789D01*
X658950Y180497D02*
X661308Y178383D01*
X657005Y183058D02*
X658950Y180497D01*
X655536Y185998D02*
X657005Y183058D01*
X654607Y189246D02*
X655536Y185998D01*
X654284Y192735D02*
X654607Y189246D01*
X654284Y192735D02*
X654607Y196224D01*
X655536Y199474D01*
X657005Y202414D01*
X658950Y204976D01*
X661308Y207090D01*
X664013Y208686D01*
X667003Y209695D01*
X670214Y210046D01*
X594515Y203505D02*
X595703Y205724D01*
X593527Y200912D02*
X594515Y203505D01*
X592640Y197518D02*
X593527Y200912D01*
X592080Y194060D02*
X592640Y197518D01*
X591833Y190784D02*
X592080Y194060D01*
X591833Y190784D02*
X591890Y187928D01*
X593339Y187739D01*
X595559Y187452D01*
X598085Y187122D01*
X600108Y186856D01*
X601778Y186637D01*
X603053Y186469D01*
X603892Y186357D01*
X604232Y191819D01*
X604165Y194153D02*
X604232Y191819D01*
X604165Y194153D02*
X604493Y199215D01*
X604250Y198972D02*
X604493Y199215D01*
X604002Y198905D02*
X604250Y198972D01*
X600850Y198401D02*
X604002Y198905D01*
X598467Y198832D02*
X600850Y198401D01*
X597552Y199360D02*
X598467Y198832D01*
X596834Y200042D02*
X597552Y199360D01*
X596302Y200823D02*
X596834Y200042D01*
X595940Y201651D02*
X596302Y200823D01*
X595655Y202860D02*
X595940Y201651D01*
X595568Y204000D02*
X595655Y202860D01*
X595568Y204000D02*
X595607Y204983D01*
X595703Y205724D01*
X699303Y205621D02*
X699400Y204879D01*
X699439Y203897D01*
X699352Y202758D02*
X699439Y203897D01*
X699067Y201549D02*
X699352Y202758D01*
X698707Y200721D02*
X699067Y201549D01*
X698176Y199939D02*
X698707Y200721D01*
X697460Y199257D02*
X698176Y199939D01*
X696545Y198730D02*
X697460Y199257D01*
X694163Y198298D02*
X696545Y198730D01*
X691011Y198802D02*
X694163Y198298D01*
X690762Y198869D02*
X691011Y198802D01*
X690599Y199039D02*
X690762Y198869D01*
X690599Y199039D02*
X690902Y194153D01*
X690806Y191285D02*
X690902Y194153D01*
X690806Y191285D02*
X691114Y186248D01*
X691952Y186359D01*
X693230Y186527D01*
X694902Y186747D01*
X696928Y187012D01*
X699454Y187342D01*
X701674Y187630D01*
X703122Y187819D01*
X703179Y190675D01*
X702934Y193951D02*
X703179Y190675D01*
X702374Y197409D02*
X702934Y193951D01*
X701485Y200803D02*
X702374Y197409D01*
X700496Y203399D02*
X701485Y200803D01*
X699303Y205621D02*
X700496Y203399D01*
X623456Y200580D02*
X625115Y200742D01*
X621910Y200116D02*
X623456Y200580D01*
X620511Y199384D02*
X621910Y200116D01*
X619294Y198412D02*
X620511Y199384D01*
X618289Y197235D02*
X619294Y198412D01*
X617530Y195885D02*
X618289Y197235D01*
X617051Y194392D02*
X617530Y195885D01*
X616883Y192789D02*
X617051Y194392D01*
X616883Y192789D02*
X617051Y191188D01*
X617530Y189696D01*
X618289Y188345D01*
X619294Y187169D01*
X620511Y186199D01*
X621910Y185467D01*
X623456Y185004D01*
X625115Y184842D01*
X626775Y185004D01*
X628321Y185467D01*
X629720Y186199D01*
X630940Y187169D01*
X631945Y188345D01*
X632705Y189696D01*
X633185Y191188D01*
X633352Y192789D01*
X633185Y194392D02*
X633352Y192789D01*
X632705Y195885D02*
X633185Y194392D01*
X631945Y197235D02*
X632705Y195885D01*
X630940Y198412D02*
X631945Y197235D01*
X629720Y199384D02*
X630940Y198412D01*
X628321Y200116D02*
X629720Y199384D01*
X626775Y200580D02*
X628321Y200116D01*
X625115Y200742D02*
X626775Y200580D01*
X668699Y199896D02*
X670358Y200057D01*
X667154Y199432D02*
X668699Y199896D01*
X665753Y198699D02*
X667154Y199432D01*
X664535Y197727D02*
X665753Y198699D01*
X663529Y196550D02*
X664535Y197727D01*
X662769Y195199D02*
X663529Y196550D01*
X662289Y193706D02*
X662769Y195199D01*
X662121Y192104D02*
X662289Y193706D01*
X662121Y192104D02*
X662289Y190502D01*
X662769Y189010D01*
X663529Y187661D01*
X664535Y186484D01*
X665753Y185515D01*
X667154Y184782D01*
X668699Y184319D01*
X670358Y184157D01*
X672019Y184319D01*
X673564Y184782D01*
X674963Y185515D01*
X676182Y186484D01*
X677186Y187661D01*
X677945Y189010D01*
X678424Y190502D01*
X678591Y192104D01*
X678424Y193706D02*
X678591Y192104D01*
X677945Y195199D02*
X678424Y193706D01*
X677186Y196550D02*
X677945Y195199D01*
X676182Y197727D02*
X677186Y196550D01*
X674963Y198699D02*
X676182Y197727D01*
X673564Y199432D02*
X674963Y198699D01*
X672019Y199896D02*
X673564Y199432D01*
X670358Y200057D02*
X672019Y199896D01*
X647240Y195947D02*
X648891Y195597D01*
X650233Y194645D01*
X651135Y193242D01*
X651465Y191540D01*
X651135Y189842D02*
X651465Y191540D01*
X650233Y188446D02*
X651135Y189842D01*
X648891Y187501D02*
X650233Y188446D01*
X647240Y187152D02*
X648891Y187501D01*
X645590D02*
X647240Y187152D01*
X644248Y188446D02*
X645590Y187501D01*
X643345Y189842D02*
X644248Y188446D01*
X643015Y191540D02*
X643345Y189842D01*
X643015Y191540D02*
X643345Y193242D01*
X644248Y194645D01*
X645590Y195597D01*
X647240Y195947D01*
X646202Y194170D02*
X647240Y194389D01*
X645347Y193566D02*
X646202Y194170D01*
X644769Y192662D02*
X645347Y193566D01*
X644555Y191540D02*
X644769Y192662D01*
X644555Y191540D02*
X644769Y190420D01*
X645347Y189515D01*
X646202Y188912D01*
X647240Y188691D01*
X648276Y188912D01*
X649127Y189515D01*
X649702Y190420D01*
X649912Y191540D01*
X649702Y192662D02*
X649912Y191540D01*
X649127Y193566D02*
X649702Y192662D01*
X648276Y194170D02*
X649127Y193566D01*
X647240Y194389D02*
X648276Y194170D01*
X589745Y173009D02*
X591096Y183733D01*
X589745Y173009D02*
X591612Y172433D01*
X593186Y172021D01*
X594559Y171735D01*
X595823Y171540D01*
X597070Y171395D01*
X598390Y171265D01*
X599877Y171110D01*
X601619Y170895D01*
X602649Y181697D01*
X591096Y183733D02*
X602649Y181697D01*
X692362Y181593D02*
X703916Y183630D01*
X692362Y181593D02*
X693399Y170791D01*
X695142Y171007D01*
X696627Y171161D01*
X697948Y171292D01*
X699194Y171437D01*
X700459Y171632D01*
X701833Y171917D01*
X703407Y172330D01*
X705274Y172907D01*
X703916Y183630D02*
X705274Y172907D01*
X588636Y169445D02*
X588708Y169791D01*
X588487Y168285D02*
X588636Y169445D01*
X588326Y166736D02*
X588487Y168285D01*
X588326Y166736D02*
X590314D01*
Y164947D02*
Y166736D01*
X588157Y164947D02*
X590314D01*
X587799Y160524D02*
X588157Y164947D01*
X587435Y155437D02*
X587799Y160524D01*
X587435Y155437D02*
X589005D01*
Y153182D02*
Y155437D01*
X587283Y153182D02*
X589005D01*
X587083Y150110D02*
X587283Y153182D01*
X586895Y147119D02*
X587083Y150110D01*
X586720Y144284D02*
X586895Y147119D01*
X586563Y141682D02*
X586720Y144284D01*
X586426Y139388D02*
X586563Y141682D01*
X586312Y137478D02*
X586426Y139388D01*
X586225Y136028D02*
X586312Y137478D01*
X586168Y135113D02*
X586225Y136028D01*
X586168Y135113D02*
X586726Y134573D01*
X586922Y134059D01*
X586947Y133419D01*
X586779Y132651D02*
X586947Y133419D01*
X586393Y131755D02*
X586779Y132651D01*
X586393Y131755D02*
X586520Y128718D01*
X586980Y128802D01*
X587525Y129026D01*
X588125Y129468D01*
X588703Y130217D01*
X589185Y131375D01*
X589496Y133045D01*
X589858Y137142D01*
X590563Y141040D01*
X591242Y142709D01*
X592253Y144175D01*
X593652Y145369D01*
X595491Y146223D01*
X596078Y149718D01*
X596812Y153218D01*
X596980Y154933D01*
X596855Y156443D02*
X596980Y154933D01*
X596364Y157691D02*
X596855Y156443D01*
X595382Y158686D02*
X596364Y157691D01*
X595187Y158914D02*
X595382Y158686D01*
X595127Y159208D02*
X595187Y158914D01*
X595127Y159208D02*
X595825Y168130D01*
X593907Y168748D02*
X595825Y168130D01*
X591539Y169294D02*
X593907Y168748D01*
X590499Y169494D02*
X591539Y169294D01*
X589671Y169640D02*
X590499Y169494D01*
X589069Y169737D02*
X589671Y169640D01*
X588708Y169791D02*
X589069Y169737D01*
X705951Y169634D02*
X706311Y169688D01*
X705348Y169537D02*
X705951Y169634D01*
X704518Y169391D02*
X705348Y169537D01*
X703474Y169191D02*
X704518Y169391D01*
X701106Y168645D02*
X703474Y169191D01*
X699188Y168028D02*
X701106Y168645D01*
X699188Y168028D02*
X699885Y159104D01*
X699909Y158771D01*
X699630Y158582D02*
X699909Y158771D01*
X698650Y157588D02*
X699630Y158582D01*
X698158Y156340D02*
X698650Y157588D01*
X698034Y154830D02*
X698158Y156340D01*
X698034Y154830D02*
X698201Y153116D01*
X698935Y149615D01*
X699522Y146120D01*
X700554Y145712D01*
X701454Y145199D01*
X702634Y144325D01*
X703541Y143270D01*
X704206Y142065D01*
X704661Y140744D01*
X705178Y137498D01*
X705420Y134045D01*
X705425Y133961D01*
Y133948D02*
Y133961D01*
Y133948D02*
X705523Y132942D01*
X705833Y131272D01*
X706313Y130114D01*
X706889Y129365D01*
X707486Y128923D01*
X708033Y128703D01*
X708493Y128620D01*
X708627Y131638D01*
X708236Y132540D02*
X708627Y131638D01*
X708066Y133312D02*
X708236Y132540D01*
X708066Y133312D02*
X708092Y133955D01*
X708286Y134470D01*
X708850Y135015D01*
X708793Y135932D02*
X708850Y135015D01*
X708706Y137383D02*
X708793Y135932D01*
X708591Y139292D02*
X708706Y137383D01*
X708454Y141584D02*
X708591Y139292D01*
X708295Y144185D02*
X708454Y141584D01*
X708120Y147018D02*
X708295Y144185D01*
X707929Y150008D02*
X708120Y147018D01*
X707729Y153079D02*
X707929Y150008D01*
X706008Y153079D02*
X707729D01*
X706008D02*
Y155328D01*
X707577D01*
X707217Y160415D02*
X707577Y155328D01*
X706862Y164838D02*
X707217Y160415D01*
X704697Y164838D02*
X706862D01*
X704697D02*
Y166633D01*
X706698D01*
X706531Y168186D02*
X706698Y166633D01*
X706377Y169342D02*
X706531Y168186D01*
X706311Y169688D02*
X706377Y169342D01*
X660417Y152733D02*
X663697Y152783D01*
X660406Y152733D02*
X660417D01*
X659619Y152539D02*
X660406Y152733D01*
X658830Y152351D02*
X659619Y152539D01*
X658830Y148272D02*
Y152351D01*
X657981Y148163D02*
X658830Y148272D01*
X657623Y148121D02*
X657981Y148163D01*
X657557Y143125D02*
X657623Y148121D01*
X657557Y143108D02*
Y143125D01*
X657436Y139234D02*
X657557Y143108D01*
X657436Y139234D02*
X658351Y139192D01*
Y138271D02*
Y139192D01*
Y138271D02*
X658417Y137874D01*
X658560Y137616D01*
X658755Y137478D01*
X658974Y137448D01*
X659191Y137508D01*
X659378Y137643D01*
X659510Y137837D01*
X659557Y138076D01*
X659538Y139071D02*
X659557Y138076D01*
X659538Y139071D02*
X661376Y139065D01*
X663175Y139119D01*
X663212Y138319D01*
X663260Y137860D01*
X663303Y137604D01*
X663453Y137286D01*
X663825Y137180D01*
X664214Y137296D01*
X664413Y137646D01*
X664436Y137840D01*
X664467Y138392D01*
X664485Y139295D01*
X665182Y139392D01*
X665200D01*
X665214Y141751D01*
X665200Y143496D02*
X665214Y141751D01*
X665200Y143496D02*
Y143562D01*
X665273Y148429D01*
X663697D02*
X665273D01*
X663697D02*
Y152783D01*
X632134Y148303D02*
Y152655D01*
X630563Y148303D02*
X632134D01*
X630563D02*
X630636Y143435D01*
Y143368D02*
Y143435D01*
X630625Y141622D02*
X630636Y143368D01*
X630625Y141622D02*
X630636Y139265D01*
X630649D01*
X631073Y139215D01*
X631091Y138313D01*
X631123Y137761D01*
X631146Y137568D01*
X631333Y137087D01*
X631726Y136944D01*
X632116Y137110D01*
X632285Y137555D01*
X632330Y137811D01*
X632376Y138271D01*
X632389Y138768D01*
X633140Y138750D01*
X635352Y138786D01*
X635662Y138791D01*
X635716Y138174D01*
X635738Y137716D01*
X635777Y137616D01*
X636056Y137421D01*
X636384Y137356D01*
X636661Y137449D01*
X636784Y137725D01*
X636874Y138234D01*
Y139150D01*
X637547D01*
X637426Y143023D02*
X637547Y139150D01*
X637426Y143023D02*
Y143041D01*
X637359Y148035D02*
X637426Y143041D01*
X637008Y148078D02*
X637359Y148035D01*
X636159Y148187D02*
X637008Y148078D01*
X636159Y148187D02*
Y152309D01*
X635183Y152576D02*
X636159Y152309D01*
X635165Y152582D02*
X635183Y152576D01*
X632134Y152655D02*
X635165Y152582D01*
X669262Y150970D02*
X669419Y150945D01*
X669886Y150642D01*
X670353Y149748D01*
X670608Y148509D01*
X670967Y144956D01*
X671116Y140422D01*
X671100Y135496D02*
X671116Y140422D01*
X670946Y130802D02*
X671100Y135496D01*
X670735Y127463D02*
X670946Y130802D01*
X670456Y125086D02*
X670735Y127463D01*
X670456Y125086D02*
X670510Y125092D01*
X670571D01*
X670931Y124922D01*
X671105Y124565D01*
X671675Y118068D01*
X672179Y110466D01*
X672513Y102055D01*
X672578Y93129D01*
X672571Y93056D02*
X672578Y93129D01*
X672555Y92941D02*
X672571Y93056D01*
X672500Y92622D02*
X672555Y92941D01*
X672396Y92136D02*
X672500Y92622D01*
X672232Y91523D02*
X672396Y92136D01*
X672232Y91523D02*
X673196Y91535D01*
X673711Y91540D01*
X673778Y91025D01*
X673838Y90549D01*
X673992Y89286D01*
X674197Y87493D01*
X674414Y85418D01*
X674601Y83318D01*
X674717Y81436D01*
X674723Y80006D01*
X674662Y79484D02*
X674723Y80006D01*
X674601Y79236D02*
X674662Y79484D01*
X674366Y78945D02*
X674601Y79236D01*
X673989Y78730D02*
X674366Y78945D01*
X673565Y78611D02*
X673989Y78730D01*
X672250Y78326D02*
X673565Y78611D01*
X670363Y78055D02*
X672250Y78326D01*
X667971Y77841D02*
X670363Y78055D01*
X665147Y77735D02*
X667971Y77841D01*
X661971Y77789D02*
X665147Y77735D01*
X658521Y78053D02*
X661971Y77789D01*
X654878Y78581D02*
X658521Y78053D01*
X654489Y78648D02*
X654878Y78581D01*
X654410Y79030D02*
X654489Y78648D01*
X654300Y79667D02*
X654410Y79030D01*
X654094Y81415D02*
X654300Y79667D01*
X653990Y84028D02*
X654094Y81415D01*
X653990Y84028D02*
X654180Y87262D01*
X653719Y87600D02*
X654180Y87262D01*
X653155Y88238D02*
X653719Y87600D01*
X652562Y89244D02*
X653155Y88238D01*
X652013Y90695D02*
X652562Y89244D01*
X651573Y92670D02*
X652013Y90695D01*
X651311Y95253D02*
X651573Y92670D01*
X651294Y98531D02*
X651311Y95253D01*
X651294Y98531D02*
Y98542D01*
Y98548D01*
X651422Y124280D01*
X651613Y124698D01*
X652041Y124862D01*
X651678Y128227D02*
X652041Y124862D01*
X651439Y132128D02*
X651678Y128227D01*
X651342Y136269D02*
X651439Y132128D01*
X651342Y136269D02*
X651404Y140356D01*
X651655Y144182D01*
X652125Y147333D01*
X652458Y148567D01*
X652883Y149545D01*
X653483Y150254D01*
X653909Y150467D01*
X654393Y150515D01*
X654713Y150371D01*
X654895Y150072D01*
X655239Y146960D01*
X655241Y143108D01*
X655242Y139288D01*
X655477Y135742D01*
X656182Y135695D01*
X657535Y135610D01*
X659376Y135507D01*
X661538Y135409D01*
X663942Y135336D01*
X666024Y135331D01*
X666846Y135364D01*
X667449Y135422D01*
X667522Y135440D01*
X667456Y140389D02*
X667522Y135440D01*
X667425Y144532D02*
X667456Y140389D01*
X667425Y144532D02*
X667553Y147820D01*
X668067Y150066D01*
X668092Y150109D01*
X668392Y150567D01*
X668807Y150891D01*
X669105Y150970D01*
X669262D01*
X626218Y150824D02*
X626375Y150818D01*
X626673Y150739D01*
X627088Y150415D01*
X627388Y149957D01*
X627411Y149915D01*
X627928Y147669D01*
X628055Y144381D01*
X628024Y140237D02*
X628055Y144381D01*
X627957Y135288D02*
X628024Y140237D01*
X627957Y135288D02*
X628030Y135270D01*
X628634Y135213D01*
X629455Y135179D01*
X631538Y135185D01*
X633940Y135258D01*
X636105Y135356D01*
X637946Y135458D01*
X639299Y135544D01*
X640002Y135591D01*
X640238Y139136D01*
Y142956D01*
X640240Y146809D01*
X640584Y149921D01*
X640768Y150219D01*
X641087Y150364D01*
X641571Y150315D01*
X641997Y150103D01*
X642596Y149394D01*
X643023Y148415D01*
X643353Y147181D01*
X643825Y144031D01*
X644075Y140204D01*
X644139Y136117D01*
X644041Y131977D02*
X644139Y136117D01*
X643802Y128075D02*
X644041Y131977D01*
X643439Y124711D02*
X643802Y128075D01*
X643439Y124711D02*
X643867Y124546D01*
X644057Y124129D01*
X644184Y98397D01*
Y98390D02*
Y98397D01*
Y98379D02*
Y98390D01*
X644169Y95102D02*
X644184Y98379D01*
X643908Y92518D02*
X644169Y95102D01*
X643467Y90543D02*
X643908Y92518D01*
X642918Y89092D02*
X643467Y90543D01*
X642326Y88086D02*
X642918Y89092D01*
X641760Y87449D02*
X642326Y88086D01*
X641292Y87104D02*
X641760Y87449D01*
X641292Y87104D02*
X641483Y83872D01*
X641379Y81261D02*
X641483Y83872D01*
X641174Y79515D02*
X641379Y81261D01*
X641062Y78878D02*
X641174Y79515D01*
X640984Y78496D02*
X641062Y78878D01*
X640595Y78429D02*
X640984Y78496D01*
X636954Y77902D02*
X640595Y78429D01*
X633505Y77638D02*
X636954Y77902D01*
X630331Y77584D02*
X633505Y77638D01*
X627509Y77690D02*
X630331Y77584D01*
X625117Y77907D02*
X627509Y77690D01*
X623229Y78181D02*
X625117Y77907D01*
X621914Y78460D02*
X623229Y78181D01*
X621492Y78578D02*
X621914Y78460D01*
X621114Y78793D02*
X621492Y78578D01*
X620878Y79085D02*
X621114Y78793D01*
X620816Y79333D02*
X620878Y79085D01*
X620756Y79854D02*
X620816Y79333D01*
X620756Y79854D02*
X620763Y81285D01*
X620880Y83167D01*
X621066Y85267D01*
X621283Y87341D01*
X621488Y89135D01*
X621642Y90397D01*
X621702Y90874D01*
X621768Y91389D01*
X622284Y91383D01*
X623248Y91371D01*
X623085Y91985D02*
X623248Y91371D01*
X622980Y92471D02*
X623085Y91985D01*
X622925Y92790D02*
X622980Y92471D01*
X622908Y92904D02*
X622925Y92790D01*
X622902Y92977D02*
X622908Y92904D01*
X622902Y92977D02*
X622967Y101903D01*
X623302Y110315D01*
X623805Y117916D01*
X624375Y124414D01*
X624574Y124789D01*
X624969Y124940D01*
X625017Y124935D01*
X624742Y127313D02*
X625017Y124935D01*
X624532Y130651D02*
X624742Y127313D01*
X624381Y135344D02*
X624532Y130651D01*
X624362Y140271D02*
X624381Y135344D01*
X624362Y140271D02*
X624512Y144805D01*
X624872Y148357D01*
X625128Y149596D01*
X625593Y150490D01*
X626060Y150793D01*
X626218Y150824D01*
X669116Y149557D02*
X669128Y149576D01*
X668738Y147707D02*
X669116Y149557D01*
X668589Y144526D02*
X668738Y147707D01*
X668589Y144526D02*
X668624Y140255D01*
X668691Y135076D01*
X668686Y135052D02*
X668691Y135076D01*
X668600Y134757D02*
X668686Y135052D01*
X668443Y134561D02*
X668600Y134757D01*
X668165Y134397D02*
X668443Y134561D01*
X667613Y134270D02*
X668165Y134397D01*
X666049Y134166D02*
X667613Y134270D01*
X663920Y134171D02*
X666049Y134166D01*
X661497Y134245D02*
X663920Y134171D01*
X659078Y134356D02*
X661497Y134245D01*
X656970Y134473D02*
X659078Y134356D01*
X655479Y134566D02*
X656970Y134473D01*
X654913Y134603D02*
X655479Y134566D01*
X654565Y134759D02*
X654913Y134603D01*
X654380Y135094D02*
X654565Y134759D01*
X654075Y138989D02*
X654380Y135094D01*
X654075Y138989D02*
X654077Y143120D01*
X654076Y146342D02*
X654077Y143120D01*
X653901Y148969D02*
X654076Y146342D01*
X653895Y148963D02*
X653901Y148969D01*
X653567Y148197D02*
X653895Y148963D01*
X653264Y147084D02*
X653567Y148197D01*
X652817Y144067D02*
X653264Y147084D01*
X652568Y140307D02*
X652817Y144067D01*
X652508Y136233D02*
X652568Y140307D01*
X652508Y136233D02*
X652611Y132104D01*
X652854Y128232D01*
X653216Y124935D01*
X653246Y124922D01*
X653926Y124741D01*
X660770Y124485D01*
X667122Y124687D01*
X669267Y125159D01*
X669547Y127359D01*
X669782Y130857D01*
X669935Y135516D01*
X669953Y140404D01*
X669902Y142740D02*
X669953Y140404D01*
X669804Y144895D02*
X669902Y142740D01*
X669659Y146784D02*
X669804Y144895D01*
X669462Y148320D02*
X669659Y146784D01*
X669295Y149077D02*
X669462Y148320D01*
X669128Y149576D02*
X669295Y149077D01*
X626185Y148926D02*
X626351Y149424D01*
X626017Y148169D02*
X626185Y148926D01*
X625821Y146632D02*
X626017Y148169D01*
X625676Y144743D02*
X625821Y146632D01*
X625579Y142588D02*
X625676Y144743D01*
X625527Y140253D02*
X625579Y142588D01*
X625527Y140253D02*
X625545Y135364D01*
X625696Y130706D01*
X625934Y127208D01*
X626211Y125007D01*
X628351Y124535D01*
X634710Y124333D01*
X641560Y124589D01*
X642232Y124771D01*
X642262Y124783D01*
X642626Y128081D01*
X642869Y131952D01*
X642972Y136081D01*
X642911Y140155D02*
X642972Y136081D01*
X642663Y143916D02*
X642911Y140155D01*
X642214Y146933D02*
X642663Y143916D01*
X641912Y148046D02*
X642214Y146933D01*
X641584Y148812D02*
X641912Y148046D01*
X641578Y148818D02*
X641584Y148812D01*
X641404Y146191D02*
X641578Y148818D01*
X641403Y142968D02*
X641404Y146191D01*
X641403Y142968D02*
X641404Y138838D01*
X641099Y134942D02*
X641404Y138838D01*
X640915Y134608D02*
X641099Y134942D01*
X640565Y134452D02*
X640915Y134608D01*
X640001Y134415D02*
X640565Y134452D01*
X638510Y134322D02*
X640001Y134415D01*
X636403Y134204D02*
X638510Y134322D01*
X633983Y134094D02*
X636403Y134204D01*
X631561Y134019D02*
X633983Y134094D01*
X629431Y134015D02*
X631561Y134019D01*
X627866Y134118D02*
X629431Y134015D01*
X627315Y134245D02*
X627866Y134118D01*
X627037Y134409D02*
X627315Y134245D01*
X626880Y134605D02*
X627037Y134409D01*
X626794Y134901D02*
X626880Y134605D01*
X626787Y134924D02*
X626794Y134901D01*
X626787Y134924D02*
X626857Y140103D01*
X626891Y144375D01*
X626742Y147555D02*
X626891Y144375D01*
X626363Y149406D02*
X626742Y147555D01*
X626351Y149424D02*
X626363Y149406D01*
X661478Y148115D02*
X662443Y147911D01*
X663226Y147381D01*
X663747Y146604D01*
X663927Y145660D01*
X663719Y144722D02*
X663927Y145660D01*
X663175Y143961D02*
X663719Y144722D01*
X662377Y143454D02*
X663175Y143961D01*
X661406Y143277D02*
X662377Y143454D01*
X660442Y143481D02*
X661406Y143277D01*
X659659Y144012D02*
X660442Y143481D01*
X659139Y144789D02*
X659659Y144012D01*
X658957Y145732D02*
X659139Y144789D01*
X658957Y145732D02*
X659166Y146671D01*
X659711Y147432D01*
X660508Y147939D01*
X661478Y148115D01*
X634001Y147963D02*
X634972Y147787D01*
X635770Y147281D01*
X636315Y146519D01*
X636523Y145580D01*
X636340Y144637D02*
X636523Y145580D01*
X635817Y143860D02*
X636340Y144637D01*
X635033Y143330D02*
X635817Y143860D01*
X634068Y143125D02*
X635033Y143330D01*
X633098Y143303D02*
X634068Y143125D01*
X632303Y143809D02*
X633098Y143303D01*
X631761Y144571D02*
X632303Y143809D01*
X631553Y145508D02*
X631761Y144571D01*
X631553Y145508D02*
X631734Y146453D01*
X632255Y147229D01*
X633036Y147760D01*
X634001Y147963D01*
X700315Y144489D02*
X700322Y144459D01*
X700682Y143303D01*
X701194Y141895D01*
X702378Y139415D01*
X703970Y137149D01*
X703724Y138948D02*
X703970Y137149D01*
X703340Y140598D02*
X703724Y138948D01*
X702967Y141636D02*
X703340Y140598D01*
X702484Y142568D02*
X702967Y141636D01*
X701868Y143386D02*
X702484Y142568D01*
X701091Y144084D02*
X701868Y143386D01*
X700315Y144489D02*
X701091Y144084D01*
X660217Y142356D02*
X662558Y142350D01*
X662551Y139859D02*
X662558Y142350D01*
X660217Y139882D02*
X662551Y139859D01*
X660217Y139882D02*
Y142356D01*
X635256Y139731D02*
X635261Y142205D01*
X632928Y139707D02*
X635256Y139731D01*
X632922Y142198D02*
X632928Y139707D01*
X632922Y142198D02*
X635261Y142205D01*
X703297Y135208D02*
X704146Y135245D01*
X702402Y135167D02*
X703297Y135208D01*
X701310Y135064D02*
X702402Y135167D01*
X699867Y134846D02*
X701310Y135064D01*
X699867Y134846D02*
X699932Y133934D01*
X700249Y132821D01*
X702319Y132837D01*
X704329Y133215D01*
X704146Y135245D02*
X704329Y133215D01*
X667522Y123559D02*
X670001Y123849D01*
X662681Y123017D02*
X667522Y123559D01*
X658254Y123038D02*
X662681Y123017D01*
X655929Y123234D02*
X658254Y123038D01*
X654095Y123510D02*
X655929Y123234D01*
X653671Y123596D02*
X654095Y123510D01*
X652580Y123662D02*
X653671Y123596D01*
X652544Y116345D02*
X652580Y123662D01*
X652544Y116345D02*
X656004Y115776D01*
X655860Y112666D02*
X656004Y115776D01*
X652532Y113297D02*
X655860Y112666D01*
X652458Y98524D02*
X652532Y113297D01*
X652458Y98506D02*
Y98524D01*
Y98506D02*
X652474Y95325D01*
X652723Y92861D01*
X653128Y91031D01*
X653610Y89747D01*
X654090Y88928D01*
X654124Y95121D01*
X654041Y101191D02*
X654124Y95121D01*
X654041Y101191D02*
X654218Y101598D01*
X654623Y101774D01*
X668461Y101767D01*
X668860Y101599D01*
X669044Y101209D01*
X669479Y91499D01*
X669504Y90935D01*
X669577Y89328D01*
X669590Y89007D01*
X670445Y90309D01*
X671004Y91653D01*
X671314Y92719D01*
X671414Y93184D01*
X671299Y103761D02*
X671414Y93184D01*
X670825Y113514D02*
X671299Y103761D01*
X667431Y112830D02*
X670825Y113514D01*
X667297Y115951D02*
X667431Y112830D01*
X667297Y115951D02*
X670620Y116527D01*
X670001Y123849D02*
X670620Y116527D01*
X624860Y116382D02*
X625479Y123698D01*
X624860Y116382D02*
X628182Y115800D01*
X628042Y112678D02*
X628182Y115800D01*
X624653Y113363D02*
X628042Y112678D01*
X624182Y103610D02*
X624653Y113363D01*
X624067Y93032D02*
X624182Y103610D01*
X624067Y93032D02*
X624167Y92567D01*
X624475Y91502D01*
X625036Y90158D01*
X625891Y88855D01*
X625976Y90783D01*
X625999Y91348D01*
X626436Y101058D01*
X626621Y101447D01*
X627018Y101615D01*
X640857Y101622D01*
X641262Y101446D01*
X641439Y101039D01*
X641357Y94969D02*
X641439Y101039D01*
X641357Y94969D02*
X641390Y88777D01*
X641869Y89595D01*
X642353Y90880D01*
X642758Y92709D01*
X643007Y95173D01*
X643020Y98354D01*
Y98372D01*
X642948Y113145D02*
X643020Y98372D01*
X639620Y112514D02*
X642948Y113145D01*
X639474Y115630D02*
X639620Y112514D01*
X639474Y115630D02*
X642936Y116193D01*
X642899Y123510D02*
X642936Y116193D01*
X641772Y123444D02*
X642899Y123510D01*
X641384Y123359D02*
X641772Y123444D01*
X639551Y123083D02*
X641384Y123359D01*
X637226Y122886D02*
X639551Y123083D01*
X632808Y122866D02*
X637226Y122886D01*
X627976Y123407D02*
X632808Y122866D01*
X625479Y123698D02*
X627976Y123407D01*
X657563Y100610D02*
X660169D01*
X657563D02*
X657654Y97263D01*
X658332Y96636D01*
X659345Y96172D01*
X660706Y95892D01*
X662169Y95839D01*
X663568Y96002D01*
X664728Y96342D01*
X665443Y96774D01*
X665686Y97148D01*
X665805Y98540D01*
X665826Y99629D01*
X665803Y100341D02*
X665826Y99629D01*
X665782Y100603D02*
X665803Y100341D01*
X663352Y100603D02*
X665782D01*
X663352Y97160D02*
Y100603D01*
X660169Y97160D02*
X663352D01*
X660169D02*
Y100610D01*
X655211D02*
X656393D01*
X655211D02*
X655280Y96016D01*
X655314Y91353D01*
X655429D01*
X656848Y91365D01*
X656878Y94523D01*
X656883Y95099D01*
X658896D01*
X658198Y95379D02*
X658896Y95099D01*
X657563Y95741D02*
X658198Y95379D01*
X657013Y96199D02*
X657563Y95741D01*
X656575Y96760D02*
X657013Y96199D01*
X656496Y96894D02*
X656575Y96760D01*
X656496Y96894D02*
Y97045D01*
X656393Y100610D02*
X656496Y97045D01*
X666946Y100603D02*
X667903D01*
X666946D02*
X666973Y100182D01*
X666988Y99409D01*
X666956Y98335D02*
X666988Y99409D01*
X666837Y97009D02*
X666956Y98335D01*
X666651Y96428D02*
X666837Y97009D01*
X666281Y95953D02*
X666651Y96428D01*
X665773Y95570D02*
X666281Y95953D01*
X665176Y95268D02*
X665773Y95570D01*
X664721Y95099D02*
X665176Y95268D01*
X664721Y95099D02*
X666691D01*
X666716Y94541D01*
X666842Y91469D01*
X668309Y91487D01*
X667903Y100603D02*
X668309Y91487D01*
X639087Y100458D02*
X640269D01*
X638984Y96894D02*
X639087Y100458D01*
X638984Y96742D02*
Y96894D01*
X638905Y96608D02*
X638984Y96742D01*
X638468Y96047D02*
X638905Y96608D01*
X637918Y95590D02*
X638468Y96047D01*
X637282Y95227D02*
X637918Y95590D01*
X636584Y94948D02*
X637282Y95227D01*
X636584Y94948D02*
X638595D01*
X638602Y94372D01*
X638632Y91214D01*
X640044Y91201D01*
X640165D01*
X640200Y95864D01*
X640269Y100458D01*
X635311D02*
X637917D01*
X635311Y97009D02*
Y100458D01*
X632128Y97009D02*
X635311D01*
X632128D02*
Y100451D01*
X629697D02*
X632128D01*
X629677Y100190D02*
X629697Y100451D01*
X629654Y99477D02*
X629677Y100190D01*
X629654Y99477D02*
X629675Y98389D01*
X629795Y96996D01*
X630038Y96622D01*
X630752Y96190D01*
X631912Y95851D01*
X633310Y95687D01*
X634773Y95740D01*
X636134Y96020D01*
X637148Y96485D01*
X637826Y97112D01*
X637917Y100458D01*
X627575Y100451D02*
X628527D01*
X627169Y91335D02*
X627575Y100451D01*
X627169Y91335D02*
X628636Y91317D01*
X628764Y94390D01*
X628787Y94948D01*
X630758D01*
X630303Y95117D02*
X630758Y94948D01*
X629706Y95418D02*
X630303Y95117D01*
X629199Y95801D02*
X629706Y95418D01*
X628829Y96276D02*
X629199Y95801D01*
X628643Y96857D02*
X628829Y96276D01*
X628523Y98183D02*
X628643Y96857D01*
X628489Y99258D02*
X628523Y98183D01*
X628489Y99258D02*
X628503Y100031D01*
X628527Y100451D01*
X658035Y93935D02*
X665576D01*
X658012Y91377D02*
X658035Y93935D01*
X658005Y90783D02*
X658012Y91377D01*
X657987Y88607D02*
X658005Y90783D01*
X657987Y88607D02*
X658587Y88480D01*
X659048Y88383D01*
Y85619D02*
Y88383D01*
X657884Y85619D02*
X659048D01*
X657884D02*
Y87438D01*
X657284Y87565D02*
X657884Y87438D01*
X657277Y87565D02*
X657284D01*
X656811Y87661D02*
X657277Y87565D01*
X656811Y87661D02*
X656817Y88140D01*
X656835Y90202D01*
X655908Y90196D02*
X656835Y90202D01*
X655486Y88103D02*
X655908Y90196D01*
X655251Y86132D02*
X655486Y88103D01*
X655163Y84332D02*
X655251Y86132D01*
X655163Y84332D02*
X655181Y82746D01*
X657810Y82213D01*
X660604Y81912D01*
X663430Y81795D01*
X666160Y81817D01*
X668661Y81934D01*
X670805Y82100D01*
X672458Y82268D01*
X673492Y82394D01*
X673257Y85304D02*
X673492Y82394D01*
X673070Y87111D02*
X673257Y85304D01*
X672899Y88627D02*
X673070Y87111D01*
X672764Y89748D02*
X672899Y88627D01*
X672687Y90365D02*
X672764Y89748D01*
X671820Y90359D02*
X672687Y90365D01*
X671439Y89571D02*
X671820Y90359D01*
X670953Y88793D02*
X671439Y89571D01*
X670351Y88069D02*
X670953Y88793D01*
X669620Y87438D02*
X670351Y88069D01*
X669590Y87419D02*
X669620Y87438D01*
X669371Y87267D02*
X669590Y87419D01*
X669267Y87213D02*
X669371Y87267D01*
X668522Y86740D02*
X669267Y87213D01*
X668479Y87734D02*
X668522Y86740D01*
X668479Y87734D02*
Y87741D01*
X668365Y90323D02*
X668479Y87741D01*
X666892Y90305D02*
X668365Y90323D01*
X666892Y90305D02*
X666994Y87771D01*
X667024Y87110D01*
X666364Y87164D02*
X667024Y87110D01*
X665721Y87219D02*
X666364Y87164D01*
X665721Y87219D02*
X665764Y85461D01*
X664600Y85437D02*
X665764Y85461D01*
X664546Y87843D02*
X664600Y85437D01*
X664534Y88492D02*
X664546Y87843D01*
X664534Y88492D02*
X665176Y88438D01*
X665807Y88383D01*
X665703Y90856D02*
X665807Y88383D01*
X665680Y91456D02*
X665703Y90856D01*
X665576Y93935D02*
X665680Y91456D01*
X629903Y93784D02*
X637443D01*
X629800Y91305D02*
X629903Y93784D01*
X629795Y91123D02*
X629800Y91305D01*
X629775Y90704D02*
X629795Y91123D01*
X629673Y88231D02*
X629775Y90704D01*
X629673Y88231D02*
X630303Y88286D01*
X630946Y88340D01*
X630934Y87691D02*
X630946Y88340D01*
X630879Y85286D02*
X630934Y87691D01*
X629715Y85310D02*
X630879Y85286D01*
X629715Y85310D02*
X629757Y87067D01*
X629115Y87013D02*
X629757Y87067D01*
X629109Y87013D02*
X629115D01*
X628454Y86959D02*
X629109Y87013D01*
X628449Y86959D02*
X628454D01*
X628449D02*
X628479Y87619D01*
X628588Y90153D01*
X627115Y90171D02*
X628588Y90153D01*
X626999Y87589D02*
X627115Y90171D01*
X626999Y87582D02*
Y87589D01*
Y87577D02*
Y87582D01*
X626957Y86589D02*
X626999Y87577D01*
X626169Y87085D02*
X626957Y86589D01*
X626151Y87092D02*
X626169Y87085D01*
X626108Y87116D02*
X626151Y87092D01*
X625891Y87267D02*
X626108Y87116D01*
X625860Y87286D02*
X625891Y87267D01*
X625678Y87425D02*
X625860Y87286D01*
X624466Y88732D02*
X625678Y87425D01*
X623660Y90207D02*
X624466Y88732D01*
X622794Y90213D02*
X623660Y90207D01*
X622717Y89596D02*
X622794Y90213D01*
X622581Y88476D02*
X622717Y89596D01*
X622410Y86959D02*
X622581Y88476D01*
X622223Y85152D02*
X622410Y86959D01*
X621986Y82242D02*
X622223Y85152D01*
X621986Y82242D02*
X623021Y82116D01*
X624674Y81948D01*
X626817Y81783D01*
X629317Y81666D01*
X632046Y81644D01*
X634871Y81761D01*
X637664Y82063D01*
X640293Y82594D01*
X640311Y84180D01*
X640224Y85981D02*
X640311Y84180D01*
X639990Y87951D02*
X640224Y85981D01*
X639565Y90044D02*
X639990Y87951D01*
X638645Y90050D02*
X639565Y90044D01*
X638645Y90050D02*
X638663Y87989D01*
Y87509D02*
Y87989D01*
X638195Y87413D02*
X638663Y87509D01*
X637595Y87286D02*
X638195Y87413D01*
X637595Y85467D02*
Y87286D01*
X636432Y85467D02*
X637595D01*
X636432D02*
Y88231D01*
X636892Y88328D01*
X637486Y88456D01*
X637468Y90631D02*
X637486Y88456D01*
X637463Y91226D02*
X637468Y90631D01*
X637463Y91226D02*
X637468D01*
X637443Y93784D02*
X637468Y91226D01*
X661788Y93214D02*
X662685Y93026D01*
X663413Y92533D01*
X663898Y91813D01*
X664067Y90935D01*
X663872Y90063D02*
X664067Y90935D01*
X663367Y89356D02*
X663872Y90063D01*
X662624Y88886D02*
X663367Y89356D01*
X661720Y88722D02*
X662624Y88886D01*
X660825Y88912D02*
X661720Y88722D01*
X660097Y89404D02*
X660825Y88912D01*
X659611Y90125D02*
X660097Y89404D01*
X659442Y91001D02*
X659611Y90125D01*
X659442Y91001D02*
X659637Y91874D01*
X660144Y92581D01*
X660886Y93051D01*
X661788Y93214D01*
X633692Y93062D02*
X634594Y92900D01*
X635334Y92429D01*
X635838Y91722D01*
X636031Y90850D01*
X635863Y89973D02*
X636031Y90850D01*
X635378Y89253D02*
X635863Y89973D01*
X634650Y88760D02*
X635378Y89253D01*
X633753Y88570D02*
X634650Y88760D01*
X632852Y88734D02*
X633753Y88570D01*
X632111Y89205D02*
X632852Y88734D01*
X631606Y89911D02*
X632111Y89205D01*
X631412Y90783D02*
X631606Y89911D01*
X631412Y90783D02*
X631583Y91661D01*
X632068Y92382D01*
X632796Y92874D01*
X633692Y93062D01*
X655254Y81521D02*
X655382Y80359D01*
X655489Y79659D01*
X658936Y79186D01*
X662203Y78949D01*
X665214Y78904D01*
X667892Y79005D01*
X670226Y79215D01*
X672045Y79478D01*
X673257Y79732D01*
X673464Y79798D01*
X673535Y79824D01*
X673565Y80072D01*
X673560Y81224D02*
X673565Y80072D01*
X672430Y81084D02*
X673560Y81224D01*
X670745Y80910D02*
X672430Y81084D01*
X668617Y80745D02*
X670745Y80910D01*
X666159Y80632D02*
X668617Y80745D01*
X663480Y80610D02*
X666159Y80632D01*
X660696Y80722D02*
X663480Y80610D01*
X657917Y81013D02*
X660696Y80722D01*
X655254Y81521D02*
X657917Y81013D01*
X637558Y80862D02*
X640221Y81369D01*
X634779Y80571D02*
X637558Y80862D01*
X631996Y80458D02*
X634779Y80571D01*
X629319Y80480D02*
X631996Y80458D01*
X626861Y80594D02*
X629319Y80480D01*
X624734Y80758D02*
X626861Y80594D01*
X623050Y80933D02*
X624734Y80758D01*
X621920Y81073D02*
X623050Y80933D01*
X621914Y79921D02*
X621920Y81073D01*
X621914Y79921D02*
X621945Y79672D01*
X622016Y79646D01*
X622223Y79581D01*
X623436Y79326D01*
X625252Y79064D01*
X627582Y78854D01*
X630260Y78752D01*
X633271Y78798D01*
X636538Y79035D01*
X639984Y79508D01*
X640093Y80207D01*
X640221Y81369D01*
X595746Y145124D02*
X595940Y145762D01*
X595409Y144118D02*
X595746Y145124D01*
X594931Y142844D02*
X595409Y144118D01*
X594319Y141403D02*
X594931Y142844D01*
X593574Y139893D02*
X594319Y141403D01*
X592700Y138413D02*
X593574Y139893D01*
X591699Y137064D02*
X592700Y138413D01*
X590576Y135942D02*
X591699Y137064D01*
X590576Y135942D02*
X591557Y135892D01*
X592572Y135858D01*
X593864Y135744D01*
X595679Y135452D01*
X595748Y134738D01*
X595690Y134045D02*
X595748Y134738D01*
X595505Y133279D02*
X595690Y134045D01*
X595193Y132348D02*
X595505Y133279D01*
X593899Y132347D02*
X595193Y132348D01*
X592724Y132354D02*
X593899Y132347D01*
X591550Y132480D02*
X592724Y132354D01*
X590253Y132839D02*
X591550Y132480D01*
X590071Y132979D02*
X590253Y132839D01*
X590071Y132979D02*
Y132991D01*
X590254Y135040D01*
X590435Y137064D01*
X590693Y139012D01*
X591109Y140831D01*
X591761Y142468D01*
X592731Y143872D01*
X594098Y144987D01*
X595940Y145762D01*
X595746Y145124D02*
X595940Y145762D01*
X595409Y144118D02*
X595746Y145124D01*
X594931Y142844D02*
X595409Y144118D01*
X594319Y141403D02*
X594931Y142844D01*
X593574Y139893D02*
X594319Y141403D01*
X592700Y138413D02*
X593574Y139893D01*
X591699Y137064D02*
X592700Y138413D01*
X590576Y135942D02*
X591699Y137064D01*
X590576Y135942D02*
X591557Y135892D01*
X592572Y135858D01*
X593864Y135744D01*
X595679Y135452D01*
X595748Y134738D01*
X595690Y134045D02*
X595748Y134738D01*
X595505Y133279D02*
X595690Y134045D01*
X595193Y132348D02*
X595505Y133279D01*
X593899Y132347D02*
X595193Y132348D01*
X592724Y132354D02*
X593899Y132347D01*
X591550Y132480D02*
X592724Y132354D01*
X590253Y132839D02*
X591550Y132480D01*
X590071Y132979D02*
X590253Y132839D01*
X590071Y132979D02*
Y132991D01*
X590254Y135040D01*
X590435Y137064D01*
X590693Y139012D01*
X591109Y140831D01*
X591761Y142468D01*
X592731Y143872D01*
X594098Y144987D01*
X595940Y145762D01*
M02*
