G04 Layer_Color=8421504*
%FSLAX44Y44*%
%MOMM*%
G71*
G01*
G75*
%ADD40R,0.9000X1.1000*%
%ADD41R,1.3400X1.4000*%
%ADD42R,1.7000X2.8000*%
%ADD43R,1.4000X1.3400*%
%ADD44R,1.0500X0.6000*%
%ADD45O,1.6500X0.8000*%
%ADD46R,1.6500X0.8000*%
%ADD47O,1.7500X0.4500*%
%ADD48O,0.4500X1.7500*%
%ADD49R,2.0000X2.2000*%
%ADD50R,1.2500X1.1000*%
%ADD51R,1.2500X3.3000*%
%ADD52R,10.6500X9.8000*%
%ADD53R,1.2500X4.3000*%
D40*
X650500Y113000D02*
D03*
X665500D02*
D03*
D41*
X880000Y559500D02*
D03*
Y540500D02*
D03*
X860000Y559500D02*
D03*
Y540500D02*
D03*
X840000Y559500D02*
D03*
Y540500D02*
D03*
X143000Y117500D02*
D03*
Y136500D02*
D03*
X123000Y117500D02*
D03*
Y136500D02*
D03*
X103000Y117500D02*
D03*
Y136500D02*
D03*
X114000Y498500D02*
D03*
Y479500D02*
D03*
X658000Y168500D02*
D03*
Y187500D02*
D03*
Y208500D02*
D03*
Y227500D02*
D03*
X518000Y173500D02*
D03*
Y192500D02*
D03*
Y211500D02*
D03*
Y230500D02*
D03*
X165000Y160500D02*
D03*
Y179500D02*
D03*
X259000Y110500D02*
D03*
Y129500D02*
D03*
X291500Y244500D02*
D03*
Y225500D02*
D03*
X575000Y97500D02*
D03*
Y78500D02*
D03*
X279000Y104500D02*
D03*
Y85500D02*
D03*
X475000Y93500D02*
D03*
Y112500D02*
D03*
X233000Y306500D02*
D03*
Y325500D02*
D03*
X120000Y410500D02*
D03*
Y429500D02*
D03*
D42*
X603000Y188000D02*
D03*
X633000D02*
D03*
X603000Y228000D02*
D03*
X633000D02*
D03*
X573000Y188000D02*
D03*
X543000D02*
D03*
X573000Y228000D02*
D03*
X543000D02*
D03*
D43*
X219500Y116000D02*
D03*
X238500D02*
D03*
X228500Y226000D02*
D03*
X247500D02*
D03*
X404500Y192000D02*
D03*
X385500D02*
D03*
X389250Y99500D02*
D03*
X370250D02*
D03*
X386250Y255750D02*
D03*
X367250D02*
D03*
X710500Y96000D02*
D03*
X729500D02*
D03*
X219500Y136000D02*
D03*
X238500D02*
D03*
X234500Y373000D02*
D03*
X215500D02*
D03*
X155500Y576000D02*
D03*
X174500D02*
D03*
X155500Y596000D02*
D03*
X174500D02*
D03*
D44*
X614000Y64500D02*
D03*
Y71000D02*
D03*
Y77500D02*
D03*
X592000D02*
D03*
Y64500D02*
D03*
D45*
X632500Y96100D02*
D03*
X551000Y78800D02*
D03*
D46*
X632500Y83400D02*
D03*
Y70700D02*
D03*
Y58000D02*
D03*
Y45300D02*
D03*
Y32600D02*
D03*
Y19900D02*
D03*
X687000Y96100D02*
D03*
Y83400D02*
D03*
Y45300D02*
D03*
Y32600D02*
D03*
Y19900D02*
D03*
Y70700D02*
D03*
Y58000D02*
D03*
X551000Y91500D02*
D03*
Y104200D02*
D03*
Y116900D02*
D03*
Y129600D02*
D03*
Y142300D02*
D03*
Y155000D02*
D03*
X496500Y78800D02*
D03*
Y91500D02*
D03*
Y104200D02*
D03*
Y116900D02*
D03*
Y129600D02*
D03*
Y142300D02*
D03*
Y155000D02*
D03*
D47*
X278750Y191500D02*
D03*
Y186500D02*
D03*
Y181500D02*
D03*
Y176500D02*
D03*
Y171500D02*
D03*
Y166500D02*
D03*
Y161500D02*
D03*
Y156500D02*
D03*
Y151500D02*
D03*
Y146500D02*
D03*
Y141500D02*
D03*
Y136500D02*
D03*
X359250D02*
D03*
Y141500D02*
D03*
Y146500D02*
D03*
Y151500D02*
D03*
Y156500D02*
D03*
Y161500D02*
D03*
Y166500D02*
D03*
Y171500D02*
D03*
Y176500D02*
D03*
Y181500D02*
D03*
Y186500D02*
D03*
Y191500D02*
D03*
D48*
X291500Y123750D02*
D03*
X296500D02*
D03*
X301500D02*
D03*
X306500D02*
D03*
X311500D02*
D03*
X316500D02*
D03*
X321500D02*
D03*
X326500D02*
D03*
X331500D02*
D03*
X336500D02*
D03*
X341500D02*
D03*
X346500D02*
D03*
Y204250D02*
D03*
X341500D02*
D03*
X336500D02*
D03*
X331500D02*
D03*
X326500D02*
D03*
X321500D02*
D03*
X316500D02*
D03*
X311500D02*
D03*
X306500D02*
D03*
X301500D02*
D03*
X296500D02*
D03*
X291500D02*
D03*
D49*
X191200Y202000D02*
D03*
Y160000D02*
D03*
X242000Y202000D02*
D03*
Y160000D02*
D03*
D50*
X215000Y303000D02*
D03*
Y326000D02*
D03*
Y349000D02*
D03*
D51*
X147500Y326000D02*
D03*
D52*
X190000Y509000D02*
D03*
D53*
X215400Y409500D02*
D03*
X164600D02*
D03*
M02*
