M48
;Layer_Color=9474304
;FILE_FORMAT=4:4
METRIC,LZ
;TYPE=PLATED
T1F00S00C0.4000
T2F00S00C0.5000
T3F00S00C0.7000
T4F00S00C0.9000
%
T01
X00717Y00118
X005776Y001296
X00575Y000975
X00603Y000755
X0060225Y00052
X00614Y0003125
X00559Y00017
X00523Y0003
X0053925Y0006575
X00515Y00097
X005165Y00155
X004555Y001715
X00394Y00163
Y00153
Y00143
X00384Y00125
X00381Y00081
X00405Y00083
X004635Y0007825
X00329Y00098
X00319
X00309
X00299
X00279Y00126
X00267Y00235
X00342325Y002365
X0034175Y002465
X00352382Y00242632
X00332Y003255
X00253
X00494302Y00238781
X00503802Y00234031
X00168Y00223
X00165Y00141
X00312Y00402
T02
X00154Y00541
X0019Y00509
X00226Y00541
Y00477
X00233Y00409
T03
X00045533Y00031481
X00064365Y00034001
X00083197Y00036521
X00093925Y00062582
X00082324Y0007763
X00070724Y00092678
X00042792Y00088939
X00035561Y00071369
X00028329Y00053799
X00052979Y00558715
X00040369Y00572927
X00027759Y00587139
X00036675Y00613877
X00055289Y00617687
X00073903Y00621497
X00092616Y00600406
X00086592Y00582386
X00080569Y00564366
X00922518Y00563244
X00915458Y00580883
X00908398Y00598523
X00925829Y00620672
X00944634Y00617962
X0096344Y00615252
X00973908Y00589085
X00962157Y00574155
X00950406Y00559225
T04
X00786Y00068
Y00093
Y00118
Y00143
Y00168
Y00193
Y00218
Y00243
X00733
Y00218
Y00193
X00477Y002265
X004516
X004262
X0042Y00156
Y001306
M30
