G04 Layer_Physical_Order=2*
G04 Layer_Color=16711680*
%FSLAX44Y44*%
%MOMM*%
G71*
G01*
G75*
%ADD24C,0.2000*%
%ADD26C,0.5000*%
%ADD28C,0.3000*%
%ADD29C,8.0000*%
%ADD30C,2.7000*%
%ADD31C,1.0000*%
%ADD32C,1.5000*%
%ADD33R,1.5000X1.5000*%
%ADD34R,1.5000X1.5000*%
%ADD35C,0.8000*%
G36*
X100882Y505793D02*
X100924Y505579D01*
X101587Y504587D01*
X102579Y503924D01*
X102793Y503882D01*
X309941Y296733D01*
Y175858D01*
X309941Y175858D01*
X310174Y174687D01*
X310837Y173695D01*
X343695Y140837D01*
X343695Y140837D01*
X344687Y140174D01*
X345858Y139941D01*
X388784D01*
X389721Y138721D01*
X390258Y138309D01*
X389918Y137309D01*
X338750D01*
X337579Y137076D01*
X336587Y136413D01*
X336587Y136413D01*
X326837Y126663D01*
X326174Y125671D01*
X325941Y124500D01*
X325941Y124500D01*
Y103216D01*
X324721Y102279D01*
X324500Y101992D01*
X323500D01*
X323279Y102279D01*
X322026Y103241D01*
X320566Y103846D01*
X319000Y104052D01*
X317434Y103846D01*
X315974Y103241D01*
X314721Y102279D01*
X314500Y101992D01*
X313500D01*
X313279Y102279D01*
X312026Y103241D01*
X310566Y103846D01*
X309000Y104052D01*
X307434Y103846D01*
X305974Y103241D01*
X304721Y102279D01*
X304500Y101992D01*
X303500D01*
X303279Y102279D01*
X302026Y103241D01*
X300566Y103846D01*
X299000Y104052D01*
X297434Y103846D01*
X295974Y103241D01*
X294721Y102279D01*
X293784Y101059D01*
X256217D01*
X250935Y106341D01*
X249942Y107004D01*
X248772Y107237D01*
X248772Y107237D01*
X35907D01*
X35907Y107237D01*
X34737Y107004D01*
X33744Y106341D01*
X33744Y106341D01*
X12561Y85157D01*
X11736Y85747D01*
X13040Y88405D01*
X17025Y94398D01*
X21759Y99820D01*
X27282Y104685D01*
X127235Y181733D01*
X127376Y181894D01*
X127560Y182005D01*
X132585Y186613D01*
X132837Y186957D01*
X133159Y187236D01*
X137329Y192631D01*
X137519Y193012D01*
X137788Y193342D01*
X140981Y199366D01*
X141103Y199774D01*
X141313Y200145D01*
X143436Y206624D01*
X143488Y207047D01*
X143631Y207449D01*
X144623Y214194D01*
X144602Y214620D01*
X144675Y215039D01*
X144508Y221855D01*
X144414Y222271D01*
X144415Y222697D01*
X143092Y229386D01*
X142930Y229780D01*
X142858Y230200D01*
X140419Y236566D01*
X140339Y236693D01*
X140305Y236839D01*
X130780Y257864D01*
X122399Y279231D01*
X115130Y301003D01*
X108994Y323120D01*
X104006Y345525D01*
X100180Y368157D01*
X97525Y390956D01*
X96050Y413862D01*
X95758Y436813D01*
X96650Y459748D01*
X98734Y482735D01*
X98718Y482884D01*
X98752Y483030D01*
X98963Y489845D01*
X98892Y490265D01*
X98917Y490691D01*
X97967Y497442D01*
X97826Y497844D01*
X97778Y498268D01*
X95695Y504760D01*
X95488Y505132D01*
X95369Y505541D01*
X92214Y511586D01*
X91946Y511917D01*
X91759Y512300D01*
X87894Y517366D01*
X88649Y518026D01*
X100882Y505793D01*
D02*
G37*
G36*
X71187Y645022D02*
X78307Y643156D01*
X391509Y538755D01*
X391825Y537806D01*
X386631Y530325D01*
X386601Y530257D01*
X386552Y530202D01*
X379936Y519052D01*
X379912Y518983D01*
X379866Y518924D01*
X374063Y507331D01*
X374043Y507259D01*
X374002Y507198D01*
X369041Y495220D01*
X369026Y495148D01*
X368990Y495084D01*
X364896Y482782D01*
X364886Y482709D01*
X364855Y482642D01*
X361648Y470080D01*
X361644Y470006D01*
X361617Y469938D01*
X359315Y457178D01*
X359317Y457105D01*
X359295Y457034D01*
X357909Y444143D01*
X357915Y444070D01*
X357898Y443998D01*
X357435Y431041D01*
X357447Y430968D01*
X357435Y430896D01*
X357898Y417939D01*
X357915Y417867D01*
X357909Y417794D01*
X359295Y404903D01*
X359317Y404832D01*
X359315Y404758D01*
X361617Y391999D01*
X361644Y391931D01*
X361648Y391857D01*
X364855Y379295D01*
X364886Y379228D01*
X364896Y379155D01*
X368990Y366853D01*
X369026Y366789D01*
X369041Y366717D01*
X374002Y354739D01*
X374043Y354677D01*
X374063Y354606D01*
X379866Y343012D01*
X379911Y342954D01*
X379936Y342885D01*
X386552Y331734D01*
X386601Y331680D01*
X386631Y331612D01*
X394025Y320962D01*
X394078Y320911D01*
X394112Y320846D01*
X402247Y310750D01*
X402304Y310703D01*
X402343Y310640D01*
X411177Y301151D01*
X411237Y301108D01*
X411280Y301048D01*
X420770Y292214D01*
X420832Y292175D01*
X420880Y292118D01*
X430975Y283983D01*
X431040Y283949D01*
X431091Y283896D01*
X441741Y276501D01*
X441809Y276472D01*
X441864Y276423D01*
X453014Y269807D01*
X453083Y269783D01*
X453142Y269737D01*
X464735Y263934D01*
X464807Y263914D01*
X464868Y263873D01*
X476846Y258912D01*
X476918Y258897D01*
X476982Y258861D01*
X489284Y254767D01*
X489357Y254757D01*
X489424Y254725D01*
X493509Y253683D01*
X493384Y252691D01*
X344882D01*
X344882Y252691D01*
X343711Y252458D01*
X343456Y252288D01*
X343316Y252346D01*
X341750Y252552D01*
X340184Y252346D01*
X338724Y251741D01*
X337588Y250869D01*
X336588Y251098D01*
Y321623D01*
X337241Y322474D01*
X337846Y323934D01*
X338052Y325500D01*
X337846Y327066D01*
X337241Y328526D01*
X336279Y329779D01*
X335026Y330741D01*
X333566Y331346D01*
X332000Y331552D01*
X330434Y331346D01*
X328974Y330741D01*
X327721Y329779D01*
X326759Y328526D01*
X326154Y327066D01*
X325948Y325500D01*
X326154Y323934D01*
X326759Y322474D01*
X327412Y321623D01*
Y234804D01*
X327761Y233049D01*
X328756Y231560D01*
X337060Y223256D01*
X338549Y222261D01*
X340304Y221912D01*
X416700D01*
Y217000D01*
X435700D01*
Y235723D01*
X446625D01*
X446697Y235363D01*
X446710Y234722D01*
X444825Y233275D01*
X443302Y231291D01*
X442345Y228980D01*
X442018Y226500D01*
X442345Y224020D01*
X443302Y221709D01*
X444825Y219725D01*
X446809Y218202D01*
X449120Y217244D01*
X451600Y216918D01*
X454080Y217244D01*
X456391Y218202D01*
X458376Y219725D01*
X459898Y221709D01*
X460855Y224020D01*
X461182Y226500D01*
X460855Y228980D01*
X459898Y231291D01*
X458376Y233275D01*
X456490Y234722D01*
X456503Y235363D01*
X456575Y235723D01*
X470128D01*
X470468Y234722D01*
X469511Y233989D01*
X467828Y231795D01*
X466770Y229241D01*
X466607Y228000D01*
X487393D01*
X487230Y229241D01*
X486172Y231795D01*
X484489Y233989D01*
X483532Y234722D01*
X483872Y235723D01*
X489086D01*
X490022Y234502D01*
X491276Y233540D01*
X492735Y232936D01*
X494302Y232729D01*
X495868Y232936D01*
X496833Y233336D01*
X497910Y232817D01*
X497957Y232465D01*
X498561Y231005D01*
X499523Y229752D01*
X500776Y228790D01*
X502236Y228186D01*
X503802Y227979D01*
X505368Y228186D01*
X506828Y228790D01*
X507783Y229523D01*
X508444Y228769D01*
X457025Y177351D01*
X455500Y177552D01*
X453934Y177346D01*
X452474Y176741D01*
X451221Y175779D01*
X450259Y174526D01*
X449655Y173066D01*
X449448Y171500D01*
X449655Y169934D01*
X450259Y168474D01*
X451221Y167221D01*
X452474Y166259D01*
X453849Y165690D01*
X454182Y164989D01*
X454278Y164704D01*
X436632Y147059D01*
X425596D01*
X425256Y148059D01*
X426775Y149225D01*
X428298Y151209D01*
X429255Y153520D01*
X429582Y156000D01*
X429255Y158480D01*
X428298Y160791D01*
X426775Y162775D01*
X424791Y164298D01*
X422480Y165255D01*
X420000Y165582D01*
X417520Y165255D01*
X415209Y164298D01*
X413224Y162775D01*
X411702Y160791D01*
X410745Y158480D01*
X410418Y156000D01*
X410745Y153520D01*
X411702Y151209D01*
X413224Y149225D01*
X414744Y148059D01*
X414404Y147059D01*
X407750D01*
X406580Y146826D01*
X405587Y146163D01*
X405587Y146163D01*
X400854Y141429D01*
X399907Y141896D01*
X400052Y143000D01*
X399846Y144566D01*
X399241Y146026D01*
X398279Y147279D01*
X397992Y147500D01*
Y148500D01*
X398279Y148721D01*
X399241Y149974D01*
X399846Y151434D01*
X400052Y153000D01*
X399846Y154566D01*
X399241Y156026D01*
X398279Y157279D01*
X397992Y157500D01*
Y158500D01*
X398279Y158721D01*
X399241Y159974D01*
X399846Y161434D01*
X400052Y163000D01*
X399846Y164566D01*
X399241Y166026D01*
X398279Y167279D01*
X397026Y168241D01*
X395566Y168846D01*
X394000Y169052D01*
X392434Y168846D01*
X390974Y168241D01*
X389721Y167279D01*
X388784Y166059D01*
X347125D01*
X323059Y190125D01*
Y346000D01*
X323059Y346000D01*
X322826Y347170D01*
X322163Y348163D01*
X322163Y348163D01*
X108201Y562125D01*
Y587879D01*
X108201Y587879D01*
X107968Y589050D01*
X107305Y590042D01*
X107305Y590042D01*
X99269Y598079D01*
X99312Y598168D01*
X99663Y599977D01*
X99534Y601816D01*
X98933Y603558D01*
X97902Y605086D01*
X96511Y606295D01*
X94854Y607102D01*
X93045Y607453D01*
X91206Y607324D01*
X89463Y606724D01*
X87936Y605692D01*
X86727Y604301D01*
X85919Y602644D01*
X85568Y600835D01*
X85697Y598996D01*
X86298Y597254D01*
X87329Y595726D01*
X88720Y594517D01*
X90377Y593710D01*
X92187Y593359D01*
X94025Y593488D01*
X94905Y593791D01*
X102083Y586612D01*
Y560858D01*
X102083Y560858D01*
X102316Y559687D01*
X102979Y558695D01*
X316941Y344733D01*
Y306762D01*
X316017Y306380D01*
X86431Y535966D01*
X86469Y536161D01*
X86236Y537331D01*
X85574Y538323D01*
X84581Y538987D01*
X83411Y539219D01*
X83177D01*
X61519Y560877D01*
X60527Y561541D01*
X59356Y561773D01*
X59356Y561773D01*
X59328D01*
X59293Y561874D01*
X58260Y563400D01*
X56867Y564608D01*
X55210Y565413D01*
X53400Y565762D01*
X51561Y565631D01*
X49820Y565029D01*
X48293Y563996D01*
X47086Y562603D01*
X46280Y560946D01*
X45931Y559136D01*
X46062Y557297D01*
X46665Y555555D01*
X47698Y554029D01*
X49090Y552822D01*
X50748Y552016D01*
X52558Y551667D01*
X54396Y551798D01*
X56138Y552401D01*
X57665Y553433D01*
X58237Y554094D01*
X59603Y554142D01*
X69684Y544062D01*
X69301Y543138D01*
X46188D01*
X15059Y574267D01*
Y598733D01*
X27144Y610818D01*
X30326D01*
X30360Y610719D01*
X31392Y609192D01*
X32785Y607985D01*
X34442Y607179D01*
X36252Y606829D01*
X38091Y606960D01*
X39833Y607562D01*
X41359Y608595D01*
X42567Y609987D01*
X43373Y611645D01*
X43723Y613454D01*
X43592Y615293D01*
X42990Y617035D01*
X41957Y618562D01*
X40565Y619769D01*
X38907Y620575D01*
X37097Y620925D01*
X35259Y620794D01*
X33517Y620192D01*
X31990Y619159D01*
X30783Y617767D01*
X30378Y616936D01*
X25877D01*
X25877Y616936D01*
X24706Y616703D01*
X23714Y616040D01*
X9837Y602163D01*
X9174Y601171D01*
X8941Y600000D01*
X8941Y600000D01*
Y576105D01*
X7941Y575970D01*
X6846Y579969D01*
X5867Y587100D01*
X5828Y594296D01*
X6728Y601437D01*
X8553Y608399D01*
X11270Y615063D01*
X14834Y621316D01*
X19184Y627050D01*
X24245Y632167D01*
X29931Y636579D01*
X36144Y640212D01*
X42778Y643003D01*
X49720Y644904D01*
X56850Y645882D01*
X64047Y645922D01*
X71187Y645022D01*
D02*
G37*
G36*
X968839Y638311D02*
X974774Y634239D01*
X980127Y629428D01*
X984806Y623960D01*
X988731Y617927D01*
X991836Y611434D01*
X994066Y604591D01*
X995384Y597516D01*
X995767Y590329D01*
X995209Y583154D01*
X993718Y576113D01*
X991322Y569326D01*
X988060Y562910D01*
X983989Y556976D01*
X979178Y551623D01*
X973710Y546944D01*
X967678Y543019D01*
X961037Y539844D01*
X869049Y503049D01*
X868870Y502932D01*
X868664Y502875D01*
X862594Y499826D01*
X862259Y499565D01*
X861874Y499384D01*
X856407Y495352D01*
X856122Y495038D01*
X855773Y494795D01*
X851068Y489895D01*
X850839Y489537D01*
X850537Y489239D01*
X846728Y483614D01*
X846563Y483222D01*
X846316Y482877D01*
X843515Y476688D01*
X843418Y476275D01*
X843233Y475893D01*
X841519Y469319D01*
X841494Y468895D01*
X841376Y468488D01*
X840799Y461718D01*
X840823Y461506D01*
X840781Y461297D01*
Y41217D01*
X840231Y34920D01*
X838651Y29025D01*
X836072Y23494D01*
X832571Y18494D01*
X828256Y14179D01*
X823256Y10678D01*
X817725Y8099D01*
X811830Y6519D01*
X805533Y5968D01*
X647429D01*
X647015Y6968D01*
X719523Y79477D01*
X720297Y80634D01*
X720569Y82000D01*
Y113175D01*
X720877Y113412D01*
X777618D01*
X777702Y113209D01*
X779225Y111224D01*
X781209Y109702D01*
X783520Y108744D01*
X786000Y108418D01*
X788480Y108744D01*
X790791Y109702D01*
X792775Y111224D01*
X794298Y113209D01*
X795256Y115520D01*
X795582Y118000D01*
X795256Y120480D01*
X794298Y122791D01*
X792775Y124775D01*
X790791Y126298D01*
X788480Y127255D01*
X786000Y127582D01*
X783520Y127255D01*
X781209Y126298D01*
X779225Y124775D01*
X777702Y122791D01*
X777618Y122588D01*
X720877D01*
X720026Y123241D01*
X718566Y123846D01*
X717000Y124052D01*
X715434Y123846D01*
X713974Y123241D01*
X712721Y122279D01*
X711759Y121026D01*
X711154Y119566D01*
X710948Y118000D01*
X711154Y116434D01*
X711759Y114974D01*
X712721Y113721D01*
X713431Y113175D01*
Y83478D01*
X642522Y12569D01*
X636788D01*
X636689Y13569D01*
X637366Y13703D01*
X638523Y14477D01*
X657523Y33477D01*
X658297Y34634D01*
X658569Y36000D01*
Y85522D01*
X712478Y139431D01*
X777195D01*
X777702Y138209D01*
X779225Y136224D01*
X781209Y134702D01*
X783520Y133744D01*
X786000Y133418D01*
X788480Y133744D01*
X790791Y134702D01*
X792775Y136224D01*
X794298Y138209D01*
X795256Y140520D01*
X795582Y143000D01*
X795256Y145480D01*
X795171Y145683D01*
X811244Y161756D01*
X812239Y163244D01*
X812588Y165000D01*
Y474100D01*
X870900Y532412D01*
X928181D01*
X929937Y532761D01*
X931425Y533756D01*
X949900Y552231D01*
X951241Y552214D01*
X953027Y552669D01*
X954634Y553571D01*
X955954Y554858D01*
X956895Y556443D01*
X957394Y558217D01*
X957417Y560060D01*
X956962Y561846D01*
X956060Y563454D01*
X954773Y564773D01*
X953188Y565714D01*
X951413Y566213D01*
X949570Y566236D01*
X947785Y565781D01*
X946177Y564879D01*
X944858Y563592D01*
X943917Y562007D01*
X943418Y560233D01*
X943399Y558707D01*
X926280Y541588D01*
X869000D01*
X867244Y541239D01*
X865756Y540244D01*
X804756Y479244D01*
X803761Y477756D01*
X803412Y476000D01*
Y166901D01*
X788683Y152171D01*
X788480Y152255D01*
X786000Y152582D01*
X783520Y152255D01*
X781209Y151298D01*
X779225Y149775D01*
X777702Y147791D01*
X777195Y146569D01*
X670500D01*
X669134Y146297D01*
X667977Y145523D01*
X603888Y81435D01*
X603000Y81552D01*
X601434Y81346D01*
X599974Y80741D01*
X598721Y79779D01*
X598176Y79068D01*
X574978D01*
X554523Y99523D01*
X553366Y100297D01*
X552000Y100569D01*
X519825D01*
X519279Y101279D01*
X518026Y102241D01*
X516566Y102845D01*
X515000Y103052D01*
X513434Y102845D01*
X511974Y102241D01*
X510721Y101279D01*
X509759Y100026D01*
X509155Y98566D01*
X508948Y97000D01*
X509155Y95434D01*
X509759Y93974D01*
X510721Y92721D01*
X511974Y91759D01*
X513434Y91154D01*
X515000Y90948D01*
X516566Y91154D01*
X518026Y91759D01*
X519279Y92721D01*
X519825Y93431D01*
X550522D01*
X555971Y87983D01*
X555588Y87059D01*
X493267D01*
X481059Y99267D01*
Y143733D01*
X489267Y151941D01*
X511284D01*
X512221Y150721D01*
X513474Y149759D01*
X514934Y149154D01*
X516500Y148948D01*
X518066Y149154D01*
X519526Y149759D01*
X520779Y150721D01*
X521741Y151974D01*
X522346Y153434D01*
X522552Y155000D01*
X522346Y156566D01*
X521741Y158026D01*
X520779Y159279D01*
X519526Y160241D01*
X518066Y160846D01*
X516500Y161052D01*
X514934Y160846D01*
X513474Y160241D01*
X512221Y159279D01*
X511284Y158059D01*
X488000D01*
X486829Y157826D01*
X485837Y157163D01*
X485837Y157163D01*
X475837Y147163D01*
X475174Y146171D01*
X474941Y145000D01*
X474941Y145000D01*
Y98000D01*
X474941Y98000D01*
X475174Y96829D01*
X475837Y95837D01*
X489366Y82309D01*
X488951Y81309D01*
X468716D01*
X467779Y82529D01*
X466526Y83491D01*
X465066Y84095D01*
X463500Y84302D01*
X461934Y84095D01*
X460474Y83491D01*
X459221Y82529D01*
X458259Y81276D01*
X457654Y79816D01*
X457448Y78250D01*
X457654Y76684D01*
X458259Y75224D01*
X459221Y73971D01*
X460474Y73009D01*
X461934Y72404D01*
X463500Y72198D01*
X465066Y72404D01*
X466526Y73009D01*
X467779Y73971D01*
X468716Y75191D01*
X525483D01*
X533399Y67275D01*
X533198Y65750D01*
X533404Y64184D01*
X534009Y62724D01*
X534971Y61471D01*
X536224Y60509D01*
X537684Y59904D01*
X539250Y59698D01*
X540816Y59904D01*
X542276Y60509D01*
X543529Y61471D01*
X544491Y62724D01*
X545096Y64184D01*
X545302Y65750D01*
X545096Y67316D01*
X544491Y68776D01*
X543529Y70029D01*
X542276Y70991D01*
X540816Y71596D01*
X539250Y71802D01*
X537725Y71601D01*
X529384Y79941D01*
X529799Y80941D01*
X555983D01*
X574087Y62837D01*
X574087Y62837D01*
X575079Y62174D01*
X576250Y61941D01*
X576250Y61941D01*
X606983D01*
X610941Y57983D01*
Y36466D01*
X609721Y35529D01*
X608759Y34276D01*
X608154Y32816D01*
X607948Y31250D01*
X608154Y29684D01*
X608759Y28224D01*
X609721Y26971D01*
X610974Y26009D01*
X612434Y25404D01*
X614000Y25198D01*
X615566Y25404D01*
X617026Y26009D01*
X618279Y26971D01*
X619241Y28224D01*
X619846Y29684D01*
X620052Y31250D01*
X619846Y32816D01*
X619241Y34276D01*
X618279Y35529D01*
X617059Y36466D01*
Y59250D01*
X617059Y59250D01*
X616826Y60420D01*
X616163Y61413D01*
X610413Y67163D01*
X609421Y67826D01*
X608250Y68059D01*
X608250Y68059D01*
X577517D01*
X574568Y71007D01*
X574951Y71931D01*
X598176D01*
X598721Y71221D01*
X599974Y70259D01*
X601434Y69654D01*
X603000Y69448D01*
X604566Y69654D01*
X606026Y70259D01*
X607279Y71221D01*
X608241Y72474D01*
X608846Y73934D01*
X609052Y75500D01*
X608935Y76388D01*
X671978Y139431D01*
X701078D01*
X701461Y138507D01*
X652477Y89523D01*
X651703Y88366D01*
X651431Y87000D01*
Y37478D01*
X634522Y20569D01*
X563825D01*
X563279Y21279D01*
X562026Y22241D01*
X560566Y22845D01*
X559000Y23052D01*
X557434Y22845D01*
X555974Y22241D01*
X554721Y21279D01*
X553759Y20026D01*
X553154Y18566D01*
X552948Y17000D01*
X553154Y15434D01*
X553759Y13974D01*
X554070Y13569D01*
X553577Y12569D01*
X454478D01*
X386935Y80112D01*
X387052Y81000D01*
X386846Y82566D01*
X386241Y84026D01*
X385279Y85279D01*
X384026Y86241D01*
X382566Y86846D01*
X381000Y87052D01*
X379434Y86846D01*
X377974Y86241D01*
X376721Y85279D01*
X375759Y84026D01*
X375154Y82566D01*
X374948Y81000D01*
X375154Y79434D01*
X375759Y77974D01*
X376721Y76721D01*
X377974Y75759D01*
X379434Y75154D01*
X381000Y74948D01*
X381888Y75065D01*
X449985Y6968D01*
X449571Y5968D01*
X275933D01*
X269745Y6500D01*
X263946Y8026D01*
X258492Y10518D01*
X253543Y13905D01*
X249245Y18087D01*
X245723Y22941D01*
X243082Y28324D01*
X241397Y34079D01*
X240672Y40462D01*
X240672Y40462D01*
X239916Y47175D01*
X239788Y47578D01*
X239752Y47999D01*
X237875Y54494D01*
X237680Y54869D01*
X237574Y55279D01*
X234630Y61365D01*
X234375Y61702D01*
X234201Y62087D01*
X230274Y67591D01*
X229966Y67880D01*
X229730Y68231D01*
X224932Y72994D01*
X224580Y73228D01*
X224288Y73534D01*
X218756Y77421D01*
X218370Y77592D01*
X218031Y77844D01*
X211923Y80744D01*
X211513Y80847D01*
X211136Y81039D01*
X204628Y82869D01*
X204207Y82901D01*
X203803Y83027D01*
X197079Y83734D01*
X196658Y83696D01*
X196239Y83751D01*
X189492Y83316D01*
X189084Y83207D01*
X188661Y83192D01*
X182084Y81626D01*
X181700Y81450D01*
X181286Y81364D01*
X175067Y78713D01*
X174718Y78475D01*
X174324Y78320D01*
X168640Y74659D01*
X168487Y74511D01*
X168296Y74417D01*
X94476Y17514D01*
X88365Y13411D01*
X81917Y10214D01*
X75107Y7885D01*
X68052Y6466D01*
X60871Y5979D01*
X53689Y6434D01*
X46627Y7823D01*
X39806Y10121D01*
X33635Y13147D01*
X33959Y14103D01*
X34770Y13941D01*
X63676D01*
X63676Y13941D01*
X64847Y14174D01*
X65839Y14837D01*
X80892Y29890D01*
X82290Y29519D01*
X84134Y29523D01*
X85913Y30004D01*
X87507Y30929D01*
X88808Y32235D01*
X89726Y33833D01*
X90199Y35614D01*
X90195Y37457D01*
X89714Y39237D01*
X88789Y40831D01*
X87483Y42132D01*
X85885Y43050D01*
X84104Y43523D01*
X82261Y43519D01*
X80481Y43038D01*
X78887Y42113D01*
X77587Y40807D01*
X76668Y39209D01*
X76195Y37428D01*
X76199Y35584D01*
X76568Y34218D01*
X72575Y30225D01*
X71774Y30838D01*
X71826Y30929D01*
X72367Y32965D01*
X72366Y33558D01*
X66051Y32713D01*
X66896Y26398D01*
X67469Y26553D01*
X67517Y26581D01*
X68131Y25781D01*
X62409Y20059D01*
X36037D01*
X17059Y39037D01*
Y60438D01*
X18059Y60537D01*
X18174Y59957D01*
X18837Y58965D01*
X21699Y56104D01*
X21327Y54704D01*
X21331Y52861D01*
X21812Y51082D01*
X22738Y49488D01*
X24044Y48188D01*
X25642Y47270D01*
X27423Y46797D01*
X29267Y46801D01*
X31046Y47282D01*
X32640Y48207D01*
X33940Y49513D01*
X34858Y51111D01*
X35331Y52893D01*
X35327Y54736D01*
X34846Y56515D01*
X33921Y58109D01*
X32615Y59410D01*
X31016Y60328D01*
X29235Y60801D01*
X27392Y60797D01*
X26026Y60427D01*
X24059Y62395D01*
Y83054D01*
X38624Y97619D01*
X64451D01*
X64915Y96619D01*
X64195Y95365D01*
X63722Y93584D01*
X63726Y91741D01*
X64207Y89962D01*
X65132Y88367D01*
X66439Y87067D01*
X68037Y86149D01*
X69818Y85676D01*
X71661Y85680D01*
X73441Y86161D01*
X75035Y87086D01*
X76335Y88392D01*
X77253Y89991D01*
X77726Y91772D01*
X77723Y93119D01*
X78513Y94119D01*
X244605D01*
X254637Y84087D01*
X255630Y83424D01*
X256800Y83191D01*
X257525Y83335D01*
X258250Y83191D01*
X307250D01*
X307250Y83191D01*
X308421Y83424D01*
X309413Y84087D01*
X317475Y92149D01*
X319000Y91948D01*
X320566Y92155D01*
X322026Y92759D01*
X323279Y93721D01*
X323500Y94009D01*
X324500D01*
X324721Y93721D01*
X325974Y92759D01*
X327434Y92155D01*
X329000Y91948D01*
X330566Y92155D01*
X332026Y92759D01*
X333279Y93721D01*
X334241Y94974D01*
X334846Y96434D01*
X335052Y98000D01*
X334846Y99566D01*
X334241Y101026D01*
X333279Y102279D01*
X332059Y103216D01*
Y123233D01*
X340017Y131191D01*
X380373D01*
X380914Y130298D01*
X380909Y130191D01*
X379721Y129279D01*
X378759Y128026D01*
X378154Y126566D01*
X377948Y125000D01*
X378154Y123434D01*
X378759Y121974D01*
X379721Y120721D01*
X380974Y119759D01*
X382434Y119154D01*
X384000Y118948D01*
X385566Y119154D01*
X387026Y119759D01*
X388279Y120721D01*
X389216Y121941D01*
X394733D01*
X398191Y118483D01*
Y104250D01*
X398191Y104250D01*
X398424Y103079D01*
X399087Y102087D01*
X451337Y49837D01*
X452329Y49174D01*
X453500Y48941D01*
X453500Y48941D01*
X597034D01*
X597971Y47721D01*
X599224Y46759D01*
X600684Y46154D01*
X602250Y45948D01*
X603816Y46154D01*
X605276Y46759D01*
X606529Y47721D01*
X607491Y48974D01*
X608096Y50434D01*
X608302Y52000D01*
X608096Y53566D01*
X607491Y55026D01*
X606529Y56279D01*
X605276Y57241D01*
X603816Y57846D01*
X602250Y58052D01*
X600684Y57846D01*
X599224Y57241D01*
X597971Y56279D01*
X597034Y55059D01*
X454767D01*
X404309Y105517D01*
Y119750D01*
X404309Y119750D01*
X404076Y120920D01*
X403413Y121913D01*
X403413Y121913D01*
X398163Y127163D01*
X397171Y127826D01*
X396000Y128059D01*
X396000Y128059D01*
X389216D01*
X388279Y129279D01*
X387091Y130191D01*
X387086Y130298D01*
X387627Y131191D01*
X398000D01*
X398000Y131191D01*
X399171Y131424D01*
X400163Y132087D01*
X409017Y140941D01*
X410117D01*
X410500Y140100D01*
X410500Y139941D01*
Y121100D01*
X429500D01*
Y139941D01*
X429500Y140100D01*
X429883Y140941D01*
X437899D01*
X437900Y140941D01*
X439070Y141174D01*
X440062Y141837D01*
X532166Y233941D01*
X653000D01*
X653000Y233941D01*
X654171Y234174D01*
X655163Y234837D01*
X751163Y330837D01*
X751163Y330837D01*
X751826Y331829D01*
X752059Y333000D01*
Y496783D01*
X815460Y560185D01*
X916208D01*
X916866Y559013D01*
X918153Y557694D01*
X919738Y556754D01*
X921513Y556255D01*
X923356Y556233D01*
X925142Y556689D01*
X926749Y557591D01*
X928068Y558879D01*
X929008Y560464D01*
X929507Y562238D01*
X929529Y564081D01*
X929073Y565867D01*
X928171Y567474D01*
X926883Y568793D01*
X925298Y569734D01*
X923524Y570232D01*
X921681Y570254D01*
X919895Y569799D01*
X918288Y568896D01*
X916969Y567609D01*
X916194Y566302D01*
X817935D01*
X817552Y567226D01*
X851767Y601441D01*
X891450D01*
X891450Y601441D01*
X892620Y601674D01*
X893613Y602337D01*
X908888Y617613D01*
X919518D01*
X920175Y616442D01*
X921462Y615123D01*
X923047Y614182D01*
X924822Y613683D01*
X926665Y613661D01*
X928451Y614116D01*
X930058Y615018D01*
X931377Y616305D01*
X932318Y617890D01*
X932817Y619664D01*
X932840Y621507D01*
X932384Y623293D01*
X931482Y624901D01*
X930195Y626220D01*
X928610Y627161D01*
X926836Y627660D01*
X924993Y627682D01*
X923207Y627227D01*
X921599Y626325D01*
X920280Y625038D01*
X919504Y623730D01*
X911363D01*
X910980Y624654D01*
X922267Y635941D01*
X960733D01*
X980941Y615733D01*
Y600444D01*
X976208Y595710D01*
X974916Y596073D01*
X973073Y596096D01*
X971287Y595641D01*
X969680Y594739D01*
X968360Y593452D01*
X967419Y591867D01*
X966920Y590093D01*
X966898Y588250D01*
X967353Y586464D01*
X968254Y584856D01*
X969542Y583537D01*
X971126Y582596D01*
X972901Y582097D01*
X974744Y582074D01*
X976530Y582529D01*
X978137Y583431D01*
X979456Y584718D01*
X980398Y586303D01*
X980897Y588077D01*
X980919Y589920D01*
X980544Y591395D01*
X986163Y597014D01*
X986826Y598006D01*
X987059Y599177D01*
X987059Y599177D01*
Y617000D01*
X987059Y617000D01*
X986826Y618171D01*
X986163Y619163D01*
X986163Y619163D01*
X967383Y637943D01*
X967970Y638752D01*
X968839Y638311D01*
D02*
G37*
%LPC*%
G36*
X786000Y227582D02*
X783520Y227255D01*
X781209Y226298D01*
X779225Y224775D01*
X777702Y222791D01*
X776745Y220480D01*
X776418Y218000D01*
X776745Y215520D01*
X777702Y213209D01*
X779225Y211224D01*
X781209Y209702D01*
X783520Y208745D01*
X786000Y208418D01*
X788480Y208745D01*
X790791Y209702D01*
X792775Y211224D01*
X794298Y213209D01*
X795256Y215520D01*
X795582Y218000D01*
X795256Y220480D01*
X794298Y222791D01*
X792775Y224775D01*
X790791Y226298D01*
X788480Y227255D01*
X786000Y227582D01*
D02*
G37*
G36*
X733000D02*
X730520Y227255D01*
X728209Y226298D01*
X726225Y224775D01*
X724702Y222791D01*
X723745Y220480D01*
X723418Y218000D01*
X723745Y215520D01*
X724702Y213209D01*
X726225Y211224D01*
X728209Y209702D01*
X730520Y208745D01*
X733000Y208418D01*
X735480Y208745D01*
X737791Y209702D01*
X739775Y211224D01*
X741298Y213209D01*
X742255Y215520D01*
X742582Y218000D01*
X742255Y220480D01*
X741298Y222791D01*
X739775Y224775D01*
X737791Y226298D01*
X735480Y227255D01*
X733000Y227582D01*
D02*
G37*
G36*
X475500Y225000D02*
X466607D01*
X466770Y223759D01*
X467828Y221205D01*
X469511Y219011D01*
X471705Y217328D01*
X474259Y216270D01*
X475500Y216107D01*
Y225000D01*
D02*
G37*
G36*
X487393D02*
X478500D01*
Y216107D01*
X479741Y216270D01*
X482295Y217328D01*
X484489Y219011D01*
X486172Y221205D01*
X487230Y223759D01*
X487393Y225000D01*
D02*
G37*
G36*
X362750Y210302D02*
X361184Y210096D01*
X359724Y209491D01*
X358471Y208529D01*
X357509Y207276D01*
X356904Y205816D01*
X356698Y204250D01*
X356904Y202684D01*
X357509Y201224D01*
X358471Y199971D01*
X359724Y199009D01*
X361184Y198405D01*
X362750Y198198D01*
X364316Y198405D01*
X365776Y199009D01*
X367029Y199971D01*
X367991Y201224D01*
X368596Y202684D01*
X368802Y204250D01*
X368596Y205816D01*
X367991Y207276D01*
X367029Y208529D01*
X365776Y209491D01*
X364316Y210096D01*
X362750Y210302D01*
D02*
G37*
G36*
X576500Y104363D02*
Y99000D01*
X581863D01*
X581820Y99327D01*
X581115Y101030D01*
X579992Y102492D01*
X578530Y103614D01*
X576827Y104320D01*
X576500Y104363D01*
D02*
G37*
G36*
X573500D02*
X573173Y104320D01*
X571470Y103614D01*
X570008Y102492D01*
X568886Y101030D01*
X568180Y99327D01*
X568137Y99000D01*
X573500D01*
Y104363D01*
D02*
G37*
G36*
X581863Y96000D02*
X576500D01*
Y90637D01*
X576827Y90680D01*
X578530Y91385D01*
X579992Y92507D01*
X581115Y93970D01*
X581820Y95673D01*
X581863Y96000D01*
D02*
G37*
G36*
X733000Y202582D02*
X730520Y202255D01*
X728209Y201298D01*
X726225Y199775D01*
X724702Y197791D01*
X724088Y196309D01*
X641250D01*
X641250Y196309D01*
X640079Y196076D01*
X639087Y195413D01*
X579125Y135451D01*
X577600Y135652D01*
X576034Y135446D01*
X574574Y134841D01*
X573321Y133879D01*
X572359Y132626D01*
X571754Y131166D01*
X571548Y129600D01*
X571754Y128034D01*
X572359Y126574D01*
X573321Y125321D01*
X574574Y124359D01*
X576034Y123754D01*
X577600Y123548D01*
X579166Y123754D01*
X580626Y124359D01*
X581879Y125321D01*
X582841Y126574D01*
X583446Y128034D01*
X583652Y129600D01*
X583451Y131125D01*
X642517Y190191D01*
X723881D01*
X724702Y188209D01*
X726225Y186224D01*
X728209Y184702D01*
X730520Y183745D01*
X733000Y183418D01*
X735480Y183745D01*
X737791Y184702D01*
X739775Y186224D01*
X741298Y188209D01*
X742255Y190520D01*
X742582Y193000D01*
X742255Y195480D01*
X741298Y197791D01*
X739775Y199775D01*
X737791Y201298D01*
X735480Y202255D01*
X733000Y202582D01*
D02*
G37*
G36*
X786000D02*
X783520Y202255D01*
X781209Y201298D01*
X779225Y199775D01*
X777702Y197791D01*
X776745Y195480D01*
X776418Y193000D01*
X776745Y190520D01*
X777702Y188209D01*
X779225Y186224D01*
X781209Y184702D01*
X783520Y183745D01*
X786000Y183418D01*
X788480Y183745D01*
X790791Y184702D01*
X792775Y186224D01*
X794298Y188209D01*
X795256Y190520D01*
X795582Y193000D01*
X795256Y195480D01*
X794298Y197791D01*
X792775Y199775D01*
X790791Y201298D01*
X788480Y202255D01*
X786000Y202582D01*
D02*
G37*
G36*
Y177582D02*
X783520Y177255D01*
X781209Y176298D01*
X779225Y174775D01*
X777702Y172791D01*
X776745Y170480D01*
X776418Y168000D01*
X776745Y165520D01*
X777702Y163209D01*
X779225Y161224D01*
X781209Y159702D01*
X783520Y158744D01*
X786000Y158418D01*
X788480Y158744D01*
X790791Y159702D01*
X792775Y161224D01*
X794298Y163209D01*
X795256Y165520D01*
X795582Y168000D01*
X795256Y170480D01*
X794298Y172791D01*
X792775Y174775D01*
X790791Y176298D01*
X788480Y177255D01*
X786000Y177582D01*
D02*
G37*
G36*
X796500Y241500D02*
X787500D01*
Y232500D01*
X796500D01*
Y241500D01*
D02*
G37*
G36*
X784500D02*
X775500D01*
Y232500D01*
X784500D01*
Y241500D01*
D02*
G37*
G36*
X743500Y241500D02*
X734500D01*
Y232500D01*
X743500D01*
Y241500D01*
D02*
G37*
G36*
X731500Y253500D02*
X722500D01*
Y244500D01*
X731500D01*
Y253500D01*
D02*
G37*
G36*
X796500D02*
X787500D01*
Y244500D01*
X796500D01*
Y253500D01*
D02*
G37*
G36*
X784500D02*
X775500D01*
Y244500D01*
X784500D01*
Y253500D01*
D02*
G37*
G36*
X166500Y229863D02*
X166173Y229820D01*
X164470Y229114D01*
X163008Y227992D01*
X161886Y226530D01*
X161180Y224827D01*
X161137Y224500D01*
X166500D01*
Y229863D01*
D02*
G37*
G36*
X174863Y221500D02*
X169500D01*
Y216137D01*
X169827Y216180D01*
X171530Y216886D01*
X172992Y218008D01*
X174114Y219470D01*
X174820Y221173D01*
X174863Y221500D01*
D02*
G37*
G36*
X166500D02*
X161137D01*
X161180Y221173D01*
X161886Y219470D01*
X163008Y218008D01*
X164470Y216886D01*
X166173Y216180D01*
X166500Y216137D01*
Y221500D01*
D02*
G37*
G36*
X731500Y241500D02*
X722500D01*
Y232500D01*
X731500D01*
Y241500D01*
D02*
G37*
G36*
X253000Y331552D02*
X251434Y331346D01*
X249974Y330741D01*
X248721Y329779D01*
X247759Y328526D01*
X247154Y327066D01*
X246948Y325500D01*
X247154Y323934D01*
X247759Y322474D01*
X248412Y321623D01*
Y286901D01*
X231756Y270244D01*
X161756Y200244D01*
X160761Y198756D01*
X160412Y197000D01*
Y144877D01*
X159759Y144026D01*
X159154Y142566D01*
X158948Y141000D01*
X159154Y139434D01*
X159759Y137974D01*
X160721Y136721D01*
X161974Y135759D01*
X163434Y135154D01*
X165000Y134948D01*
X165888Y135065D01*
X177477Y123477D01*
X178634Y122703D01*
X180000Y122431D01*
X274175D01*
X274721Y121721D01*
X275974Y120759D01*
X277434Y120154D01*
X279000Y119948D01*
X280566Y120154D01*
X282026Y120759D01*
X283279Y121721D01*
X284241Y122974D01*
X284846Y124434D01*
X285052Y126000D01*
X284846Y127566D01*
X284241Y129026D01*
X283279Y130279D01*
X282026Y131241D01*
X280566Y131846D01*
X279000Y132052D01*
X277434Y131846D01*
X275974Y131241D01*
X274721Y130279D01*
X274175Y129569D01*
X181478D01*
X170935Y140112D01*
X171052Y141000D01*
X170846Y142566D01*
X170241Y144026D01*
X169588Y144877D01*
Y195100D01*
X235000Y260511D01*
X261014Y234497D01*
X261154Y233434D01*
X261759Y231974D01*
X262721Y230721D01*
X263974Y229759D01*
X265434Y229154D01*
X267000Y228948D01*
X268566Y229154D01*
X270026Y229759D01*
X271279Y230721D01*
X272241Y231974D01*
X272846Y233434D01*
X273052Y235000D01*
X272846Y236566D01*
X272241Y238026D01*
X271279Y239279D01*
X270026Y240241D01*
X268566Y240846D01*
X267503Y240986D01*
X241489Y267000D01*
X256244Y281756D01*
X257239Y283244D01*
X257588Y285000D01*
Y321623D01*
X258241Y322474D01*
X258846Y323934D01*
X259052Y325500D01*
X258846Y327066D01*
X258241Y328526D01*
X257279Y329779D01*
X256026Y330741D01*
X254566Y331346D01*
X253000Y331552D01*
D02*
G37*
G36*
X169500Y229863D02*
Y224500D01*
X174863D01*
X174820Y224827D01*
X174114Y226530D01*
X172992Y227992D01*
X171530Y229114D01*
X169827Y229820D01*
X169500Y229863D01*
D02*
G37*
G36*
X573500Y96000D02*
X568137D01*
X568180Y95673D01*
X568886Y93970D01*
X570008Y92507D01*
X571470Y91385D01*
X573173Y90680D01*
X573500Y90637D01*
Y96000D01*
D02*
G37*
G36*
X94830Y69584D02*
X92987Y69580D01*
X91208Y69099D01*
X89614Y68174D01*
X88314Y66868D01*
X87395Y65270D01*
X86922Y63488D01*
X86926Y61645D01*
X87408Y59866D01*
X88333Y58272D01*
X89639Y56971D01*
X91237Y56053D01*
X93019Y55580D01*
X94862Y55584D01*
X96641Y56066D01*
X98235Y56991D01*
X99535Y58297D01*
X100453Y59895D01*
X100927Y61676D01*
X100922Y63520D01*
X100441Y65299D01*
X99516Y66893D01*
X98210Y68193D01*
X96612Y69111D01*
X94830Y69584D01*
D02*
G37*
G36*
X65401Y42003D02*
X64808Y42002D01*
X65653Y35687D01*
X71968Y36532D01*
X71813Y37105D01*
X70756Y38927D01*
X69263Y40413D01*
X67437Y41462D01*
X65401Y42003D01*
D02*
G37*
G36*
X61834Y41604D02*
X61261Y41449D01*
X59439Y40392D01*
X57953Y38899D01*
X56904Y37073D01*
X56363Y35037D01*
X56364Y34444D01*
X62679Y35289D01*
X61834Y41604D01*
D02*
G37*
G36*
X27711Y72978D02*
X27558Y72404D01*
X27563Y70297D01*
X28113Y68264D01*
X29170Y66442D01*
X30663Y64956D01*
X31178Y64661D01*
X33603Y70553D01*
X27711Y72978D01*
D02*
G37*
G36*
X36377Y69411D02*
X33952Y63519D01*
X34525Y63366D01*
X36632Y63371D01*
X38665Y63921D01*
X40487Y64978D01*
X41973Y66471D01*
X42269Y66986D01*
X36377Y69411D01*
D02*
G37*
G36*
X786000Y77582D02*
X783520Y77255D01*
X781209Y76298D01*
X779225Y74775D01*
X777702Y72791D01*
X776745Y70480D01*
X776418Y68000D01*
X776745Y65520D01*
X777702Y63209D01*
X779225Y61224D01*
X781209Y59702D01*
X783520Y58745D01*
X786000Y58418D01*
X788480Y58745D01*
X790791Y59702D01*
X792775Y61224D01*
X794298Y63209D01*
X795256Y65520D01*
X795582Y68000D01*
X795256Y70480D01*
X794298Y72791D01*
X792775Y74775D01*
X790791Y76298D01*
X788480Y77255D01*
X786000Y77582D01*
D02*
G37*
G36*
X46439Y38483D02*
X44596Y38479D01*
X42817Y37998D01*
X41223Y37073D01*
X39922Y35767D01*
X39004Y34169D01*
X38531Y32387D01*
X38535Y30544D01*
X39016Y28765D01*
X39941Y27171D01*
X41247Y25870D01*
X42845Y24952D01*
X44626Y24479D01*
X46469Y24483D01*
X48249Y24964D01*
X49843Y25889D01*
X51143Y27195D01*
X52062Y28793D01*
X52535Y30574D01*
X52531Y32417D01*
X52050Y34197D01*
X51125Y35791D01*
X49819Y37091D01*
X48221Y38009D01*
X46439Y38483D01*
D02*
G37*
G36*
X529863Y28500D02*
X524500D01*
Y23137D01*
X524827Y23180D01*
X526530Y23886D01*
X527992Y25008D01*
X529114Y26470D01*
X529820Y28173D01*
X529863Y28500D01*
D02*
G37*
G36*
X521500D02*
X516137D01*
X516180Y28173D01*
X516885Y26470D01*
X518008Y25008D01*
X519470Y23886D01*
X521173Y23180D01*
X521500Y23137D01*
Y28500D01*
D02*
G37*
G36*
X524500Y36863D02*
Y31500D01*
X529863D01*
X529820Y31827D01*
X529114Y33530D01*
X527992Y34992D01*
X526530Y36114D01*
X524827Y36820D01*
X524500Y36863D01*
D02*
G37*
G36*
X521500D02*
X521173Y36820D01*
X519470Y36114D01*
X518008Y34992D01*
X516885Y33530D01*
X516180Y31827D01*
X516137Y31500D01*
X521500D01*
Y36863D01*
D02*
G37*
G36*
X63077Y32315D02*
X56762Y31470D01*
X56917Y30897D01*
X57974Y29075D01*
X59467Y27589D01*
X61293Y26539D01*
X63329Y25999D01*
X63922Y26000D01*
X63077Y32315D01*
D02*
G37*
G36*
X43698Y95941D02*
X41855Y95937D01*
X40075Y95456D01*
X38481Y94530D01*
X37181Y93224D01*
X36263Y91626D01*
X35790Y89845D01*
X35794Y88001D01*
X36275Y86222D01*
X37200Y84628D01*
X38507Y83328D01*
X40105Y82410D01*
X41886Y81937D01*
X43729Y81941D01*
X45509Y82422D01*
X47103Y83347D01*
X48403Y84653D01*
X49321Y86252D01*
X49794Y88033D01*
X49790Y89876D01*
X49309Y91655D01*
X48384Y93250D01*
X47077Y94550D01*
X45479Y95468D01*
X43698Y95941D01*
D02*
G37*
G36*
X83360Y85632D02*
X81253Y85628D01*
X79220Y85078D01*
X78706Y84780D01*
X82597Y79734D01*
X87643Y83624D01*
X87222Y84043D01*
X85396Y85092D01*
X83360Y85632D01*
D02*
G37*
G36*
X411863Y81500D02*
X406500D01*
Y76137D01*
X406827Y76180D01*
X408530Y76885D01*
X409992Y78007D01*
X411115Y79470D01*
X411820Y81173D01*
X411863Y81500D01*
D02*
G37*
G36*
X406500Y89863D02*
Y84500D01*
X411863D01*
X411820Y84827D01*
X411115Y86530D01*
X409992Y87992D01*
X408530Y89115D01*
X406827Y89820D01*
X406500Y89863D01*
D02*
G37*
G36*
X403500D02*
X403173Y89820D01*
X401470Y89115D01*
X400008Y87992D01*
X398885Y86530D01*
X398180Y84827D01*
X398137Y84500D01*
X403500D01*
Y89863D01*
D02*
G37*
G36*
X786000Y102582D02*
X783520Y102255D01*
X781209Y101298D01*
X779225Y99775D01*
X777702Y97791D01*
X776745Y95480D01*
X776418Y93000D01*
X776745Y90520D01*
X777702Y88209D01*
X779225Y86224D01*
X781209Y84702D01*
X783520Y83744D01*
X786000Y83418D01*
X788480Y83744D01*
X790791Y84702D01*
X792775Y86224D01*
X794298Y88209D01*
X795256Y90520D01*
X795582Y93000D01*
X795256Y95480D01*
X794298Y97791D01*
X792775Y99775D01*
X790791Y101298D01*
X788480Y102255D01*
X786000Y102582D01*
D02*
G37*
G36*
X89474Y81248D02*
X84428Y77358D01*
X88318Y72312D01*
X88737Y72732D01*
X89786Y74559D01*
X90327Y76595D01*
X90322Y78701D01*
X89772Y80735D01*
X89474Y81248D01*
D02*
G37*
G36*
X39944Y78077D02*
X37519Y72185D01*
X43411Y69760D01*
X43563Y70334D01*
X43558Y72440D01*
X43008Y74473D01*
X41951Y76295D01*
X40458Y77781D01*
X39944Y78077D01*
D02*
G37*
G36*
X82052Y75526D02*
X77006Y71636D01*
X77427Y71218D01*
X79253Y70168D01*
X81289Y69628D01*
X83395Y69633D01*
X85429Y70182D01*
X85942Y70480D01*
X82052Y75526D01*
D02*
G37*
G36*
X403500Y81500D02*
X398137D01*
X398180Y81173D01*
X398885Y79470D01*
X400008Y78007D01*
X401470Y76885D01*
X403173Y76180D01*
X403500Y76137D01*
Y81500D01*
D02*
G37*
G36*
X76330Y82949D02*
X75912Y82528D01*
X74863Y80701D01*
X74322Y78665D01*
X74327Y76559D01*
X74876Y74526D01*
X75174Y74012D01*
X80221Y77902D01*
X76330Y82949D01*
D02*
G37*
G36*
X36596Y79371D02*
X34489Y79366D01*
X32456Y78817D01*
X30634Y77759D01*
X29148Y76266D01*
X28852Y75752D01*
X34744Y73327D01*
X37169Y79219D01*
X36596Y79371D01*
D02*
G37*
G36*
X743500Y253500D02*
X734500D01*
Y244500D01*
X743500D01*
Y253500D01*
D02*
G37*
G36*
X911141Y587634D02*
X910623Y587343D01*
X909116Y585872D01*
X908041Y584060D01*
X907471Y582032D01*
X907446Y579926D01*
X907593Y579351D01*
X913508Y581718D01*
X911141Y587634D01*
D02*
G37*
G36*
X961202Y582167D02*
X959161Y581647D01*
X957324Y580617D01*
X956899Y580202D01*
X961906Y576261D01*
X965847Y581268D01*
X965337Y581571D01*
X963309Y582141D01*
X961202Y582167D01*
D02*
G37*
G36*
X78651Y583459D02*
X78538Y582876D01*
X78685Y580775D01*
X79372Y578783D01*
X80550Y577038D01*
X82141Y575656D01*
X82674Y575396D01*
X84694Y581439D01*
X78651Y583459D01*
D02*
G37*
G36*
X914501Y588895D02*
X913926Y588749D01*
X916293Y582833D01*
X922209Y585201D01*
X921918Y585718D01*
X920447Y587225D01*
X918635Y588301D01*
X916607Y588870D01*
X914501Y588895D01*
D02*
G37*
G36*
X90510Y589376D02*
X88490Y583333D01*
X94533Y581313D01*
X94646Y581896D01*
X94499Y583997D01*
X93812Y585988D01*
X92634Y587734D01*
X91044Y589116D01*
X90510Y589376D01*
D02*
G37*
G36*
X28180Y594187D02*
X26342Y594056D01*
X24600Y593453D01*
X23073Y592421D01*
X21866Y591028D01*
X21060Y589370D01*
X20711Y587560D01*
X20842Y585722D01*
X21445Y583980D01*
X22478Y582453D01*
X23870Y581246D01*
X25528Y580441D01*
X27338Y580092D01*
X29176Y580223D01*
X30918Y580825D01*
X32445Y581858D01*
X33652Y583251D01*
X34458Y584908D01*
X34807Y586718D01*
X34676Y588557D01*
X34073Y590299D01*
X33040Y591825D01*
X31648Y593032D01*
X29990Y593838D01*
X28180Y594187D01*
D02*
G37*
G36*
X914623Y578933D02*
X908708Y576566D01*
X908998Y576048D01*
X910470Y574541D01*
X912281Y573466D01*
X914309Y572896D01*
X916415Y572871D01*
X916991Y573018D01*
X914623Y578933D01*
D02*
G37*
G36*
X968204Y579413D02*
X964264Y574406D01*
X969270Y570465D01*
X969573Y570975D01*
X970144Y573003D01*
X970169Y575110D01*
X969649Y577151D01*
X968619Y578988D01*
X968204Y579413D01*
D02*
G37*
G36*
X955044Y577845D02*
X954741Y577335D01*
X954171Y575307D01*
X954145Y573200D01*
X954665Y571159D01*
X955695Y569322D01*
X956110Y568897D01*
X960051Y573904D01*
X955044Y577845D01*
D02*
G37*
G36*
X40850Y580982D02*
X38749Y580832D01*
X36758Y580143D01*
X36267Y579810D01*
X40495Y575045D01*
X45262Y579273D01*
X44813Y579662D01*
X42919Y580583D01*
X40850Y580982D01*
D02*
G37*
G36*
X87539Y580488D02*
X85519Y574445D01*
X86102Y574332D01*
X88203Y574479D01*
X90195Y575166D01*
X91941Y576344D01*
X93322Y577934D01*
X93582Y578468D01*
X87539Y580488D01*
D02*
G37*
G36*
X923324Y582416D02*
X917408Y580048D01*
X919776Y574133D01*
X920293Y574423D01*
X921801Y575895D01*
X922876Y577706D01*
X923445Y579734D01*
X923470Y581841D01*
X923324Y582416D01*
D02*
G37*
G36*
X52241Y625098D02*
X51680Y624904D01*
X49935Y623724D01*
X48555Y622133D01*
X47634Y620238D01*
X47234Y618170D01*
X47276Y617578D01*
X53519Y618856D01*
X52241Y625098D01*
D02*
G37*
G36*
X74326Y628545D02*
X72487Y628414D01*
X70745Y627812D01*
X69218Y626779D01*
X68011Y625387D01*
X67205Y623729D01*
X66855Y621920D01*
X66986Y620081D01*
X67588Y618339D01*
X68621Y616812D01*
X70013Y615605D01*
X71670Y614799D01*
X73480Y614449D01*
X75319Y614580D01*
X77061Y615182D01*
X78587Y616215D01*
X79795Y617607D01*
X80601Y619265D01*
X80951Y621074D01*
X80820Y622913D01*
X80218Y624655D01*
X79185Y626182D01*
X77793Y627389D01*
X76135Y628195D01*
X74326Y628545D01*
D02*
G37*
G36*
X936629Y617600D02*
X936622Y617006D01*
X937143Y614965D01*
X938173Y613128D01*
X939645Y611620D01*
X941456Y610545D01*
X942027Y610384D01*
X942936Y616691D01*
X936629Y617600D01*
D02*
G37*
G36*
X943679Y625974D02*
X941638Y625453D01*
X939801Y624423D01*
X938293Y622952D01*
X937218Y621140D01*
X937057Y620569D01*
X943364Y619660D01*
X944273Y625967D01*
X943679Y625974D01*
D02*
G37*
G36*
X55772Y625742D02*
X55180Y625699D01*
X56458Y619457D01*
X62700Y620735D01*
X62506Y621296D01*
X61326Y623041D01*
X59734Y624421D01*
X57840Y625342D01*
X55772Y625742D01*
D02*
G37*
G36*
X947242Y625539D02*
X946333Y619232D01*
X952639Y618324D01*
X952647Y618917D01*
X952126Y620958D01*
X951096Y622795D01*
X949624Y624303D01*
X947813Y625378D01*
X947242Y625539D01*
D02*
G37*
G36*
X962604Y622262D02*
X960818Y621807D01*
X959211Y620905D01*
X957892Y619618D01*
X956951Y618033D01*
X956452Y616259D01*
X956430Y614416D01*
X956885Y612630D01*
X957787Y611022D01*
X959074Y609703D01*
X960659Y608762D01*
X962433Y608263D01*
X964276Y608241D01*
X966062Y608696D01*
X967670Y609598D01*
X968989Y610885D01*
X969930Y612470D01*
X970428Y614245D01*
X970451Y616088D01*
X969996Y617874D01*
X969094Y619481D01*
X967806Y620800D01*
X966222Y621741D01*
X964447Y622240D01*
X962604Y622262D01*
D02*
G37*
G36*
X907561Y605533D02*
X905775Y605078D01*
X904168Y604175D01*
X902849Y602888D01*
X901908Y601303D01*
X901410Y599528D01*
X901388Y597685D01*
X901843Y595899D01*
X902746Y594292D01*
X904033Y592973D01*
X905618Y592033D01*
X907393Y591535D01*
X909236Y591512D01*
X911022Y591968D01*
X912629Y592870D01*
X913948Y594158D01*
X914888Y595743D01*
X915387Y597517D01*
X915409Y599360D01*
X914953Y601146D01*
X914051Y602753D01*
X912763Y604072D01*
X911178Y605013D01*
X909404Y605511D01*
X907561Y605533D01*
D02*
G37*
G36*
X87082Y590440D02*
X84981Y590293D01*
X82990Y589606D01*
X81244Y588428D01*
X79862Y586838D01*
X79602Y586304D01*
X85645Y584284D01*
X87665Y590327D01*
X87082Y590440D01*
D02*
G37*
G36*
X63301Y617796D02*
X57059Y616518D01*
X58337Y610276D01*
X58898Y610470D01*
X60643Y611650D01*
X62023Y613241D01*
X62944Y615136D01*
X63343Y617204D01*
X63301Y617796D01*
D02*
G37*
G36*
X945905Y616263D02*
X944996Y609957D01*
X945590Y609949D01*
X947631Y610470D01*
X949468Y611501D01*
X950976Y612972D01*
X952051Y614783D01*
X952212Y615354D01*
X945905Y616263D01*
D02*
G37*
G36*
X54120Y615917D02*
X47878Y614639D01*
X48072Y614078D01*
X49252Y612333D01*
X50843Y610953D01*
X52738Y610032D01*
X54806Y609632D01*
X55398Y609674D01*
X54120Y615917D01*
D02*
G37*
G36*
X34023Y577820D02*
X33634Y577371D01*
X32713Y575476D01*
X32314Y573408D01*
X32464Y571307D01*
X33153Y569316D01*
X33485Y568825D01*
X38251Y573054D01*
X34023Y577820D01*
D02*
G37*
G36*
X227500Y484871D02*
Y478500D01*
X233871D01*
X233794Y479088D01*
X232988Y481035D01*
X231706Y482706D01*
X230035Y483988D01*
X228088Y484794D01*
X227500Y484871D01*
D02*
G37*
G36*
X224500D02*
X223912Y484794D01*
X221966Y483988D01*
X220294Y482706D01*
X219012Y481035D01*
X218206Y479088D01*
X218129Y478500D01*
X224500D01*
Y484871D01*
D02*
G37*
G36*
X233871Y475500D02*
X227500D01*
Y469128D01*
X228088Y469206D01*
X230035Y470012D01*
X231706Y471294D01*
X232988Y472966D01*
X233794Y474912D01*
X233871Y475500D01*
D02*
G37*
G36*
X188500Y516871D02*
X187912Y516794D01*
X185965Y515988D01*
X184294Y514706D01*
X183012Y513035D01*
X182206Y511088D01*
X182129Y510500D01*
X188500D01*
Y516871D01*
D02*
G37*
G36*
X197871Y507500D02*
X191500D01*
Y501129D01*
X192088Y501206D01*
X194035Y502012D01*
X195706Y503294D01*
X196988Y504966D01*
X197794Y506912D01*
X197871Y507500D01*
D02*
G37*
G36*
X188500D02*
X182129D01*
X182206Y506912D01*
X183012Y504966D01*
X184294Y503294D01*
X185965Y502012D01*
X187912Y501206D01*
X188500Y501129D01*
Y507500D01*
D02*
G37*
G36*
X80998Y571413D02*
X79159Y571284D01*
X77417Y570684D01*
X75889Y569652D01*
X74680Y568261D01*
X73872Y566604D01*
X73521Y564795D01*
X73650Y562956D01*
X74251Y561214D01*
X75282Y559686D01*
X76674Y558477D01*
X78330Y557670D01*
X80140Y557319D01*
X81063Y557383D01*
X226602Y411844D01*
X226180Y410827D01*
X225940Y409000D01*
X226180Y407173D01*
X226886Y405470D01*
X228008Y404007D01*
X229470Y402886D01*
X231173Y402180D01*
X233000Y401940D01*
X234827Y402180D01*
X236530Y402886D01*
X237992Y404007D01*
X239114Y405470D01*
X239820Y407173D01*
X240060Y409000D01*
X239820Y410827D01*
X239114Y412530D01*
X237992Y413992D01*
X236530Y415115D01*
X236152Y415271D01*
X87595Y563828D01*
X87616Y563937D01*
X87487Y565776D01*
X86886Y567518D01*
X85855Y569046D01*
X84464Y570255D01*
X82807Y571062D01*
X80998Y571413D01*
D02*
G37*
G36*
X318863Y400500D02*
X313500D01*
Y395137D01*
X313827Y395180D01*
X315530Y395886D01*
X316992Y397007D01*
X318114Y398470D01*
X318820Y400173D01*
X318863Y400500D01*
D02*
G37*
G36*
X310500D02*
X305137D01*
X305180Y400173D01*
X305886Y398470D01*
X307008Y397007D01*
X308470Y395886D01*
X310173Y395180D01*
X310500Y395137D01*
Y400500D01*
D02*
G37*
G36*
X224500Y475500D02*
X218129D01*
X218206Y474912D01*
X219012Y472966D01*
X220294Y471294D01*
X221966Y470012D01*
X223912Y469206D01*
X224500Y469128D01*
Y475500D01*
D02*
G37*
G36*
X313500Y408863D02*
Y403500D01*
X318863D01*
X318820Y403827D01*
X318114Y405530D01*
X316992Y406992D01*
X315530Y408114D01*
X313827Y408820D01*
X313500Y408863D01*
D02*
G37*
G36*
X310500D02*
X310173Y408820D01*
X308470Y408114D01*
X307008Y406992D01*
X305886Y405530D01*
X305180Y403827D01*
X305137Y403500D01*
X310500D01*
Y408863D01*
D02*
G37*
G36*
X227500Y548871D02*
Y542500D01*
X233871D01*
X233794Y543088D01*
X232988Y545034D01*
X231706Y546706D01*
X230035Y547988D01*
X228088Y548794D01*
X227500Y548871D01*
D02*
G37*
G36*
X224500D02*
X223912Y548794D01*
X221966Y547988D01*
X220294Y546706D01*
X219012Y545034D01*
X218206Y543088D01*
X218129Y542500D01*
X224500D01*
Y548871D01*
D02*
G37*
G36*
X155500D02*
Y542500D01*
X161871D01*
X161794Y543088D01*
X160988Y545034D01*
X159706Y546706D01*
X158034Y547988D01*
X156088Y548794D01*
X155500Y548871D01*
D02*
G37*
G36*
X47252Y577029D02*
X42487Y572800D01*
X46715Y568034D01*
X47104Y568483D01*
X48025Y570377D01*
X48424Y572446D01*
X48274Y574547D01*
X47585Y576538D01*
X47252Y577029D01*
D02*
G37*
G36*
X962408Y572049D02*
X958467Y567042D01*
X958978Y566739D01*
X961005Y566169D01*
X963112Y566143D01*
X965153Y566663D01*
X966990Y567693D01*
X967415Y568108D01*
X962408Y572049D01*
D02*
G37*
G36*
X40242Y570809D02*
X35476Y566581D01*
X35925Y566192D01*
X37819Y565271D01*
X39888Y564872D01*
X41989Y565022D01*
X43980Y565711D01*
X44471Y566043D01*
X40242Y570809D01*
D02*
G37*
G36*
X161871Y539500D02*
X155500D01*
Y533128D01*
X156088Y533206D01*
X158034Y534012D01*
X159706Y535294D01*
X160988Y536965D01*
X161794Y538912D01*
X161871Y539500D01*
D02*
G37*
G36*
X152500D02*
X146129D01*
X146206Y538912D01*
X147012Y536965D01*
X148294Y535294D01*
X149965Y534012D01*
X151912Y533206D01*
X152500Y533128D01*
Y539500D01*
D02*
G37*
G36*
X191500Y516871D02*
Y510500D01*
X197871D01*
X197794Y511088D01*
X196988Y513035D01*
X195706Y514706D01*
X194035Y515988D01*
X192088Y516794D01*
X191500Y516871D01*
D02*
G37*
G36*
X152500Y548871D02*
X151912Y548794D01*
X149965Y547988D01*
X148294Y546706D01*
X147012Y545034D01*
X146206Y543088D01*
X146129Y542500D01*
X152500D01*
Y548871D01*
D02*
G37*
G36*
X233871Y539500D02*
X227500D01*
Y533128D01*
X228088Y533206D01*
X230035Y534012D01*
X231706Y535294D01*
X232988Y536965D01*
X233794Y538912D01*
X233871Y539500D01*
D02*
G37*
G36*
X224500D02*
X218129D01*
X218206Y538912D01*
X219012Y536965D01*
X220294Y535294D01*
X221966Y534012D01*
X223912Y533206D01*
X224500Y533128D01*
Y539500D01*
D02*
G37*
%LPD*%
D24*
X498300Y249632D02*
X501472Y246460D01*
X344882Y249632D02*
X498300D01*
X341750Y246500D02*
X344882Y249632D01*
X491402Y245781D02*
X497201D01*
X488253Y242632D02*
X491402Y245781D01*
X352382Y242632D02*
X488253D01*
X497201Y245781D02*
X503802Y239180D01*
X358431Y238781D02*
X494302D01*
X355281Y235632D02*
X358431Y238781D01*
X343194Y235632D02*
X355281D01*
X342325Y236500D02*
X343194Y235632D01*
X503802Y234031D02*
Y239180D01*
X501472Y246460D02*
X652561D01*
X742000Y335899D01*
Y501000D01*
X973908Y589085D02*
X984000Y599177D01*
X907621Y620672D02*
X925829D01*
X745500Y334450D02*
Y499500D01*
X742000Y501000D02*
X849000Y608000D01*
X890000D01*
X921000Y639000D01*
X745500Y499500D02*
X850500Y604500D01*
X891450D01*
X907621Y620672D01*
X984000Y599177D02*
Y617000D01*
X921000Y639000D02*
X962000D01*
X984000Y617000D01*
X407750Y144000D02*
X437900D01*
X398000Y134250D02*
X407750Y144000D01*
X307250Y86250D02*
X319000Y98000D01*
X258250Y86250D02*
X307250D01*
X14000Y37770D02*
X34770Y17000D01*
X63676D01*
X83197Y36521D01*
X14000Y37770D02*
Y82271D01*
X35907Y104178D01*
X248772D01*
X21000Y61128D02*
Y84321D01*
Y61128D02*
X28329Y53799D01*
X21000Y84321D02*
X37357Y100678D01*
X247322D02*
X258250Y89750D01*
X37357Y100678D02*
X247322D01*
X245872Y97178D02*
X256800Y86250D01*
X70724Y92678D02*
X75224Y97178D01*
X245872D01*
X248772Y104178D02*
X254950Y98000D01*
X299000D01*
X258250Y89750D02*
X300750D01*
X309000Y98000D01*
X329000D02*
Y124500D01*
X338750Y134250D01*
X398000D01*
X732750Y193250D02*
X733000Y193000D01*
X453500Y52000D02*
X602250D01*
X401250Y104250D02*
X453500Y52000D01*
X401250Y104250D02*
Y119750D01*
X396000Y125000D02*
X401250Y119750D01*
X384000Y125000D02*
X396000D01*
X463500Y78250D02*
X526750D01*
X539250Y65750D01*
X576250Y65000D02*
X608250D01*
X614000Y59250D01*
Y31250D02*
Y59250D01*
X749000Y498050D02*
X814193Y563244D01*
X922518D01*
X577600Y129600D02*
X641250Y193250D01*
X732750D01*
X320000Y188858D02*
X345858Y163000D01*
X316500Y182358D02*
X345858Y153000D01*
X313000Y175858D02*
X345858Y143000D01*
X394000D01*
X12000Y573000D02*
X44921Y540079D01*
X12000Y573000D02*
Y600000D01*
X25877Y613877D01*
X36675D01*
X345858Y153000D02*
X394000D01*
X345858Y163000D02*
X394000D01*
X651550Y240500D02*
X745500Y334450D01*
X749000Y333000D02*
Y498050D01*
X437900Y144000D02*
X530900Y237000D01*
X653000D01*
X749000Y333000D01*
X455500Y171500D02*
X524500Y240500D01*
X651550D01*
X313000Y175858D02*
Y298000D01*
X52979Y558715D02*
X59356D01*
X557250Y84000D02*
X576250Y65000D01*
X492000Y84000D02*
X557250D01*
X478000Y98000D02*
X492000Y84000D01*
X478000Y98000D02*
Y145000D01*
X488000Y155000D01*
X516500D01*
X103750Y506750D02*
X104000Y507000D01*
X313000Y298000D01*
X81911Y536161D02*
X83411D01*
X92616Y600406D02*
X105142Y587879D01*
X59356Y558715D02*
X81911Y536161D01*
X316500Y182358D02*
Y301571D01*
X44921Y540079D02*
X70921D01*
X104000Y507000D01*
X81911Y536161D02*
X316500Y301571D01*
X105142Y560858D02*
Y587879D01*
Y560858D02*
X320000Y346000D01*
Y188858D02*
Y346000D01*
D26*
X340304Y226500D02*
X426200D01*
X332000Y234804D02*
X340304Y226500D01*
X332000Y234804D02*
Y325500D01*
X786000Y143000D02*
X808000Y165000D01*
Y476000D01*
X869000Y537000D01*
X928181D01*
X950406Y559225D01*
X717000Y118000D02*
X786000D01*
X165000Y141000D02*
Y197000D01*
X253000Y285000D02*
Y325500D01*
X238000Y264000D02*
X267000Y235000D01*
X238000Y264000D02*
Y264000D01*
X235000Y267000D02*
X238000Y264000D01*
X165000Y197000D02*
X235000Y267000D01*
X253000Y285000D01*
X80569Y564366D02*
X233000Y411935D01*
Y409000D02*
Y411935D01*
D28*
X603000Y75500D02*
X670500Y143000D01*
X655000Y87000D02*
X711000Y143000D01*
X655000Y36000D02*
Y87000D01*
X636000Y17000D02*
X655000Y36000D01*
X670500Y143000D02*
X711000D01*
X786000D01*
X559000Y17000D02*
X636000D01*
X180000Y126000D02*
X279000D01*
X165000Y141000D02*
X180000Y126000D01*
X381000Y81000D02*
X453000Y9000D01*
X644000D01*
X717000Y82000D01*
Y118000D01*
X515000Y97000D02*
X552000D01*
X573500Y75500D01*
X603000D01*
D29*
X540750Y431000D02*
D03*
D30*
X620750Y396000D02*
D03*
X505750Y351000D02*
D03*
X460750Y466000D02*
D03*
X575750Y511000D02*
D03*
D31*
X36675Y613877D02*
D03*
X55289Y617687D02*
D03*
X73903Y621497D02*
D03*
X27759Y587139D02*
D03*
X40369Y572927D02*
D03*
X52979Y558715D02*
D03*
X92616Y600406D02*
D03*
X86592Y582386D02*
D03*
X80569Y564366D02*
D03*
X45533Y31481D02*
D03*
X64365Y34001D02*
D03*
X83197Y36521D02*
D03*
X28329Y53799D02*
D03*
X35561Y71369D02*
D03*
X42792Y88939D02*
D03*
X93925Y62582D02*
D03*
X82324Y77630D02*
D03*
X70724Y92678D02*
D03*
X925829Y620672D02*
D03*
X944634Y617962D02*
D03*
X963440Y615252D02*
D03*
X908398Y598523D02*
D03*
X915458Y580883D02*
D03*
X922518Y563244D02*
D03*
X973908Y589085D02*
D03*
X962157Y574155D02*
D03*
X950406Y559225D02*
D03*
X154000Y541000D02*
D03*
X226000D02*
D03*
Y477000D02*
D03*
X190000Y509000D02*
D03*
X233000Y409000D02*
D03*
D32*
X420000Y156000D02*
D03*
X477000Y226500D02*
D03*
X451600D02*
D03*
X786000Y193000D02*
D03*
Y218000D02*
D03*
Y168000D02*
D03*
Y143000D02*
D03*
Y118000D02*
D03*
Y93000D02*
D03*
Y68000D02*
D03*
X733000Y193000D02*
D03*
Y218000D02*
D03*
D33*
X420000Y130600D02*
D03*
X786000Y243000D02*
D03*
X733000D02*
D03*
D34*
X426200Y226500D02*
D03*
D35*
X352382Y242632D02*
D03*
X342325Y236500D02*
D03*
X341750Y246500D02*
D03*
X503802Y234031D02*
D03*
X494302Y238781D02*
D03*
X523000Y30000D02*
D03*
X312000Y402000D02*
D03*
X455500Y171500D02*
D03*
X602250Y52000D02*
D03*
X299000Y98000D02*
D03*
X329000D02*
D03*
X319000D02*
D03*
X309000D02*
D03*
X577600Y129600D02*
D03*
X384000Y125000D02*
D03*
X463500Y78250D02*
D03*
X539250Y65750D02*
D03*
X516500Y155000D02*
D03*
X614000Y31250D02*
D03*
X559000Y17000D02*
D03*
X279000Y126000D02*
D03*
X165000Y141000D02*
D03*
X603000Y75500D02*
D03*
X717000Y118000D02*
D03*
X394000Y143000D02*
D03*
Y153000D02*
D03*
Y163000D02*
D03*
X253000Y325500D02*
D03*
X381000Y81000D02*
D03*
X332000Y325500D02*
D03*
X168000Y223000D02*
D03*
X405000Y83000D02*
D03*
X515000Y97000D02*
D03*
X267000Y235000D02*
D03*
X575000Y97500D02*
D03*
M02*
